G04 EAGLE Gerber RS-274X export*
G75*
%MOMM*%
%FSLAX34Y34*%
%LPD*%
%INTop Copper*%
%IPPOS*%
%AMOC8*
5,1,8,0,0,1.08239X$1,22.5*%
G01*
%ADD10P,1.649562X8X22.500000*%
%ADD11P,1.649562X8X202.500000*%
%ADD12C,0.152400*%
%ADD13C,0.254000*%


D10*
X50000Y50000D03*
X100000Y50000D03*
X150000Y50000D03*
X200000Y50000D03*
X250000Y50000D03*
X300000Y50000D03*
X350000Y50000D03*
X400000Y50000D03*
X50000Y100000D03*
X100000Y100000D03*
X150000Y100000D03*
X200000Y100000D03*
X250000Y100000D03*
X300000Y100000D03*
X350000Y100000D03*
X400000Y100000D03*
X50000Y150000D03*
X100000Y150000D03*
X150000Y150000D03*
X200000Y150000D03*
X250000Y150000D03*
X300000Y150000D03*
X350000Y150000D03*
X400000Y150000D03*
X50000Y200000D03*
X100000Y200000D03*
X150000Y200000D03*
X200000Y200000D03*
X250000Y200000D03*
X300000Y200000D03*
X350000Y200000D03*
X400000Y200000D03*
X50000Y250000D03*
X100000Y250000D03*
X150000Y250000D03*
X200000Y250000D03*
X250000Y250000D03*
X300000Y250000D03*
X350000Y250000D03*
X400000Y250000D03*
X50000Y300000D03*
X100000Y300000D03*
X150000Y300000D03*
X200000Y300000D03*
X250000Y300000D03*
X300000Y300000D03*
X350000Y300000D03*
X400000Y300000D03*
X50000Y350000D03*
X100000Y350000D03*
X150000Y350000D03*
X200000Y350000D03*
X250000Y350000D03*
X300000Y350000D03*
X350000Y350000D03*
X400000Y350000D03*
X50000Y400000D03*
X100000Y400000D03*
X150000Y400000D03*
X200000Y400000D03*
X250000Y400000D03*
X300000Y400000D03*
X350000Y400000D03*
X400000Y400000D03*
D11*
X420000Y30000D03*
X420000Y80000D03*
X420000Y130000D03*
X420000Y180000D03*
X420000Y230000D03*
X420000Y330000D03*
X420000Y280000D03*
X420000Y380000D03*
D10*
X14500Y74700D03*
X39900Y74700D03*
X65300Y74700D03*
X90700Y74700D03*
X116100Y74700D03*
X141500Y74700D03*
X166900Y74700D03*
X192300Y74700D03*
X217700Y74700D03*
X243100Y74700D03*
X268500Y74700D03*
X293900Y74700D03*
X319300Y74700D03*
X344700Y74700D03*
X370100Y74700D03*
X395500Y74700D03*
X14500Y124700D03*
X39900Y124700D03*
X65300Y124700D03*
X90700Y124700D03*
X116100Y124700D03*
X141500Y124700D03*
X166900Y124700D03*
X192300Y124700D03*
X217700Y124700D03*
X243100Y124700D03*
X268500Y124700D03*
X293900Y124700D03*
X319300Y124700D03*
X344700Y124700D03*
X370100Y124700D03*
X395500Y124700D03*
X14500Y324700D03*
X39900Y324700D03*
X65300Y324700D03*
X90700Y324700D03*
X116100Y324700D03*
X141500Y324700D03*
X166900Y324700D03*
X192300Y324700D03*
X217700Y324700D03*
X243100Y324700D03*
X268500Y324700D03*
X293900Y324700D03*
X319300Y324700D03*
X344700Y324700D03*
X370100Y324700D03*
X395500Y324700D03*
X14500Y374700D03*
X39900Y374700D03*
X65300Y374700D03*
X90700Y374700D03*
X116100Y374700D03*
X141500Y374700D03*
X166900Y374700D03*
X192300Y374700D03*
X217700Y374700D03*
X243100Y374700D03*
X268500Y374700D03*
X293900Y374700D03*
X319300Y374700D03*
X344700Y374700D03*
X370100Y374700D03*
X395500Y374700D03*
X311900Y18700D03*
X337300Y18700D03*
X362700Y18700D03*
X388100Y18700D03*
X311900Y431700D03*
X337300Y431700D03*
X362700Y431700D03*
X388100Y431700D03*
D12*
X50000Y50000D02*
X39200Y50000D01*
X14500Y74700D01*
X64600Y50000D02*
X100000Y50000D01*
X64600Y50000D02*
X39900Y74700D01*
X113650Y50000D02*
X150000Y50000D01*
X113650Y50000D02*
X103998Y59652D01*
X80348Y59652D02*
X65300Y74700D01*
X80348Y59652D02*
X103998Y59652D01*
X163650Y50000D02*
X200000Y50000D01*
X163650Y50000D02*
X153998Y59652D01*
X108048Y59652D01*
X93000Y74700D02*
X90700Y74700D01*
X93000Y74700D02*
X108048Y59652D01*
X207640Y84760D02*
X217700Y74700D01*
X86350Y100000D02*
X50000Y100000D01*
X86350Y100000D02*
X101590Y84760D01*
X207640Y84760D01*
X50000Y150000D02*
X39800Y150000D01*
X14500Y124700D01*
X157248Y328698D02*
X162902Y334352D01*
X86350Y300000D02*
X50000Y300000D01*
X86350Y300000D02*
X96002Y309652D01*
X140102Y309652D02*
X157248Y326798D01*
X157248Y328698D01*
X140102Y309652D02*
X96002Y309652D01*
X208048Y334352D02*
X217700Y324700D01*
X208048Y334352D02*
X162902Y334352D01*
X50000Y350000D02*
X39200Y350000D01*
X14500Y374700D01*
X100000Y100000D02*
X136350Y100000D01*
X146002Y90348D01*
X191452Y90348D01*
X230246Y87554D02*
X243100Y74700D01*
X194246Y87554D02*
X191452Y90348D01*
X194246Y87554D02*
X230246Y87554D01*
X100000Y150000D02*
X65200Y150000D01*
X39900Y124700D01*
X100000Y300000D02*
X136350Y300000D01*
X146002Y309652D01*
X192051Y309652D02*
X194845Y312446D01*
X230846Y312446D02*
X243100Y324700D01*
X230846Y312446D02*
X194845Y312446D01*
X192051Y309652D02*
X146002Y309652D01*
X100000Y350000D02*
X64600Y350000D01*
X39900Y374700D01*
X233100Y384700D02*
X243100Y374700D01*
X233100Y384700D02*
X197400Y384700D01*
X192140Y389960D01*
X136350Y400000D02*
X100000Y400000D01*
X136350Y400000D02*
X146390Y389960D01*
X192140Y389960D01*
X186350Y100000D02*
X150000Y100000D01*
X186350Y100000D02*
X196002Y90348D01*
X241102Y90348D01*
X256750Y74700D02*
X268500Y74700D01*
X256750Y74700D02*
X241102Y90348D01*
X150000Y150000D02*
X113650Y150000D01*
X103998Y140348D01*
X80948Y140348D02*
X65300Y124700D01*
X80948Y140348D02*
X103998Y140348D01*
X150000Y300000D02*
X186350Y300000D01*
X196002Y309652D01*
X242051Y309652D02*
X244845Y312446D01*
X256246Y312446D02*
X268500Y324700D01*
X242051Y309652D02*
X196002Y309652D01*
X244845Y312446D02*
X256246Y312446D01*
X150000Y350000D02*
X113650Y350000D01*
X103998Y359652D01*
X80348Y359652D02*
X65300Y374700D01*
X80348Y359652D02*
X103998Y359652D01*
X255646Y387554D02*
X268500Y374700D01*
X186350Y400000D02*
X150000Y400000D01*
X186350Y400000D02*
X198796Y387554D01*
X255646Y387554D01*
X253998Y90348D02*
X246002Y90348D01*
X236350Y100000D02*
X200000Y100000D01*
X236350Y100000D02*
X246002Y90348D01*
X253998Y90348D02*
X254150Y90500D01*
X278100Y90500D02*
X293900Y74700D01*
X278100Y90500D02*
X254150Y90500D01*
X108054Y140254D02*
X92500Y124700D01*
X90700Y124700D01*
X163650Y150000D02*
X200000Y150000D01*
X163650Y150000D02*
X153904Y140254D01*
X108054Y140254D01*
X200000Y300000D02*
X236350Y300000D01*
X246002Y309652D01*
X278852Y309652D02*
X293900Y324700D01*
X278852Y309652D02*
X246002Y309652D01*
X108154Y359746D02*
X93200Y374700D01*
X90700Y374700D01*
X163650Y350000D02*
X200000Y350000D01*
X163650Y350000D02*
X153904Y359746D01*
X108154Y359746D01*
X200000Y400000D02*
X236350Y400000D01*
X246002Y390348D01*
X278252Y390348D02*
X293900Y374700D01*
X278252Y390348D02*
X246002Y390348D01*
X250000Y50000D02*
X213650Y50000D01*
X203998Y59652D01*
X158148Y59652D01*
X128354Y62446D02*
X116100Y74700D01*
X155354Y62446D02*
X158148Y59652D01*
X155354Y62446D02*
X128354Y62446D01*
X296002Y90348D02*
X303652Y90348D01*
X319300Y74700D01*
X286350Y100000D02*
X250000Y100000D01*
X286350Y100000D02*
X296002Y90348D01*
X128660Y137260D02*
X116100Y124700D01*
X214000Y150000D02*
X250000Y150000D01*
X214000Y150000D02*
X204200Y140200D01*
X158050Y140200D01*
X155110Y137260D01*
X128660Y137260D01*
X250000Y300000D02*
X286350Y300000D01*
X296002Y309652D01*
X304252Y309652D02*
X319300Y324700D01*
X304252Y309652D02*
X296002Y309652D01*
X158160Y359740D02*
X155300Y362600D01*
X128200Y362600D01*
X116100Y374700D01*
X213750Y350000D02*
X250000Y350000D01*
X213750Y350000D02*
X204010Y359740D01*
X158160Y359740D01*
X296002Y390348D02*
X303652Y390348D01*
X319300Y374700D01*
X286350Y400000D02*
X250000Y400000D01*
X286350Y400000D02*
X296002Y390348D01*
X156511Y65240D02*
X159305Y62446D01*
X150960Y65240D02*
X141500Y74700D01*
X150960Y65240D02*
X156511Y65240D01*
X263700Y50000D02*
X300000Y50000D01*
X263700Y50000D02*
X254000Y59700D01*
X208550Y59700D01*
X205804Y62446D01*
X159305Y62446D01*
X300000Y100000D02*
X319400Y100000D01*
X344700Y74700D01*
X300000Y150000D02*
X263800Y150000D01*
X253800Y140000D01*
X208000Y140000D01*
X205306Y137306D01*
X159107Y137306D02*
X156267Y134466D01*
X151266Y134466D02*
X141500Y124700D01*
X151266Y134466D02*
X156267Y134466D01*
X159107Y137306D02*
X205306Y137306D01*
X300000Y300000D02*
X320000Y300000D01*
X344700Y324700D01*
X159317Y362534D02*
X156457Y365394D01*
X150806Y365394D02*
X141500Y374700D01*
X150806Y365394D02*
X156457Y365394D01*
X263650Y350000D02*
X300000Y350000D01*
X263650Y350000D02*
X253975Y359675D01*
X205400Y362534D02*
X159317Y362534D01*
X208259Y359675D02*
X253975Y359675D01*
X208259Y359675D02*
X205400Y362534D01*
X300000Y400000D02*
X319400Y400000D01*
X344700Y374700D01*
X350000Y100000D02*
X350000Y94800D01*
X370100Y74700D01*
X340348Y140348D02*
X350000Y150000D01*
X258099Y140348D02*
X254957Y137206D01*
X209157Y137206D02*
X206463Y134512D01*
X176712Y134512D02*
X166900Y124700D01*
X258099Y140348D02*
X340348Y140348D01*
X254957Y137206D02*
X209157Y137206D01*
X206463Y134512D02*
X176712Y134512D01*
X350000Y300000D02*
X370100Y320100D01*
X370100Y324700D01*
X370100Y379900D02*
X350000Y400000D01*
X370100Y379900D02*
X370100Y374700D01*
X384952Y65048D02*
X400000Y50000D01*
X204050Y74700D02*
X192300Y74700D01*
X204050Y74700D02*
X213702Y65048D01*
X384952Y65048D01*
X400000Y79200D02*
X400000Y100000D01*
X400000Y79200D02*
X395500Y74700D01*
X354352Y120702D02*
X348698Y115048D01*
X384352Y134352D02*
X400000Y150000D01*
X354352Y122602D02*
X354352Y120702D01*
X204050Y124700D02*
X192300Y124700D01*
X366102Y134352D02*
X384352Y134352D01*
X366102Y134352D02*
X354352Y122602D01*
X213702Y115048D02*
X204050Y124700D01*
X213702Y115048D02*
X348698Y115048D01*
X400000Y300000D02*
X395500Y304500D01*
X395500Y324700D01*
X209416Y362469D02*
X206557Y365328D01*
X201672Y365328D02*
X192300Y374700D01*
X201672Y365328D02*
X206557Y365328D01*
X363650Y350000D02*
X400000Y350000D01*
X363650Y350000D02*
X353998Y340348D01*
X323302Y340348D01*
X301181Y362469D01*
X209416Y362469D01*
X400000Y379200D02*
X400000Y400000D01*
X400000Y379200D02*
X395500Y374700D01*
D13*
X420000Y80000D02*
X420000Y49757D01*
X348332Y18700D02*
X337300Y18700D01*
X362302Y32670D02*
X402913Y32670D01*
X362302Y32670D02*
X348332Y18700D01*
X402913Y32670D02*
X420000Y49757D01*
X439078Y110922D02*
X420000Y130000D01*
X373732Y18700D02*
X362700Y18700D01*
X383892Y28860D02*
X404492Y28860D01*
X383892Y28860D02*
X373732Y18700D01*
X439078Y63446D02*
X439078Y110922D01*
X439078Y63446D02*
X404492Y28860D01*
X442888Y157112D02*
X420000Y180000D01*
X442888Y20400D02*
X429600Y7112D01*
X399688Y7112D01*
X388100Y18700D01*
X442888Y20400D02*
X442888Y157112D01*
X420000Y230000D02*
X442888Y252888D01*
X442888Y425512D02*
X425512Y442888D01*
X323088Y442888D01*
X311900Y431700D01*
X442888Y425512D02*
X442888Y252888D01*
X391292Y364540D02*
X385340Y370492D01*
X385340Y383660D02*
X337300Y431700D01*
X385340Y383660D02*
X385340Y370492D01*
X420000Y344368D02*
X420000Y330000D01*
X420000Y344368D02*
X399828Y364540D01*
X391292Y364540D01*
X420000Y380000D02*
X420000Y413000D01*
X401300Y431700D01*
X388100Y431700D01*
M02*
