G04 EAGLE Gerber RS-274X export*
G75*
%MOMM*%
%FSLAX34Y34*%
%LPD*%
%INBottom Copper*%
%IPPOS*%
%AMOC8*
5,1,8,0,0,1.08239X$1,22.5*%
G01*
%ADD10P,1.649562X8X22.500000*%
%ADD11P,1.649562X8X202.500000*%
%ADD12C,0.152400*%
%ADD13C,0.254000*%


D10*
X50000Y50000D03*
X100000Y50000D03*
X150000Y50000D03*
X200000Y50000D03*
X250000Y50000D03*
X300000Y50000D03*
X350000Y50000D03*
X400000Y50000D03*
X50000Y100000D03*
X100000Y100000D03*
X150000Y100000D03*
X200000Y100000D03*
X250000Y100000D03*
X300000Y100000D03*
X350000Y100000D03*
X400000Y100000D03*
X50000Y150000D03*
X100000Y150000D03*
X150000Y150000D03*
X200000Y150000D03*
X250000Y150000D03*
X300000Y150000D03*
X350000Y150000D03*
X400000Y150000D03*
X50000Y200000D03*
X100000Y200000D03*
X150000Y200000D03*
X200000Y200000D03*
X250000Y200000D03*
X300000Y200000D03*
X350000Y200000D03*
X400000Y200000D03*
X50000Y250000D03*
X100000Y250000D03*
X150000Y250000D03*
X200000Y250000D03*
X250000Y250000D03*
X300000Y250000D03*
X350000Y250000D03*
X400000Y250000D03*
X50000Y300000D03*
X100000Y300000D03*
X150000Y300000D03*
X200000Y300000D03*
X250000Y300000D03*
X300000Y300000D03*
X350000Y300000D03*
X400000Y300000D03*
X50000Y350000D03*
X100000Y350000D03*
X150000Y350000D03*
X200000Y350000D03*
X250000Y350000D03*
X300000Y350000D03*
X350000Y350000D03*
X400000Y350000D03*
X50000Y400000D03*
X100000Y400000D03*
X150000Y400000D03*
X200000Y400000D03*
X250000Y400000D03*
X300000Y400000D03*
X350000Y400000D03*
X400000Y400000D03*
D11*
X420000Y30000D03*
X420000Y80000D03*
X420000Y130000D03*
X420000Y180000D03*
X420000Y230000D03*
X420000Y330000D03*
X420000Y280000D03*
X420000Y380000D03*
D10*
X14500Y74700D03*
X39900Y74700D03*
X65300Y74700D03*
X90700Y74700D03*
X116100Y74700D03*
X141500Y74700D03*
X166900Y74700D03*
X192300Y74700D03*
X217700Y74700D03*
X243100Y74700D03*
X268500Y74700D03*
X293900Y74700D03*
X319300Y74700D03*
X344700Y74700D03*
X370100Y74700D03*
X395500Y74700D03*
X14500Y124700D03*
X39900Y124700D03*
X65300Y124700D03*
X90700Y124700D03*
X116100Y124700D03*
X141500Y124700D03*
X166900Y124700D03*
X192300Y124700D03*
X217700Y124700D03*
X243100Y124700D03*
X268500Y124700D03*
X293900Y124700D03*
X319300Y124700D03*
X344700Y124700D03*
X370100Y124700D03*
X395500Y124700D03*
X14500Y324700D03*
X39900Y324700D03*
X65300Y324700D03*
X90700Y324700D03*
X116100Y324700D03*
X141500Y324700D03*
X166900Y324700D03*
X192300Y324700D03*
X217700Y324700D03*
X243100Y324700D03*
X268500Y324700D03*
X293900Y324700D03*
X319300Y324700D03*
X344700Y324700D03*
X370100Y324700D03*
X395500Y324700D03*
X14500Y374700D03*
X39900Y374700D03*
X65300Y374700D03*
X90700Y374700D03*
X116100Y374700D03*
X141500Y374700D03*
X166900Y374700D03*
X192300Y374700D03*
X217700Y374700D03*
X243100Y374700D03*
X268500Y374700D03*
X293900Y374700D03*
X319300Y374700D03*
X344700Y374700D03*
X370100Y374700D03*
X395500Y374700D03*
X311900Y18700D03*
X337300Y18700D03*
X362700Y18700D03*
X388100Y18700D03*
X311900Y431700D03*
X337300Y431700D03*
X362700Y431700D03*
X388100Y431700D03*
D12*
X78782Y171218D02*
X50000Y200000D01*
X196002Y140348D02*
X202052Y140348D01*
X217700Y124700D01*
X196002Y140348D02*
X165132Y171218D01*
X78782Y171218D01*
X50000Y250000D02*
X14500Y285500D01*
X14500Y324700D01*
X100000Y200000D02*
X125988Y174012D01*
X193788Y174012D02*
X243100Y124700D01*
X193788Y174012D02*
X125988Y174012D01*
X100000Y250000D02*
X59652Y290348D01*
X46002Y290348D01*
X39900Y296450D01*
X39900Y324700D01*
X150000Y200000D02*
X173194Y176806D01*
X238400Y176806D01*
X268500Y146706D01*
X268500Y124700D01*
X96002Y290348D02*
X90348Y296002D01*
X109652Y290348D02*
X150000Y250000D01*
X109652Y290348D02*
X96002Y290348D01*
X90348Y296002D02*
X90348Y299652D01*
X65300Y324700D01*
X200000Y200000D02*
X220400Y179600D01*
X266449Y179600D01*
X290348Y146002D02*
X293900Y142450D01*
X293900Y124700D01*
X290348Y146002D02*
X290348Y155701D01*
X266449Y179600D01*
X200000Y250000D02*
X163650Y250000D01*
X90700Y322950D01*
X90700Y324700D01*
X250000Y200000D02*
X290348Y159652D01*
X303998Y159652D01*
X319300Y144350D01*
X319300Y124700D01*
X250000Y250000D02*
X213650Y250000D01*
X203998Y259652D01*
X157949Y259652D01*
X116100Y301501D02*
X116100Y324700D01*
X116100Y301501D02*
X157949Y259652D01*
X340348Y146002D02*
X344700Y141650D01*
X344700Y124700D01*
X340348Y159652D02*
X300000Y200000D01*
X340348Y159652D02*
X340348Y146002D01*
X300000Y250000D02*
X263650Y250000D01*
X251204Y262446D01*
X159107Y262446D01*
X140348Y303998D02*
X141500Y305150D01*
X141500Y324700D01*
X140348Y303998D02*
X140348Y281205D01*
X159107Y262446D01*
X334952Y65048D02*
X350000Y50000D01*
X178650Y74700D02*
X166900Y74700D01*
X178650Y74700D02*
X188302Y65048D01*
X334952Y65048D01*
X370100Y179900D02*
X350000Y200000D01*
X370100Y179900D02*
X370100Y124700D01*
X350000Y250000D02*
X313650Y250000D01*
X298410Y265240D01*
X221110Y265240D02*
X166900Y319450D01*
X166900Y324700D01*
X221110Y265240D02*
X298410Y265240D01*
X350000Y350000D02*
X337200Y362800D01*
X178800Y362800D02*
X166900Y374700D01*
X178800Y362800D02*
X337200Y362800D01*
X400000Y200000D02*
X400000Y163650D01*
X409652Y153998D01*
X409652Y138852D01*
X395500Y124700D01*
X400000Y250000D02*
X363650Y250000D01*
X345616Y268034D01*
X248966Y268034D02*
X192300Y324700D01*
X248966Y268034D02*
X345616Y268034D01*
X65648Y384352D02*
X50000Y400000D01*
X205950Y374700D02*
X217700Y374700D01*
X205950Y374700D02*
X196298Y384352D01*
X65648Y384352D01*
D13*
X311900Y18700D02*
X322932Y18700D01*
X333092Y8540D01*
X398540Y8540D02*
X420000Y30000D01*
X398540Y8540D02*
X333092Y8540D01*
X409840Y325792D02*
X409840Y334208D01*
X420000Y315632D02*
X420000Y280000D01*
X389840Y404560D02*
X362700Y431700D01*
X409840Y325792D02*
X420000Y315632D01*
X389840Y395792D02*
X389840Y404560D01*
X410160Y334528D02*
X409840Y334208D01*
X410160Y334528D02*
X410160Y375472D01*
X389840Y395792D01*
M02*
