G04 EAGLE Gerber RS-274X export*
G75*
%MOMM*%
%FSLAX34Y34*%
%LPD*%
%INSoldermask Top*%
%IPPOS*%
%AMOC8*
5,1,8,0,0,1.08239X$1,22.5*%
G01*
%ADD10P,1.869504X8X22.500000*%
%ADD11P,1.869504X8X202.500000*%


D10*
X50000Y50000D03*
X100000Y50000D03*
X150000Y50000D03*
X200000Y50000D03*
X250000Y50000D03*
X300000Y50000D03*
X350000Y50000D03*
X400000Y50000D03*
X50000Y100000D03*
X100000Y100000D03*
X150000Y100000D03*
X200000Y100000D03*
X250000Y100000D03*
X300000Y100000D03*
X350000Y100000D03*
X400000Y100000D03*
X50000Y150000D03*
X100000Y150000D03*
X150000Y150000D03*
X200000Y150000D03*
X250000Y150000D03*
X300000Y150000D03*
X350000Y150000D03*
X400000Y150000D03*
X50000Y200000D03*
X100000Y200000D03*
X150000Y200000D03*
X200000Y200000D03*
X250000Y200000D03*
X300000Y200000D03*
X350000Y200000D03*
X400000Y200000D03*
X50000Y250000D03*
X100000Y250000D03*
X150000Y250000D03*
X200000Y250000D03*
X250000Y250000D03*
X300000Y250000D03*
X350000Y250000D03*
X400000Y250000D03*
X50000Y300000D03*
X100000Y300000D03*
X150000Y300000D03*
X200000Y300000D03*
X250000Y300000D03*
X300000Y300000D03*
X350000Y300000D03*
X400000Y300000D03*
X50000Y350000D03*
X100000Y350000D03*
X150000Y350000D03*
X200000Y350000D03*
X250000Y350000D03*
X300000Y350000D03*
X350000Y350000D03*
X400000Y350000D03*
X50000Y400000D03*
X100000Y400000D03*
X150000Y400000D03*
X200000Y400000D03*
X250000Y400000D03*
X300000Y400000D03*
X350000Y400000D03*
X400000Y400000D03*
D11*
X420000Y30000D03*
X420000Y80000D03*
X420000Y130000D03*
X420000Y180000D03*
X420000Y230000D03*
X420000Y330000D03*
X420000Y280000D03*
X420000Y380000D03*
D10*
X14500Y74700D03*
X39900Y74700D03*
X65300Y74700D03*
X90700Y74700D03*
X116100Y74700D03*
X141500Y74700D03*
X166900Y74700D03*
X192300Y74700D03*
X217700Y74700D03*
X243100Y74700D03*
X268500Y74700D03*
X293900Y74700D03*
X319300Y74700D03*
X344700Y74700D03*
X370100Y74700D03*
X395500Y74700D03*
X14500Y124700D03*
X39900Y124700D03*
X65300Y124700D03*
X90700Y124700D03*
X116100Y124700D03*
X141500Y124700D03*
X166900Y124700D03*
X192300Y124700D03*
X217700Y124700D03*
X243100Y124700D03*
X268500Y124700D03*
X293900Y124700D03*
X319300Y124700D03*
X344700Y124700D03*
X370100Y124700D03*
X395500Y124700D03*
X14500Y324700D03*
X39900Y324700D03*
X65300Y324700D03*
X90700Y324700D03*
X116100Y324700D03*
X141500Y324700D03*
X166900Y324700D03*
X192300Y324700D03*
X217700Y324700D03*
X243100Y324700D03*
X268500Y324700D03*
X293900Y324700D03*
X319300Y324700D03*
X344700Y324700D03*
X370100Y324700D03*
X395500Y324700D03*
X14500Y374700D03*
X39900Y374700D03*
X65300Y374700D03*
X90700Y374700D03*
X116100Y374700D03*
X141500Y374700D03*
X166900Y374700D03*
X192300Y374700D03*
X217700Y374700D03*
X243100Y374700D03*
X268500Y374700D03*
X293900Y374700D03*
X319300Y374700D03*
X344700Y374700D03*
X370100Y374700D03*
X395500Y374700D03*
X311900Y18700D03*
X337300Y18700D03*
X362700Y18700D03*
X388100Y18700D03*
X311900Y431700D03*
X337300Y431700D03*
X362700Y431700D03*
X388100Y431700D03*
M02*
