M48
;GenerationSoftware,Autodesk,EAGLE,9.6.2*%
;CreationDate,2023-06-02T13:32:13Z*%
FMAT,2
ICI,OFF
METRIC,TZ,000.000
T1C1.016
%
G90
M71
T1
X5000Y5000
X10000Y5000
X15000Y5000
X20000Y5000
X25000Y5000
X30000Y5000
X35000Y5000
X40000Y5000
X5000Y10000
X10000Y10000
X15000Y10000
X20000Y10000
X25000Y10000
X30000Y10000
X35000Y10000
X40000Y10000
X5000Y15000
X10000Y15000
X15000Y15000
X20000Y15000
X25000Y15000
X30000Y15000
X35000Y15000
X40000Y15000
X5000Y20000
X10000Y20000
X15000Y20000
X20000Y20000
X25000Y20000
X30000Y20000
X35000Y20000
X40000Y20000
X5000Y25000
X10000Y25000
X15000Y25000
X20000Y25000
X25000Y25000
X30000Y25000
X35000Y25000
X40000Y25000
X5000Y30000
X10000Y30000
X15000Y30000
X20000Y30000
X25000Y30000
X30000Y30000
X35000Y30000
X40000Y30000
X5000Y35000
X10000Y35000
X15000Y35000
X20000Y35000
X25000Y35000
X30000Y35000
X35000Y35000
X40000Y35000
X5000Y40000
X10000Y40000
X15000Y40000
X20000Y40000
X25000Y40000
X30000Y40000
X35000Y40000
X40000Y40000
X42000Y3000
X42000Y8000
X42000Y13000
X42000Y18000
X42000Y23000
X42000Y33000
X42000Y28000
X42000Y38000
X1450Y7470
X3990Y7470
X6530Y7470
X9070Y7470
X11610Y7470
X14150Y7470
X16690Y7470
X19230Y7470
X21770Y7470
X24310Y7470
X26850Y7470
X29390Y7470
X31930Y7470
X34470Y7470
X37010Y7470
X39550Y7470
X1450Y12470
X3990Y12470
X6530Y12470
X9070Y12470
X11610Y12470
X14150Y12470
X16690Y12470
X19230Y12470
X21770Y12470
X24310Y12470
X26850Y12470
X29390Y12470
X31930Y12470
X34470Y12470
X37010Y12470
X39550Y12470
X1450Y32470
X3990Y32470
X6530Y32470
X9070Y32470
X11610Y32470
X14150Y32470
X16690Y32470
X19230Y32470
X21770Y32470
X24310Y32470
X26850Y32470
X29390Y32470
X31930Y32470
X34470Y32470
X37010Y32470
X39550Y32470
X1450Y37470
X3990Y37470
X6530Y37470
X9070Y37470
X11610Y37470
X14150Y37470
X16690Y37470
X19230Y37470
X21770Y37470
X24310Y37470
X26850Y37470
X29390Y37470
X31930Y37470
X34470Y37470
X37010Y37470
X39550Y37470
X31190Y1870
X33730Y1870
X36270Y1870
X38810Y1870
X31190Y43170
X33730Y43170
X36270Y43170
X38810Y43170
M30