G04 EAGLE Gerber RS-274X export*
G75*
%MOMM*%
%FSLAX34Y34*%
%LPD*%
%INBottom Copper*%
%IPPOS*%
%AMOC8*
5,1,8,0,0,1.08239X$1,22.5*%
G01*
%ADD10P,1.649562X8X22.500000*%
%ADD11C,1.524000*%
%ADD12R,1.500000X0.400000*%
%ADD13R,1.803000X1.600000*%
%ADD14C,0.152400*%
%ADD15C,0.756400*%
%ADD16C,0.254000*%

G36*
X445496Y3766D02*
X445496Y3766D01*
X445515Y3764D01*
X445617Y3786D01*
X445719Y3802D01*
X445736Y3812D01*
X445756Y3816D01*
X445845Y3869D01*
X445936Y3918D01*
X445950Y3932D01*
X445967Y3942D01*
X446034Y4021D01*
X446106Y4096D01*
X446114Y4114D01*
X446127Y4129D01*
X446166Y4225D01*
X446209Y4319D01*
X446211Y4339D01*
X446219Y4357D01*
X446237Y4524D01*
X446237Y445476D01*
X446234Y445496D01*
X446236Y445515D01*
X446214Y445617D01*
X446198Y445719D01*
X446188Y445736D01*
X446184Y445756D01*
X446131Y445845D01*
X446082Y445936D01*
X446068Y445950D01*
X446058Y445967D01*
X445979Y446034D01*
X445904Y446106D01*
X445886Y446114D01*
X445871Y446127D01*
X445775Y446166D01*
X445681Y446209D01*
X445661Y446211D01*
X445643Y446219D01*
X445476Y446237D01*
X4524Y446237D01*
X4504Y446234D01*
X4485Y446236D01*
X4383Y446214D01*
X4281Y446198D01*
X4264Y446188D01*
X4244Y446184D01*
X4155Y446131D01*
X4064Y446082D01*
X4050Y446068D01*
X4033Y446058D01*
X3966Y445979D01*
X3894Y445904D01*
X3886Y445886D01*
X3873Y445871D01*
X3834Y445775D01*
X3791Y445681D01*
X3789Y445661D01*
X3781Y445643D01*
X3763Y445476D01*
X3763Y4524D01*
X3766Y4504D01*
X3764Y4485D01*
X3786Y4383D01*
X3802Y4281D01*
X3812Y4264D01*
X3816Y4244D01*
X3869Y4155D01*
X3918Y4064D01*
X3932Y4050D01*
X3942Y4033D01*
X4021Y3966D01*
X4096Y3894D01*
X4114Y3886D01*
X4129Y3873D01*
X4225Y3834D01*
X4319Y3791D01*
X4339Y3789D01*
X4357Y3781D01*
X4524Y3763D01*
X445476Y3763D01*
X445496Y3766D01*
G37*
%LPC*%
G36*
X362462Y113015D02*
X362462Y113015D01*
X361048Y114429D01*
X354564Y120914D01*
X354547Y120925D01*
X354535Y120941D01*
X354448Y120997D01*
X354364Y121057D01*
X354345Y121063D01*
X354328Y121074D01*
X354228Y121099D01*
X354129Y121130D01*
X354109Y121129D01*
X354090Y121134D01*
X353987Y121126D01*
X353883Y121123D01*
X353864Y121116D01*
X353844Y121115D01*
X353750Y121074D01*
X353652Y121039D01*
X353636Y121026D01*
X353618Y121018D01*
X353487Y120914D01*
X348383Y115809D01*
X341017Y115809D01*
X335809Y121017D01*
X335809Y121906D01*
X335806Y121926D01*
X335808Y121945D01*
X335786Y122047D01*
X335770Y122149D01*
X335760Y122166D01*
X335756Y122186D01*
X335703Y122275D01*
X335654Y122366D01*
X335640Y122380D01*
X335630Y122397D01*
X335551Y122464D01*
X335476Y122536D01*
X335458Y122544D01*
X335443Y122557D01*
X335347Y122596D01*
X335253Y122639D01*
X335233Y122641D01*
X335215Y122649D01*
X335048Y122667D01*
X332108Y122667D01*
X329490Y125285D01*
X329432Y125327D01*
X329380Y125376D01*
X329333Y125398D01*
X329291Y125429D01*
X329222Y125450D01*
X329157Y125480D01*
X329105Y125486D01*
X329055Y125501D01*
X328984Y125499D01*
X328913Y125507D01*
X328862Y125496D01*
X328810Y125495D01*
X328742Y125470D01*
X328672Y125455D01*
X328627Y125428D01*
X328579Y125410D01*
X328523Y125365D01*
X328461Y125329D01*
X328427Y125289D01*
X328387Y125256D01*
X328348Y125196D01*
X328301Y125142D01*
X328282Y125093D01*
X328254Y125049D01*
X328236Y124980D01*
X328209Y124913D01*
X328201Y124842D01*
X328193Y124811D01*
X328195Y124788D01*
X328191Y124747D01*
X328191Y121017D01*
X322983Y115809D01*
X315617Y115809D01*
X310409Y121017D01*
X310409Y121906D01*
X310406Y121926D01*
X310408Y121945D01*
X310386Y122047D01*
X310370Y122149D01*
X310360Y122166D01*
X310356Y122186D01*
X310303Y122275D01*
X310254Y122366D01*
X310240Y122380D01*
X310230Y122397D01*
X310151Y122464D01*
X310076Y122536D01*
X310058Y122544D01*
X310043Y122557D01*
X309947Y122596D01*
X309853Y122639D01*
X309833Y122641D01*
X309815Y122649D01*
X309648Y122667D01*
X306708Y122667D01*
X304090Y125285D01*
X304032Y125327D01*
X303980Y125376D01*
X303933Y125398D01*
X303891Y125429D01*
X303822Y125450D01*
X303757Y125480D01*
X303705Y125486D01*
X303655Y125501D01*
X303584Y125499D01*
X303513Y125507D01*
X303462Y125496D01*
X303410Y125495D01*
X303342Y125470D01*
X303272Y125455D01*
X303227Y125428D01*
X303179Y125410D01*
X303123Y125365D01*
X303061Y125329D01*
X303027Y125289D01*
X302987Y125256D01*
X302948Y125196D01*
X302901Y125142D01*
X302882Y125093D01*
X302854Y125049D01*
X302836Y124980D01*
X302809Y124913D01*
X302801Y124842D01*
X302793Y124811D01*
X302795Y124788D01*
X302791Y124747D01*
X302791Y121017D01*
X297583Y115809D01*
X290217Y115809D01*
X285009Y121017D01*
X285009Y121906D01*
X285006Y121926D01*
X285008Y121945D01*
X284986Y122047D01*
X284970Y122149D01*
X284960Y122166D01*
X284956Y122186D01*
X284903Y122275D01*
X284854Y122366D01*
X284840Y122380D01*
X284830Y122397D01*
X284751Y122464D01*
X284676Y122536D01*
X284658Y122544D01*
X284643Y122557D01*
X284547Y122596D01*
X284453Y122639D01*
X284433Y122641D01*
X284415Y122649D01*
X284248Y122667D01*
X281308Y122667D01*
X278690Y125285D01*
X278632Y125327D01*
X278580Y125376D01*
X278533Y125398D01*
X278491Y125429D01*
X278422Y125450D01*
X278357Y125480D01*
X278305Y125486D01*
X278255Y125501D01*
X278184Y125499D01*
X278113Y125507D01*
X278062Y125496D01*
X278010Y125495D01*
X277942Y125470D01*
X277872Y125455D01*
X277827Y125428D01*
X277779Y125410D01*
X277723Y125365D01*
X277661Y125329D01*
X277627Y125289D01*
X277587Y125256D01*
X277548Y125196D01*
X277501Y125142D01*
X277482Y125093D01*
X277454Y125049D01*
X277436Y124980D01*
X277409Y124913D01*
X277401Y124842D01*
X277393Y124811D01*
X277395Y124788D01*
X277391Y124747D01*
X277391Y121017D01*
X272183Y115809D01*
X264817Y115809D01*
X259609Y121017D01*
X259609Y121906D01*
X259606Y121926D01*
X259608Y121945D01*
X259586Y122047D01*
X259570Y122149D01*
X259560Y122166D01*
X259556Y122186D01*
X259503Y122275D01*
X259454Y122366D01*
X259440Y122380D01*
X259430Y122397D01*
X259351Y122464D01*
X259276Y122536D01*
X259258Y122544D01*
X259243Y122557D01*
X259147Y122596D01*
X259053Y122639D01*
X259033Y122641D01*
X259015Y122649D01*
X258848Y122667D01*
X255908Y122667D01*
X253290Y125285D01*
X253232Y125327D01*
X253180Y125376D01*
X253133Y125398D01*
X253091Y125429D01*
X253022Y125450D01*
X252957Y125480D01*
X252905Y125486D01*
X252855Y125501D01*
X252784Y125499D01*
X252713Y125507D01*
X252662Y125496D01*
X252610Y125495D01*
X252542Y125470D01*
X252472Y125455D01*
X252427Y125428D01*
X252379Y125410D01*
X252323Y125365D01*
X252261Y125329D01*
X252227Y125289D01*
X252187Y125256D01*
X252148Y125196D01*
X252101Y125142D01*
X252082Y125093D01*
X252054Y125049D01*
X252036Y124980D01*
X252009Y124913D01*
X252001Y124842D01*
X251993Y124811D01*
X251995Y124788D01*
X251991Y124747D01*
X251991Y121017D01*
X246783Y115809D01*
X239417Y115809D01*
X234209Y121017D01*
X234209Y121906D01*
X234206Y121926D01*
X234208Y121945D01*
X234186Y122047D01*
X234170Y122149D01*
X234160Y122166D01*
X234156Y122186D01*
X234103Y122275D01*
X234054Y122366D01*
X234040Y122380D01*
X234030Y122397D01*
X233951Y122464D01*
X233876Y122536D01*
X233858Y122544D01*
X233843Y122557D01*
X233747Y122596D01*
X233653Y122639D01*
X233633Y122641D01*
X233615Y122649D01*
X233448Y122667D01*
X230508Y122667D01*
X227890Y125285D01*
X227832Y125327D01*
X227780Y125376D01*
X227733Y125398D01*
X227691Y125429D01*
X227622Y125450D01*
X227557Y125480D01*
X227505Y125486D01*
X227455Y125501D01*
X227384Y125499D01*
X227313Y125507D01*
X227262Y125496D01*
X227210Y125495D01*
X227142Y125470D01*
X227072Y125455D01*
X227027Y125428D01*
X226979Y125410D01*
X226923Y125365D01*
X226861Y125329D01*
X226827Y125289D01*
X226787Y125256D01*
X226748Y125196D01*
X226701Y125142D01*
X226682Y125093D01*
X226654Y125049D01*
X226636Y124980D01*
X226609Y124913D01*
X226601Y124842D01*
X226593Y124811D01*
X226595Y124788D01*
X226591Y124747D01*
X226591Y121017D01*
X221383Y115809D01*
X214017Y115809D01*
X208809Y121017D01*
X208809Y121906D01*
X208806Y121926D01*
X208808Y121945D01*
X208786Y122047D01*
X208770Y122149D01*
X208760Y122166D01*
X208756Y122186D01*
X208703Y122275D01*
X208654Y122366D01*
X208640Y122380D01*
X208630Y122397D01*
X208551Y122464D01*
X208476Y122536D01*
X208458Y122544D01*
X208443Y122557D01*
X208347Y122596D01*
X208253Y122639D01*
X208233Y122641D01*
X208215Y122649D01*
X208048Y122667D01*
X205108Y122667D01*
X202490Y125285D01*
X202432Y125327D01*
X202380Y125376D01*
X202333Y125398D01*
X202291Y125429D01*
X202222Y125450D01*
X202157Y125480D01*
X202105Y125486D01*
X202055Y125501D01*
X201984Y125499D01*
X201913Y125507D01*
X201862Y125496D01*
X201810Y125495D01*
X201742Y125470D01*
X201672Y125455D01*
X201627Y125428D01*
X201579Y125410D01*
X201523Y125365D01*
X201461Y125329D01*
X201427Y125289D01*
X201387Y125256D01*
X201348Y125196D01*
X201301Y125142D01*
X201282Y125093D01*
X201254Y125049D01*
X201236Y124980D01*
X201209Y124913D01*
X201201Y124842D01*
X201193Y124811D01*
X201195Y124788D01*
X201191Y124747D01*
X201191Y121017D01*
X195983Y115809D01*
X188617Y115809D01*
X183409Y121017D01*
X183409Y121906D01*
X183406Y121926D01*
X183408Y121945D01*
X183386Y122047D01*
X183370Y122149D01*
X183360Y122166D01*
X183356Y122186D01*
X183303Y122275D01*
X183254Y122366D01*
X183240Y122380D01*
X183230Y122397D01*
X183151Y122464D01*
X183076Y122536D01*
X183058Y122544D01*
X183043Y122557D01*
X182947Y122596D01*
X182853Y122639D01*
X182833Y122641D01*
X182815Y122649D01*
X182648Y122667D01*
X179708Y122667D01*
X177090Y125285D01*
X177032Y125327D01*
X176980Y125376D01*
X176933Y125398D01*
X176891Y125429D01*
X176822Y125450D01*
X176757Y125480D01*
X176705Y125486D01*
X176655Y125501D01*
X176584Y125499D01*
X176513Y125507D01*
X176462Y125496D01*
X176410Y125495D01*
X176342Y125470D01*
X176272Y125455D01*
X176227Y125428D01*
X176179Y125410D01*
X176123Y125365D01*
X176061Y125329D01*
X176027Y125289D01*
X175987Y125256D01*
X175948Y125196D01*
X175901Y125142D01*
X175882Y125093D01*
X175854Y125049D01*
X175836Y124980D01*
X175809Y124913D01*
X175801Y124842D01*
X175793Y124811D01*
X175795Y124788D01*
X175791Y124747D01*
X175791Y121017D01*
X170583Y115809D01*
X163217Y115809D01*
X158009Y121017D01*
X158009Y121906D01*
X158006Y121926D01*
X158008Y121945D01*
X157986Y122047D01*
X157970Y122149D01*
X157960Y122166D01*
X157956Y122186D01*
X157903Y122275D01*
X157854Y122366D01*
X157840Y122380D01*
X157830Y122397D01*
X157751Y122464D01*
X157676Y122536D01*
X157658Y122544D01*
X157643Y122557D01*
X157547Y122596D01*
X157453Y122639D01*
X157433Y122641D01*
X157415Y122649D01*
X157248Y122667D01*
X154308Y122667D01*
X151690Y125285D01*
X151632Y125327D01*
X151580Y125376D01*
X151533Y125398D01*
X151491Y125429D01*
X151422Y125450D01*
X151357Y125480D01*
X151305Y125486D01*
X151255Y125501D01*
X151184Y125499D01*
X151113Y125507D01*
X151062Y125496D01*
X151010Y125495D01*
X150942Y125470D01*
X150872Y125455D01*
X150827Y125428D01*
X150779Y125410D01*
X150723Y125365D01*
X150661Y125329D01*
X150627Y125289D01*
X150587Y125256D01*
X150548Y125196D01*
X150501Y125142D01*
X150482Y125093D01*
X150454Y125049D01*
X150436Y124980D01*
X150409Y124913D01*
X150401Y124842D01*
X150393Y124811D01*
X150395Y124788D01*
X150391Y124747D01*
X150391Y121017D01*
X145183Y115809D01*
X137817Y115809D01*
X132609Y121017D01*
X132609Y121906D01*
X132606Y121926D01*
X132608Y121945D01*
X132586Y122047D01*
X132570Y122149D01*
X132560Y122166D01*
X132556Y122186D01*
X132503Y122275D01*
X132454Y122366D01*
X132440Y122380D01*
X132430Y122397D01*
X132351Y122464D01*
X132276Y122536D01*
X132258Y122544D01*
X132243Y122557D01*
X132147Y122596D01*
X132053Y122639D01*
X132033Y122641D01*
X132015Y122649D01*
X131848Y122667D01*
X128908Y122667D01*
X127494Y124081D01*
X126290Y125285D01*
X126232Y125327D01*
X126180Y125376D01*
X126133Y125398D01*
X126091Y125429D01*
X126022Y125450D01*
X125957Y125480D01*
X125905Y125486D01*
X125855Y125501D01*
X125784Y125499D01*
X125713Y125507D01*
X125662Y125496D01*
X125610Y125495D01*
X125542Y125470D01*
X125472Y125455D01*
X125428Y125428D01*
X125379Y125410D01*
X125323Y125365D01*
X125261Y125329D01*
X125227Y125289D01*
X125187Y125256D01*
X125148Y125196D01*
X125101Y125142D01*
X125082Y125093D01*
X125054Y125049D01*
X125036Y124980D01*
X125009Y124913D01*
X125001Y124842D01*
X124993Y124811D01*
X124995Y124788D01*
X124991Y124747D01*
X124991Y121017D01*
X119783Y115809D01*
X112417Y115809D01*
X107209Y121017D01*
X107209Y128383D01*
X107838Y129011D01*
X107849Y129027D01*
X107865Y129040D01*
X107921Y129127D01*
X107981Y129211D01*
X107987Y129230D01*
X107998Y129247D01*
X108023Y129347D01*
X108054Y129446D01*
X108053Y129466D01*
X108058Y129485D01*
X108050Y129588D01*
X108047Y129692D01*
X108040Y129711D01*
X108039Y129730D01*
X107998Y129825D01*
X107963Y129923D01*
X107950Y129938D01*
X107942Y129957D01*
X107838Y130088D01*
X102033Y135892D01*
X100619Y137306D01*
X100619Y142008D01*
X100608Y142079D01*
X100606Y142151D01*
X100588Y142199D01*
X100580Y142251D01*
X100546Y142314D01*
X100521Y142382D01*
X100489Y142422D01*
X100464Y142468D01*
X100412Y142518D01*
X100368Y142574D01*
X100324Y142602D01*
X100286Y142638D01*
X100221Y142668D01*
X100161Y142707D01*
X100110Y142719D01*
X100063Y142741D01*
X99992Y142749D01*
X99922Y142767D01*
X99870Y142763D01*
X99819Y142768D01*
X99748Y142753D01*
X99677Y142747D01*
X99629Y142727D01*
X99578Y142716D01*
X99517Y142679D01*
X99451Y142651D01*
X99395Y142606D01*
X99367Y142590D01*
X99352Y142572D01*
X99320Y142546D01*
X98036Y141263D01*
X94768Y139909D01*
X91232Y139909D01*
X87964Y141263D01*
X85463Y143764D01*
X84551Y145964D01*
X84500Y146047D01*
X84454Y146133D01*
X84435Y146151D01*
X84422Y146173D01*
X84347Y146236D01*
X84276Y146303D01*
X84252Y146314D01*
X84232Y146330D01*
X84141Y146365D01*
X84053Y146406D01*
X84027Y146409D01*
X84003Y146418D01*
X83905Y146423D01*
X83809Y146433D01*
X83783Y146428D01*
X83757Y146429D01*
X83663Y146402D01*
X83568Y146381D01*
X83546Y146368D01*
X83521Y146360D01*
X83441Y146305D01*
X83357Y146255D01*
X83340Y146235D01*
X83319Y146220D01*
X83260Y146142D01*
X83197Y146068D01*
X83187Y146044D01*
X83172Y146023D01*
X83142Y145930D01*
X83105Y145840D01*
X83102Y145807D01*
X83096Y145789D01*
X83096Y145756D01*
X83087Y145673D01*
X83087Y135503D01*
X83101Y135413D01*
X83109Y135322D01*
X83121Y135293D01*
X83126Y135261D01*
X83169Y135180D01*
X83205Y135096D01*
X83231Y135064D01*
X83242Y135043D01*
X83265Y135021D01*
X83310Y134965D01*
X85312Y132962D01*
X85329Y132951D01*
X85341Y132935D01*
X85428Y132879D01*
X85512Y132819D01*
X85531Y132813D01*
X85548Y132802D01*
X85648Y132777D01*
X85747Y132746D01*
X85767Y132747D01*
X85786Y132742D01*
X85889Y132750D01*
X85993Y132753D01*
X86012Y132760D01*
X86032Y132761D01*
X86127Y132802D01*
X86224Y132837D01*
X86240Y132850D01*
X86258Y132858D01*
X86389Y132962D01*
X87017Y133591D01*
X94383Y133591D01*
X99591Y128383D01*
X99591Y121017D01*
X94383Y115809D01*
X87017Y115809D01*
X81809Y121017D01*
X81809Y128383D01*
X82438Y129011D01*
X82449Y129027D01*
X82465Y129040D01*
X82521Y129127D01*
X82581Y129211D01*
X82587Y129230D01*
X82598Y129247D01*
X82623Y129347D01*
X82654Y129446D01*
X82653Y129466D01*
X82658Y129485D01*
X82650Y129588D01*
X82647Y129692D01*
X82640Y129711D01*
X82639Y129730D01*
X82598Y129825D01*
X82563Y129923D01*
X82550Y129938D01*
X82542Y129957D01*
X82438Y130088D01*
X80435Y132090D01*
X79021Y133504D01*
X79021Y133709D01*
X79010Y133779D01*
X79008Y133851D01*
X78990Y133900D01*
X78982Y133951D01*
X78948Y134015D01*
X78923Y134082D01*
X78891Y134123D01*
X78866Y134169D01*
X78815Y134218D01*
X78770Y134274D01*
X78726Y134302D01*
X78688Y134338D01*
X78623Y134368D01*
X78563Y134407D01*
X78512Y134420D01*
X78465Y134442D01*
X78394Y134450D01*
X78324Y134467D01*
X78272Y134463D01*
X78221Y134469D01*
X78150Y134454D01*
X78079Y134448D01*
X78031Y134428D01*
X77980Y134417D01*
X77919Y134380D01*
X77853Y134352D01*
X77797Y134307D01*
X77769Y134291D01*
X77754Y134273D01*
X77722Y134247D01*
X73562Y130088D01*
X73551Y130071D01*
X73535Y130059D01*
X73479Y129972D01*
X73419Y129888D01*
X73413Y129869D01*
X73402Y129852D01*
X73377Y129752D01*
X73346Y129653D01*
X73347Y129633D01*
X73342Y129614D01*
X73350Y129511D01*
X73353Y129407D01*
X73360Y129388D01*
X73361Y129368D01*
X73402Y129273D01*
X73437Y129176D01*
X73450Y129160D01*
X73458Y129142D01*
X73562Y129011D01*
X74191Y128383D01*
X74191Y121017D01*
X68983Y115809D01*
X61617Y115809D01*
X56409Y121017D01*
X56409Y128383D01*
X61617Y133591D01*
X68983Y133591D01*
X69611Y132962D01*
X69627Y132951D01*
X69640Y132935D01*
X69727Y132879D01*
X69811Y132819D01*
X69830Y132813D01*
X69847Y132802D01*
X69947Y132777D01*
X70046Y132746D01*
X70066Y132747D01*
X70085Y132742D01*
X70188Y132750D01*
X70292Y132753D01*
X70311Y132760D01*
X70330Y132761D01*
X70425Y132802D01*
X70523Y132837D01*
X70538Y132850D01*
X70557Y132858D01*
X70688Y132962D01*
X76004Y138279D01*
X76057Y138353D01*
X76117Y138422D01*
X76129Y138453D01*
X76148Y138479D01*
X76175Y138566D01*
X76209Y138651D01*
X76213Y138692D01*
X76220Y138714D01*
X76219Y138746D01*
X76227Y138817D01*
X76227Y143016D01*
X76216Y143087D01*
X76214Y143159D01*
X76196Y143207D01*
X76188Y143259D01*
X76154Y143322D01*
X76129Y143390D01*
X76097Y143430D01*
X76072Y143476D01*
X76020Y143526D01*
X75976Y143582D01*
X75932Y143610D01*
X75894Y143646D01*
X75829Y143676D01*
X75769Y143715D01*
X75718Y143727D01*
X75671Y143749D01*
X75600Y143757D01*
X75530Y143775D01*
X75478Y143771D01*
X75427Y143776D01*
X75356Y143761D01*
X75285Y143755D01*
X75237Y143735D01*
X75186Y143724D01*
X75125Y143687D01*
X75059Y143659D01*
X75003Y143614D01*
X74975Y143598D01*
X74960Y143580D01*
X74928Y143554D01*
X72636Y141263D01*
X69368Y139909D01*
X65832Y139909D01*
X62564Y141263D01*
X61280Y142546D01*
X61222Y142588D01*
X61170Y142638D01*
X61123Y142660D01*
X61081Y142690D01*
X61012Y142711D01*
X60947Y142741D01*
X60895Y142747D01*
X60845Y142762D01*
X60774Y142760D01*
X60703Y142768D01*
X60652Y142757D01*
X60600Y142756D01*
X60532Y142731D01*
X60462Y142716D01*
X60417Y142689D01*
X60369Y142671D01*
X60313Y142627D01*
X60251Y142590D01*
X60217Y142550D01*
X60177Y142518D01*
X60138Y142457D01*
X60091Y142403D01*
X60072Y142355D01*
X60044Y142311D01*
X60026Y142241D01*
X59999Y142175D01*
X59991Y142103D01*
X59983Y142072D01*
X59985Y142049D01*
X59981Y142008D01*
X59981Y141906D01*
X58567Y140492D01*
X48162Y130088D01*
X48151Y130071D01*
X48135Y130059D01*
X48079Y129972D01*
X48019Y129888D01*
X48013Y129869D01*
X48002Y129852D01*
X47977Y129752D01*
X47946Y129653D01*
X47947Y129633D01*
X47942Y129614D01*
X47950Y129511D01*
X47953Y129407D01*
X47960Y129388D01*
X47961Y129368D01*
X48002Y129273D01*
X48037Y129176D01*
X48050Y129160D01*
X48058Y129142D01*
X48162Y129011D01*
X48791Y128383D01*
X48791Y121017D01*
X43583Y115809D01*
X36217Y115809D01*
X31009Y121017D01*
X31009Y128383D01*
X36217Y133591D01*
X43583Y133591D01*
X44211Y132962D01*
X44227Y132951D01*
X44240Y132935D01*
X44327Y132879D01*
X44411Y132819D01*
X44430Y132813D01*
X44447Y132802D01*
X44547Y132777D01*
X44646Y132746D01*
X44666Y132747D01*
X44685Y132742D01*
X44788Y132750D01*
X44892Y132753D01*
X44911Y132760D01*
X44930Y132761D01*
X45025Y132802D01*
X45123Y132837D01*
X45138Y132850D01*
X45157Y132858D01*
X45288Y132962D01*
X55692Y143367D01*
X55745Y143441D01*
X55805Y143510D01*
X55817Y143541D01*
X55836Y143567D01*
X55863Y143654D01*
X55897Y143739D01*
X55901Y143780D01*
X55908Y143802D01*
X55907Y143834D01*
X55915Y143905D01*
X55915Y153640D01*
X85536Y183261D01*
X85589Y183335D01*
X85649Y183404D01*
X85661Y183435D01*
X85680Y183461D01*
X85707Y183548D01*
X85741Y183633D01*
X85745Y183674D01*
X85752Y183696D01*
X85751Y183728D01*
X85759Y183799D01*
X85759Y192404D01*
X85756Y192424D01*
X85758Y192443D01*
X85736Y192545D01*
X85720Y192647D01*
X85710Y192664D01*
X85706Y192684D01*
X85653Y192773D01*
X85604Y192864D01*
X85590Y192878D01*
X85580Y192895D01*
X85501Y192962D01*
X85426Y193034D01*
X85408Y193042D01*
X85393Y193055D01*
X85297Y193094D01*
X85203Y193137D01*
X85183Y193139D01*
X85165Y193147D01*
X84998Y193165D01*
X71355Y193165D01*
X71265Y193151D01*
X71174Y193143D01*
X71145Y193131D01*
X71113Y193126D01*
X71032Y193083D01*
X70948Y193047D01*
X70916Y193021D01*
X70895Y193010D01*
X70873Y192987D01*
X70817Y192942D01*
X68256Y190381D01*
X68203Y190307D01*
X68143Y190238D01*
X68131Y190207D01*
X68112Y190181D01*
X68085Y190094D01*
X68051Y190009D01*
X68047Y189968D01*
X68040Y189946D01*
X68041Y189914D01*
X68033Y189843D01*
X68033Y188800D01*
X68036Y188780D01*
X68034Y188761D01*
X68056Y188659D01*
X68072Y188557D01*
X68082Y188540D01*
X68086Y188520D01*
X68139Y188431D01*
X68188Y188340D01*
X68202Y188326D01*
X68212Y188309D01*
X68291Y188242D01*
X68366Y188171D01*
X68384Y188162D01*
X68399Y188149D01*
X68495Y188110D01*
X68589Y188067D01*
X68609Y188065D01*
X68627Y188057D01*
X68794Y188039D01*
X71607Y188039D01*
X74567Y185079D01*
X74567Y180893D01*
X71607Y177933D01*
X67421Y177933D01*
X64461Y180893D01*
X64461Y184849D01*
X64446Y184939D01*
X64439Y185030D01*
X64427Y185060D01*
X64421Y185092D01*
X64379Y185172D01*
X64343Y185256D01*
X64317Y185288D01*
X64306Y185309D01*
X64283Y185331D01*
X64238Y185387D01*
X63967Y185658D01*
X63967Y191842D01*
X69180Y197055D01*
X69266Y197141D01*
X69319Y197215D01*
X69379Y197284D01*
X69391Y197315D01*
X69410Y197341D01*
X69437Y197428D01*
X69471Y197513D01*
X69475Y197553D01*
X69482Y197576D01*
X69481Y197608D01*
X69489Y197679D01*
X69489Y198962D01*
X69600Y199073D01*
X69611Y199089D01*
X69627Y199101D01*
X69683Y199189D01*
X69743Y199272D01*
X69749Y199291D01*
X69760Y199308D01*
X69785Y199409D01*
X69816Y199507D01*
X69815Y199527D01*
X69820Y199547D01*
X69812Y199650D01*
X69809Y199753D01*
X69802Y199772D01*
X69801Y199792D01*
X69760Y199887D01*
X69725Y199984D01*
X69712Y200000D01*
X69704Y200018D01*
X69600Y200149D01*
X69377Y200372D01*
X69334Y200452D01*
X69320Y200466D01*
X69310Y200483D01*
X69231Y200550D01*
X69156Y200622D01*
X69138Y200630D01*
X69123Y200643D01*
X69027Y200682D01*
X68933Y200725D01*
X68913Y200727D01*
X68895Y200735D01*
X68728Y200753D01*
X32714Y200753D01*
X32624Y200739D01*
X32533Y200731D01*
X32503Y200719D01*
X32471Y200714D01*
X32391Y200671D01*
X32307Y200635D01*
X32275Y200609D01*
X32254Y200598D01*
X32232Y200575D01*
X32176Y200530D01*
X29970Y198324D01*
X29917Y198250D01*
X29857Y198181D01*
X29845Y198150D01*
X29826Y198124D01*
X29799Y198037D01*
X29765Y197952D01*
X29761Y197912D01*
X29754Y197889D01*
X29755Y197857D01*
X29747Y197786D01*
X29747Y164443D01*
X29761Y164353D01*
X29769Y164262D01*
X29781Y164233D01*
X29786Y164201D01*
X29829Y164120D01*
X29865Y164036D01*
X29891Y164004D01*
X29902Y163983D01*
X29925Y163961D01*
X29970Y163905D01*
X37068Y156806D01*
X37163Y156738D01*
X37257Y156668D01*
X37263Y156666D01*
X37268Y156663D01*
X37379Y156629D01*
X37491Y156592D01*
X37497Y156592D01*
X37503Y156590D01*
X37620Y156593D01*
X37737Y156595D01*
X37744Y156597D01*
X37749Y156597D01*
X37767Y156603D01*
X37898Y156641D01*
X40432Y157691D01*
X43968Y157691D01*
X47236Y156337D01*
X49737Y153836D01*
X51091Y150568D01*
X51091Y147032D01*
X49737Y143764D01*
X47236Y141263D01*
X43968Y139909D01*
X40432Y139909D01*
X37164Y141263D01*
X34663Y143764D01*
X33309Y147032D01*
X33309Y150568D01*
X34359Y153102D01*
X34385Y153216D01*
X34414Y153329D01*
X34413Y153335D01*
X34415Y153341D01*
X34404Y153458D01*
X34395Y153574D01*
X34392Y153580D01*
X34392Y153586D01*
X34344Y153694D01*
X34298Y153801D01*
X34294Y153806D01*
X34292Y153811D01*
X34279Y153825D01*
X34194Y153932D01*
X27095Y161030D01*
X25681Y162444D01*
X25681Y197358D01*
X25667Y197448D01*
X25659Y197539D01*
X25647Y197569D01*
X25642Y197601D01*
X25599Y197681D01*
X25563Y197765D01*
X25537Y197797D01*
X25526Y197818D01*
X25503Y197840D01*
X25458Y197896D01*
X22447Y200907D01*
X22447Y204984D01*
X22436Y205055D01*
X22434Y205127D01*
X22416Y205176D01*
X22408Y205227D01*
X22374Y205291D01*
X22349Y205358D01*
X22317Y205399D01*
X22292Y205445D01*
X22240Y205494D01*
X22196Y205550D01*
X22152Y205578D01*
X22114Y205614D01*
X22049Y205644D01*
X21989Y205683D01*
X21938Y205696D01*
X21891Y205718D01*
X21820Y205725D01*
X21750Y205743D01*
X21698Y205739D01*
X21647Y205745D01*
X21576Y205729D01*
X21505Y205724D01*
X21457Y205703D01*
X21406Y205692D01*
X21345Y205656D01*
X21279Y205628D01*
X21223Y205583D01*
X21195Y205566D01*
X21180Y205548D01*
X21148Y205523D01*
X16756Y201131D01*
X16703Y201057D01*
X16643Y200987D01*
X16631Y200957D01*
X16612Y200931D01*
X16585Y200844D01*
X16551Y200759D01*
X16547Y200718D01*
X16540Y200696D01*
X16541Y200664D01*
X16533Y200592D01*
X16533Y134352D01*
X16536Y134332D01*
X16534Y134313D01*
X16556Y134211D01*
X16572Y134109D01*
X16582Y134092D01*
X16586Y134072D01*
X16639Y133983D01*
X16688Y133892D01*
X16702Y133878D01*
X16712Y133861D01*
X16791Y133794D01*
X16866Y133722D01*
X16884Y133714D01*
X16899Y133701D01*
X16995Y133662D01*
X17089Y133619D01*
X17109Y133617D01*
X17127Y133609D01*
X17294Y133591D01*
X18183Y133591D01*
X23391Y128383D01*
X23391Y121017D01*
X18183Y115809D01*
X10817Y115809D01*
X5609Y121017D01*
X5609Y128383D01*
X10817Y133591D01*
X11706Y133591D01*
X11726Y133594D01*
X11745Y133592D01*
X11847Y133614D01*
X11949Y133630D01*
X11966Y133640D01*
X11986Y133644D01*
X12075Y133697D01*
X12166Y133746D01*
X12180Y133760D01*
X12197Y133770D01*
X12264Y133849D01*
X12336Y133924D01*
X12344Y133942D01*
X12357Y133957D01*
X12396Y134053D01*
X12439Y134147D01*
X12441Y134167D01*
X12449Y134185D01*
X12467Y134352D01*
X12467Y202592D01*
X27076Y217201D01*
X68728Y217201D01*
X68748Y217204D01*
X68767Y217202D01*
X68869Y217224D01*
X68971Y217240D01*
X68988Y217250D01*
X69008Y217254D01*
X69097Y217307D01*
X69188Y217356D01*
X69202Y217370D01*
X69219Y217380D01*
X69286Y217459D01*
X69358Y217534D01*
X69366Y217552D01*
X69379Y217567D01*
X69418Y217663D01*
X69461Y217757D01*
X69463Y217777D01*
X69471Y217795D01*
X69489Y217962D01*
X69489Y218012D01*
X69600Y218123D01*
X69611Y218139D01*
X69627Y218151D01*
X69683Y218239D01*
X69743Y218322D01*
X69749Y218341D01*
X69760Y218358D01*
X69785Y218459D01*
X69816Y218557D01*
X69815Y218577D01*
X69820Y218597D01*
X69812Y218700D01*
X69809Y218803D01*
X69802Y218822D01*
X69801Y218842D01*
X69760Y218937D01*
X69725Y219034D01*
X69712Y219050D01*
X69704Y219068D01*
X69600Y219199D01*
X69489Y219310D01*
X69489Y224362D01*
X69600Y224473D01*
X69611Y224489D01*
X69627Y224501D01*
X69683Y224589D01*
X69743Y224672D01*
X69749Y224691D01*
X69760Y224708D01*
X69785Y224809D01*
X69816Y224908D01*
X69815Y224928D01*
X69820Y224947D01*
X69812Y225050D01*
X69809Y225153D01*
X69802Y225172D01*
X69801Y225192D01*
X69760Y225287D01*
X69725Y225384D01*
X69712Y225400D01*
X69704Y225418D01*
X69600Y225549D01*
X69489Y225660D01*
X69489Y230712D01*
X69600Y230823D01*
X69611Y230839D01*
X69627Y230851D01*
X69683Y230939D01*
X69743Y231022D01*
X69749Y231041D01*
X69760Y231058D01*
X69785Y231159D01*
X69816Y231257D01*
X69815Y231277D01*
X69820Y231297D01*
X69812Y231400D01*
X69809Y231503D01*
X69802Y231522D01*
X69801Y231542D01*
X69760Y231637D01*
X69755Y231653D01*
X69754Y231656D01*
X69752Y231659D01*
X69725Y231734D01*
X69712Y231750D01*
X69704Y231768D01*
X69635Y231855D01*
X69628Y231867D01*
X69620Y231874D01*
X69600Y231899D01*
X69489Y232010D01*
X69489Y237062D01*
X69600Y237173D01*
X69611Y237189D01*
X69627Y237201D01*
X69683Y237289D01*
X69743Y237372D01*
X69749Y237391D01*
X69760Y237408D01*
X69785Y237509D01*
X69816Y237607D01*
X69815Y237627D01*
X69820Y237647D01*
X69812Y237750D01*
X69809Y237853D01*
X69802Y237872D01*
X69801Y237892D01*
X69760Y237987D01*
X69725Y238084D01*
X69712Y238100D01*
X69704Y238118D01*
X69600Y238249D01*
X69489Y238360D01*
X69489Y243412D01*
X69600Y243523D01*
X69611Y243539D01*
X69627Y243551D01*
X69683Y243639D01*
X69743Y243722D01*
X69749Y243741D01*
X69760Y243758D01*
X69785Y243859D01*
X69816Y243957D01*
X69815Y243977D01*
X69820Y243997D01*
X69812Y244100D01*
X69809Y244203D01*
X69802Y244222D01*
X69801Y244242D01*
X69760Y244337D01*
X69725Y244434D01*
X69712Y244450D01*
X69704Y244468D01*
X69600Y244599D01*
X69489Y244710D01*
X69489Y249762D01*
X69600Y249873D01*
X69611Y249889D01*
X69627Y249901D01*
X69655Y249946D01*
X69688Y249980D01*
X69708Y250023D01*
X69743Y250072D01*
X69749Y250091D01*
X69760Y250108D01*
X69775Y250167D01*
X69791Y250203D01*
X69796Y250243D01*
X69816Y250307D01*
X69815Y250327D01*
X69820Y250347D01*
X69815Y250414D01*
X69818Y250447D01*
X69811Y250481D01*
X69809Y250553D01*
X69802Y250572D01*
X69801Y250592D01*
X69772Y250659D01*
X69766Y250688D01*
X69751Y250713D01*
X69725Y250784D01*
X69712Y250800D01*
X69704Y250818D01*
X69600Y250949D01*
X69489Y251060D01*
X69489Y256112D01*
X69600Y256223D01*
X69611Y256239D01*
X69627Y256251D01*
X69683Y256339D01*
X69743Y256422D01*
X69749Y256441D01*
X69760Y256458D01*
X69785Y256559D01*
X69816Y256657D01*
X69815Y256677D01*
X69820Y256697D01*
X69812Y256800D01*
X69809Y256903D01*
X69802Y256922D01*
X69801Y256942D01*
X69760Y257037D01*
X69725Y257134D01*
X69712Y257150D01*
X69704Y257168D01*
X69600Y257299D01*
X69489Y257410D01*
X69489Y261174D01*
X69486Y261194D01*
X69488Y261213D01*
X69466Y261315D01*
X69450Y261417D01*
X69440Y261434D01*
X69436Y261454D01*
X69383Y261543D01*
X69334Y261634D01*
X69320Y261648D01*
X69310Y261665D01*
X69231Y261732D01*
X69156Y261804D01*
X69138Y261812D01*
X69123Y261825D01*
X69027Y261864D01*
X68933Y261907D01*
X68913Y261909D01*
X68895Y261917D01*
X68728Y261935D01*
X57476Y261935D01*
X57386Y261921D01*
X57295Y261913D01*
X57265Y261901D01*
X57233Y261896D01*
X57152Y261853D01*
X57068Y261817D01*
X57036Y261791D01*
X57016Y261780D01*
X56993Y261757D01*
X56937Y261712D01*
X53756Y258531D01*
X53710Y258466D01*
X53692Y258448D01*
X53689Y258441D01*
X53643Y258387D01*
X53631Y258357D01*
X53612Y258331D01*
X53585Y258244D01*
X53551Y258159D01*
X53547Y258118D01*
X53540Y258096D01*
X53541Y258064D01*
X53533Y257992D01*
X53533Y251928D01*
X53536Y251909D01*
X53534Y251891D01*
X53549Y251822D01*
X53555Y251747D01*
X53567Y251717D01*
X53572Y251685D01*
X53583Y251666D01*
X53586Y251650D01*
X53620Y251594D01*
X53651Y251521D01*
X53677Y251489D01*
X53688Y251468D01*
X53705Y251452D01*
X53712Y251439D01*
X53725Y251429D01*
X53756Y251390D01*
X56553Y248593D01*
X56553Y244407D01*
X53593Y241447D01*
X49407Y241447D01*
X46447Y244407D01*
X46447Y248593D01*
X49244Y251390D01*
X49292Y251456D01*
X49336Y251502D01*
X49342Y251516D01*
X49357Y251533D01*
X49369Y251563D01*
X49388Y251590D01*
X49411Y251664D01*
X49439Y251725D01*
X49441Y251742D01*
X49449Y251761D01*
X49453Y251802D01*
X49460Y251825D01*
X49459Y251857D01*
X49467Y251928D01*
X49467Y259992D01*
X55476Y266001D01*
X128716Y266001D01*
X128787Y266012D01*
X128858Y266014D01*
X128907Y266032D01*
X128959Y266040D01*
X129022Y266074D01*
X129089Y266099D01*
X129130Y266131D01*
X129176Y266156D01*
X129225Y266208D01*
X129281Y266252D01*
X129309Y266296D01*
X129345Y266334D01*
X129376Y266399D01*
X129414Y266459D01*
X129427Y266510D01*
X129449Y266557D01*
X129457Y266628D01*
X129474Y266698D01*
X129470Y266750D01*
X129476Y266801D01*
X129461Y266872D01*
X129455Y266943D01*
X129435Y266991D01*
X129424Y267042D01*
X129387Y267103D01*
X129359Y267169D01*
X129314Y267225D01*
X129298Y267253D01*
X129280Y267268D01*
X129254Y267300D01*
X127347Y269207D01*
X127347Y273393D01*
X130307Y276353D01*
X134493Y276353D01*
X137453Y273393D01*
X137453Y270572D01*
X137456Y270552D01*
X137454Y270533D01*
X137476Y270431D01*
X137492Y270329D01*
X137502Y270312D01*
X137506Y270292D01*
X137559Y270203D01*
X137608Y270112D01*
X137622Y270098D01*
X137632Y270081D01*
X137711Y270014D01*
X137786Y269942D01*
X137804Y269934D01*
X137819Y269921D01*
X137915Y269882D01*
X138009Y269839D01*
X138029Y269837D01*
X138047Y269829D01*
X138214Y269811D01*
X142997Y269811D01*
X161341Y251467D01*
X161341Y244920D01*
X161355Y244830D01*
X161363Y244739D01*
X161375Y244709D01*
X161380Y244677D01*
X161423Y244597D01*
X161459Y244513D01*
X161485Y244481D01*
X161496Y244460D01*
X161519Y244438D01*
X161564Y244382D01*
X163853Y242093D01*
X163853Y237907D01*
X160893Y234947D01*
X156707Y234947D01*
X153747Y237907D01*
X153747Y242093D01*
X156036Y244382D01*
X156089Y244456D01*
X156149Y244525D01*
X156161Y244556D01*
X156180Y244582D01*
X156207Y244669D01*
X156241Y244754D01*
X156245Y244794D01*
X156252Y244817D01*
X156251Y244849D01*
X156259Y244920D01*
X156259Y249047D01*
X156245Y249137D01*
X156237Y249228D01*
X156225Y249257D01*
X156220Y249289D01*
X156177Y249370D01*
X156141Y249454D01*
X156115Y249486D01*
X156104Y249507D01*
X156081Y249529D01*
X156036Y249585D01*
X145099Y260522D01*
X145041Y260564D01*
X144989Y260613D01*
X144942Y260635D01*
X144900Y260666D01*
X144831Y260687D01*
X144766Y260717D01*
X144714Y260723D01*
X144664Y260738D01*
X144593Y260736D01*
X144522Y260744D01*
X144471Y260733D01*
X144419Y260732D01*
X144351Y260707D01*
X144281Y260692D01*
X144236Y260665D01*
X144188Y260647D01*
X144132Y260602D01*
X144070Y260566D01*
X144036Y260526D01*
X143996Y260493D01*
X143957Y260433D01*
X143910Y260379D01*
X143891Y260330D01*
X143863Y260287D01*
X143845Y260217D01*
X143818Y260150D01*
X143810Y260079D01*
X143802Y260048D01*
X143804Y260025D01*
X143800Y259984D01*
X143800Y240402D01*
X143814Y240312D01*
X143822Y240221D01*
X143834Y240192D01*
X143839Y240160D01*
X143882Y240079D01*
X143918Y239995D01*
X143944Y239963D01*
X143955Y239942D01*
X143978Y239920D01*
X144023Y239864D01*
X156819Y227068D01*
X156893Y227015D01*
X156962Y226955D01*
X156993Y226943D01*
X157019Y226924D01*
X157106Y226897D01*
X157191Y226863D01*
X157232Y226859D01*
X157254Y226852D01*
X157286Y226853D01*
X157357Y226845D01*
X188991Y226845D01*
X189062Y226856D01*
X189134Y226858D01*
X189183Y226876D01*
X189234Y226884D01*
X189297Y226918D01*
X189365Y226943D01*
X189405Y226975D01*
X189451Y227000D01*
X189501Y227052D01*
X189557Y227096D01*
X189585Y227140D01*
X189621Y227178D01*
X189651Y227243D01*
X189690Y227303D01*
X189703Y227354D01*
X189724Y227401D01*
X189732Y227472D01*
X189750Y227542D01*
X189746Y227594D01*
X189752Y227645D01*
X189736Y227716D01*
X189731Y227787D01*
X189710Y227835D01*
X189699Y227886D01*
X189662Y227947D01*
X189634Y228013D01*
X189590Y228069D01*
X189573Y228097D01*
X189555Y228112D01*
X189530Y228144D01*
X136764Y280910D01*
X136690Y280963D01*
X136620Y281023D01*
X136590Y281035D01*
X136564Y281054D01*
X136477Y281081D01*
X136392Y281115D01*
X136351Y281119D01*
X136329Y281126D01*
X136297Y281125D01*
X136225Y281133D01*
X71142Y281133D01*
X55915Y296360D01*
X55915Y297945D01*
X55901Y298035D01*
X55893Y298126D01*
X55881Y298155D01*
X55876Y298187D01*
X55833Y298268D01*
X55797Y298352D01*
X55771Y298384D01*
X55760Y298405D01*
X55737Y298427D01*
X55692Y298483D01*
X52390Y301785D01*
X52332Y301827D01*
X52280Y301876D01*
X52233Y301898D01*
X52191Y301929D01*
X52122Y301950D01*
X52057Y301980D01*
X52005Y301986D01*
X51955Y302001D01*
X51884Y301999D01*
X51813Y302007D01*
X51762Y301996D01*
X51710Y301995D01*
X51642Y301970D01*
X51572Y301955D01*
X51527Y301928D01*
X51479Y301910D01*
X51423Y301865D01*
X51361Y301829D01*
X51327Y301789D01*
X51287Y301756D01*
X51248Y301696D01*
X51201Y301642D01*
X51182Y301593D01*
X51154Y301549D01*
X51136Y301480D01*
X51109Y301413D01*
X51101Y301342D01*
X51093Y301311D01*
X51095Y301288D01*
X51091Y301247D01*
X51091Y299432D01*
X49737Y296164D01*
X47236Y293663D01*
X43968Y292309D01*
X40432Y292309D01*
X37164Y293663D01*
X34663Y296164D01*
X33309Y299432D01*
X33309Y302968D01*
X34663Y306236D01*
X37164Y308737D01*
X40432Y310091D01*
X42247Y310091D01*
X42317Y310102D01*
X42389Y310104D01*
X42438Y310122D01*
X42489Y310130D01*
X42553Y310164D01*
X42620Y310189D01*
X42661Y310221D01*
X42707Y310246D01*
X42756Y310298D01*
X42812Y310342D01*
X42840Y310386D01*
X42876Y310424D01*
X42906Y310489D01*
X42945Y310549D01*
X42958Y310600D01*
X42980Y310647D01*
X42988Y310718D01*
X43005Y310788D01*
X43001Y310840D01*
X43007Y310891D01*
X42992Y310962D01*
X42986Y311033D01*
X42966Y311081D01*
X42955Y311132D01*
X42918Y311193D01*
X42890Y311259D01*
X42845Y311315D01*
X42829Y311343D01*
X42811Y311358D01*
X42785Y311390D01*
X41383Y312792D01*
X41309Y312845D01*
X41240Y312905D01*
X41209Y312917D01*
X41183Y312936D01*
X41096Y312963D01*
X41011Y312997D01*
X40970Y313001D01*
X40948Y313008D01*
X40916Y313007D01*
X40845Y313015D01*
X23310Y313015D01*
X21896Y314429D01*
X19888Y316438D01*
X19871Y316449D01*
X19859Y316465D01*
X19782Y316514D01*
X19768Y316526D01*
X19760Y316530D01*
X19688Y316581D01*
X19669Y316587D01*
X19652Y316598D01*
X19552Y316623D01*
X19453Y316654D01*
X19433Y316653D01*
X19414Y316658D01*
X19311Y316650D01*
X19207Y316647D01*
X19188Y316640D01*
X19168Y316639D01*
X19073Y316598D01*
X18976Y316563D01*
X18960Y316550D01*
X18942Y316542D01*
X18868Y316483D01*
X18865Y316482D01*
X18862Y316478D01*
X18811Y316438D01*
X18183Y315809D01*
X10817Y315809D01*
X5609Y321017D01*
X5609Y328383D01*
X10817Y333591D01*
X18183Y333591D01*
X23391Y328383D01*
X23391Y321017D01*
X22762Y320389D01*
X22751Y320373D01*
X22735Y320360D01*
X22679Y320273D01*
X22619Y320189D01*
X22613Y320170D01*
X22602Y320153D01*
X22577Y320053D01*
X22546Y319954D01*
X22547Y319934D01*
X22542Y319915D01*
X22550Y319812D01*
X22553Y319708D01*
X22560Y319689D01*
X22561Y319670D01*
X22602Y319575D01*
X22637Y319477D01*
X22650Y319462D01*
X22658Y319443D01*
X22762Y319312D01*
X24771Y317304D01*
X24845Y317251D01*
X24914Y317191D01*
X24945Y317179D01*
X24971Y317160D01*
X25058Y317133D01*
X25143Y317099D01*
X25184Y317095D01*
X25206Y317088D01*
X25238Y317089D01*
X25309Y317081D01*
X33108Y317081D01*
X33179Y317092D01*
X33251Y317094D01*
X33299Y317112D01*
X33351Y317120D01*
X33414Y317154D01*
X33482Y317179D01*
X33522Y317211D01*
X33568Y317236D01*
X33618Y317288D01*
X33674Y317332D01*
X33702Y317376D01*
X33738Y317414D01*
X33768Y317479D01*
X33807Y317539D01*
X33819Y317590D01*
X33841Y317637D01*
X33849Y317708D01*
X33867Y317778D01*
X33863Y317830D01*
X33868Y317881D01*
X33853Y317952D01*
X33847Y318023D01*
X33827Y318071D01*
X33816Y318122D01*
X33779Y318183D01*
X33751Y318249D01*
X33706Y318305D01*
X33690Y318333D01*
X33672Y318348D01*
X33646Y318380D01*
X31009Y321017D01*
X31009Y328383D01*
X36217Y333591D01*
X43583Y333591D01*
X48791Y328383D01*
X48791Y321017D01*
X48162Y320389D01*
X48151Y320373D01*
X48135Y320360D01*
X48079Y320273D01*
X48019Y320189D01*
X48013Y320170D01*
X48002Y320153D01*
X47977Y320053D01*
X47946Y319954D01*
X47947Y319934D01*
X47942Y319915D01*
X47950Y319812D01*
X47953Y319708D01*
X47960Y319689D01*
X47961Y319670D01*
X48002Y319575D01*
X48037Y319477D01*
X48050Y319462D01*
X48058Y319443D01*
X48162Y319312D01*
X54171Y313304D01*
X54245Y313251D01*
X54314Y313191D01*
X54345Y313179D01*
X54371Y313160D01*
X54458Y313133D01*
X54543Y313099D01*
X54584Y313095D01*
X54606Y313088D01*
X54638Y313089D01*
X54709Y313081D01*
X58557Y313081D01*
X58627Y313092D01*
X58699Y313094D01*
X58748Y313112D01*
X58799Y313120D01*
X58863Y313154D01*
X58930Y313179D01*
X58971Y313211D01*
X59017Y313236D01*
X59066Y313288D01*
X59122Y313332D01*
X59150Y313376D01*
X59186Y313414D01*
X59216Y313479D01*
X59255Y313539D01*
X59268Y313590D01*
X59290Y313637D01*
X59298Y313708D01*
X59315Y313778D01*
X59311Y313830D01*
X59317Y313881D01*
X59302Y313952D01*
X59296Y314023D01*
X59276Y314071D01*
X59265Y314122D01*
X59228Y314183D01*
X59200Y314249D01*
X59155Y314305D01*
X59139Y314333D01*
X59121Y314348D01*
X59095Y314380D01*
X53615Y319860D01*
X53615Y329540D01*
X60460Y336385D01*
X120940Y336385D01*
X125813Y331512D01*
X125829Y331500D01*
X125841Y331485D01*
X125929Y331429D01*
X126012Y331368D01*
X126031Y331363D01*
X126048Y331352D01*
X126149Y331327D01*
X126248Y331296D01*
X126267Y331297D01*
X126287Y331292D01*
X126390Y331300D01*
X126493Y331302D01*
X126512Y331309D01*
X126532Y331311D01*
X126627Y331351D01*
X126724Y331387D01*
X126740Y331399D01*
X126758Y331407D01*
X126889Y331512D01*
X130348Y334971D01*
X131762Y336385D01*
X400340Y336385D01*
X410733Y325992D01*
X410733Y198658D01*
X397106Y185031D01*
X367021Y185031D01*
X366931Y185017D01*
X366840Y185009D01*
X366811Y184997D01*
X366779Y184992D01*
X366698Y184949D01*
X366614Y184913D01*
X366582Y184887D01*
X366561Y184876D01*
X366539Y184853D01*
X366483Y184808D01*
X345390Y163715D01*
X319301Y163715D01*
X317986Y165030D01*
X317912Y165083D01*
X317843Y165143D01*
X317813Y165155D01*
X317787Y165174D01*
X317700Y165201D01*
X317615Y165235D01*
X317574Y165239D01*
X317551Y165246D01*
X317519Y165245D01*
X317448Y165253D01*
X302061Y165253D01*
X301990Y165242D01*
X301918Y165240D01*
X301869Y165222D01*
X301818Y165214D01*
X301755Y165180D01*
X301687Y165155D01*
X301647Y165123D01*
X301601Y165098D01*
X301551Y165046D01*
X301495Y165002D01*
X301467Y164958D01*
X301431Y164920D01*
X301401Y164855D01*
X301362Y164795D01*
X301349Y164744D01*
X301328Y164697D01*
X301320Y164626D01*
X301302Y164556D01*
X301306Y164504D01*
X301300Y164453D01*
X301316Y164382D01*
X301321Y164311D01*
X301342Y164263D01*
X301353Y164212D01*
X301389Y164151D01*
X301418Y164085D01*
X301462Y164029D01*
X301479Y164001D01*
X301497Y163986D01*
X301522Y163954D01*
X304768Y160708D01*
X304842Y160655D01*
X304912Y160595D01*
X304942Y160583D01*
X304968Y160564D01*
X305055Y160537D01*
X305140Y160503D01*
X305181Y160499D01*
X305203Y160492D01*
X305235Y160493D01*
X305307Y160485D01*
X326440Y160485D01*
X333285Y153640D01*
X333285Y142405D01*
X333299Y142315D01*
X333307Y142224D01*
X333319Y142195D01*
X333324Y142163D01*
X333367Y142082D01*
X333403Y141998D01*
X333429Y141966D01*
X333440Y141945D01*
X333463Y141923D01*
X333508Y141867D01*
X335973Y139402D01*
X336047Y139349D01*
X336116Y139289D01*
X336147Y139277D01*
X336173Y139258D01*
X336260Y139231D01*
X336345Y139197D01*
X336386Y139193D01*
X336408Y139186D01*
X336440Y139187D01*
X336511Y139179D01*
X343168Y139179D01*
X343264Y139194D01*
X343361Y139204D01*
X343385Y139214D01*
X343411Y139218D01*
X343497Y139264D01*
X343586Y139304D01*
X343605Y139321D01*
X343628Y139334D01*
X343695Y139404D01*
X343767Y139470D01*
X343780Y139493D01*
X343798Y139512D01*
X343839Y139600D01*
X343886Y139686D01*
X343890Y139711D01*
X343901Y139735D01*
X343912Y139832D01*
X343929Y139928D01*
X343926Y139954D01*
X343928Y139979D01*
X343908Y140075D01*
X343894Y140171D01*
X343882Y140194D01*
X343876Y140220D01*
X343826Y140303D01*
X343782Y140390D01*
X343763Y140409D01*
X343750Y140431D01*
X343676Y140494D01*
X343606Y140562D01*
X343578Y140578D01*
X343563Y140591D01*
X343532Y140603D01*
X343459Y140643D01*
X341964Y141263D01*
X339463Y143764D01*
X338109Y147032D01*
X338109Y150568D01*
X339463Y153836D01*
X341964Y156337D01*
X345232Y157691D01*
X348768Y157691D01*
X352036Y156337D01*
X354537Y153836D01*
X355891Y150568D01*
X355891Y147032D01*
X354537Y143764D01*
X352036Y141263D01*
X350541Y140643D01*
X350458Y140592D01*
X350372Y140546D01*
X350354Y140527D01*
X350331Y140514D01*
X350269Y140439D01*
X350202Y140368D01*
X350191Y140344D01*
X350175Y140324D01*
X350140Y140233D01*
X350099Y140145D01*
X350096Y140119D01*
X350086Y140095D01*
X350082Y139997D01*
X350072Y139901D01*
X350077Y139875D01*
X350076Y139849D01*
X350103Y139755D01*
X350124Y139660D01*
X350137Y139638D01*
X350145Y139613D01*
X350200Y139533D01*
X350250Y139449D01*
X350270Y139432D01*
X350285Y139411D01*
X350363Y139352D01*
X350437Y139289D01*
X350461Y139279D01*
X350482Y139264D01*
X350575Y139234D01*
X350665Y139197D01*
X350681Y139195D01*
X360813Y129063D01*
X360829Y129051D01*
X360842Y129036D01*
X360929Y128980D01*
X361013Y128920D01*
X361032Y128914D01*
X361049Y128903D01*
X361149Y128878D01*
X361248Y128847D01*
X361268Y128848D01*
X361287Y128843D01*
X361390Y128851D01*
X361494Y128854D01*
X361513Y128860D01*
X361532Y128862D01*
X361627Y128902D01*
X361725Y128938D01*
X361740Y128950D01*
X361759Y128958D01*
X361890Y129063D01*
X366417Y133591D01*
X373783Y133591D01*
X378991Y128383D01*
X378991Y121017D01*
X376354Y118380D01*
X376312Y118322D01*
X376262Y118270D01*
X376240Y118223D01*
X376210Y118181D01*
X376189Y118112D01*
X376159Y118047D01*
X376153Y117995D01*
X376138Y117945D01*
X376140Y117874D01*
X376132Y117803D01*
X376143Y117752D01*
X376144Y117700D01*
X376169Y117632D01*
X376184Y117562D01*
X376211Y117517D01*
X376229Y117469D01*
X376273Y117413D01*
X376310Y117351D01*
X376350Y117317D01*
X376382Y117277D01*
X376443Y117238D01*
X376497Y117191D01*
X376545Y117172D01*
X376589Y117144D01*
X376659Y117126D01*
X376725Y117099D01*
X376797Y117091D01*
X376828Y117083D01*
X376851Y117085D01*
X376892Y117081D01*
X384691Y117081D01*
X384781Y117095D01*
X384872Y117103D01*
X384901Y117115D01*
X384933Y117120D01*
X385014Y117163D01*
X385098Y117199D01*
X385130Y117225D01*
X385151Y117236D01*
X385173Y117259D01*
X385229Y117304D01*
X387238Y119312D01*
X387249Y119329D01*
X387265Y119341D01*
X387321Y119428D01*
X387381Y119512D01*
X387387Y119531D01*
X387398Y119548D01*
X387423Y119648D01*
X387454Y119747D01*
X387453Y119767D01*
X387458Y119786D01*
X387450Y119889D01*
X387447Y119993D01*
X387440Y120012D01*
X387439Y120032D01*
X387398Y120127D01*
X387363Y120224D01*
X387350Y120240D01*
X387342Y120258D01*
X387238Y120389D01*
X386609Y121017D01*
X386609Y128383D01*
X391817Y133591D01*
X399183Y133591D01*
X404391Y128383D01*
X404391Y121017D01*
X399183Y115809D01*
X391817Y115809D01*
X391189Y116438D01*
X391173Y116449D01*
X391160Y116465D01*
X391073Y116521D01*
X390989Y116581D01*
X390970Y116587D01*
X390953Y116598D01*
X390853Y116623D01*
X390754Y116654D01*
X390734Y116653D01*
X390715Y116658D01*
X390612Y116650D01*
X390508Y116647D01*
X390489Y116640D01*
X390470Y116639D01*
X390375Y116598D01*
X390277Y116563D01*
X390262Y116550D01*
X390243Y116542D01*
X390112Y116438D01*
X388104Y114429D01*
X386690Y113015D01*
X362462Y113015D01*
G37*
%LPD*%
G36*
X395197Y189111D02*
X395197Y189111D01*
X395288Y189119D01*
X395317Y189131D01*
X395349Y189136D01*
X395430Y189179D01*
X395514Y189215D01*
X395546Y189241D01*
X395567Y189252D01*
X395589Y189275D01*
X395645Y189320D01*
X406444Y200119D01*
X406497Y200193D01*
X406557Y200262D01*
X406569Y200293D01*
X406588Y200319D01*
X406615Y200406D01*
X406649Y200491D01*
X406653Y200532D01*
X406660Y200554D01*
X406659Y200586D01*
X406667Y200657D01*
X406667Y295656D01*
X406656Y295727D01*
X406654Y295799D01*
X406636Y295847D01*
X406628Y295899D01*
X406594Y295962D01*
X406569Y296030D01*
X406537Y296070D01*
X406512Y296116D01*
X406460Y296166D01*
X406416Y296222D01*
X406372Y296250D01*
X406334Y296286D01*
X406269Y296316D01*
X406209Y296355D01*
X406158Y296367D01*
X406111Y296389D01*
X406040Y296397D01*
X405970Y296415D01*
X405918Y296411D01*
X405867Y296416D01*
X405796Y296401D01*
X405725Y296395D01*
X405677Y296375D01*
X405626Y296364D01*
X405565Y296327D01*
X405499Y296299D01*
X405443Y296254D01*
X405415Y296238D01*
X405400Y296220D01*
X405368Y296194D01*
X402836Y293663D01*
X399568Y292309D01*
X396032Y292309D01*
X392764Y293663D01*
X391480Y294946D01*
X391422Y294988D01*
X391370Y295038D01*
X391323Y295060D01*
X391281Y295090D01*
X391212Y295111D01*
X391147Y295141D01*
X391095Y295147D01*
X391045Y295162D01*
X390974Y295160D01*
X390903Y295168D01*
X390852Y295157D01*
X390800Y295156D01*
X390732Y295131D01*
X390662Y295116D01*
X390617Y295089D01*
X390569Y295071D01*
X390513Y295027D01*
X390451Y294990D01*
X390417Y294950D01*
X390377Y294918D01*
X390338Y294857D01*
X390291Y294803D01*
X390272Y294755D01*
X390244Y294711D01*
X390226Y294641D01*
X390199Y294575D01*
X390191Y294503D01*
X390183Y294472D01*
X390185Y294449D01*
X390181Y294408D01*
X390181Y271306D01*
X342428Y223553D01*
X299592Y223553D01*
X299502Y223539D01*
X299411Y223531D01*
X299382Y223519D01*
X299350Y223514D01*
X299269Y223471D01*
X299185Y223435D01*
X299153Y223409D01*
X299132Y223398D01*
X299110Y223375D01*
X299054Y223330D01*
X291229Y215505D01*
X291176Y215431D01*
X291116Y215362D01*
X291104Y215331D01*
X291085Y215305D01*
X291058Y215218D01*
X291024Y215133D01*
X291020Y215092D01*
X291013Y215070D01*
X291014Y215038D01*
X291006Y214967D01*
X291006Y212960D01*
X290261Y212215D01*
X274209Y212215D01*
X273464Y212960D01*
X273464Y218012D01*
X273575Y218123D01*
X273586Y218139D01*
X273602Y218151D01*
X273658Y218239D01*
X273718Y218322D01*
X273724Y218341D01*
X273735Y218358D01*
X273760Y218459D01*
X273791Y218558D01*
X273790Y218578D01*
X273795Y218597D01*
X273787Y218700D01*
X273784Y218803D01*
X273777Y218822D01*
X273776Y218842D01*
X273735Y218937D01*
X273700Y219034D01*
X273687Y219050D01*
X273679Y219068D01*
X273575Y219199D01*
X273464Y219310D01*
X273464Y224362D01*
X273575Y224473D01*
X273586Y224489D01*
X273602Y224501D01*
X273658Y224589D01*
X273718Y224672D01*
X273724Y224691D01*
X273735Y224708D01*
X273760Y224809D01*
X273791Y224908D01*
X273790Y224928D01*
X273795Y224947D01*
X273787Y225050D01*
X273784Y225153D01*
X273777Y225172D01*
X273776Y225192D01*
X273735Y225287D01*
X273700Y225384D01*
X273687Y225400D01*
X273679Y225418D01*
X273575Y225549D01*
X273464Y225660D01*
X273464Y230712D01*
X273575Y230823D01*
X273586Y230839D01*
X273602Y230851D01*
X273658Y230939D01*
X273718Y231022D01*
X273724Y231041D01*
X273735Y231058D01*
X273760Y231159D01*
X273791Y231258D01*
X273790Y231278D01*
X273795Y231297D01*
X273787Y231400D01*
X273784Y231503D01*
X273777Y231522D01*
X273776Y231542D01*
X273735Y231637D01*
X273730Y231653D01*
X273729Y231656D01*
X273727Y231659D01*
X273700Y231734D01*
X273687Y231750D01*
X273679Y231768D01*
X273610Y231855D01*
X273603Y231867D01*
X273595Y231874D01*
X273575Y231899D01*
X273464Y232010D01*
X273464Y237062D01*
X273575Y237173D01*
X273586Y237189D01*
X273602Y237201D01*
X273658Y237289D01*
X273718Y237372D01*
X273724Y237391D01*
X273735Y237408D01*
X273760Y237509D01*
X273791Y237608D01*
X273790Y237628D01*
X273795Y237647D01*
X273787Y237750D01*
X273784Y237853D01*
X273777Y237872D01*
X273776Y237892D01*
X273735Y237987D01*
X273700Y238084D01*
X273687Y238100D01*
X273679Y238118D01*
X273575Y238249D01*
X273464Y238360D01*
X273464Y243412D01*
X273575Y243523D01*
X273586Y243539D01*
X273602Y243551D01*
X273658Y243639D01*
X273718Y243722D01*
X273724Y243741D01*
X273735Y243758D01*
X273760Y243859D01*
X273791Y243958D01*
X273790Y243978D01*
X273795Y243997D01*
X273787Y244100D01*
X273784Y244203D01*
X273777Y244222D01*
X273776Y244242D01*
X273735Y244337D01*
X273700Y244434D01*
X273687Y244450D01*
X273679Y244468D01*
X273575Y244599D01*
X273464Y244710D01*
X273464Y249762D01*
X273575Y249873D01*
X273586Y249889D01*
X273602Y249901D01*
X273630Y249946D01*
X273663Y249980D01*
X273683Y250023D01*
X273718Y250072D01*
X273724Y250091D01*
X273735Y250108D01*
X273750Y250167D01*
X273766Y250203D01*
X273771Y250243D01*
X273791Y250308D01*
X273790Y250328D01*
X273795Y250347D01*
X273790Y250414D01*
X273793Y250447D01*
X273786Y250480D01*
X273784Y250553D01*
X273777Y250572D01*
X273776Y250592D01*
X273747Y250659D01*
X273741Y250688D01*
X273726Y250713D01*
X273700Y250784D01*
X273687Y250800D01*
X273679Y250818D01*
X273575Y250949D01*
X273464Y251060D01*
X273464Y256112D01*
X273575Y256223D01*
X273586Y256239D01*
X273602Y256251D01*
X273658Y256339D01*
X273718Y256422D01*
X273724Y256441D01*
X273735Y256458D01*
X273760Y256559D01*
X273791Y256658D01*
X273790Y256678D01*
X273795Y256697D01*
X273787Y256800D01*
X273784Y256903D01*
X273777Y256922D01*
X273776Y256942D01*
X273735Y257037D01*
X273700Y257134D01*
X273687Y257150D01*
X273679Y257168D01*
X273575Y257299D01*
X273464Y257410D01*
X273464Y262462D01*
X274209Y263207D01*
X274252Y263207D01*
X274322Y263218D01*
X274394Y263220D01*
X274443Y263238D01*
X274494Y263246D01*
X274558Y263280D01*
X274625Y263305D01*
X274666Y263337D01*
X274712Y263362D01*
X274761Y263413D01*
X274817Y263458D01*
X274845Y263502D01*
X274881Y263540D01*
X274911Y263605D01*
X274950Y263665D01*
X274963Y263716D01*
X274985Y263763D01*
X274993Y263834D01*
X275010Y263904D01*
X275006Y263956D01*
X275012Y264007D01*
X274997Y264078D01*
X274991Y264149D01*
X274971Y264197D01*
X274960Y264248D01*
X274923Y264309D01*
X274895Y264375D01*
X274850Y264431D01*
X274834Y264459D01*
X274816Y264474D01*
X274790Y264506D01*
X250004Y289292D01*
X249930Y289345D01*
X249861Y289405D01*
X249830Y289417D01*
X249804Y289436D01*
X249717Y289463D01*
X249632Y289497D01*
X249591Y289501D01*
X249569Y289508D01*
X249537Y289507D01*
X249466Y289515D01*
X240560Y289515D01*
X235129Y294946D01*
X234286Y295789D01*
X234228Y295831D01*
X234176Y295880D01*
X234129Y295902D01*
X234087Y295933D01*
X234018Y295954D01*
X233953Y295984D01*
X233901Y295990D01*
X233851Y296005D01*
X233780Y296003D01*
X233709Y296011D01*
X233658Y296000D01*
X233606Y295999D01*
X233538Y295974D01*
X233468Y295959D01*
X233423Y295932D01*
X233375Y295914D01*
X233319Y295869D01*
X233257Y295833D01*
X233223Y295793D01*
X233183Y295760D01*
X233144Y295700D01*
X233097Y295646D01*
X233078Y295597D01*
X233050Y295553D01*
X233032Y295484D01*
X233005Y295417D01*
X232997Y295346D01*
X232989Y295315D01*
X232991Y295292D01*
X232987Y295251D01*
X232987Y294788D01*
X228116Y289917D01*
X228063Y289843D01*
X228003Y289774D01*
X227991Y289743D01*
X227972Y289717D01*
X227945Y289630D01*
X227911Y289545D01*
X227907Y289504D01*
X227900Y289482D01*
X227901Y289450D01*
X227893Y289379D01*
X227893Y276276D01*
X227895Y276262D01*
X227894Y276251D01*
X227904Y276202D01*
X227906Y276134D01*
X227924Y276085D01*
X227932Y276033D01*
X227966Y275970D01*
X227991Y275903D01*
X228023Y275862D01*
X228048Y275816D01*
X228100Y275767D01*
X228144Y275711D01*
X228188Y275683D01*
X228226Y275647D01*
X228291Y275616D01*
X228351Y275578D01*
X228402Y275565D01*
X228449Y275543D01*
X228520Y275535D01*
X228590Y275518D01*
X228642Y275522D01*
X228693Y275516D01*
X228764Y275531D01*
X228835Y275537D01*
X228883Y275557D01*
X228934Y275568D01*
X228995Y275605D01*
X229061Y275633D01*
X229117Y275678D01*
X229120Y275679D01*
X229128Y275684D01*
X229129Y275685D01*
X229145Y275694D01*
X229160Y275712D01*
X229192Y275738D01*
X229707Y276253D01*
X233893Y276253D01*
X236853Y273293D01*
X236853Y271107D01*
X236867Y271017D01*
X236875Y270926D01*
X236887Y270896D01*
X236892Y270864D01*
X236935Y270784D01*
X236971Y270700D01*
X236997Y270668D01*
X237008Y270647D01*
X237031Y270625D01*
X237076Y270569D01*
X239825Y267820D01*
X239825Y246465D01*
X239839Y246375D01*
X239847Y246284D01*
X239859Y246255D01*
X239864Y246223D01*
X239907Y246142D01*
X239943Y246058D01*
X239969Y246026D01*
X239980Y246005D01*
X240003Y245983D01*
X240048Y245927D01*
X264433Y221542D01*
X264433Y216457D01*
X264447Y216367D01*
X264455Y216276D01*
X264467Y216247D01*
X264472Y216215D01*
X264515Y216134D01*
X264551Y216050D01*
X264577Y216018D01*
X264588Y215997D01*
X264611Y215975D01*
X264656Y215919D01*
X274295Y206280D01*
X274369Y206227D01*
X274438Y206167D01*
X274469Y206155D01*
X274495Y206136D01*
X274582Y206109D01*
X274667Y206075D01*
X274708Y206071D01*
X274730Y206064D01*
X274762Y206065D01*
X274833Y206057D01*
X290261Y206057D01*
X291006Y205312D01*
X291006Y200260D01*
X290895Y200149D01*
X290884Y200133D01*
X290868Y200121D01*
X290812Y200033D01*
X290752Y199950D01*
X290746Y199931D01*
X290735Y199914D01*
X290710Y199813D01*
X290679Y199715D01*
X290680Y199695D01*
X290675Y199675D01*
X290683Y199572D01*
X290686Y199469D01*
X290693Y199450D01*
X290694Y199430D01*
X290735Y199335D01*
X290770Y199238D01*
X290783Y199222D01*
X290791Y199204D01*
X290895Y199073D01*
X291118Y198850D01*
X291161Y198770D01*
X291175Y198756D01*
X291185Y198739D01*
X291264Y198672D01*
X291339Y198600D01*
X291357Y198592D01*
X291372Y198579D01*
X291468Y198540D01*
X291562Y198497D01*
X291582Y198495D01*
X291600Y198487D01*
X291767Y198469D01*
X318953Y198469D01*
X318973Y198472D01*
X318992Y198470D01*
X319094Y198492D01*
X319196Y198508D01*
X319213Y198518D01*
X319233Y198522D01*
X319322Y198575D01*
X319413Y198624D01*
X319427Y198638D01*
X319444Y198648D01*
X319511Y198727D01*
X319583Y198802D01*
X319591Y198820D01*
X319604Y198835D01*
X319643Y198931D01*
X319686Y199025D01*
X319688Y199045D01*
X319696Y199063D01*
X319714Y199230D01*
X319714Y212746D01*
X320459Y213491D01*
X339541Y213491D01*
X340286Y212746D01*
X340286Y196552D01*
X340289Y196532D01*
X340287Y196513D01*
X340309Y196411D01*
X340325Y196309D01*
X340335Y196292D01*
X340339Y196272D01*
X340392Y196183D01*
X340441Y196092D01*
X340455Y196078D01*
X340465Y196061D01*
X340544Y195994D01*
X340619Y195922D01*
X340637Y195914D01*
X340652Y195901D01*
X340748Y195862D01*
X340842Y195819D01*
X340862Y195817D01*
X340880Y195809D01*
X341047Y195791D01*
X365080Y195791D01*
X365170Y195805D01*
X365261Y195813D01*
X365291Y195825D01*
X365323Y195830D01*
X365403Y195873D01*
X365487Y195909D01*
X365519Y195935D01*
X365540Y195946D01*
X365562Y195969D01*
X365618Y196014D01*
X367907Y198303D01*
X372093Y198303D01*
X375053Y195343D01*
X375053Y191157D01*
X374292Y190396D01*
X374250Y190338D01*
X374201Y190286D01*
X374179Y190239D01*
X374148Y190197D01*
X374127Y190128D01*
X374097Y190063D01*
X374091Y190011D01*
X374076Y189961D01*
X374078Y189890D01*
X374070Y189819D01*
X374081Y189768D01*
X374082Y189716D01*
X374107Y189648D01*
X374122Y189578D01*
X374149Y189533D01*
X374167Y189485D01*
X374212Y189429D01*
X374248Y189367D01*
X374288Y189333D01*
X374321Y189293D01*
X374381Y189254D01*
X374435Y189207D01*
X374484Y189188D01*
X374527Y189160D01*
X374597Y189142D01*
X374663Y189115D01*
X374735Y189107D01*
X374766Y189099D01*
X374789Y189101D01*
X374830Y189097D01*
X395107Y189097D01*
X395197Y189111D01*
G37*
G36*
X337615Y236583D02*
X337615Y236583D01*
X337706Y236591D01*
X337735Y236603D01*
X337767Y236608D01*
X337848Y236651D01*
X337932Y236687D01*
X337964Y236713D01*
X337985Y236724D01*
X338007Y236747D01*
X338063Y236792D01*
X356598Y255327D01*
X356651Y255401D01*
X356711Y255471D01*
X356723Y255501D01*
X356742Y255527D01*
X356769Y255614D01*
X356803Y255699D01*
X356807Y255740D01*
X356814Y255762D01*
X356813Y255794D01*
X356821Y255865D01*
X356821Y297851D01*
X356806Y297947D01*
X356796Y298044D01*
X356786Y298068D01*
X356782Y298094D01*
X356736Y298180D01*
X356696Y298269D01*
X356679Y298288D01*
X356666Y298311D01*
X356596Y298378D01*
X356530Y298450D01*
X356507Y298462D01*
X356488Y298481D01*
X356400Y298522D01*
X356314Y298568D01*
X356289Y298573D01*
X356265Y298584D01*
X356168Y298595D01*
X356072Y298612D01*
X356046Y298608D01*
X356021Y298611D01*
X355925Y298591D01*
X355829Y298576D01*
X355806Y298565D01*
X355780Y298559D01*
X355697Y298509D01*
X355610Y298465D01*
X355591Y298446D01*
X355569Y298433D01*
X355506Y298359D01*
X355438Y298289D01*
X355422Y298261D01*
X355409Y298246D01*
X355397Y298215D01*
X355357Y298142D01*
X354537Y296164D01*
X352036Y293663D01*
X348768Y292309D01*
X345232Y292309D01*
X341964Y293663D01*
X339463Y296164D01*
X338109Y299432D01*
X338109Y302968D01*
X339463Y306236D01*
X341964Y308737D01*
X345232Y310091D01*
X348768Y310091D01*
X351574Y308929D01*
X351669Y308906D01*
X351762Y308878D01*
X351788Y308878D01*
X351814Y308872D01*
X351910Y308882D01*
X352008Y308884D01*
X352032Y308893D01*
X352058Y308895D01*
X352147Y308935D01*
X352239Y308968D01*
X352259Y308985D01*
X352283Y308995D01*
X352355Y309061D01*
X352431Y309122D01*
X352445Y309144D01*
X352464Y309162D01*
X352511Y309247D01*
X352564Y309329D01*
X352570Y309354D01*
X352583Y309377D01*
X352600Y309473D01*
X352624Y309568D01*
X352622Y309594D01*
X352627Y309619D01*
X352612Y309716D01*
X352605Y309813D01*
X352595Y309837D01*
X352591Y309863D01*
X352547Y309950D01*
X352509Y310039D01*
X352488Y310065D01*
X352479Y310082D01*
X352456Y310105D01*
X352404Y310170D01*
X349782Y312792D01*
X349708Y312845D01*
X349638Y312905D01*
X349608Y312917D01*
X349582Y312936D01*
X349495Y312963D01*
X349410Y312997D01*
X349369Y313001D01*
X349347Y313008D01*
X349315Y313007D01*
X349243Y313015D01*
X339860Y313015D01*
X330431Y322444D01*
X330357Y322497D01*
X330288Y322557D01*
X330257Y322569D01*
X330231Y322588D01*
X330144Y322615D01*
X330059Y322649D01*
X330018Y322653D01*
X329996Y322660D01*
X329964Y322659D01*
X329893Y322667D01*
X328952Y322667D01*
X328932Y322664D01*
X328913Y322666D01*
X328811Y322644D01*
X328709Y322628D01*
X328692Y322618D01*
X328672Y322614D01*
X328583Y322561D01*
X328492Y322512D01*
X328478Y322498D01*
X328461Y322488D01*
X328394Y322409D01*
X328322Y322334D01*
X328314Y322316D01*
X328301Y322301D01*
X328262Y322205D01*
X328219Y322111D01*
X328217Y322091D01*
X328209Y322073D01*
X328191Y321906D01*
X328191Y321017D01*
X322983Y315809D01*
X315617Y315809D01*
X310409Y321017D01*
X310409Y328383D01*
X313046Y331020D01*
X313088Y331078D01*
X313138Y331130D01*
X313160Y331177D01*
X313190Y331219D01*
X313211Y331288D01*
X313241Y331353D01*
X313247Y331405D01*
X313262Y331455D01*
X313260Y331526D01*
X313268Y331597D01*
X313257Y331648D01*
X313256Y331700D01*
X313231Y331768D01*
X313216Y331838D01*
X313189Y331883D01*
X313171Y331931D01*
X313127Y331987D01*
X313090Y332049D01*
X313050Y332083D01*
X313018Y332123D01*
X312957Y332162D01*
X312903Y332209D01*
X312855Y332228D01*
X312811Y332256D01*
X312741Y332274D01*
X312675Y332301D01*
X312603Y332309D01*
X312572Y332317D01*
X312549Y332315D01*
X312508Y332319D01*
X300692Y332319D01*
X300621Y332308D01*
X300549Y332306D01*
X300501Y332288D01*
X300449Y332280D01*
X300386Y332246D01*
X300318Y332221D01*
X300278Y332189D01*
X300232Y332164D01*
X300182Y332112D01*
X300126Y332068D01*
X300098Y332024D01*
X300062Y331986D01*
X300032Y331921D01*
X299993Y331861D01*
X299981Y331810D01*
X299959Y331763D01*
X299951Y331692D01*
X299933Y331622D01*
X299937Y331570D01*
X299932Y331519D01*
X299947Y331448D01*
X299953Y331377D01*
X299973Y331329D01*
X299984Y331278D01*
X300021Y331217D01*
X300049Y331151D01*
X300094Y331095D01*
X300110Y331067D01*
X300128Y331052D01*
X300154Y331020D01*
X302791Y328383D01*
X302791Y321017D01*
X302162Y320389D01*
X302151Y320373D01*
X302135Y320360D01*
X302079Y320273D01*
X302019Y320189D01*
X302013Y320170D01*
X302002Y320153D01*
X301977Y320053D01*
X301946Y319954D01*
X301947Y319934D01*
X301942Y319915D01*
X301950Y319812D01*
X301953Y319708D01*
X301960Y319689D01*
X301961Y319670D01*
X302002Y319575D01*
X302037Y319477D01*
X302050Y319462D01*
X302058Y319443D01*
X302162Y319312D01*
X312567Y308908D01*
X313981Y307494D01*
X313981Y263206D01*
X312567Y261792D01*
X291229Y240454D01*
X291176Y240380D01*
X291116Y240311D01*
X291104Y240280D01*
X291085Y240254D01*
X291058Y240167D01*
X291024Y240082D01*
X291020Y240041D01*
X291013Y240019D01*
X291014Y239987D01*
X291006Y239916D01*
X291006Y238360D01*
X290895Y238249D01*
X290884Y238233D01*
X290868Y238221D01*
X290812Y238133D01*
X290752Y238050D01*
X290746Y238031D01*
X290735Y238014D01*
X290710Y237913D01*
X290679Y237815D01*
X290680Y237795D01*
X290675Y237775D01*
X290683Y237672D01*
X290686Y237569D01*
X290693Y237550D01*
X290694Y237530D01*
X290735Y237435D01*
X290770Y237338D01*
X290783Y237322D01*
X290791Y237304D01*
X290895Y237173D01*
X291118Y236950D01*
X291161Y236870D01*
X291175Y236856D01*
X291185Y236839D01*
X291264Y236772D01*
X291339Y236700D01*
X291357Y236692D01*
X291372Y236679D01*
X291468Y236640D01*
X291562Y236597D01*
X291582Y236595D01*
X291600Y236587D01*
X291767Y236569D01*
X337525Y236569D01*
X337615Y236583D01*
G37*
G36*
X277763Y166084D02*
X277763Y166084D01*
X277835Y166086D01*
X277884Y166104D01*
X277935Y166112D01*
X277999Y166146D01*
X278066Y166171D01*
X278107Y166203D01*
X278153Y166228D01*
X278202Y166280D01*
X278258Y166324D01*
X278286Y166368D01*
X278322Y166406D01*
X278352Y166471D01*
X278391Y166531D01*
X278404Y166582D01*
X278426Y166629D01*
X278434Y166700D01*
X278451Y166770D01*
X278447Y166822D01*
X278453Y166873D01*
X278437Y166944D01*
X278432Y167015D01*
X278412Y167063D01*
X278400Y167114D01*
X278364Y167175D01*
X278336Y167241D01*
X278291Y167297D01*
X278274Y167325D01*
X278256Y167340D01*
X278231Y167372D01*
X238723Y206880D01*
X238649Y206933D01*
X238579Y206993D01*
X238549Y207005D01*
X238523Y207024D01*
X238436Y207051D01*
X238351Y207085D01*
X238310Y207089D01*
X238288Y207096D01*
X238256Y207095D01*
X238184Y207103D01*
X237792Y207103D01*
X237772Y207100D01*
X237753Y207102D01*
X237651Y207080D01*
X237549Y207064D01*
X237532Y207054D01*
X237512Y207050D01*
X237423Y206997D01*
X237332Y206948D01*
X237318Y206934D01*
X237301Y206924D01*
X237234Y206845D01*
X237162Y206770D01*
X237154Y206752D01*
X237141Y206737D01*
X237130Y206709D01*
X236920Y206499D01*
X236909Y206483D01*
X236893Y206471D01*
X236837Y206383D01*
X236777Y206300D01*
X236771Y206281D01*
X236760Y206264D01*
X236735Y206163D01*
X236704Y206064D01*
X236705Y206044D01*
X236700Y206025D01*
X236708Y205922D01*
X236711Y205819D01*
X236718Y205800D01*
X236719Y205780D01*
X236760Y205685D01*
X236795Y205588D01*
X236808Y205572D01*
X236816Y205554D01*
X236920Y205423D01*
X237031Y205312D01*
X237031Y200260D01*
X236920Y200149D01*
X236909Y200133D01*
X236893Y200121D01*
X236837Y200033D01*
X236777Y199950D01*
X236771Y199931D01*
X236760Y199914D01*
X236735Y199813D01*
X236704Y199714D01*
X236705Y199694D01*
X236700Y199675D01*
X236708Y199572D01*
X236711Y199469D01*
X236718Y199450D01*
X236719Y199430D01*
X236760Y199335D01*
X236795Y199238D01*
X236808Y199222D01*
X236816Y199204D01*
X236920Y199073D01*
X237031Y198962D01*
X237031Y193910D01*
X236286Y193165D01*
X220234Y193165D01*
X219555Y193844D01*
X219481Y193897D01*
X219411Y193957D01*
X219381Y193969D01*
X219355Y193988D01*
X219268Y194015D01*
X219183Y194049D01*
X219142Y194053D01*
X219120Y194060D01*
X219088Y194059D01*
X219016Y194067D01*
X205428Y194067D01*
X205338Y194053D01*
X205247Y194045D01*
X205217Y194033D01*
X205185Y194028D01*
X205105Y193985D01*
X205021Y193949D01*
X204989Y193923D01*
X204968Y193912D01*
X204946Y193889D01*
X204890Y193844D01*
X202093Y191047D01*
X201188Y191047D01*
X201117Y191036D01*
X201046Y191034D01*
X200997Y191016D01*
X200945Y191008D01*
X200882Y190974D01*
X200815Y190949D01*
X200774Y190917D01*
X200728Y190892D01*
X200679Y190840D01*
X200623Y190796D01*
X200594Y190752D01*
X200559Y190714D01*
X200528Y190649D01*
X200490Y190589D01*
X200477Y190538D01*
X200455Y190491D01*
X200447Y190420D01*
X200430Y190350D01*
X200434Y190298D01*
X200428Y190247D01*
X200443Y190176D01*
X200449Y190105D01*
X200469Y190057D01*
X200480Y190006D01*
X200517Y189945D01*
X200545Y189879D01*
X200590Y189823D01*
X200606Y189795D01*
X200620Y189783D01*
X200623Y189778D01*
X200630Y189772D01*
X200650Y189748D01*
X218514Y171884D01*
X218588Y171831D01*
X218657Y171771D01*
X218687Y171759D01*
X218714Y171740D01*
X218801Y171713D01*
X218885Y171679D01*
X218926Y171675D01*
X218949Y171668D01*
X218981Y171669D01*
X219052Y171661D01*
X250918Y171661D01*
X256283Y166296D01*
X256357Y166243D01*
X256427Y166183D01*
X256457Y166171D01*
X256483Y166152D01*
X256570Y166125D01*
X256655Y166091D01*
X256696Y166087D01*
X256718Y166080D01*
X256750Y166081D01*
X256821Y166073D01*
X277692Y166073D01*
X277763Y166084D01*
G37*
G36*
X343481Y167795D02*
X343481Y167795D01*
X343572Y167803D01*
X343601Y167815D01*
X343633Y167820D01*
X343714Y167863D01*
X343798Y167899D01*
X343830Y167925D01*
X343851Y167936D01*
X343873Y167959D01*
X343929Y168004D01*
X365022Y189097D01*
X365170Y189097D01*
X365241Y189108D01*
X365312Y189110D01*
X365361Y189128D01*
X365413Y189136D01*
X365476Y189170D01*
X365543Y189195D01*
X365584Y189227D01*
X365630Y189252D01*
X365679Y189303D01*
X365735Y189348D01*
X365763Y189392D01*
X365799Y189430D01*
X365830Y189495D01*
X365868Y189555D01*
X365881Y189606D01*
X365903Y189653D01*
X365911Y189724D01*
X365928Y189794D01*
X365924Y189846D01*
X365930Y189897D01*
X365915Y189968D01*
X365909Y190039D01*
X365889Y190087D01*
X365878Y190138D01*
X365841Y190199D01*
X365813Y190265D01*
X365768Y190321D01*
X365752Y190349D01*
X365734Y190364D01*
X365708Y190396D01*
X365618Y190486D01*
X365544Y190539D01*
X365475Y190599D01*
X365445Y190611D01*
X365418Y190630D01*
X365331Y190657D01*
X365247Y190691D01*
X365206Y190695D01*
X365183Y190702D01*
X365151Y190701D01*
X365080Y190709D01*
X325067Y190709D01*
X324977Y190695D01*
X324886Y190687D01*
X324857Y190675D01*
X324825Y190670D01*
X324744Y190627D01*
X324665Y190593D01*
X300402Y190593D01*
X300312Y190579D01*
X300221Y190571D01*
X300191Y190559D01*
X300159Y190554D01*
X300078Y190511D01*
X299994Y190475D01*
X299962Y190449D01*
X299942Y190438D01*
X299919Y190415D01*
X299863Y190370D01*
X286576Y177083D01*
X286530Y177020D01*
X286507Y176995D01*
X286502Y176985D01*
X286463Y176939D01*
X286451Y176909D01*
X286432Y176883D01*
X286405Y176796D01*
X286371Y176711D01*
X286367Y176670D01*
X286360Y176648D01*
X286361Y176616D01*
X286353Y176544D01*
X286353Y173307D01*
X283664Y170618D01*
X283622Y170560D01*
X283573Y170508D01*
X283551Y170461D01*
X283520Y170419D01*
X283499Y170350D01*
X283469Y170285D01*
X283463Y170233D01*
X283448Y170183D01*
X283450Y170112D01*
X283442Y170041D01*
X283453Y169990D01*
X283454Y169938D01*
X283479Y169870D01*
X283494Y169800D01*
X283521Y169755D01*
X283539Y169707D01*
X283584Y169651D01*
X283620Y169589D01*
X283660Y169555D01*
X283693Y169515D01*
X283753Y169476D01*
X283807Y169429D01*
X283856Y169410D01*
X283899Y169382D01*
X283969Y169364D01*
X284035Y169337D01*
X284107Y169329D01*
X284138Y169321D01*
X284161Y169323D01*
X284202Y169319D01*
X319447Y169319D01*
X320762Y168004D01*
X320836Y167951D01*
X320906Y167891D01*
X320936Y167879D01*
X320962Y167860D01*
X321049Y167833D01*
X321134Y167799D01*
X321175Y167795D01*
X321197Y167788D01*
X321229Y167789D01*
X321301Y167781D01*
X343391Y167781D01*
X343481Y167795D01*
G37*
G36*
X205662Y254299D02*
X205662Y254299D01*
X205753Y254307D01*
X205783Y254319D01*
X205815Y254324D01*
X205895Y254367D01*
X205979Y254403D01*
X206011Y254429D01*
X206032Y254440D01*
X206054Y254463D01*
X206110Y254508D01*
X208907Y257305D01*
X209554Y257305D01*
X209624Y257316D01*
X209696Y257318D01*
X209745Y257336D01*
X209796Y257344D01*
X209860Y257378D01*
X209927Y257403D01*
X209968Y257435D01*
X210014Y257460D01*
X210063Y257511D01*
X210119Y257556D01*
X210147Y257600D01*
X210183Y257638D01*
X210213Y257703D01*
X210252Y257763D01*
X210265Y257814D01*
X210287Y257861D01*
X210295Y257932D01*
X210312Y258002D01*
X210308Y258054D01*
X210314Y258105D01*
X210299Y258176D01*
X210293Y258247D01*
X210273Y258295D01*
X210262Y258346D01*
X210225Y258407D01*
X210197Y258473D01*
X210152Y258529D01*
X210135Y258557D01*
X210118Y258572D01*
X210092Y258604D01*
X189735Y278961D01*
X188321Y280375D01*
X188321Y290639D01*
X188307Y290729D01*
X188299Y290820D01*
X188287Y290849D01*
X188282Y290881D01*
X188239Y290962D01*
X188203Y291046D01*
X188177Y291078D01*
X188166Y291099D01*
X188143Y291121D01*
X188098Y291177D01*
X182915Y296360D01*
X182915Y297945D01*
X182901Y298035D01*
X182893Y298126D01*
X182881Y298155D01*
X182876Y298187D01*
X182833Y298268D01*
X182797Y298352D01*
X182771Y298384D01*
X182760Y298405D01*
X182737Y298427D01*
X182692Y298483D01*
X179390Y301785D01*
X179332Y301827D01*
X179280Y301876D01*
X179233Y301898D01*
X179191Y301929D01*
X179122Y301950D01*
X179057Y301980D01*
X179005Y301986D01*
X178955Y302001D01*
X178884Y301999D01*
X178813Y302007D01*
X178762Y301996D01*
X178710Y301995D01*
X178642Y301970D01*
X178572Y301955D01*
X178527Y301928D01*
X178479Y301910D01*
X178423Y301865D01*
X178361Y301829D01*
X178327Y301789D01*
X178287Y301756D01*
X178248Y301696D01*
X178201Y301642D01*
X178182Y301593D01*
X178154Y301549D01*
X178136Y301480D01*
X178109Y301413D01*
X178101Y301342D01*
X178093Y301311D01*
X178095Y301288D01*
X178091Y301247D01*
X178091Y299432D01*
X176737Y296164D01*
X174236Y293663D01*
X170968Y292309D01*
X167432Y292309D01*
X164164Y293663D01*
X161663Y296164D01*
X160309Y299432D01*
X160309Y302968D01*
X161663Y306236D01*
X164164Y308737D01*
X167432Y310091D01*
X169247Y310091D01*
X169317Y310102D01*
X169389Y310104D01*
X169438Y310122D01*
X169489Y310130D01*
X169553Y310164D01*
X169620Y310189D01*
X169661Y310221D01*
X169707Y310246D01*
X169756Y310298D01*
X169812Y310342D01*
X169840Y310386D01*
X169876Y310424D01*
X169906Y310489D01*
X169945Y310549D01*
X169958Y310600D01*
X169980Y310647D01*
X169988Y310718D01*
X170005Y310788D01*
X170001Y310840D01*
X170007Y310891D01*
X169992Y310962D01*
X169986Y311033D01*
X169966Y311081D01*
X169955Y311132D01*
X169918Y311193D01*
X169890Y311259D01*
X169845Y311315D01*
X169829Y311343D01*
X169811Y311358D01*
X169785Y311390D01*
X168383Y312792D01*
X168309Y312845D01*
X168240Y312905D01*
X168209Y312917D01*
X168183Y312936D01*
X168096Y312963D01*
X168011Y312997D01*
X167970Y313001D01*
X167948Y313008D01*
X167916Y313007D01*
X167845Y313015D01*
X162060Y313015D01*
X152631Y322444D01*
X152557Y322497D01*
X152488Y322557D01*
X152457Y322569D01*
X152431Y322588D01*
X152344Y322615D01*
X152259Y322649D01*
X152218Y322653D01*
X152196Y322660D01*
X152164Y322659D01*
X152093Y322667D01*
X151152Y322667D01*
X151132Y322664D01*
X151113Y322666D01*
X151011Y322644D01*
X150909Y322628D01*
X150892Y322618D01*
X150872Y322614D01*
X150783Y322561D01*
X150692Y322512D01*
X150678Y322498D01*
X150661Y322488D01*
X150594Y322409D01*
X150522Y322334D01*
X150514Y322316D01*
X150501Y322301D01*
X150462Y322205D01*
X150419Y322111D01*
X150417Y322091D01*
X150409Y322073D01*
X150391Y321906D01*
X150391Y321017D01*
X146548Y317174D01*
X146506Y317116D01*
X146456Y317064D01*
X146434Y317017D01*
X146404Y316975D01*
X146383Y316906D01*
X146353Y316841D01*
X146347Y316789D01*
X146332Y316739D01*
X146334Y316668D01*
X146326Y316597D01*
X146337Y316546D01*
X146338Y316494D01*
X146363Y316426D01*
X146378Y316356D01*
X146405Y316311D01*
X146423Y316263D01*
X146467Y316207D01*
X146504Y316145D01*
X146544Y316111D01*
X146576Y316071D01*
X146637Y316032D01*
X146691Y315985D01*
X146739Y315966D01*
X146783Y315938D01*
X146853Y315920D01*
X146919Y315893D01*
X146991Y315885D01*
X147022Y315877D01*
X147045Y315879D01*
X147086Y315875D01*
X149601Y315875D01*
X158375Y307101D01*
X158375Y286213D01*
X158389Y286123D01*
X158397Y286032D01*
X158409Y286002D01*
X158414Y285970D01*
X158457Y285890D01*
X158493Y285806D01*
X158519Y285774D01*
X158530Y285753D01*
X158553Y285731D01*
X158580Y285697D01*
X158581Y285696D01*
X158582Y285695D01*
X158598Y285675D01*
X189508Y254765D01*
X189566Y254723D01*
X189618Y254674D01*
X189665Y254652D01*
X189707Y254621D01*
X189776Y254600D01*
X189841Y254570D01*
X189893Y254564D01*
X189943Y254549D01*
X190014Y254551D01*
X190085Y254543D01*
X190136Y254554D01*
X190188Y254555D01*
X190256Y254580D01*
X190326Y254595D01*
X190371Y254622D01*
X190419Y254640D01*
X190475Y254685D01*
X190537Y254721D01*
X190571Y254761D01*
X190611Y254793D01*
X190650Y254854D01*
X190697Y254908D01*
X190716Y254956D01*
X190744Y255000D01*
X190762Y255070D01*
X190789Y255136D01*
X190797Y255208D01*
X190805Y255239D01*
X190803Y255262D01*
X190807Y255303D01*
X190807Y255853D01*
X193767Y258813D01*
X197953Y258813D01*
X200913Y255853D01*
X200913Y255046D01*
X200916Y255026D01*
X200914Y255007D01*
X200936Y254905D01*
X200952Y254803D01*
X200962Y254786D01*
X200966Y254766D01*
X201019Y254677D01*
X201068Y254586D01*
X201082Y254572D01*
X201092Y254555D01*
X201171Y254488D01*
X201246Y254416D01*
X201264Y254408D01*
X201279Y254395D01*
X201375Y254356D01*
X201469Y254313D01*
X201489Y254311D01*
X201507Y254303D01*
X201674Y254285D01*
X205572Y254285D01*
X205662Y254299D01*
G37*
G36*
X210542Y160496D02*
X210542Y160496D01*
X210614Y160498D01*
X210663Y160516D01*
X210714Y160524D01*
X210778Y160558D01*
X210845Y160583D01*
X210886Y160615D01*
X210932Y160640D01*
X210981Y160692D01*
X211037Y160736D01*
X211065Y160780D01*
X211101Y160818D01*
X211131Y160883D01*
X211170Y160943D01*
X211183Y160994D01*
X211205Y161041D01*
X211212Y161112D01*
X211230Y161182D01*
X211226Y161234D01*
X211232Y161285D01*
X211216Y161356D01*
X211211Y161427D01*
X211190Y161475D01*
X211179Y161526D01*
X211143Y161587D01*
X211115Y161653D01*
X211070Y161709D01*
X211053Y161737D01*
X211035Y161752D01*
X211010Y161784D01*
X189238Y183556D01*
X189164Y183609D01*
X189094Y183669D01*
X189064Y183681D01*
X189038Y183700D01*
X188951Y183727D01*
X188866Y183761D01*
X188825Y183765D01*
X188803Y183772D01*
X188771Y183771D01*
X188699Y183779D01*
X171301Y183779D01*
X171211Y183765D01*
X171120Y183757D01*
X171090Y183745D01*
X171058Y183740D01*
X170977Y183697D01*
X170893Y183661D01*
X170861Y183635D01*
X170841Y183624D01*
X170818Y183601D01*
X170762Y183556D01*
X154631Y167425D01*
X154619Y167408D01*
X154603Y167396D01*
X154547Y167309D01*
X154487Y167225D01*
X154481Y167206D01*
X154470Y167189D01*
X154445Y167088D01*
X154415Y166990D01*
X154415Y166970D01*
X154410Y166950D01*
X154419Y166847D01*
X154421Y166744D01*
X154428Y166725D01*
X154430Y166705D01*
X154470Y166610D01*
X154506Y166513D01*
X154518Y166497D01*
X154526Y166479D01*
X154631Y166348D01*
X154683Y166296D01*
X154757Y166242D01*
X154827Y166183D01*
X154857Y166171D01*
X154883Y166152D01*
X154970Y166125D01*
X155055Y166091D01*
X155096Y166087D01*
X155118Y166080D01*
X155150Y166081D01*
X155221Y166073D01*
X176355Y166073D01*
X178926Y163502D01*
X179000Y163449D01*
X179069Y163389D01*
X179099Y163377D01*
X179126Y163358D01*
X179212Y163331D01*
X179297Y163297D01*
X179338Y163293D01*
X179361Y163286D01*
X179393Y163287D01*
X179464Y163279D01*
X200597Y163279D01*
X203168Y160708D01*
X203242Y160655D01*
X203312Y160595D01*
X203342Y160583D01*
X203368Y160564D01*
X203455Y160537D01*
X203540Y160503D01*
X203581Y160499D01*
X203603Y160492D01*
X203635Y160493D01*
X203707Y160485D01*
X210471Y160485D01*
X210542Y160496D01*
G37*
G36*
X218818Y259996D02*
X218818Y259996D01*
X218870Y259998D01*
X218938Y260022D01*
X219008Y260038D01*
X219053Y260064D01*
X219101Y260082D01*
X219157Y260127D01*
X219219Y260164D01*
X219253Y260203D01*
X219293Y260236D01*
X219332Y260296D01*
X219379Y260351D01*
X219398Y260399D01*
X219426Y260443D01*
X219444Y260512D01*
X219471Y260579D01*
X219479Y260650D01*
X219487Y260681D01*
X219485Y260705D01*
X219489Y260746D01*
X219489Y262462D01*
X220234Y263207D01*
X223066Y263207D01*
X223086Y263210D01*
X223105Y263208D01*
X223207Y263230D01*
X223309Y263246D01*
X223326Y263256D01*
X223346Y263260D01*
X223435Y263313D01*
X223526Y263362D01*
X223540Y263376D01*
X223557Y263386D01*
X223624Y263465D01*
X223696Y263540D01*
X223704Y263558D01*
X223717Y263573D01*
X223756Y263669D01*
X223799Y263763D01*
X223801Y263783D01*
X223809Y263801D01*
X223827Y263968D01*
X223827Y291378D01*
X224167Y291717D01*
X224224Y291797D01*
X224286Y291872D01*
X224295Y291896D01*
X224310Y291917D01*
X224339Y292010D01*
X224374Y292101D01*
X224375Y292127D01*
X224383Y292152D01*
X224380Y292250D01*
X224384Y292347D01*
X224377Y292372D01*
X224376Y292398D01*
X224343Y292490D01*
X224316Y292583D01*
X224301Y292605D01*
X224292Y292629D01*
X224231Y292705D01*
X224175Y292785D01*
X224154Y292801D01*
X224138Y292821D01*
X224056Y292874D01*
X223978Y292932D01*
X223953Y292940D01*
X223931Y292954D01*
X223837Y292978D01*
X223744Y293008D01*
X223718Y293008D01*
X223693Y293014D01*
X223596Y293007D01*
X223498Y293006D01*
X223467Y292997D01*
X223447Y292995D01*
X223417Y292982D01*
X223337Y292959D01*
X221768Y292309D01*
X218232Y292309D01*
X214964Y293663D01*
X212463Y296164D01*
X211109Y299432D01*
X211109Y302968D01*
X212463Y306236D01*
X214964Y308737D01*
X218232Y310091D01*
X220047Y310091D01*
X220117Y310102D01*
X220189Y310104D01*
X220238Y310122D01*
X220289Y310130D01*
X220353Y310164D01*
X220420Y310189D01*
X220461Y310221D01*
X220507Y310246D01*
X220556Y310298D01*
X220612Y310342D01*
X220640Y310386D01*
X220676Y310424D01*
X220706Y310489D01*
X220745Y310549D01*
X220758Y310600D01*
X220780Y310647D01*
X220788Y310718D01*
X220805Y310788D01*
X220801Y310840D01*
X220807Y310891D01*
X220792Y310962D01*
X220786Y311033D01*
X220766Y311081D01*
X220755Y311132D01*
X220718Y311193D01*
X220690Y311259D01*
X220645Y311315D01*
X220629Y311343D01*
X220611Y311358D01*
X220585Y311390D01*
X219183Y312792D01*
X219109Y312845D01*
X219040Y312905D01*
X219009Y312917D01*
X218983Y312936D01*
X218896Y312963D01*
X218811Y312997D01*
X218770Y313001D01*
X218748Y313008D01*
X218716Y313007D01*
X218645Y313015D01*
X212860Y313015D01*
X203431Y322444D01*
X203357Y322497D01*
X203288Y322557D01*
X203257Y322569D01*
X203231Y322588D01*
X203144Y322615D01*
X203059Y322649D01*
X203018Y322653D01*
X202996Y322660D01*
X202964Y322659D01*
X202893Y322667D01*
X201952Y322667D01*
X201932Y322664D01*
X201913Y322666D01*
X201811Y322644D01*
X201709Y322628D01*
X201692Y322618D01*
X201672Y322614D01*
X201583Y322561D01*
X201492Y322512D01*
X201478Y322498D01*
X201461Y322488D01*
X201394Y322409D01*
X201322Y322334D01*
X201314Y322316D01*
X201301Y322301D01*
X201262Y322205D01*
X201219Y322111D01*
X201217Y322091D01*
X201209Y322073D01*
X201191Y321906D01*
X201191Y321017D01*
X197986Y317813D01*
X197975Y317797D01*
X197959Y317784D01*
X197903Y317697D01*
X197843Y317613D01*
X197837Y317594D01*
X197826Y317577D01*
X197801Y317477D01*
X197770Y317378D01*
X197771Y317358D01*
X197766Y317339D01*
X197774Y317236D01*
X197777Y317132D01*
X197784Y317113D01*
X197785Y317094D01*
X197826Y316999D01*
X197861Y316901D01*
X197874Y316886D01*
X197882Y316867D01*
X197986Y316736D01*
X199056Y315667D01*
X206581Y308142D01*
X206581Y272132D01*
X206595Y272042D01*
X206603Y271951D01*
X206615Y271921D01*
X206620Y271889D01*
X206663Y271808D01*
X206699Y271724D01*
X206725Y271692D01*
X206736Y271672D01*
X206759Y271649D01*
X206804Y271593D01*
X218190Y260207D01*
X218248Y260165D01*
X218300Y260116D01*
X218347Y260094D01*
X218389Y260064D01*
X218458Y260043D01*
X218523Y260012D01*
X218575Y260007D01*
X218625Y259991D01*
X218696Y259993D01*
X218767Y259985D01*
X218818Y259996D01*
G37*
G36*
X131606Y206071D02*
X131606Y206071D01*
X131697Y206079D01*
X131726Y206091D01*
X131758Y206096D01*
X131839Y206139D01*
X131923Y206175D01*
X131955Y206201D01*
X131976Y206212D01*
X131983Y206219D01*
X159786Y206219D01*
X159806Y206222D01*
X159825Y206220D01*
X159927Y206242D01*
X160029Y206258D01*
X160046Y206268D01*
X160066Y206272D01*
X160155Y206325D01*
X160246Y206374D01*
X160260Y206388D01*
X160277Y206398D01*
X160344Y206477D01*
X160416Y206552D01*
X160424Y206570D01*
X160437Y206585D01*
X160476Y206681D01*
X160519Y206775D01*
X160521Y206795D01*
X160529Y206813D01*
X160547Y206980D01*
X160547Y209993D01*
X163507Y212953D01*
X167693Y212953D01*
X168415Y212231D01*
X168473Y212189D01*
X168525Y212140D01*
X168572Y212118D01*
X168614Y212087D01*
X168683Y212066D01*
X168748Y212036D01*
X168800Y212030D01*
X168850Y212015D01*
X168921Y212017D01*
X168992Y212009D01*
X169043Y212020D01*
X169095Y212021D01*
X169163Y212046D01*
X169233Y212061D01*
X169278Y212088D01*
X169326Y212106D01*
X169382Y212151D01*
X169444Y212187D01*
X169478Y212227D01*
X169518Y212260D01*
X169557Y212320D01*
X169604Y212374D01*
X169623Y212423D01*
X169651Y212466D01*
X169669Y212536D01*
X169696Y212602D01*
X169704Y212674D01*
X169712Y212705D01*
X169710Y212728D01*
X169711Y212744D01*
X170459Y213491D01*
X185905Y213491D01*
X185976Y213502D01*
X186048Y213504D01*
X186097Y213522D01*
X186148Y213530D01*
X186212Y213564D01*
X186279Y213589D01*
X186320Y213621D01*
X186366Y213646D01*
X186415Y213698D01*
X186471Y213742D01*
X186499Y213786D01*
X186535Y213824D01*
X186565Y213889D01*
X186604Y213949D01*
X186617Y214000D01*
X186639Y214047D01*
X186646Y214118D01*
X186664Y214188D01*
X186660Y214240D01*
X186666Y214291D01*
X186650Y214362D01*
X186645Y214433D01*
X186624Y214481D01*
X186613Y214532D01*
X186577Y214593D01*
X186549Y214659D01*
X186504Y214715D01*
X186487Y214743D01*
X186469Y214758D01*
X186444Y214790D01*
X184522Y216712D01*
X184448Y216765D01*
X184378Y216825D01*
X184348Y216837D01*
X184322Y216856D01*
X184235Y216883D01*
X184150Y216917D01*
X184109Y216921D01*
X184087Y216928D01*
X184055Y216927D01*
X183983Y216935D01*
X145974Y216935D01*
X145884Y216921D01*
X145793Y216913D01*
X145764Y216901D01*
X145732Y216896D01*
X145651Y216853D01*
X145567Y216817D01*
X145535Y216791D01*
X145514Y216780D01*
X145494Y216759D01*
X145492Y216758D01*
X145487Y216753D01*
X145436Y216712D01*
X142177Y213453D01*
X141767Y213453D01*
X141747Y213450D01*
X141728Y213452D01*
X141626Y213430D01*
X141524Y213414D01*
X141507Y213404D01*
X141487Y213400D01*
X141398Y213347D01*
X141307Y213298D01*
X141293Y213284D01*
X141276Y213274D01*
X141209Y213195D01*
X141137Y213120D01*
X141129Y213102D01*
X141116Y213087D01*
X141105Y213059D01*
X140261Y212215D01*
X124114Y212215D01*
X124094Y212212D01*
X124075Y212214D01*
X123973Y212192D01*
X123871Y212176D01*
X123854Y212166D01*
X123834Y212162D01*
X123745Y212109D01*
X123654Y212060D01*
X123640Y212046D01*
X123623Y212036D01*
X123556Y211957D01*
X123484Y211882D01*
X123476Y211864D01*
X123463Y211849D01*
X123424Y211753D01*
X123381Y211659D01*
X123379Y211639D01*
X123371Y211621D01*
X123353Y211454D01*
X123353Y206818D01*
X123356Y206798D01*
X123354Y206779D01*
X123376Y206677D01*
X123392Y206575D01*
X123402Y206558D01*
X123406Y206538D01*
X123459Y206449D01*
X123508Y206358D01*
X123522Y206344D01*
X123532Y206327D01*
X123611Y206260D01*
X123686Y206188D01*
X123704Y206180D01*
X123719Y206167D01*
X123815Y206128D01*
X123909Y206085D01*
X123929Y206083D01*
X123947Y206075D01*
X124114Y206057D01*
X131516Y206057D01*
X131606Y206071D01*
G37*
%LPC*%
G36*
X36217Y365809D02*
X36217Y365809D01*
X31009Y371017D01*
X31009Y378383D01*
X36217Y383591D01*
X43583Y383591D01*
X48791Y378383D01*
X48791Y371017D01*
X43583Y365809D01*
X36217Y365809D01*
G37*
%LPD*%
%LPC*%
G36*
X10817Y365809D02*
X10817Y365809D01*
X5609Y371017D01*
X5609Y378383D01*
X10817Y383591D01*
X18183Y383591D01*
X23391Y378383D01*
X23391Y371017D01*
X18183Y365809D01*
X10817Y365809D01*
G37*
%LPD*%
%LPC*%
G36*
X391817Y365809D02*
X391817Y365809D01*
X386609Y371017D01*
X386609Y378383D01*
X391817Y383591D01*
X399183Y383591D01*
X404391Y378383D01*
X404391Y371017D01*
X399183Y365809D01*
X391817Y365809D01*
G37*
%LPD*%
%LPC*%
G36*
X366417Y365809D02*
X366417Y365809D01*
X361209Y371017D01*
X361209Y378383D01*
X366417Y383591D01*
X373783Y383591D01*
X378991Y378383D01*
X378991Y371017D01*
X373783Y365809D01*
X366417Y365809D01*
G37*
%LPD*%
%LPC*%
G36*
X341017Y365809D02*
X341017Y365809D01*
X335809Y371017D01*
X335809Y378383D01*
X341017Y383591D01*
X348383Y383591D01*
X353591Y378383D01*
X353591Y371017D01*
X348383Y365809D01*
X341017Y365809D01*
G37*
%LPD*%
%LPC*%
G36*
X315617Y365809D02*
X315617Y365809D01*
X310409Y371017D01*
X310409Y378383D01*
X315617Y383591D01*
X322983Y383591D01*
X328191Y378383D01*
X328191Y371017D01*
X322983Y365809D01*
X315617Y365809D01*
G37*
%LPD*%
%LPC*%
G36*
X290217Y365809D02*
X290217Y365809D01*
X285009Y371017D01*
X285009Y378383D01*
X290217Y383591D01*
X297583Y383591D01*
X302791Y378383D01*
X302791Y371017D01*
X297583Y365809D01*
X290217Y365809D01*
G37*
%LPD*%
%LPC*%
G36*
X264817Y365809D02*
X264817Y365809D01*
X259609Y371017D01*
X259609Y378383D01*
X264817Y383591D01*
X272183Y383591D01*
X277391Y378383D01*
X277391Y371017D01*
X272183Y365809D01*
X264817Y365809D01*
G37*
%LPD*%
%LPC*%
G36*
X239417Y365809D02*
X239417Y365809D01*
X234209Y371017D01*
X234209Y378383D01*
X239417Y383591D01*
X246783Y383591D01*
X251991Y378383D01*
X251991Y371017D01*
X246783Y365809D01*
X239417Y365809D01*
G37*
%LPD*%
%LPC*%
G36*
X214017Y365809D02*
X214017Y365809D01*
X208809Y371017D01*
X208809Y378383D01*
X214017Y383591D01*
X221383Y383591D01*
X226591Y378383D01*
X226591Y371017D01*
X221383Y365809D01*
X214017Y365809D01*
G37*
%LPD*%
%LPC*%
G36*
X188617Y365809D02*
X188617Y365809D01*
X183409Y371017D01*
X183409Y378383D01*
X188617Y383591D01*
X195983Y383591D01*
X201191Y378383D01*
X201191Y371017D01*
X195983Y365809D01*
X188617Y365809D01*
G37*
%LPD*%
%LPC*%
G36*
X163217Y365809D02*
X163217Y365809D01*
X158009Y371017D01*
X158009Y378383D01*
X163217Y383591D01*
X170583Y383591D01*
X175791Y378383D01*
X175791Y371017D01*
X170583Y365809D01*
X163217Y365809D01*
G37*
%LPD*%
%LPC*%
G36*
X137817Y365809D02*
X137817Y365809D01*
X132609Y371017D01*
X132609Y378383D01*
X137817Y383591D01*
X145183Y383591D01*
X150391Y378383D01*
X150391Y371017D01*
X145183Y365809D01*
X137817Y365809D01*
G37*
%LPD*%
%LPC*%
G36*
X112417Y365809D02*
X112417Y365809D01*
X107209Y371017D01*
X107209Y378383D01*
X112417Y383591D01*
X119783Y383591D01*
X124991Y378383D01*
X124991Y371017D01*
X119783Y365809D01*
X112417Y365809D01*
G37*
%LPD*%
%LPC*%
G36*
X61617Y365809D02*
X61617Y365809D01*
X56409Y371017D01*
X56409Y378383D01*
X61617Y383591D01*
X68983Y383591D01*
X74191Y378383D01*
X74191Y371017D01*
X68983Y365809D01*
X61617Y365809D01*
G37*
%LPD*%
%LPC*%
G36*
X87017Y365809D02*
X87017Y365809D01*
X81809Y371017D01*
X81809Y378383D01*
X87017Y383591D01*
X94383Y383591D01*
X99591Y378383D01*
X99591Y371017D01*
X94383Y365809D01*
X87017Y365809D01*
G37*
%LPD*%
%LPC*%
G36*
X333617Y422809D02*
X333617Y422809D01*
X328409Y428017D01*
X328409Y435383D01*
X333617Y440591D01*
X340983Y440591D01*
X346191Y435383D01*
X346191Y428017D01*
X340983Y422809D01*
X333617Y422809D01*
G37*
%LPD*%
%LPC*%
G36*
X308217Y422809D02*
X308217Y422809D01*
X303009Y428017D01*
X303009Y435383D01*
X308217Y440591D01*
X315583Y440591D01*
X320791Y435383D01*
X320791Y428017D01*
X315583Y422809D01*
X308217Y422809D01*
G37*
%LPD*%
%LPC*%
G36*
X384417Y422809D02*
X384417Y422809D01*
X379209Y428017D01*
X379209Y435383D01*
X384417Y440591D01*
X391783Y440591D01*
X396991Y435383D01*
X396991Y428017D01*
X391783Y422809D01*
X384417Y422809D01*
G37*
%LPD*%
%LPC*%
G36*
X359017Y422809D02*
X359017Y422809D01*
X353809Y428017D01*
X353809Y435383D01*
X359017Y440591D01*
X366383Y440591D01*
X371591Y435383D01*
X371591Y428017D01*
X366383Y422809D01*
X359017Y422809D01*
G37*
%LPD*%
%LPC*%
G36*
X341017Y65809D02*
X341017Y65809D01*
X335809Y71017D01*
X335809Y78383D01*
X341017Y83591D01*
X348383Y83591D01*
X353591Y78383D01*
X353591Y71017D01*
X348383Y65809D01*
X341017Y65809D01*
G37*
%LPD*%
%LPC*%
G36*
X391817Y65809D02*
X391817Y65809D01*
X386609Y71017D01*
X386609Y78383D01*
X391817Y83591D01*
X399183Y83591D01*
X404391Y78383D01*
X404391Y71017D01*
X399183Y65809D01*
X391817Y65809D01*
G37*
%LPD*%
%LPC*%
G36*
X366417Y65809D02*
X366417Y65809D01*
X361209Y71017D01*
X361209Y78383D01*
X366417Y83591D01*
X373783Y83591D01*
X378991Y78383D01*
X378991Y71017D01*
X373783Y65809D01*
X366417Y65809D01*
G37*
%LPD*%
%LPC*%
G36*
X315617Y65809D02*
X315617Y65809D01*
X310409Y71017D01*
X310409Y78383D01*
X315617Y83591D01*
X322983Y83591D01*
X328191Y78383D01*
X328191Y71017D01*
X322983Y65809D01*
X315617Y65809D01*
G37*
%LPD*%
%LPC*%
G36*
X290217Y65809D02*
X290217Y65809D01*
X285009Y71017D01*
X285009Y78383D01*
X290217Y83591D01*
X297583Y83591D01*
X302791Y78383D01*
X302791Y71017D01*
X297583Y65809D01*
X290217Y65809D01*
G37*
%LPD*%
%LPC*%
G36*
X264817Y65809D02*
X264817Y65809D01*
X259609Y71017D01*
X259609Y78383D01*
X264817Y83591D01*
X272183Y83591D01*
X277391Y78383D01*
X277391Y71017D01*
X272183Y65809D01*
X264817Y65809D01*
G37*
%LPD*%
%LPC*%
G36*
X239417Y65809D02*
X239417Y65809D01*
X234209Y71017D01*
X234209Y78383D01*
X239417Y83591D01*
X246783Y83591D01*
X251991Y78383D01*
X251991Y71017D01*
X246783Y65809D01*
X239417Y65809D01*
G37*
%LPD*%
%LPC*%
G36*
X214017Y65809D02*
X214017Y65809D01*
X208809Y71017D01*
X208809Y78383D01*
X214017Y83591D01*
X221383Y83591D01*
X226591Y78383D01*
X226591Y71017D01*
X221383Y65809D01*
X214017Y65809D01*
G37*
%LPD*%
%LPC*%
G36*
X188617Y65809D02*
X188617Y65809D01*
X183409Y71017D01*
X183409Y78383D01*
X188617Y83591D01*
X195983Y83591D01*
X201191Y78383D01*
X201191Y71017D01*
X195983Y65809D01*
X188617Y65809D01*
G37*
%LPD*%
%LPC*%
G36*
X163217Y65809D02*
X163217Y65809D01*
X158009Y71017D01*
X158009Y78383D01*
X163217Y83591D01*
X170583Y83591D01*
X175791Y78383D01*
X175791Y71017D01*
X170583Y65809D01*
X163217Y65809D01*
G37*
%LPD*%
%LPC*%
G36*
X137817Y65809D02*
X137817Y65809D01*
X132609Y71017D01*
X132609Y78383D01*
X137817Y83591D01*
X145183Y83591D01*
X150391Y78383D01*
X150391Y71017D01*
X145183Y65809D01*
X137817Y65809D01*
G37*
%LPD*%
%LPC*%
G36*
X112417Y65809D02*
X112417Y65809D01*
X107209Y71017D01*
X107209Y78383D01*
X112417Y83591D01*
X119783Y83591D01*
X124991Y78383D01*
X124991Y71017D01*
X119783Y65809D01*
X112417Y65809D01*
G37*
%LPD*%
%LPC*%
G36*
X87017Y65809D02*
X87017Y65809D01*
X81809Y71017D01*
X81809Y78383D01*
X87017Y83591D01*
X94383Y83591D01*
X99591Y78383D01*
X99591Y71017D01*
X94383Y65809D01*
X87017Y65809D01*
G37*
%LPD*%
%LPC*%
G36*
X61617Y65809D02*
X61617Y65809D01*
X56409Y71017D01*
X56409Y78383D01*
X61617Y83591D01*
X68983Y83591D01*
X74191Y78383D01*
X74191Y71017D01*
X68983Y65809D01*
X61617Y65809D01*
G37*
%LPD*%
%LPC*%
G36*
X36217Y65809D02*
X36217Y65809D01*
X31009Y71017D01*
X31009Y78383D01*
X36217Y83591D01*
X43583Y83591D01*
X48791Y78383D01*
X48791Y71017D01*
X43583Y65809D01*
X36217Y65809D01*
G37*
%LPD*%
%LPC*%
G36*
X10817Y65809D02*
X10817Y65809D01*
X5609Y71017D01*
X5609Y78383D01*
X10817Y83591D01*
X18183Y83591D01*
X23391Y78383D01*
X23391Y71017D01*
X18183Y65809D01*
X10817Y65809D01*
G37*
%LPD*%
%LPC*%
G36*
X308217Y9809D02*
X308217Y9809D01*
X303009Y15017D01*
X303009Y22383D01*
X308217Y27591D01*
X315583Y27591D01*
X320791Y22383D01*
X320791Y15017D01*
X315583Y9809D01*
X308217Y9809D01*
G37*
%LPD*%
%LPC*%
G36*
X384417Y9809D02*
X384417Y9809D01*
X379209Y15017D01*
X379209Y22383D01*
X384417Y27591D01*
X391783Y27591D01*
X396991Y22383D01*
X396991Y15017D01*
X391783Y9809D01*
X384417Y9809D01*
G37*
%LPD*%
%LPC*%
G36*
X359017Y9809D02*
X359017Y9809D01*
X353809Y15017D01*
X353809Y22383D01*
X359017Y27591D01*
X366383Y27591D01*
X371591Y22383D01*
X371591Y15017D01*
X366383Y9809D01*
X359017Y9809D01*
G37*
%LPD*%
%LPC*%
G36*
X333617Y9809D02*
X333617Y9809D01*
X328409Y15017D01*
X328409Y22383D01*
X333617Y27591D01*
X340983Y27591D01*
X346191Y22383D01*
X346191Y15017D01*
X340983Y9809D01*
X333617Y9809D01*
G37*
%LPD*%
%LPC*%
G36*
X396032Y139909D02*
X396032Y139909D01*
X392764Y141263D01*
X390263Y143764D01*
X388909Y147032D01*
X388909Y150568D01*
X390263Y153836D01*
X392764Y156337D01*
X396032Y157691D01*
X399568Y157691D01*
X402836Y156337D01*
X405337Y153836D01*
X406691Y150568D01*
X406691Y147032D01*
X405337Y143764D01*
X402836Y141263D01*
X399568Y139909D01*
X396032Y139909D01*
G37*
%LPD*%
D10*
X14500Y74700D03*
X39900Y74700D03*
X65300Y74700D03*
X90700Y74700D03*
X116100Y74700D03*
X141500Y74700D03*
X166900Y74700D03*
X192300Y74700D03*
X217700Y74700D03*
X243100Y74700D03*
X268500Y74700D03*
X293900Y74700D03*
X319300Y74700D03*
X344700Y74700D03*
X370100Y74700D03*
X395500Y74700D03*
X14500Y124700D03*
X39900Y124700D03*
X65300Y124700D03*
X90700Y124700D03*
X116100Y124700D03*
X141500Y124700D03*
X166900Y124700D03*
X192300Y124700D03*
X217700Y124700D03*
X243100Y124700D03*
X268500Y124700D03*
X293900Y124700D03*
X319300Y124700D03*
X344700Y124700D03*
X370100Y124700D03*
X395500Y124700D03*
X14500Y324700D03*
X39900Y324700D03*
X65300Y324700D03*
X90700Y324700D03*
X116100Y324700D03*
X141500Y324700D03*
X166900Y324700D03*
X192300Y324700D03*
X217700Y324700D03*
X243100Y324700D03*
X268500Y324700D03*
X293900Y324700D03*
X319300Y324700D03*
X344700Y324700D03*
X370100Y324700D03*
X395500Y324700D03*
X14500Y374700D03*
X39900Y374700D03*
X65300Y374700D03*
X90700Y374700D03*
X116100Y374700D03*
X141500Y374700D03*
X166900Y374700D03*
X192300Y374700D03*
X217700Y374700D03*
X243100Y374700D03*
X268500Y374700D03*
X293900Y374700D03*
X319300Y374700D03*
X344700Y374700D03*
X370100Y374700D03*
X395500Y374700D03*
X311900Y18700D03*
X337300Y18700D03*
X362700Y18700D03*
X388100Y18700D03*
X311900Y431700D03*
X337300Y431700D03*
X362700Y431700D03*
X388100Y431700D03*
D11*
X220000Y301200D03*
X245400Y301200D03*
X270800Y301200D03*
X296200Y301200D03*
X321600Y301200D03*
X347000Y301200D03*
X194600Y301200D03*
X169200Y301200D03*
X143800Y301200D03*
X118400Y301200D03*
X93000Y301200D03*
X67600Y301200D03*
X42200Y301200D03*
X372400Y301200D03*
X397800Y301200D03*
X220000Y148800D03*
X194600Y148800D03*
X169200Y148800D03*
X143800Y148800D03*
X118400Y148800D03*
X93000Y148800D03*
X245400Y148800D03*
X270800Y148800D03*
X296200Y148800D03*
X321600Y148800D03*
X347000Y148800D03*
X372400Y148800D03*
X397800Y148800D03*
X67600Y148800D03*
X42200Y148800D03*
D12*
X78260Y190086D03*
X78260Y196436D03*
X78260Y202786D03*
X78260Y209136D03*
X78260Y215486D03*
X78260Y221836D03*
X78260Y228186D03*
X78260Y234536D03*
X78260Y240886D03*
X78260Y247236D03*
X78260Y253586D03*
X78260Y259936D03*
X132235Y259936D03*
X132235Y253586D03*
X132235Y247236D03*
X132235Y240886D03*
X132235Y234536D03*
X132235Y228186D03*
X132235Y221836D03*
X132235Y215486D03*
X132235Y209136D03*
X132235Y202786D03*
X132235Y196436D03*
X132235Y190086D03*
X228260Y190086D03*
X228260Y196436D03*
X228260Y202786D03*
X228260Y209136D03*
X228260Y215486D03*
X228260Y221836D03*
X228260Y228186D03*
X228260Y234536D03*
X228260Y240886D03*
X228260Y247236D03*
X228260Y253586D03*
X228260Y259936D03*
X282235Y259936D03*
X282235Y253586D03*
X282235Y247236D03*
X282235Y240886D03*
X282235Y234536D03*
X282235Y228186D03*
X282235Y221836D03*
X282235Y215486D03*
X282235Y209136D03*
X282235Y202786D03*
X282235Y196436D03*
X282235Y190086D03*
D13*
X180000Y175780D03*
X180000Y204220D03*
X330000Y175780D03*
X330000Y204220D03*
D14*
X78260Y215486D02*
X77942Y215168D01*
X27918Y215168D01*
X14500Y201750D01*
X14500Y124700D01*
X124436Y259936D02*
X132235Y259936D01*
X124436Y259936D02*
X107350Y242850D01*
X107350Y168315D01*
X111625Y164040D02*
X124713Y164040D01*
X111625Y164040D02*
X107350Y168315D01*
X124713Y164040D02*
X130301Y158452D01*
X147798Y158452D02*
X153452Y152798D01*
X153452Y141048D02*
X157354Y137146D01*
X172055Y137146D01*
X174849Y134352D01*
X205950Y124700D02*
X217700Y124700D01*
X147798Y158452D02*
X130301Y158452D01*
X153452Y152798D02*
X153452Y141048D01*
X174849Y134352D02*
X196298Y134352D01*
X205950Y124700D01*
X228260Y215486D02*
X227925Y215821D01*
X204728Y215821D01*
X57948Y297202D02*
X57948Y299102D01*
X42002Y315048D01*
X57948Y297202D02*
X71984Y283166D01*
X24152Y315048D02*
X14500Y324700D01*
X137383Y283166D02*
X204728Y215821D01*
X137383Y283166D02*
X71984Y283166D01*
X42002Y315048D02*
X24152Y315048D01*
X235748Y297202D02*
X241402Y291548D01*
X235748Y306652D02*
X217700Y324700D01*
X235748Y306652D02*
X235748Y297202D01*
X250623Y291548D02*
X282235Y259936D01*
X250623Y291548D02*
X241402Y291548D01*
X87792Y218328D02*
X83602Y222518D01*
X78942Y222518D01*
X78260Y221836D01*
X57948Y142748D02*
X39900Y124700D01*
X57948Y142748D02*
X57948Y152798D01*
X87792Y182642D02*
X87792Y218328D01*
X87792Y182642D02*
X57948Y152798D01*
X125586Y253586D02*
X132235Y253586D01*
X125586Y253586D02*
X125000Y253000D01*
X125870Y166834D02*
X112782Y166834D01*
X125870Y166834D02*
X131458Y161246D01*
X178852Y142794D02*
X184500Y137146D01*
X231350Y124700D02*
X243100Y124700D01*
X125000Y253000D02*
X121451Y253000D01*
X110144Y241693D01*
X110144Y169472D01*
X112782Y166834D01*
X178852Y152798D02*
X178852Y142794D01*
X148955Y161246D02*
X131458Y161246D01*
X148955Y161246D02*
X151749Y158452D01*
X173198Y158452D02*
X178852Y152798D01*
X173198Y158452D02*
X151749Y158452D01*
X184500Y137146D02*
X197455Y137146D01*
X200249Y134352D01*
X221698Y134352D02*
X231350Y124700D01*
X221698Y134352D02*
X200249Y134352D01*
X228078Y221654D02*
X228260Y221836D01*
X228078Y221654D02*
X203346Y221654D01*
X94590Y285960D02*
X77252Y303298D01*
X77252Y305198D01*
X71402Y311048D01*
X53552Y311048D02*
X39900Y324700D01*
X94590Y285960D02*
X139040Y285960D01*
X71402Y311048D02*
X53552Y311048D01*
X139040Y285960D02*
X203346Y221654D01*
X261148Y306652D02*
X243100Y324700D01*
X261148Y306652D02*
X261148Y297202D01*
X291767Y257094D02*
X288577Y253904D01*
X282553Y253904D02*
X282235Y253586D01*
X282553Y253904D02*
X288577Y253904D01*
X291767Y257094D02*
X291767Y266583D01*
X261148Y297202D01*
X78260Y137660D02*
X65300Y124700D01*
X78260Y137660D02*
X78260Y169159D01*
X90586Y181485D01*
X78578Y227868D02*
X78260Y228186D01*
X78578Y227868D02*
X84602Y227868D01*
X90586Y221884D01*
X90586Y181485D01*
X119639Y247236D02*
X132235Y247236D01*
X119639Y247236D02*
X112938Y240535D01*
X112938Y171690D01*
X115000Y169628D01*
X127028Y169628D01*
X132616Y164040D01*
X150113Y164040D01*
X152907Y161246D01*
X174355Y161246D01*
X177149Y158452D01*
X198598Y158452D02*
X204252Y152798D01*
X204252Y149000D01*
X216106Y137146D01*
X222855Y137146D01*
X225649Y134352D01*
X256750Y124700D02*
X268500Y124700D01*
X198598Y158452D02*
X177149Y158452D01*
X225649Y134352D02*
X247098Y134352D01*
X256750Y124700D01*
X228260Y228186D02*
X201161Y228186D01*
X76350Y324700D02*
X65300Y324700D01*
X117196Y288754D02*
X140593Y288754D01*
X117196Y288754D02*
X108748Y297202D01*
X88796Y312254D02*
X76350Y324700D01*
X108748Y299102D02*
X108748Y297202D01*
X108748Y299102D02*
X95596Y312254D01*
X88796Y312254D01*
X140593Y288754D02*
X201161Y228186D01*
X282235Y247236D02*
X289985Y247236D01*
X280250Y324700D02*
X268500Y324700D01*
X289902Y315048D02*
X299601Y315048D01*
X289902Y315048D02*
X280250Y324700D01*
X309154Y266405D02*
X289985Y247236D01*
X309154Y266405D02*
X309154Y305495D01*
X299601Y315048D01*
X93380Y180327D02*
X81054Y168001D01*
X78260Y234536D02*
X78442Y234718D01*
X84102Y234718D01*
X93380Y225440D01*
X93380Y180327D01*
X81054Y134346D02*
X90700Y124700D01*
X81054Y134346D02*
X81054Y168001D01*
X117618Y240886D02*
X132235Y240886D01*
X117618Y240886D02*
X115732Y239000D01*
X115732Y174190D01*
X117500Y172422D01*
X128185Y172422D01*
X133773Y166834D01*
X151270Y166834D02*
X154064Y164040D01*
X175513Y164040D02*
X178307Y161246D01*
X199755Y161246D01*
X202549Y158452D01*
X223998Y158452D02*
X229652Y152798D01*
X229652Y147500D01*
X240006Y137146D01*
X248255Y137146D01*
X251049Y134352D01*
X282150Y124700D02*
X293900Y124700D01*
X151270Y166834D02*
X133773Y166834D01*
X154064Y164040D02*
X175513Y164040D01*
X202549Y158452D02*
X223998Y158452D01*
X251049Y134352D02*
X272498Y134352D01*
X282150Y124700D01*
X228078Y234354D02*
X228260Y234536D01*
X228078Y234354D02*
X198945Y234354D01*
X139802Y291548D02*
X134148Y297202D01*
X90950Y324700D02*
X90700Y324700D01*
X139802Y291548D02*
X141751Y291548D01*
X104602Y311048D02*
X90950Y324700D01*
X134148Y299102D02*
X134148Y297202D01*
X134148Y299102D02*
X122202Y311048D01*
X104602Y311048D01*
X141751Y291548D02*
X198945Y234354D01*
X282235Y240886D02*
X288786Y240886D01*
X311948Y306652D02*
X293900Y324700D01*
X311948Y264048D02*
X288786Y240886D01*
X311948Y264048D02*
X311948Y306652D01*
X79078Y240068D02*
X78260Y240886D01*
X79078Y240068D02*
X85102Y240068D01*
X96174Y228996D01*
X102652Y138148D02*
X116100Y124700D01*
X102652Y152798D02*
X96174Y159276D01*
X102652Y152798D02*
X102652Y138148D01*
X96174Y159276D02*
X96174Y228996D01*
X123062Y234536D02*
X132235Y234536D01*
X123062Y234536D02*
X118526Y230000D01*
X118526Y177690D01*
X121000Y175216D01*
X129342Y175216D01*
X134930Y169628D01*
X153959Y169628D02*
X170143Y185812D01*
X189857Y185812D02*
X214423Y161246D01*
X238754Y161246D02*
X241548Y158452D01*
X249398Y158452D02*
X255052Y152798D01*
X255052Y147500D01*
X265406Y137146D01*
X273655Y137146D01*
X276449Y134352D01*
X307550Y124700D02*
X319300Y124700D01*
X307550Y124700D02*
X297898Y134352D01*
X276449Y134352D01*
X153959Y169628D02*
X134930Y169628D01*
X170143Y185812D02*
X189857Y185812D01*
X214423Y161246D02*
X238754Y161246D01*
X241548Y158452D02*
X249398Y158452D01*
X228260Y240886D02*
X221624Y240886D01*
X218342Y237604D01*
X129502Y311048D02*
X116100Y324450D01*
X116100Y324700D01*
X153548Y305102D02*
X153548Y283702D01*
X153548Y305102D02*
X147602Y311048D01*
X129502Y311048D01*
X199646Y237604D02*
X218342Y237604D01*
X199646Y237604D02*
X153548Y283702D01*
X282235Y234536D02*
X338682Y234536D01*
X331050Y324700D02*
X319300Y324700D01*
X340702Y315048D02*
X350401Y315048D01*
X340702Y315048D02*
X331050Y324700D01*
X358854Y254708D02*
X338682Y234536D01*
X358854Y254708D02*
X358854Y306595D01*
X350401Y315048D01*
X78578Y246918D02*
X78260Y247236D01*
X78578Y246918D02*
X84602Y246918D01*
X98968Y232552D01*
X98968Y160433D02*
X105446Y153955D01*
X105446Y146000D01*
X117094Y134352D01*
X120098Y134352D01*
X129750Y124700D02*
X141500Y124700D01*
X129750Y124700D02*
X120098Y134352D01*
X98968Y160433D02*
X98968Y232552D01*
X131417Y227368D02*
X132235Y228186D01*
X131417Y227368D02*
X125393Y227368D01*
X121320Y223295D01*
X121320Y181190D02*
X124500Y178010D01*
X130500Y178010D01*
X136088Y172422D01*
X152802Y172422D02*
X168986Y188606D01*
X215580Y164040D02*
X247761Y164040D01*
X253401Y158401D01*
X266751Y158401D01*
X266802Y158452D01*
X274798Y158452D02*
X280452Y152798D01*
X280452Y141048D02*
X284354Y137146D01*
X299055Y137146D01*
X301851Y134351D01*
X315302Y134352D02*
X323298Y134352D01*
X332950Y124700D02*
X344700Y124700D01*
X332950Y124700D02*
X323298Y134352D01*
X315301Y134351D02*
X301851Y134351D01*
X315301Y134351D02*
X315302Y134352D01*
X121320Y181190D02*
X121320Y223295D01*
X136088Y172422D02*
X152802Y172422D01*
X168986Y188606D02*
X191014Y188606D01*
X215580Y164040D01*
X266802Y158452D02*
X274798Y158452D01*
X280452Y152798D02*
X280452Y141048D01*
X228260Y247236D02*
X222236Y247236D01*
X190354Y281217D02*
X190354Y291796D01*
X184948Y297202D01*
X153250Y324700D02*
X141500Y324700D01*
X153250Y324700D02*
X162902Y315048D01*
X184948Y299102D02*
X184948Y297202D01*
X184948Y299102D02*
X169002Y315048D01*
X162902Y315048D01*
X190354Y281217D02*
X218728Y252843D01*
X218728Y250744D01*
X222236Y247236D01*
X293535Y231486D02*
X339583Y231486D01*
X290235Y228186D02*
X282235Y228186D01*
X290235Y228186D02*
X293535Y231486D01*
X339583Y231486D02*
X362748Y254651D01*
X362748Y306652D02*
X344700Y324700D01*
X362748Y306652D02*
X362748Y254651D01*
X78442Y253768D02*
X78260Y253586D01*
X78442Y253768D02*
X84102Y253768D01*
X101762Y236108D01*
X122398Y158452D02*
X128052Y152798D01*
X109310Y158452D02*
X101762Y166000D01*
X109310Y158452D02*
X122398Y158452D01*
X128052Y152798D02*
X128052Y144300D01*
X138000Y134352D01*
X145498Y134352D01*
X155150Y124700D02*
X166900Y124700D01*
X155150Y124700D02*
X145498Y134352D01*
X101762Y166000D02*
X101762Y236108D01*
X132235Y221836D02*
X132417Y222018D01*
X190091Y222018D02*
X194000Y218109D01*
X194000Y193523D01*
X217895Y169628D02*
X250076Y169628D01*
X298561Y164040D02*
X304149Y158452D01*
X298561Y164040D02*
X255664Y164040D01*
X190091Y222018D02*
X132417Y222018D01*
X194000Y193523D02*
X217895Y169628D01*
X250076Y169628D02*
X255664Y164040D01*
X325598Y158452D02*
X331252Y152798D01*
X331252Y141248D02*
X335354Y137146D01*
X349855Y137146D01*
X362301Y124700D02*
X370100Y124700D01*
X362301Y124700D02*
X349855Y137146D01*
X325598Y158452D02*
X304149Y158452D01*
X331252Y152798D02*
X331252Y141248D01*
X228078Y253404D02*
X228260Y253586D01*
X228078Y253404D02*
X222118Y253404D01*
X204548Y270974D01*
X204548Y307300D01*
X196800Y315048D01*
X178650Y324700D02*
X166900Y324700D01*
X188302Y315048D02*
X196800Y315048D01*
X188302Y315048D02*
X178650Y324700D01*
X315400Y228436D02*
X340485Y228436D01*
X315400Y228436D02*
X296535Y228436D01*
X289935Y221836D01*
X282235Y221836D01*
X370100Y324700D02*
X385354Y309446D01*
X385354Y273305D02*
X340485Y228436D01*
X385354Y273305D02*
X385354Y309446D01*
X78578Y259618D02*
X78260Y259936D01*
X78578Y259618D02*
X84602Y259618D01*
X104556Y239664D01*
X110467Y161246D02*
X123555Y161246D01*
X130846Y153955D01*
X130846Y145457D01*
X180550Y124700D02*
X192300Y124700D01*
X104556Y167157D02*
X104556Y239664D01*
X104556Y167157D02*
X110467Y161246D01*
X130846Y145457D02*
X139157Y137146D01*
X146655Y137146D01*
X149449Y134352D01*
X170898Y134352D02*
X180550Y124700D01*
X170898Y134352D02*
X149449Y134352D01*
X141335Y215486D02*
X144817Y218968D01*
X141335Y215486D02*
X132235Y215486D01*
X216737Y166834D02*
X248919Y166834D01*
X254558Y161195D01*
X265593Y161195D02*
X265645Y161246D01*
X305852Y152798D02*
X305852Y148000D01*
X297404Y161246D02*
X265645Y161246D01*
X297404Y161246D02*
X305852Y152798D01*
X305852Y148000D02*
X316176Y137676D01*
X354352Y128698D02*
X354352Y124000D01*
X363304Y115048D01*
X385848Y115048D02*
X395500Y124700D01*
X265593Y161195D02*
X254558Y161195D01*
X363304Y115048D02*
X385848Y115048D01*
X323925Y137676D02*
X316176Y137676D01*
X348698Y134352D02*
X354352Y128698D01*
X327249Y134352D02*
X323925Y137676D01*
X327249Y134352D02*
X348698Y134352D01*
X191106Y213003D02*
X185141Y218968D01*
X191106Y192465D02*
X216737Y166834D01*
X185141Y218968D02*
X144817Y218968D01*
X191106Y213003D02*
X191106Y192465D01*
X225860Y290536D02*
X230954Y295630D01*
X225860Y290536D02*
X225860Y262336D01*
X228260Y259936D01*
X204050Y324700D02*
X192300Y324700D01*
X204050Y324700D02*
X213702Y315048D01*
X219802Y315048D02*
X230954Y303896D01*
X219802Y315048D02*
X213702Y315048D01*
X230954Y303896D02*
X230954Y295630D01*
X282235Y215486D02*
X288335Y215486D01*
X298435Y225586D01*
X341586Y225586D01*
X395500Y312550D02*
X395500Y324700D01*
X395500Y312550D02*
X388148Y305198D01*
X388148Y272148D01*
X341586Y225586D01*
X78260Y202786D02*
X27714Y202786D01*
X27500Y203000D01*
D15*
X27500Y203000D03*
D14*
X156200Y224812D02*
X191248Y224812D01*
X228160Y202886D02*
X228260Y202786D01*
X228160Y202886D02*
X221274Y202886D01*
X215174Y208986D01*
X198974Y212186D02*
X198974Y217086D01*
X202174Y208986D02*
X215174Y208986D01*
X202174Y208986D02*
X198974Y212186D01*
X198974Y217086D02*
X191248Y224812D01*
D15*
X51500Y246500D03*
D14*
X140577Y263968D02*
X141767Y262778D01*
X141767Y239245D02*
X156200Y224812D01*
X141767Y239245D02*
X141767Y262778D01*
X140577Y263968D02*
X56318Y263968D01*
X51500Y259150D01*
X51500Y246500D01*
X27714Y163286D02*
X42200Y148800D01*
X27714Y163286D02*
X27714Y202786D01*
D15*
X211000Y252252D03*
D14*
X197368Y252252D01*
X195860Y253760D01*
D15*
X195860Y253760D03*
X215174Y208986D03*
D14*
X78260Y209136D02*
X35636Y209136D01*
X35500Y209000D01*
D15*
X35500Y209000D03*
X210356Y243418D03*
D14*
X197980Y243418D01*
X156342Y285056D01*
X125752Y328698D02*
X120098Y334352D01*
X61302Y334352D02*
X55648Y328698D01*
X55648Y320702D01*
X61302Y315048D01*
X148759Y313842D02*
X156342Y306259D01*
X148759Y313842D02*
X138708Y313842D01*
X125752Y326798D01*
X125752Y327500D01*
X125752Y328698D01*
X93000Y301200D02*
X79152Y315048D01*
X61302Y334352D02*
X120098Y334352D01*
X79152Y315048D02*
X61302Y315048D01*
X156342Y306259D02*
X156342Y285056D01*
X228260Y209136D02*
X239342Y209136D01*
X281192Y167286D01*
X125752Y327500D02*
X132604Y334352D01*
X399498Y334352D01*
X318605Y167286D02*
X281192Y167286D01*
X318605Y167286D02*
X320143Y165748D01*
X344548Y165748D01*
X396264Y187064D02*
X408700Y199500D01*
X408700Y325150D01*
X365864Y187064D02*
X344548Y165748D01*
X365864Y187064D02*
X396264Y187064D01*
X408700Y325150D02*
X399498Y334352D01*
D15*
X370000Y193250D03*
X281300Y175400D03*
X133720Y183012D03*
X132400Y271300D03*
D16*
X281300Y175400D02*
X282235Y176335D01*
X282235Y190086D01*
X281300Y175400D02*
X299034Y193134D01*
X323584Y193134D01*
X323700Y193250D01*
X370000Y193250D01*
X133720Y188601D02*
X132235Y190086D01*
X133720Y188601D02*
X133720Y183012D01*
X155312Y183012D01*
X166300Y194000D01*
D15*
X166300Y194000D03*
X158800Y240000D03*
D16*
X136430Y267270D02*
X132400Y271300D01*
X136430Y267270D02*
X141944Y267270D01*
X158800Y250414D01*
X158800Y240000D01*
D15*
X180000Y175780D03*
X330000Y175780D03*
X330000Y274220D03*
X180000Y274220D03*
D14*
X154443Y209136D02*
X132235Y209136D01*
X154443Y209136D02*
X158404Y213098D01*
D15*
X158404Y213098D03*
X370000Y180550D03*
X430000Y193250D03*
X217910Y266388D03*
D14*
X210500Y273798D01*
X210500Y277252D01*
D15*
X210500Y277252D03*
D14*
X78260Y190086D02*
X78260Y181332D01*
X71080Y174152D01*
D15*
X71080Y174152D03*
X300700Y240350D03*
X308100Y218600D03*
D14*
X308800Y217900D01*
X308800Y204300D01*
D15*
X308800Y204300D03*
X338700Y219700D03*
X246300Y192100D03*
X246600Y183400D03*
X236800Y182800D03*
X228100Y182600D03*
X307200Y246400D03*
X314100Y240800D03*
X400300Y248600D03*
X400500Y238500D03*
X400700Y228300D03*
X401100Y217100D03*
X401400Y206700D03*
X300000Y400000D03*
X320000Y400000D03*
X340000Y400000D03*
X360000Y400000D03*
X380000Y400000D03*
X69514Y182986D03*
D14*
X66000Y186500D01*
X66000Y191000D01*
X71436Y196436D01*
X78260Y196436D01*
X176916Y201136D02*
X180000Y204220D01*
X176916Y201136D02*
X144735Y201136D01*
X139335Y195736D01*
X132935Y195736D01*
X132235Y196436D01*
X282235Y196436D02*
X322216Y196436D01*
X330000Y204220D01*
X165600Y207900D02*
X161886Y204186D01*
X132835Y204186D01*
X132235Y203586D01*
X132235Y202786D01*
D15*
X165600Y207900D03*
X200000Y196100D03*
D14*
X227924Y196100D01*
X228260Y196436D01*
D15*
X231800Y271200D03*
D14*
X233570Y271200D01*
X237792Y266978D01*
X262400Y220700D02*
X262400Y215300D01*
X274914Y202786D01*
X262400Y220700D02*
X237792Y245308D01*
X274914Y202786D02*
X282235Y202786D01*
X237792Y245308D02*
X237792Y266978D01*
M02*
