G04 EAGLE Gerber RS-274X export*
G75*
%MOMM*%
%FSLAX34Y34*%
%LPD*%
%INTop Copper*%
%IPPOS*%
%AMOC8*
5,1,8,0,0,1.08239X$1,22.5*%
G01*
%ADD10P,1.649562X8X22.500000*%
%ADD11C,1.524000*%
%ADD12R,1.500000X0.400000*%
%ADD13R,1.200000X0.800000*%
%ADD14R,1.803000X1.600000*%
%ADD15C,0.152400*%
%ADD16C,0.254000*%
%ADD17C,0.756400*%

G36*
X445496Y3766D02*
X445496Y3766D01*
X445515Y3764D01*
X445617Y3786D01*
X445719Y3802D01*
X445736Y3812D01*
X445756Y3816D01*
X445845Y3869D01*
X445936Y3918D01*
X445950Y3932D01*
X445967Y3942D01*
X446034Y4021D01*
X446106Y4096D01*
X446114Y4114D01*
X446127Y4129D01*
X446166Y4225D01*
X446209Y4319D01*
X446211Y4339D01*
X446219Y4357D01*
X446237Y4524D01*
X446237Y268101D01*
X446226Y268172D01*
X446224Y268243D01*
X446206Y268292D01*
X446198Y268344D01*
X446164Y268407D01*
X446139Y268475D01*
X446107Y268515D01*
X446082Y268561D01*
X446030Y268611D01*
X445986Y268667D01*
X445942Y268695D01*
X445904Y268731D01*
X445839Y268761D01*
X445779Y268800D01*
X445728Y268812D01*
X445681Y268834D01*
X445610Y268842D01*
X445540Y268860D01*
X445488Y268856D01*
X445437Y268861D01*
X445366Y268846D01*
X445295Y268840D01*
X445247Y268820D01*
X445196Y268809D01*
X445135Y268772D01*
X445069Y268744D01*
X445013Y268699D01*
X444985Y268683D01*
X444970Y268665D01*
X444938Y268639D01*
X444403Y268105D01*
X444403Y268104D01*
X437494Y261195D01*
X437441Y261121D01*
X437381Y261052D01*
X437369Y261022D01*
X437350Y260996D01*
X437323Y260909D01*
X437289Y260824D01*
X437285Y260783D01*
X437278Y260760D01*
X437279Y260728D01*
X437271Y260657D01*
X437271Y252224D01*
X436526Y251479D01*
X423202Y251479D01*
X423182Y251476D01*
X423163Y251478D01*
X423061Y251456D01*
X422959Y251440D01*
X422942Y251430D01*
X422922Y251426D01*
X422833Y251373D01*
X422742Y251324D01*
X422728Y251310D01*
X422711Y251300D01*
X422644Y251221D01*
X422572Y251146D01*
X422564Y251128D01*
X422551Y251113D01*
X422512Y251017D01*
X422469Y250923D01*
X422467Y250903D01*
X422459Y250885D01*
X422441Y250718D01*
X422441Y250318D01*
X422455Y250228D01*
X422463Y250137D01*
X422475Y250107D01*
X422480Y250075D01*
X422523Y249994D01*
X422559Y249910D01*
X422585Y249878D01*
X422596Y249858D01*
X422619Y249835D01*
X422664Y249779D01*
X422899Y249544D01*
X422973Y249491D01*
X423043Y249431D01*
X423073Y249419D01*
X423099Y249400D01*
X423186Y249373D01*
X423271Y249339D01*
X423312Y249335D01*
X423334Y249328D01*
X423366Y249329D01*
X423438Y249321D01*
X436526Y249321D01*
X437271Y248576D01*
X437271Y239524D01*
X436526Y238779D01*
X428002Y238779D01*
X427931Y238768D01*
X427859Y238766D01*
X427810Y238748D01*
X427759Y238740D01*
X427696Y238706D01*
X427628Y238681D01*
X427587Y238649D01*
X427542Y238624D01*
X427492Y238573D01*
X427436Y238528D01*
X427408Y238484D01*
X427372Y238446D01*
X427342Y238381D01*
X427303Y238321D01*
X427290Y238270D01*
X427269Y238223D01*
X427261Y238152D01*
X427243Y238082D01*
X427247Y238030D01*
X427241Y237979D01*
X427257Y237908D01*
X427262Y237837D01*
X427283Y237789D01*
X427294Y237738D01*
X427331Y237677D01*
X427359Y237611D01*
X427403Y237555D01*
X427420Y237527D01*
X427438Y237512D01*
X427463Y237480D01*
X428099Y236844D01*
X428174Y236790D01*
X428243Y236731D01*
X428273Y236719D01*
X428299Y236700D01*
X428386Y236673D01*
X428471Y236639D01*
X428512Y236635D01*
X428534Y236628D01*
X428566Y236629D01*
X428638Y236621D01*
X436526Y236621D01*
X437271Y235876D01*
X437271Y226824D01*
X436526Y226079D01*
X428002Y226079D01*
X427931Y226068D01*
X427859Y226066D01*
X427810Y226048D01*
X427759Y226040D01*
X427696Y226006D01*
X427628Y225981D01*
X427587Y225949D01*
X427542Y225924D01*
X427492Y225873D01*
X427436Y225828D01*
X427408Y225784D01*
X427372Y225746D01*
X427342Y225681D01*
X427303Y225621D01*
X427290Y225570D01*
X427269Y225523D01*
X427261Y225452D01*
X427243Y225382D01*
X427247Y225330D01*
X427241Y225279D01*
X427257Y225208D01*
X427262Y225137D01*
X427283Y225089D01*
X427294Y225038D01*
X427331Y224977D01*
X427359Y224911D01*
X427403Y224855D01*
X427420Y224827D01*
X427438Y224812D01*
X427463Y224780D01*
X428099Y224144D01*
X428174Y224090D01*
X428243Y224031D01*
X428273Y224019D01*
X428299Y224000D01*
X428386Y223973D01*
X428471Y223939D01*
X428512Y223935D01*
X428534Y223928D01*
X428566Y223929D01*
X428638Y223921D01*
X436526Y223921D01*
X437271Y223176D01*
X437271Y214124D01*
X436526Y213379D01*
X428002Y213379D01*
X427931Y213368D01*
X427859Y213366D01*
X427810Y213348D01*
X427759Y213340D01*
X427696Y213306D01*
X427628Y213281D01*
X427587Y213249D01*
X427542Y213224D01*
X427492Y213173D01*
X427436Y213128D01*
X427408Y213084D01*
X427372Y213046D01*
X427342Y212981D01*
X427303Y212921D01*
X427290Y212870D01*
X427269Y212823D01*
X427261Y212752D01*
X427243Y212682D01*
X427247Y212630D01*
X427241Y212579D01*
X427257Y212508D01*
X427262Y212437D01*
X427283Y212389D01*
X427294Y212338D01*
X427331Y212277D01*
X427359Y212211D01*
X427403Y212155D01*
X427420Y212127D01*
X427438Y212112D01*
X427463Y212080D01*
X428099Y211444D01*
X428174Y211390D01*
X428243Y211331D01*
X428273Y211319D01*
X428299Y211300D01*
X428386Y211273D01*
X428471Y211239D01*
X428512Y211235D01*
X428534Y211228D01*
X428566Y211229D01*
X428638Y211221D01*
X436526Y211221D01*
X437271Y210476D01*
X437271Y201424D01*
X436526Y200679D01*
X423474Y200679D01*
X422729Y201424D01*
X422729Y208808D01*
X422726Y208828D01*
X422728Y208847D01*
X422706Y208949D01*
X422690Y209051D01*
X422680Y209068D01*
X422676Y209088D01*
X422623Y209177D01*
X422574Y209268D01*
X422560Y209282D01*
X422550Y209299D01*
X422471Y209366D01*
X422396Y209438D01*
X422378Y209446D01*
X422363Y209459D01*
X422267Y209498D01*
X422173Y209541D01*
X422153Y209543D01*
X422135Y209551D01*
X421968Y209569D01*
X421895Y209569D01*
X404739Y226725D01*
X404739Y278109D01*
X422994Y296364D01*
X423047Y296438D01*
X423107Y296507D01*
X423119Y296537D01*
X423138Y296564D01*
X423165Y296651D01*
X423199Y296735D01*
X423203Y296776D01*
X423210Y296799D01*
X423209Y296831D01*
X423217Y296902D01*
X423217Y390098D01*
X423203Y390188D01*
X423195Y390279D01*
X423183Y390309D01*
X423178Y390341D01*
X423135Y390421D01*
X423099Y390505D01*
X423073Y390537D01*
X423062Y390558D01*
X423039Y390580D01*
X422994Y390636D01*
X402474Y411156D01*
X402400Y411209D01*
X402331Y411269D01*
X402301Y411281D01*
X402274Y411300D01*
X402187Y411327D01*
X402103Y411361D01*
X402062Y411365D01*
X402039Y411372D01*
X402007Y411371D01*
X401936Y411379D01*
X339659Y411379D01*
X322102Y428936D01*
X322028Y428989D01*
X321959Y429049D01*
X321929Y429061D01*
X321902Y429080D01*
X321815Y429107D01*
X321773Y429124D01*
X321757Y429131D01*
X321754Y429132D01*
X321731Y429141D01*
X321690Y429145D01*
X321667Y429152D01*
X321635Y429151D01*
X321564Y429159D01*
X321552Y429159D01*
X321532Y429156D01*
X321513Y429158D01*
X321460Y429147D01*
X321421Y429146D01*
X321382Y429131D01*
X321309Y429120D01*
X321292Y429110D01*
X321272Y429106D01*
X321209Y429068D01*
X321190Y429061D01*
X321173Y429047D01*
X321092Y429004D01*
X321078Y428990D01*
X321061Y428980D01*
X321001Y428910D01*
X320998Y428908D01*
X320995Y428903D01*
X320994Y428901D01*
X320922Y428826D01*
X320914Y428808D01*
X320901Y428793D01*
X320862Y428697D01*
X320819Y428603D01*
X320817Y428583D01*
X320809Y428565D01*
X320791Y428398D01*
X320791Y428017D01*
X315583Y422809D01*
X308217Y422809D01*
X303009Y428017D01*
X303009Y431747D01*
X302998Y431817D01*
X302996Y431889D01*
X302978Y431938D01*
X302970Y431989D01*
X302936Y432053D01*
X302911Y432120D01*
X302879Y432161D01*
X302854Y432207D01*
X302802Y432256D01*
X302758Y432312D01*
X302714Y432340D01*
X302676Y432376D01*
X302611Y432406D01*
X302551Y432445D01*
X302500Y432458D01*
X302453Y432480D01*
X302382Y432488D01*
X302312Y432505D01*
X302260Y432501D01*
X302209Y432507D01*
X302138Y432492D01*
X302067Y432486D01*
X302019Y432466D01*
X301968Y432455D01*
X301907Y432418D01*
X301841Y432390D01*
X301785Y432345D01*
X301757Y432329D01*
X301742Y432311D01*
X301710Y432285D01*
X286504Y417079D01*
X286451Y417005D01*
X286391Y416936D01*
X286379Y416905D01*
X286360Y416879D01*
X286333Y416792D01*
X286299Y416707D01*
X286295Y416666D01*
X286288Y416644D01*
X286289Y416612D01*
X286281Y416541D01*
X286281Y381492D01*
X286292Y381421D01*
X286294Y381349D01*
X286312Y381301D01*
X286320Y381249D01*
X286354Y381186D01*
X286379Y381118D01*
X286411Y381078D01*
X286436Y381032D01*
X286488Y380982D01*
X286532Y380926D01*
X286576Y380898D01*
X286614Y380862D01*
X286679Y380832D01*
X286739Y380793D01*
X286790Y380781D01*
X286837Y380759D01*
X286908Y380751D01*
X286978Y380733D01*
X287030Y380737D01*
X287081Y380732D01*
X287152Y380747D01*
X287223Y380753D01*
X287271Y380773D01*
X287322Y380784D01*
X287383Y380821D01*
X287449Y380849D01*
X287505Y380894D01*
X287533Y380910D01*
X287548Y380928D01*
X287580Y380954D01*
X290217Y383591D01*
X297583Y383591D01*
X302791Y378383D01*
X302791Y371017D01*
X302162Y370389D01*
X302151Y370373D01*
X302135Y370360D01*
X302079Y370273D01*
X302019Y370189D01*
X302013Y370170D01*
X302002Y370153D01*
X301977Y370053D01*
X301946Y369954D01*
X301947Y369934D01*
X301942Y369915D01*
X301950Y369812D01*
X301953Y369708D01*
X301960Y369689D01*
X301961Y369670D01*
X302002Y369575D01*
X302037Y369477D01*
X302050Y369462D01*
X302058Y369443D01*
X302162Y369312D01*
X304171Y367304D01*
X305585Y365890D01*
X305585Y365697D01*
X305596Y365627D01*
X305598Y365555D01*
X305616Y365506D01*
X305624Y365455D01*
X305658Y365391D01*
X305683Y365324D01*
X305715Y365283D01*
X305740Y365237D01*
X305791Y365188D01*
X305836Y365132D01*
X305880Y365104D01*
X305918Y365068D01*
X305983Y365038D01*
X306043Y364999D01*
X306094Y364986D01*
X306141Y364964D01*
X306212Y364956D01*
X306282Y364939D01*
X306334Y364943D01*
X306385Y364937D01*
X306456Y364952D01*
X306527Y364958D01*
X306575Y364978D01*
X306626Y364989D01*
X306687Y365026D01*
X306753Y365054D01*
X306809Y365099D01*
X306837Y365115D01*
X306852Y365133D01*
X306884Y365159D01*
X311038Y369312D01*
X311049Y369329D01*
X311065Y369341D01*
X311121Y369428D01*
X311181Y369512D01*
X311187Y369531D01*
X311198Y369548D01*
X311223Y369648D01*
X311254Y369747D01*
X311253Y369767D01*
X311258Y369786D01*
X311250Y369889D01*
X311247Y369993D01*
X311240Y370012D01*
X311239Y370032D01*
X311198Y370127D01*
X311163Y370224D01*
X311150Y370240D01*
X311142Y370258D01*
X311038Y370389D01*
X310409Y371017D01*
X310409Y378383D01*
X315617Y383591D01*
X322983Y383591D01*
X328191Y378383D01*
X328191Y371017D01*
X322983Y365809D01*
X315617Y365809D01*
X314989Y366438D01*
X314973Y366449D01*
X314960Y366465D01*
X314873Y366521D01*
X314789Y366581D01*
X314770Y366587D01*
X314753Y366598D01*
X314653Y366623D01*
X314554Y366654D01*
X314534Y366653D01*
X314515Y366658D01*
X314412Y366650D01*
X314308Y366647D01*
X314289Y366640D01*
X314270Y366639D01*
X314175Y366598D01*
X314077Y366563D01*
X314062Y366550D01*
X314043Y366542D01*
X313912Y366438D01*
X308602Y361127D01*
X308549Y361053D01*
X308489Y360984D01*
X308477Y360953D01*
X308458Y360927D01*
X308431Y360840D01*
X308397Y360755D01*
X308393Y360714D01*
X308386Y360692D01*
X308387Y360660D01*
X308379Y360589D01*
X308379Y309813D01*
X308393Y309723D01*
X308401Y309632D01*
X308413Y309602D01*
X308418Y309570D01*
X308461Y309489D01*
X308497Y309405D01*
X308523Y309373D01*
X308534Y309353D01*
X308557Y309330D01*
X308585Y309295D01*
X308586Y309294D01*
X308602Y309274D01*
X311681Y306195D01*
X311681Y291976D01*
X311692Y291905D01*
X311694Y291833D01*
X311712Y291784D01*
X311720Y291733D01*
X311754Y291670D01*
X311779Y291602D01*
X311811Y291562D01*
X311836Y291516D01*
X311888Y291466D01*
X311932Y291410D01*
X311976Y291382D01*
X312014Y291346D01*
X312079Y291316D01*
X312139Y291277D01*
X312190Y291265D01*
X312237Y291243D01*
X312308Y291235D01*
X312378Y291217D01*
X312430Y291221D01*
X312481Y291216D01*
X312552Y291231D01*
X312623Y291236D01*
X312671Y291257D01*
X312722Y291268D01*
X312783Y291305D01*
X312849Y291333D01*
X312905Y291378D01*
X312933Y291394D01*
X312948Y291412D01*
X312980Y291438D01*
X315123Y293581D01*
X324441Y293581D01*
X324531Y293595D01*
X324622Y293603D01*
X324651Y293615D01*
X324683Y293620D01*
X324764Y293663D01*
X324848Y293699D01*
X324880Y293725D01*
X324901Y293736D01*
X324923Y293759D01*
X324979Y293804D01*
X332298Y301123D01*
X332351Y301197D01*
X332411Y301266D01*
X332423Y301297D01*
X332442Y301323D01*
X332469Y301410D01*
X332503Y301495D01*
X332507Y301536D01*
X332514Y301558D01*
X332513Y301590D01*
X332521Y301661D01*
X332521Y316087D01*
X332507Y316177D01*
X332499Y316268D01*
X332487Y316298D01*
X332482Y316330D01*
X332439Y316411D01*
X332403Y316495D01*
X332377Y316527D01*
X332366Y316547D01*
X332343Y316570D01*
X332298Y316626D01*
X330221Y318703D01*
X330221Y363096D01*
X331635Y364510D01*
X336438Y369312D01*
X336449Y369329D01*
X336465Y369341D01*
X336521Y369428D01*
X336581Y369512D01*
X336587Y369531D01*
X336598Y369548D01*
X336623Y369648D01*
X336654Y369747D01*
X336653Y369767D01*
X336658Y369786D01*
X336650Y369889D01*
X336647Y369993D01*
X336640Y370012D01*
X336639Y370032D01*
X336598Y370127D01*
X336563Y370224D01*
X336550Y370240D01*
X336542Y370258D01*
X336438Y370389D01*
X335809Y371017D01*
X335809Y378383D01*
X341017Y383591D01*
X348383Y383591D01*
X353591Y378383D01*
X353591Y371017D01*
X348383Y365809D01*
X341017Y365809D01*
X340389Y366438D01*
X340373Y366449D01*
X340360Y366465D01*
X340273Y366521D01*
X340189Y366581D01*
X340170Y366587D01*
X340153Y366598D01*
X340053Y366623D01*
X339954Y366654D01*
X339934Y366653D01*
X339915Y366658D01*
X339812Y366650D01*
X339708Y366647D01*
X339689Y366640D01*
X339670Y366639D01*
X339575Y366598D01*
X339477Y366563D01*
X339462Y366550D01*
X339443Y366542D01*
X339312Y366438D01*
X334510Y361635D01*
X334457Y361561D01*
X334397Y361492D01*
X334385Y361461D01*
X334366Y361435D01*
X334339Y361348D01*
X334305Y361263D01*
X334301Y361222D01*
X334294Y361200D01*
X334295Y361168D01*
X334287Y361097D01*
X334287Y343599D01*
X334298Y343529D01*
X334300Y343457D01*
X334318Y343408D01*
X334326Y343357D01*
X334360Y343293D01*
X334385Y343226D01*
X334417Y343185D01*
X334442Y343139D01*
X334494Y343090D01*
X334538Y343034D01*
X334582Y343006D01*
X334620Y342970D01*
X334685Y342940D01*
X334745Y342901D01*
X334796Y342888D01*
X334843Y342866D01*
X334914Y342858D01*
X334984Y342841D01*
X335036Y342845D01*
X335087Y342839D01*
X335158Y342854D01*
X335229Y342860D01*
X335277Y342880D01*
X335328Y342891D01*
X335389Y342928D01*
X335455Y342956D01*
X335511Y343001D01*
X335539Y343017D01*
X335554Y343035D01*
X335586Y343061D01*
X356529Y364003D01*
X356529Y364004D01*
X357131Y364606D01*
X361838Y369312D01*
X361849Y369329D01*
X361865Y369341D01*
X361921Y369428D01*
X361981Y369512D01*
X361987Y369531D01*
X361998Y369548D01*
X362023Y369648D01*
X362054Y369747D01*
X362053Y369767D01*
X362058Y369786D01*
X362050Y369889D01*
X362047Y369993D01*
X362040Y370012D01*
X362039Y370032D01*
X361998Y370127D01*
X361963Y370224D01*
X361950Y370240D01*
X361942Y370258D01*
X361838Y370389D01*
X361209Y371017D01*
X361209Y378383D01*
X366417Y383591D01*
X373783Y383591D01*
X378991Y378383D01*
X378991Y371017D01*
X373783Y365809D01*
X366417Y365809D01*
X365789Y366438D01*
X365773Y366449D01*
X365760Y366465D01*
X365673Y366521D01*
X365589Y366581D01*
X365570Y366587D01*
X365553Y366598D01*
X365453Y366623D01*
X365354Y366654D01*
X365334Y366653D01*
X365315Y366658D01*
X365212Y366650D01*
X365108Y366647D01*
X365089Y366640D01*
X365070Y366639D01*
X364975Y366598D01*
X364877Y366563D01*
X364862Y366550D01*
X364843Y366542D01*
X364712Y366438D01*
X360006Y361731D01*
X359404Y361129D01*
X337304Y339029D01*
X337251Y338955D01*
X337191Y338886D01*
X337179Y338855D01*
X337160Y338829D01*
X337133Y338742D01*
X337099Y338657D01*
X337095Y338616D01*
X337088Y338594D01*
X337089Y338562D01*
X337081Y338491D01*
X337081Y331492D01*
X337092Y331421D01*
X337094Y331349D01*
X337112Y331301D01*
X337120Y331249D01*
X337154Y331186D01*
X337179Y331118D01*
X337211Y331078D01*
X337236Y331032D01*
X337288Y330982D01*
X337332Y330926D01*
X337376Y330898D01*
X337414Y330862D01*
X337479Y330832D01*
X337539Y330793D01*
X337590Y330781D01*
X337637Y330759D01*
X337708Y330751D01*
X337778Y330733D01*
X337830Y330737D01*
X337881Y330732D01*
X337952Y330747D01*
X338023Y330753D01*
X338071Y330773D01*
X338122Y330784D01*
X338183Y330821D01*
X338249Y330849D01*
X338305Y330894D01*
X338333Y330910D01*
X338348Y330928D01*
X338380Y330954D01*
X341017Y333591D01*
X348383Y333591D01*
X353591Y328383D01*
X353591Y321017D01*
X348383Y315809D01*
X341017Y315809D01*
X340680Y316146D01*
X340622Y316188D01*
X340570Y316238D01*
X340523Y316260D01*
X340481Y316290D01*
X340412Y316311D01*
X340347Y316341D01*
X340295Y316347D01*
X340245Y316362D01*
X340174Y316360D01*
X340103Y316368D01*
X340052Y316357D01*
X340000Y316356D01*
X339932Y316331D01*
X339862Y316316D01*
X339817Y316289D01*
X339769Y316271D01*
X339713Y316227D01*
X339651Y316190D01*
X339617Y316150D01*
X339577Y316118D01*
X339538Y316058D01*
X339491Y316003D01*
X339472Y315954D01*
X339444Y315911D01*
X339426Y315841D01*
X339399Y315775D01*
X339391Y315703D01*
X339383Y315672D01*
X339385Y315649D01*
X339381Y315608D01*
X339381Y307992D01*
X339392Y307921D01*
X339394Y307849D01*
X339412Y307801D01*
X339420Y307749D01*
X339454Y307686D01*
X339479Y307618D01*
X339511Y307578D01*
X339536Y307532D01*
X339588Y307482D01*
X339632Y307426D01*
X339676Y307398D01*
X339714Y307362D01*
X339779Y307332D01*
X339839Y307293D01*
X339890Y307281D01*
X339937Y307259D01*
X340008Y307251D01*
X340078Y307233D01*
X340130Y307237D01*
X340181Y307232D01*
X340252Y307247D01*
X340323Y307253D01*
X340371Y307273D01*
X340422Y307284D01*
X340483Y307321D01*
X340549Y307349D01*
X340605Y307394D01*
X340633Y307410D01*
X340648Y307428D01*
X340680Y307454D01*
X341964Y308737D01*
X345232Y310091D01*
X348768Y310091D01*
X352036Y308737D01*
X354537Y306236D01*
X355891Y302968D01*
X355891Y299432D01*
X354537Y296164D01*
X352036Y293663D01*
X348768Y292309D01*
X345232Y292309D01*
X341964Y293663D01*
X339463Y296164D01*
X339189Y296824D01*
X339165Y296863D01*
X339149Y296907D01*
X339101Y296967D01*
X339060Y297034D01*
X339024Y297063D01*
X338996Y297099D01*
X338930Y297141D01*
X338870Y297190D01*
X338827Y297207D01*
X338789Y297232D01*
X338713Y297251D01*
X338640Y297279D01*
X338595Y297280D01*
X338550Y297292D01*
X338473Y297286D01*
X338395Y297289D01*
X338351Y297276D01*
X338305Y297273D01*
X338233Y297242D01*
X338158Y297220D01*
X338121Y297194D01*
X338079Y297176D01*
X337972Y297091D01*
X337956Y297080D01*
X337953Y297076D01*
X337948Y297071D01*
X327597Y286721D01*
X318280Y286721D01*
X318190Y286707D01*
X318099Y286699D01*
X318069Y286687D01*
X318037Y286682D01*
X317957Y286639D01*
X317873Y286603D01*
X317841Y286577D01*
X317820Y286566D01*
X317798Y286543D01*
X317742Y286498D01*
X294998Y263754D01*
X294956Y263696D01*
X294907Y263644D01*
X294885Y263597D01*
X294854Y263555D01*
X294833Y263486D01*
X294803Y263421D01*
X294797Y263369D01*
X294782Y263319D01*
X294784Y263248D01*
X294776Y263177D01*
X294787Y263126D01*
X294788Y263074D01*
X294813Y263006D01*
X294828Y262936D01*
X294855Y262891D01*
X294873Y262843D01*
X294918Y262787D01*
X294954Y262725D01*
X294994Y262691D01*
X295026Y262651D01*
X295087Y262612D01*
X295141Y262565D01*
X295189Y262546D01*
X295233Y262518D01*
X295303Y262500D01*
X295369Y262473D01*
X295441Y262465D01*
X295472Y262457D01*
X295495Y262459D01*
X295536Y262455D01*
X334933Y262455D01*
X335023Y262469D01*
X335114Y262477D01*
X335144Y262489D01*
X335176Y262494D01*
X335257Y262537D01*
X335341Y262573D01*
X335373Y262599D01*
X335394Y262610D01*
X335416Y262633D01*
X335472Y262678D01*
X359476Y286682D01*
X359529Y286756D01*
X359589Y286826D01*
X359601Y286856D01*
X359620Y286882D01*
X359647Y286969D01*
X359681Y287054D01*
X359685Y287095D01*
X359692Y287117D01*
X359691Y287149D01*
X359699Y287221D01*
X359699Y306461D01*
X367139Y313901D01*
X378238Y313901D01*
X378328Y313915D01*
X378419Y313923D01*
X378449Y313935D01*
X378481Y313940D01*
X378562Y313983D01*
X378646Y314019D01*
X378678Y314045D01*
X378698Y314056D01*
X378721Y314079D01*
X378777Y314124D01*
X379782Y315129D01*
X379835Y315203D01*
X379895Y315273D01*
X379907Y315303D01*
X379926Y315329D01*
X379953Y315416D01*
X379987Y315501D01*
X379991Y315542D01*
X379998Y315564D01*
X379997Y315596D01*
X380005Y315668D01*
X380005Y320194D01*
X379994Y320265D01*
X379992Y320337D01*
X379974Y320385D01*
X379966Y320437D01*
X379932Y320500D01*
X379907Y320568D01*
X379875Y320608D01*
X379850Y320654D01*
X379798Y320704D01*
X379754Y320760D01*
X379710Y320788D01*
X379672Y320824D01*
X379607Y320854D01*
X379547Y320893D01*
X379496Y320905D01*
X379449Y320927D01*
X379378Y320935D01*
X379308Y320953D01*
X379256Y320949D01*
X379205Y320954D01*
X379134Y320939D01*
X379063Y320933D01*
X379015Y320913D01*
X378964Y320902D01*
X378903Y320865D01*
X378837Y320837D01*
X378781Y320792D01*
X378753Y320776D01*
X378738Y320758D01*
X378706Y320732D01*
X373783Y315809D01*
X366417Y315809D01*
X361209Y321017D01*
X361209Y328383D01*
X366417Y333591D01*
X373783Y333591D01*
X378706Y328668D01*
X378764Y328626D01*
X378816Y328576D01*
X378863Y328554D01*
X378905Y328524D01*
X378974Y328503D01*
X379039Y328473D01*
X379091Y328467D01*
X379141Y328452D01*
X379212Y328454D01*
X379283Y328446D01*
X379334Y328457D01*
X379386Y328458D01*
X379454Y328483D01*
X379524Y328498D01*
X379569Y328525D01*
X379617Y328543D01*
X379673Y328587D01*
X379735Y328624D01*
X379769Y328664D01*
X379809Y328696D01*
X379848Y328757D01*
X379895Y328811D01*
X379914Y328859D01*
X379942Y328903D01*
X379960Y328973D01*
X379987Y329039D01*
X379995Y329111D01*
X380003Y329142D01*
X380001Y329165D01*
X380005Y329206D01*
X380005Y331118D01*
X389434Y340547D01*
X389487Y340621D01*
X389547Y340691D01*
X389559Y340721D01*
X389578Y340747D01*
X389605Y340834D01*
X389639Y340919D01*
X389643Y340960D01*
X389650Y340982D01*
X389649Y341014D01*
X389657Y341085D01*
X389657Y362266D01*
X389643Y362356D01*
X389635Y362447D01*
X389623Y362477D01*
X389618Y362509D01*
X389575Y362589D01*
X389539Y362673D01*
X389513Y362705D01*
X389502Y362726D01*
X389479Y362748D01*
X389434Y362804D01*
X382799Y369439D01*
X382799Y380261D01*
X388228Y385689D01*
X388228Y385690D01*
X389939Y387401D01*
X400761Y387401D01*
X402472Y385690D01*
X402472Y385689D01*
X408789Y379372D01*
X410501Y377661D01*
X410501Y295939D01*
X403061Y288499D01*
X392958Y288499D01*
X392868Y288485D01*
X392777Y288477D01*
X392747Y288465D01*
X392715Y288460D01*
X392634Y288417D01*
X392550Y288381D01*
X392518Y288355D01*
X392498Y288344D01*
X392475Y288321D01*
X392419Y288276D01*
X377494Y273351D01*
X377441Y273277D01*
X377381Y273207D01*
X377369Y273177D01*
X377350Y273151D01*
X377323Y273064D01*
X377289Y272979D01*
X377285Y272938D01*
X377278Y272916D01*
X377279Y272884D01*
X377271Y272812D01*
X377271Y269138D01*
X377285Y269048D01*
X377293Y268957D01*
X377305Y268927D01*
X377310Y268895D01*
X377353Y268814D01*
X377389Y268730D01*
X377415Y268698D01*
X377426Y268678D01*
X377449Y268655D01*
X377494Y268599D01*
X389041Y257052D01*
X389041Y194902D01*
X389044Y194882D01*
X389042Y194863D01*
X389064Y194761D01*
X389080Y194659D01*
X389090Y194642D01*
X389094Y194622D01*
X389147Y194533D01*
X389196Y194442D01*
X389210Y194428D01*
X389220Y194411D01*
X389299Y194344D01*
X389374Y194272D01*
X389392Y194264D01*
X389407Y194251D01*
X389503Y194212D01*
X389597Y194169D01*
X389617Y194167D01*
X389635Y194159D01*
X389802Y194141D01*
X407652Y194141D01*
X418479Y183314D01*
X418553Y183261D01*
X418623Y183201D01*
X418653Y183189D01*
X418679Y183170D01*
X418766Y183143D01*
X418851Y183109D01*
X418892Y183105D01*
X418914Y183098D01*
X418946Y183099D01*
X419018Y183091D01*
X421968Y183091D01*
X421988Y183094D01*
X422007Y183092D01*
X422109Y183114D01*
X422211Y183130D01*
X422228Y183140D01*
X422248Y183144D01*
X422337Y183197D01*
X422428Y183246D01*
X422442Y183260D01*
X422459Y183270D01*
X422526Y183349D01*
X422598Y183424D01*
X422606Y183442D01*
X422619Y183457D01*
X422658Y183553D01*
X422701Y183647D01*
X422703Y183667D01*
X422711Y183685D01*
X422729Y183852D01*
X422729Y185076D01*
X423474Y185821D01*
X436526Y185821D01*
X437271Y185076D01*
X437271Y176024D01*
X436526Y175279D01*
X423474Y175279D01*
X422729Y176024D01*
X422729Y177248D01*
X422726Y177268D01*
X422728Y177287D01*
X422706Y177389D01*
X422690Y177491D01*
X422680Y177508D01*
X422676Y177528D01*
X422623Y177617D01*
X422574Y177708D01*
X422560Y177722D01*
X422550Y177739D01*
X422471Y177806D01*
X422396Y177878D01*
X422378Y177886D01*
X422363Y177899D01*
X422267Y177938D01*
X422173Y177981D01*
X422153Y177983D01*
X422135Y177991D01*
X421968Y178009D01*
X416598Y178009D01*
X405771Y188836D01*
X405697Y188889D01*
X405627Y188949D01*
X405597Y188961D01*
X405571Y188980D01*
X405484Y189007D01*
X405399Y189041D01*
X405358Y189045D01*
X405336Y189052D01*
X405304Y189051D01*
X405232Y189059D01*
X377922Y189059D01*
X377832Y189045D01*
X377741Y189037D01*
X377711Y189025D01*
X377679Y189020D01*
X377598Y188977D01*
X377514Y188941D01*
X377482Y188915D01*
X377462Y188904D01*
X377439Y188881D01*
X377383Y188836D01*
X376526Y187979D01*
X363474Y187979D01*
X363170Y188283D01*
X363112Y188325D01*
X363060Y188374D01*
X363013Y188396D01*
X362971Y188426D01*
X362902Y188447D01*
X362837Y188478D01*
X362785Y188483D01*
X362735Y188499D01*
X362664Y188497D01*
X362593Y188505D01*
X362542Y188494D01*
X362490Y188492D01*
X362422Y188468D01*
X362352Y188452D01*
X362307Y188426D01*
X362259Y188408D01*
X362203Y188363D01*
X362141Y188326D01*
X362107Y188287D01*
X362067Y188254D01*
X362028Y188194D01*
X361981Y188139D01*
X361962Y188091D01*
X361934Y188047D01*
X361916Y187978D01*
X361889Y187911D01*
X361881Y187840D01*
X361873Y187809D01*
X361875Y187785D01*
X361871Y187744D01*
X361871Y178571D01*
X361885Y178481D01*
X361893Y178390D01*
X361905Y178360D01*
X361910Y178328D01*
X361953Y178247D01*
X361989Y178163D01*
X362015Y178131D01*
X362026Y178111D01*
X362049Y178088D01*
X362094Y178032D01*
X364392Y175734D01*
X364466Y175681D01*
X364536Y175621D01*
X364566Y175609D01*
X364592Y175590D01*
X364679Y175563D01*
X364764Y175529D01*
X364805Y175525D01*
X364827Y175518D01*
X364859Y175519D01*
X364931Y175511D01*
X418951Y175511D01*
X439319Y155142D01*
X439320Y155142D01*
X441031Y153431D01*
X441031Y68105D01*
X439319Y66393D01*
X396688Y23762D01*
X396676Y23746D01*
X396661Y23733D01*
X396605Y23646D01*
X396545Y23562D01*
X396539Y23543D01*
X396528Y23526D01*
X396503Y23426D01*
X396472Y23327D01*
X396473Y23307D01*
X396468Y23288D01*
X396476Y23185D01*
X396479Y23081D01*
X396485Y23062D01*
X396487Y23043D01*
X396527Y22948D01*
X396563Y22850D01*
X396575Y22835D01*
X396583Y22816D01*
X396688Y22685D01*
X396991Y22383D01*
X396991Y15017D01*
X391783Y9809D01*
X384417Y9809D01*
X379209Y15017D01*
X379209Y22578D01*
X379198Y22649D01*
X379196Y22721D01*
X379178Y22770D01*
X379170Y22821D01*
X379136Y22884D01*
X379111Y22952D01*
X379079Y22992D01*
X379054Y23038D01*
X379002Y23088D01*
X378958Y23144D01*
X378914Y23172D01*
X378876Y23208D01*
X378811Y23238D01*
X378751Y23277D01*
X378700Y23290D01*
X378653Y23311D01*
X378582Y23319D01*
X378512Y23337D01*
X378460Y23333D01*
X378409Y23339D01*
X378338Y23323D01*
X378267Y23318D01*
X378219Y23297D01*
X378168Y23286D01*
X378107Y23249D01*
X378041Y23221D01*
X377985Y23177D01*
X377957Y23160D01*
X377942Y23142D01*
X377910Y23117D01*
X372664Y17871D01*
X371814Y17021D01*
X371761Y16947D01*
X371701Y16877D01*
X371689Y16847D01*
X371670Y16821D01*
X371643Y16734D01*
X371609Y16649D01*
X371605Y16608D01*
X371598Y16586D01*
X371599Y16554D01*
X371591Y16482D01*
X371591Y15017D01*
X366383Y9809D01*
X359017Y9809D01*
X353809Y15017D01*
X353809Y22383D01*
X359017Y27591D01*
X366383Y27591D01*
X370252Y23722D01*
X370268Y23710D01*
X370280Y23694D01*
X370368Y23638D01*
X370452Y23578D01*
X370471Y23572D01*
X370487Y23561D01*
X370588Y23536D01*
X370687Y23506D01*
X370707Y23506D01*
X370726Y23501D01*
X370829Y23509D01*
X370933Y23512D01*
X370951Y23519D01*
X370971Y23520D01*
X371066Y23561D01*
X371164Y23596D01*
X371179Y23609D01*
X371197Y23617D01*
X371328Y23722D01*
X378067Y30460D01*
X378108Y30518D01*
X378158Y30570D01*
X378180Y30617D01*
X378210Y30659D01*
X378231Y30728D01*
X378261Y30793D01*
X378267Y30845D01*
X378283Y30895D01*
X378281Y30966D01*
X378289Y31037D01*
X378277Y31088D01*
X378276Y31140D01*
X378252Y31208D01*
X378236Y31278D01*
X378210Y31322D01*
X378192Y31371D01*
X378147Y31427D01*
X378110Y31489D01*
X378071Y31523D01*
X378038Y31563D01*
X377978Y31602D01*
X377923Y31649D01*
X377875Y31668D01*
X377831Y31696D01*
X377762Y31714D01*
X377695Y31741D01*
X377624Y31749D01*
X377593Y31757D01*
X377569Y31755D01*
X377528Y31759D01*
X354268Y31759D01*
X354178Y31745D01*
X354087Y31737D01*
X354057Y31725D01*
X354025Y31720D01*
X353944Y31677D01*
X353860Y31641D01*
X353828Y31615D01*
X353808Y31604D01*
X353785Y31581D01*
X353729Y31536D01*
X345922Y23728D01*
X345910Y23712D01*
X345894Y23700D01*
X345838Y23613D01*
X345778Y23529D01*
X345772Y23510D01*
X345761Y23493D01*
X345736Y23392D01*
X345706Y23294D01*
X345706Y23274D01*
X345701Y23254D01*
X345709Y23151D01*
X345712Y23048D01*
X345719Y23029D01*
X345720Y23009D01*
X345761Y22914D01*
X345796Y22817D01*
X345809Y22801D01*
X345817Y22783D01*
X345922Y22652D01*
X346191Y22383D01*
X346191Y15017D01*
X340983Y9809D01*
X333617Y9809D01*
X328409Y15017D01*
X328409Y19678D01*
X328398Y19749D01*
X328396Y19821D01*
X328378Y19870D01*
X328370Y19921D01*
X328336Y19984D01*
X328311Y20052D01*
X328279Y20092D01*
X328254Y20138D01*
X328202Y20188D01*
X328158Y20244D01*
X328114Y20272D01*
X328076Y20308D01*
X328011Y20338D01*
X327951Y20377D01*
X327900Y20390D01*
X327853Y20411D01*
X327782Y20419D01*
X327712Y20437D01*
X327660Y20433D01*
X327609Y20439D01*
X327538Y20423D01*
X327467Y20418D01*
X327419Y20397D01*
X327368Y20386D01*
X327307Y20349D01*
X327241Y20321D01*
X327185Y20277D01*
X327157Y20260D01*
X327142Y20242D01*
X327110Y20217D01*
X324764Y17871D01*
X323052Y16159D01*
X321552Y16159D01*
X321532Y16156D01*
X321513Y16158D01*
X321411Y16136D01*
X321309Y16120D01*
X321292Y16110D01*
X321272Y16106D01*
X321183Y16053D01*
X321092Y16004D01*
X321078Y15990D01*
X321061Y15980D01*
X320994Y15901D01*
X320922Y15826D01*
X320914Y15808D01*
X320901Y15793D01*
X320862Y15697D01*
X320819Y15603D01*
X320817Y15583D01*
X320809Y15565D01*
X320791Y15398D01*
X320791Y15017D01*
X315583Y9809D01*
X308217Y9809D01*
X303009Y15017D01*
X303009Y22383D01*
X308217Y27591D01*
X315583Y27591D01*
X320902Y22272D01*
X320918Y22260D01*
X320930Y22244D01*
X321018Y22188D01*
X321102Y22128D01*
X321121Y22122D01*
X321137Y22111D01*
X321238Y22086D01*
X321337Y22056D01*
X321357Y22056D01*
X321376Y22051D01*
X321479Y22059D01*
X321583Y22062D01*
X321601Y22069D01*
X321621Y22070D01*
X321716Y22111D01*
X321814Y22146D01*
X321829Y22159D01*
X321847Y22167D01*
X321978Y22272D01*
X340888Y41181D01*
X387841Y41181D01*
X387931Y41195D01*
X388022Y41203D01*
X388051Y41215D01*
X388083Y41220D01*
X388164Y41263D01*
X388248Y41299D01*
X388280Y41325D01*
X388301Y41336D01*
X388323Y41359D01*
X388379Y41404D01*
X421616Y74641D01*
X421670Y74715D01*
X421729Y74785D01*
X421741Y74815D01*
X421760Y74841D01*
X421787Y74928D01*
X421821Y75013D01*
X421825Y75054D01*
X421832Y75076D01*
X421831Y75108D01*
X421839Y75179D01*
X421839Y147444D01*
X421825Y147534D01*
X421818Y147625D01*
X421805Y147655D01*
X421800Y147687D01*
X421757Y147768D01*
X421721Y147852D01*
X421696Y147884D01*
X421685Y147904D01*
X421661Y147927D01*
X421616Y147982D01*
X412723Y156876D01*
X412649Y156929D01*
X412579Y156989D01*
X412549Y157001D01*
X412523Y157020D01*
X412436Y157047D01*
X412351Y157081D01*
X412310Y157085D01*
X412288Y157092D01*
X412256Y157091D01*
X412184Y157099D01*
X403912Y157099D01*
X403841Y157088D01*
X403769Y157086D01*
X403721Y157068D01*
X403669Y157060D01*
X403606Y157026D01*
X403538Y157001D01*
X403498Y156969D01*
X403452Y156944D01*
X403402Y156892D01*
X403346Y156848D01*
X403318Y156804D01*
X403282Y156766D01*
X403252Y156701D01*
X403213Y156641D01*
X403201Y156590D01*
X403179Y156543D01*
X403171Y156472D01*
X403153Y156402D01*
X403157Y156350D01*
X403152Y156299D01*
X403167Y156228D01*
X403173Y156157D01*
X403193Y156109D01*
X403204Y156058D01*
X403241Y155997D01*
X403269Y155931D01*
X403314Y155875D01*
X403330Y155847D01*
X403348Y155832D01*
X403374Y155800D01*
X405337Y153836D01*
X406691Y150568D01*
X406691Y147032D01*
X405337Y143764D01*
X402836Y141263D01*
X399568Y139909D01*
X396032Y139909D01*
X392764Y141263D01*
X390263Y143764D01*
X388909Y147032D01*
X388909Y150568D01*
X390263Y153836D01*
X392226Y155800D01*
X392268Y155858D01*
X392318Y155910D01*
X392340Y155957D01*
X392370Y155999D01*
X392391Y156068D01*
X392421Y156133D01*
X392427Y156185D01*
X392442Y156235D01*
X392440Y156306D01*
X392448Y156377D01*
X392437Y156428D01*
X392436Y156480D01*
X392411Y156548D01*
X392396Y156618D01*
X392369Y156663D01*
X392351Y156711D01*
X392307Y156767D01*
X392270Y156829D01*
X392230Y156863D01*
X392198Y156903D01*
X392137Y156942D01*
X392083Y156989D01*
X392035Y157008D01*
X391991Y157036D01*
X391921Y157054D01*
X391855Y157081D01*
X391783Y157089D01*
X391752Y157097D01*
X391729Y157095D01*
X391688Y157099D01*
X357476Y157099D01*
X343659Y170916D01*
X343659Y222195D01*
X345370Y223906D01*
X345371Y223906D01*
X362506Y241042D01*
X362559Y241116D01*
X362619Y241185D01*
X362631Y241215D01*
X362650Y241241D01*
X362677Y241328D01*
X362711Y241413D01*
X362715Y241454D01*
X362722Y241476D01*
X362721Y241509D01*
X362729Y241580D01*
X362729Y247288D01*
X362726Y247308D01*
X362728Y247327D01*
X362706Y247429D01*
X362690Y247531D01*
X362680Y247548D01*
X362676Y247568D01*
X362623Y247657D01*
X362574Y247748D01*
X362560Y247762D01*
X362550Y247779D01*
X362471Y247846D01*
X362396Y247918D01*
X362378Y247926D01*
X362363Y247939D01*
X362267Y247978D01*
X362173Y248021D01*
X362153Y248023D01*
X362135Y248031D01*
X361968Y248049D01*
X359299Y248049D01*
X359209Y248035D01*
X359118Y248027D01*
X359089Y248015D01*
X359057Y248010D01*
X358976Y247967D01*
X358892Y247931D01*
X358860Y247905D01*
X358839Y247894D01*
X358817Y247871D01*
X358761Y247826D01*
X335142Y224207D01*
X335089Y224133D01*
X335029Y224063D01*
X335017Y224033D01*
X334998Y224007D01*
X334971Y223920D01*
X334937Y223835D01*
X334933Y223794D01*
X334926Y223772D01*
X334927Y223740D01*
X334919Y223669D01*
X334919Y182274D01*
X334933Y182183D01*
X334941Y182093D01*
X334953Y182063D01*
X334958Y182031D01*
X335001Y181950D01*
X335037Y181866D01*
X335063Y181834D01*
X335074Y181813D01*
X335097Y181791D01*
X335142Y181735D01*
X337847Y179030D01*
X337847Y172530D01*
X333508Y168191D01*
X333455Y168117D01*
X333395Y168047D01*
X333383Y168017D01*
X333364Y167991D01*
X333337Y167904D01*
X333303Y167819D01*
X333299Y167778D01*
X333292Y167756D01*
X333293Y167724D01*
X333285Y167652D01*
X333285Y143960D01*
X326440Y137115D01*
X305010Y137115D01*
X303596Y138529D01*
X301332Y140794D01*
X301237Y140862D01*
X301143Y140932D01*
X301137Y140934D01*
X301132Y140937D01*
X301021Y140971D01*
X300909Y141008D01*
X300903Y141008D01*
X300897Y141010D01*
X300780Y141007D01*
X300663Y141005D01*
X300656Y141003D01*
X300651Y141003D01*
X300633Y140997D01*
X300502Y140959D01*
X297968Y139909D01*
X294432Y139909D01*
X291164Y141263D01*
X288663Y143764D01*
X287309Y147032D01*
X287309Y150568D01*
X288663Y153836D01*
X291164Y156337D01*
X294432Y157691D01*
X296878Y157691D01*
X296949Y157702D01*
X297021Y157704D01*
X297070Y157722D01*
X297121Y157730D01*
X297184Y157764D01*
X297252Y157789D01*
X297292Y157821D01*
X297338Y157846D01*
X297388Y157898D01*
X297444Y157942D01*
X297472Y157986D01*
X297508Y158024D01*
X297538Y158089D01*
X297577Y158149D01*
X297590Y158200D01*
X297611Y158247D01*
X297619Y158318D01*
X297637Y158388D01*
X297633Y158440D01*
X297639Y158491D01*
X297623Y158562D01*
X297618Y158633D01*
X297597Y158681D01*
X297586Y158732D01*
X297549Y158793D01*
X297521Y158859D01*
X297477Y158915D01*
X297460Y158943D01*
X297442Y158958D01*
X297417Y158990D01*
X285265Y171142D01*
X285248Y171154D01*
X285236Y171170D01*
X285149Y171226D01*
X285065Y171286D01*
X285046Y171292D01*
X285029Y171303D01*
X284929Y171328D01*
X284830Y171358D01*
X284810Y171358D01*
X284790Y171363D01*
X284687Y171355D01*
X284584Y171352D01*
X284565Y171345D01*
X284545Y171343D01*
X284450Y171303D01*
X284353Y171267D01*
X284337Y171255D01*
X284319Y171247D01*
X284188Y171142D01*
X283393Y170347D01*
X279207Y170347D01*
X276918Y172636D01*
X276844Y172689D01*
X276775Y172749D01*
X276745Y172761D01*
X276718Y172780D01*
X276631Y172807D01*
X276547Y172841D01*
X276506Y172845D01*
X276483Y172852D01*
X276451Y172851D01*
X276380Y172859D01*
X218779Y172859D01*
X211802Y179836D01*
X211728Y179889D01*
X211659Y179949D01*
X211629Y179961D01*
X211603Y179980D01*
X211516Y180007D01*
X211431Y180041D01*
X211390Y180045D01*
X211368Y180052D01*
X211335Y180051D01*
X211264Y180059D01*
X176648Y180059D01*
X167983Y188724D01*
X167909Y188777D01*
X167839Y188837D01*
X167809Y188849D01*
X167783Y188868D01*
X167696Y188895D01*
X167611Y188929D01*
X167570Y188933D01*
X167548Y188940D01*
X167516Y188939D01*
X167444Y188947D01*
X164207Y188947D01*
X162020Y191134D01*
X161962Y191176D01*
X161910Y191225D01*
X161863Y191247D01*
X161821Y191278D01*
X161752Y191299D01*
X161687Y191329D01*
X161635Y191335D01*
X161585Y191350D01*
X161514Y191348D01*
X161443Y191356D01*
X161392Y191345D01*
X161340Y191344D01*
X161272Y191319D01*
X161202Y191304D01*
X161157Y191277D01*
X161109Y191259D01*
X161053Y191214D01*
X160991Y191178D01*
X160957Y191138D01*
X160917Y191105D01*
X160878Y191045D01*
X160831Y190991D01*
X160812Y190942D01*
X160784Y190899D01*
X160766Y190829D01*
X160739Y190763D01*
X160731Y190691D01*
X160723Y190660D01*
X160725Y190637D01*
X160721Y190596D01*
X160721Y164525D01*
X160735Y164435D01*
X160743Y164344D01*
X160755Y164314D01*
X160760Y164282D01*
X160803Y164201D01*
X160839Y164118D01*
X160865Y164085D01*
X160876Y164065D01*
X160899Y164043D01*
X160944Y163987D01*
X161429Y163502D01*
X161502Y163449D01*
X161572Y163389D01*
X161602Y163377D01*
X161628Y163358D01*
X161715Y163331D01*
X161800Y163297D01*
X161841Y163293D01*
X161863Y163286D01*
X161896Y163287D01*
X161967Y163279D01*
X175197Y163279D01*
X183679Y154797D01*
X183679Y141804D01*
X181602Y139727D01*
X181549Y139653D01*
X181489Y139584D01*
X181477Y139553D01*
X181458Y139527D01*
X181431Y139440D01*
X181397Y139355D01*
X181393Y139314D01*
X181386Y139292D01*
X181387Y139260D01*
X181379Y139189D01*
X181379Y117467D01*
X181393Y117377D01*
X181401Y117286D01*
X181413Y117256D01*
X181418Y117224D01*
X181461Y117143D01*
X181497Y117059D01*
X181523Y117027D01*
X181534Y117007D01*
X181557Y116984D01*
X181602Y116928D01*
X186776Y111754D01*
X186850Y111701D01*
X186920Y111641D01*
X186950Y111629D01*
X186976Y111610D01*
X187063Y111583D01*
X187148Y111549D01*
X187189Y111545D01*
X187211Y111538D01*
X187243Y111539D01*
X187315Y111531D01*
X221102Y111531D01*
X222516Y110117D01*
X232055Y100578D01*
X232129Y100525D01*
X232199Y100465D01*
X232229Y100453D01*
X232255Y100434D01*
X232342Y100407D01*
X232427Y100373D01*
X232468Y100369D01*
X232490Y100362D01*
X232522Y100363D01*
X232594Y100355D01*
X360970Y100355D01*
X384369Y76956D01*
X384443Y76903D01*
X384512Y76843D01*
X384543Y76831D01*
X384569Y76812D01*
X384656Y76785D01*
X384741Y76751D01*
X384782Y76747D01*
X384804Y76740D01*
X384836Y76741D01*
X384907Y76733D01*
X385848Y76733D01*
X385868Y76736D01*
X385887Y76734D01*
X385989Y76756D01*
X386091Y76772D01*
X386108Y76782D01*
X386128Y76786D01*
X386217Y76839D01*
X386308Y76888D01*
X386322Y76902D01*
X386339Y76912D01*
X386406Y76991D01*
X386478Y77066D01*
X386486Y77084D01*
X386499Y77099D01*
X386538Y77195D01*
X386581Y77289D01*
X386583Y77309D01*
X386591Y77327D01*
X386609Y77494D01*
X386609Y78383D01*
X391817Y83591D01*
X399183Y83591D01*
X404391Y78383D01*
X404391Y71017D01*
X399183Y65809D01*
X391817Y65809D01*
X386609Y71017D01*
X386609Y71906D01*
X386606Y71926D01*
X386608Y71945D01*
X386586Y72047D01*
X386570Y72149D01*
X386560Y72166D01*
X386556Y72186D01*
X386503Y72275D01*
X386454Y72366D01*
X386440Y72380D01*
X386430Y72397D01*
X386351Y72464D01*
X386276Y72536D01*
X386258Y72544D01*
X386243Y72557D01*
X386147Y72596D01*
X386053Y72639D01*
X386033Y72641D01*
X386015Y72649D01*
X385848Y72667D01*
X382908Y72667D01*
X381494Y74081D01*
X380290Y75285D01*
X380232Y75327D01*
X380180Y75376D01*
X380133Y75398D01*
X380091Y75429D01*
X380022Y75450D01*
X379957Y75480D01*
X379905Y75486D01*
X379855Y75501D01*
X379784Y75499D01*
X379713Y75507D01*
X379662Y75496D01*
X379610Y75495D01*
X379542Y75470D01*
X379472Y75455D01*
X379428Y75428D01*
X379379Y75410D01*
X379323Y75365D01*
X379261Y75329D01*
X379227Y75289D01*
X379187Y75256D01*
X379148Y75196D01*
X379101Y75142D01*
X379082Y75093D01*
X379054Y75049D01*
X379036Y74980D01*
X379009Y74913D01*
X379001Y74842D01*
X378993Y74811D01*
X378995Y74788D01*
X378991Y74747D01*
X378991Y71017D01*
X373783Y65809D01*
X366417Y65809D01*
X361209Y71017D01*
X361209Y71906D01*
X361206Y71926D01*
X361208Y71945D01*
X361186Y72047D01*
X361170Y72149D01*
X361160Y72166D01*
X361156Y72186D01*
X361103Y72275D01*
X361054Y72366D01*
X361040Y72380D01*
X361030Y72397D01*
X360951Y72464D01*
X360876Y72536D01*
X360858Y72544D01*
X360843Y72557D01*
X360747Y72596D01*
X360653Y72639D01*
X360633Y72641D01*
X360615Y72649D01*
X360448Y72667D01*
X357508Y72667D01*
X354890Y75285D01*
X354832Y75327D01*
X354780Y75376D01*
X354733Y75398D01*
X354691Y75429D01*
X354622Y75450D01*
X354557Y75480D01*
X354505Y75486D01*
X354455Y75501D01*
X354384Y75499D01*
X354313Y75507D01*
X354262Y75496D01*
X354210Y75495D01*
X354142Y75470D01*
X354072Y75455D01*
X354027Y75428D01*
X353979Y75410D01*
X353923Y75365D01*
X353861Y75329D01*
X353827Y75289D01*
X353787Y75256D01*
X353748Y75196D01*
X353701Y75142D01*
X353682Y75093D01*
X353654Y75049D01*
X353636Y74980D01*
X353609Y74913D01*
X353601Y74842D01*
X353593Y74811D01*
X353595Y74788D01*
X353591Y74747D01*
X353591Y71017D01*
X348383Y65809D01*
X341017Y65809D01*
X335809Y71017D01*
X335809Y78383D01*
X336438Y79011D01*
X336449Y79027D01*
X336465Y79040D01*
X336521Y79127D01*
X336581Y79211D01*
X336587Y79230D01*
X336598Y79247D01*
X336623Y79347D01*
X336654Y79446D01*
X336653Y79466D01*
X336658Y79485D01*
X336650Y79588D01*
X336647Y79692D01*
X336640Y79711D01*
X336639Y79730D01*
X336598Y79825D01*
X336563Y79923D01*
X336550Y79938D01*
X336542Y79957D01*
X336438Y80088D01*
X334429Y82096D01*
X334355Y82149D01*
X334286Y82209D01*
X334255Y82221D01*
X334229Y82240D01*
X334142Y82267D01*
X334057Y82301D01*
X334016Y82305D01*
X333994Y82312D01*
X333962Y82311D01*
X333891Y82319D01*
X326092Y82319D01*
X326021Y82308D01*
X325949Y82306D01*
X325901Y82288D01*
X325849Y82280D01*
X325786Y82246D01*
X325718Y82221D01*
X325678Y82189D01*
X325632Y82164D01*
X325582Y82112D01*
X325526Y82068D01*
X325498Y82024D01*
X325462Y81986D01*
X325432Y81921D01*
X325393Y81861D01*
X325381Y81810D01*
X325359Y81763D01*
X325351Y81692D01*
X325333Y81622D01*
X325337Y81570D01*
X325332Y81519D01*
X325347Y81448D01*
X325353Y81377D01*
X325373Y81329D01*
X325384Y81278D01*
X325421Y81217D01*
X325449Y81151D01*
X325494Y81095D01*
X325510Y81067D01*
X325528Y81052D01*
X325554Y81020D01*
X328191Y78383D01*
X328191Y71017D01*
X322983Y65809D01*
X315617Y65809D01*
X310409Y71017D01*
X310409Y78383D01*
X311038Y79011D01*
X311049Y79027D01*
X311065Y79040D01*
X311121Y79127D01*
X311181Y79211D01*
X311187Y79230D01*
X311198Y79247D01*
X311223Y79347D01*
X311254Y79446D01*
X311253Y79466D01*
X311258Y79485D01*
X311250Y79588D01*
X311247Y79692D01*
X311240Y79711D01*
X311239Y79730D01*
X311198Y79825D01*
X311163Y79923D01*
X311150Y79938D01*
X311142Y79957D01*
X311038Y80088D01*
X303441Y87684D01*
X303367Y87737D01*
X303298Y87797D01*
X303267Y87809D01*
X303241Y87828D01*
X303154Y87855D01*
X303069Y87889D01*
X303028Y87893D01*
X303006Y87900D01*
X302974Y87899D01*
X302903Y87907D01*
X285405Y87907D01*
X285335Y87896D01*
X285263Y87894D01*
X285214Y87876D01*
X285163Y87868D01*
X285099Y87834D01*
X285032Y87809D01*
X284991Y87777D01*
X284945Y87752D01*
X284896Y87701D01*
X284840Y87656D01*
X284812Y87612D01*
X284776Y87574D01*
X284746Y87509D01*
X284707Y87449D01*
X284694Y87398D01*
X284672Y87351D01*
X284664Y87280D01*
X284647Y87210D01*
X284651Y87158D01*
X284645Y87107D01*
X284660Y87036D01*
X284666Y86965D01*
X284686Y86917D01*
X284697Y86866D01*
X284734Y86805D01*
X284762Y86739D01*
X284807Y86683D01*
X284823Y86655D01*
X284841Y86640D01*
X284867Y86608D01*
X288512Y82962D01*
X288529Y82951D01*
X288541Y82935D01*
X288628Y82879D01*
X288712Y82819D01*
X288731Y82813D01*
X288748Y82802D01*
X288848Y82777D01*
X288947Y82746D01*
X288967Y82747D01*
X288986Y82742D01*
X289089Y82750D01*
X289193Y82753D01*
X289212Y82760D01*
X289232Y82761D01*
X289327Y82802D01*
X289424Y82837D01*
X289440Y82850D01*
X289458Y82858D01*
X289589Y82962D01*
X290217Y83591D01*
X297583Y83591D01*
X302791Y78383D01*
X302791Y71017D01*
X297583Y65809D01*
X290217Y65809D01*
X285009Y71017D01*
X285009Y78383D01*
X285638Y79011D01*
X285649Y79027D01*
X285665Y79040D01*
X285721Y79127D01*
X285781Y79211D01*
X285787Y79230D01*
X285798Y79247D01*
X285823Y79347D01*
X285854Y79446D01*
X285853Y79466D01*
X285858Y79485D01*
X285850Y79588D01*
X285847Y79692D01*
X285840Y79711D01*
X285839Y79730D01*
X285798Y79825D01*
X285763Y79923D01*
X285750Y79938D01*
X285742Y79957D01*
X285638Y80088D01*
X280835Y84890D01*
X280761Y84943D01*
X280692Y85003D01*
X280661Y85015D01*
X280635Y85034D01*
X280548Y85061D01*
X280463Y85095D01*
X280422Y85099D01*
X280400Y85106D01*
X280368Y85105D01*
X280297Y85113D01*
X251049Y85113D01*
X250979Y85102D01*
X250907Y85100D01*
X250858Y85082D01*
X250807Y85074D01*
X250743Y85040D01*
X250676Y85015D01*
X250635Y84983D01*
X250589Y84958D01*
X250540Y84906D01*
X250484Y84862D01*
X250456Y84818D01*
X250420Y84780D01*
X250390Y84715D01*
X250351Y84655D01*
X250338Y84604D01*
X250316Y84557D01*
X250308Y84486D01*
X250291Y84416D01*
X250295Y84364D01*
X250289Y84313D01*
X250304Y84242D01*
X250310Y84171D01*
X250330Y84123D01*
X250341Y84072D01*
X250378Y84011D01*
X250406Y83945D01*
X250451Y83889D01*
X250467Y83861D01*
X250485Y83846D01*
X250511Y83814D01*
X257369Y76956D01*
X257443Y76903D01*
X257512Y76843D01*
X257543Y76831D01*
X257569Y76812D01*
X257656Y76785D01*
X257741Y76751D01*
X257782Y76747D01*
X257804Y76740D01*
X257836Y76741D01*
X257907Y76733D01*
X258848Y76733D01*
X258868Y76736D01*
X258887Y76734D01*
X258989Y76756D01*
X259091Y76772D01*
X259108Y76782D01*
X259128Y76786D01*
X259217Y76839D01*
X259308Y76888D01*
X259322Y76902D01*
X259339Y76912D01*
X259406Y76991D01*
X259478Y77066D01*
X259486Y77084D01*
X259499Y77099D01*
X259538Y77195D01*
X259581Y77289D01*
X259583Y77309D01*
X259591Y77327D01*
X259609Y77494D01*
X259609Y78383D01*
X264817Y83591D01*
X272183Y83591D01*
X277391Y78383D01*
X277391Y71017D01*
X272183Y65809D01*
X264817Y65809D01*
X259609Y71017D01*
X259609Y71906D01*
X259606Y71926D01*
X259608Y71945D01*
X259586Y72047D01*
X259570Y72149D01*
X259560Y72166D01*
X259556Y72186D01*
X259503Y72275D01*
X259454Y72366D01*
X259440Y72380D01*
X259430Y72397D01*
X259351Y72464D01*
X259276Y72536D01*
X259258Y72544D01*
X259243Y72557D01*
X259147Y72596D01*
X259053Y72639D01*
X259033Y72641D01*
X259015Y72649D01*
X258848Y72667D01*
X255908Y72667D01*
X253290Y75285D01*
X253232Y75327D01*
X253180Y75376D01*
X253133Y75398D01*
X253091Y75429D01*
X253022Y75450D01*
X252957Y75480D01*
X252905Y75486D01*
X252855Y75501D01*
X252784Y75499D01*
X252713Y75507D01*
X252662Y75496D01*
X252610Y75495D01*
X252542Y75470D01*
X252472Y75455D01*
X252427Y75428D01*
X252379Y75410D01*
X252323Y75365D01*
X252261Y75329D01*
X252227Y75289D01*
X252187Y75256D01*
X252148Y75196D01*
X252101Y75142D01*
X252082Y75093D01*
X252054Y75049D01*
X252036Y74980D01*
X252009Y74913D01*
X252001Y74842D01*
X251993Y74811D01*
X251995Y74788D01*
X251991Y74747D01*
X251991Y71017D01*
X246783Y65809D01*
X239417Y65809D01*
X234209Y71017D01*
X234209Y71906D01*
X234206Y71926D01*
X234208Y71945D01*
X234186Y72047D01*
X234170Y72149D01*
X234160Y72166D01*
X234156Y72186D01*
X234103Y72275D01*
X234054Y72366D01*
X234040Y72380D01*
X234030Y72397D01*
X233951Y72464D01*
X233876Y72536D01*
X233858Y72544D01*
X233843Y72557D01*
X233747Y72596D01*
X233653Y72639D01*
X233633Y72641D01*
X233615Y72649D01*
X233448Y72667D01*
X230508Y72667D01*
X227890Y75285D01*
X227832Y75327D01*
X227780Y75376D01*
X227733Y75398D01*
X227691Y75429D01*
X227622Y75450D01*
X227557Y75480D01*
X227505Y75486D01*
X227455Y75501D01*
X227384Y75499D01*
X227313Y75507D01*
X227262Y75496D01*
X227210Y75495D01*
X227142Y75470D01*
X227072Y75455D01*
X227027Y75428D01*
X226979Y75410D01*
X226923Y75365D01*
X226861Y75329D01*
X226827Y75289D01*
X226787Y75256D01*
X226748Y75196D01*
X226701Y75142D01*
X226682Y75093D01*
X226654Y75049D01*
X226636Y74980D01*
X226609Y74913D01*
X226601Y74842D01*
X226593Y74811D01*
X226595Y74788D01*
X226591Y74747D01*
X226591Y71017D01*
X221383Y65809D01*
X214017Y65809D01*
X208809Y71017D01*
X208809Y71906D01*
X208806Y71926D01*
X208808Y71945D01*
X208786Y72047D01*
X208770Y72149D01*
X208760Y72166D01*
X208756Y72186D01*
X208703Y72275D01*
X208654Y72366D01*
X208640Y72380D01*
X208630Y72397D01*
X208551Y72464D01*
X208476Y72536D01*
X208458Y72544D01*
X208443Y72557D01*
X208347Y72596D01*
X208253Y72639D01*
X208233Y72641D01*
X208215Y72649D01*
X208048Y72667D01*
X205108Y72667D01*
X202490Y75285D01*
X202432Y75327D01*
X202380Y75376D01*
X202333Y75398D01*
X202291Y75429D01*
X202222Y75450D01*
X202157Y75480D01*
X202105Y75486D01*
X202055Y75501D01*
X201984Y75499D01*
X201913Y75507D01*
X201862Y75496D01*
X201810Y75495D01*
X201742Y75470D01*
X201672Y75455D01*
X201627Y75428D01*
X201579Y75410D01*
X201523Y75365D01*
X201461Y75329D01*
X201427Y75289D01*
X201387Y75256D01*
X201348Y75196D01*
X201301Y75142D01*
X201282Y75093D01*
X201254Y75049D01*
X201236Y74980D01*
X201209Y74913D01*
X201201Y74842D01*
X201193Y74811D01*
X201195Y74788D01*
X201191Y74747D01*
X201191Y71017D01*
X195983Y65809D01*
X188617Y65809D01*
X183409Y71017D01*
X183409Y71906D01*
X183406Y71926D01*
X183408Y71945D01*
X183386Y72047D01*
X183370Y72149D01*
X183360Y72166D01*
X183356Y72186D01*
X183303Y72275D01*
X183254Y72366D01*
X183240Y72380D01*
X183230Y72397D01*
X183151Y72464D01*
X183076Y72536D01*
X183058Y72544D01*
X183043Y72557D01*
X182947Y72596D01*
X182853Y72639D01*
X182833Y72641D01*
X182815Y72649D01*
X182648Y72667D01*
X179708Y72667D01*
X177090Y75285D01*
X177032Y75327D01*
X176980Y75376D01*
X176933Y75398D01*
X176891Y75429D01*
X176822Y75450D01*
X176757Y75480D01*
X176705Y75486D01*
X176655Y75501D01*
X176584Y75499D01*
X176513Y75507D01*
X176462Y75496D01*
X176410Y75495D01*
X176342Y75470D01*
X176272Y75455D01*
X176227Y75428D01*
X176179Y75410D01*
X176123Y75365D01*
X176061Y75329D01*
X176027Y75289D01*
X175987Y75256D01*
X175948Y75196D01*
X175901Y75142D01*
X175882Y75093D01*
X175854Y75049D01*
X175836Y74980D01*
X175809Y74913D01*
X175801Y74842D01*
X175793Y74811D01*
X175795Y74788D01*
X175791Y74747D01*
X175791Y71017D01*
X170583Y65809D01*
X163217Y65809D01*
X158009Y71017D01*
X158009Y71906D01*
X158006Y71926D01*
X158008Y71945D01*
X157986Y72047D01*
X157970Y72149D01*
X157960Y72166D01*
X157956Y72186D01*
X157903Y72275D01*
X157854Y72366D01*
X157840Y72380D01*
X157830Y72397D01*
X157751Y72464D01*
X157676Y72536D01*
X157658Y72544D01*
X157643Y72557D01*
X157547Y72596D01*
X157453Y72639D01*
X157433Y72641D01*
X157415Y72649D01*
X157248Y72667D01*
X154308Y72667D01*
X151690Y75285D01*
X151632Y75327D01*
X151580Y75376D01*
X151533Y75398D01*
X151491Y75429D01*
X151422Y75450D01*
X151357Y75480D01*
X151305Y75486D01*
X151255Y75501D01*
X151184Y75499D01*
X151113Y75507D01*
X151062Y75496D01*
X151010Y75495D01*
X150942Y75470D01*
X150872Y75455D01*
X150827Y75428D01*
X150779Y75410D01*
X150723Y75365D01*
X150661Y75329D01*
X150627Y75289D01*
X150587Y75256D01*
X150548Y75196D01*
X150501Y75142D01*
X150482Y75093D01*
X150454Y75049D01*
X150436Y74980D01*
X150409Y74913D01*
X150401Y74842D01*
X150393Y74811D01*
X150395Y74788D01*
X150391Y74747D01*
X150391Y71017D01*
X145183Y65809D01*
X137817Y65809D01*
X132609Y71017D01*
X132609Y71906D01*
X132606Y71926D01*
X132608Y71945D01*
X132586Y72047D01*
X132570Y72149D01*
X132560Y72166D01*
X132556Y72186D01*
X132503Y72275D01*
X132454Y72366D01*
X132440Y72380D01*
X132430Y72397D01*
X132351Y72464D01*
X132276Y72536D01*
X132258Y72544D01*
X132243Y72557D01*
X132147Y72596D01*
X132053Y72639D01*
X132033Y72641D01*
X132015Y72649D01*
X131848Y72667D01*
X128908Y72667D01*
X126290Y75285D01*
X126232Y75327D01*
X126180Y75376D01*
X126133Y75398D01*
X126091Y75429D01*
X126022Y75450D01*
X125957Y75480D01*
X125905Y75486D01*
X125855Y75501D01*
X125784Y75499D01*
X125713Y75507D01*
X125662Y75496D01*
X125610Y75495D01*
X125542Y75470D01*
X125472Y75455D01*
X125427Y75428D01*
X125379Y75410D01*
X125323Y75365D01*
X125261Y75329D01*
X125227Y75289D01*
X125187Y75256D01*
X125148Y75196D01*
X125101Y75142D01*
X125082Y75093D01*
X125054Y75049D01*
X125036Y74980D01*
X125009Y74913D01*
X125001Y74842D01*
X124993Y74811D01*
X124995Y74788D01*
X124991Y74747D01*
X124991Y71017D01*
X119783Y65809D01*
X112417Y65809D01*
X107209Y71017D01*
X107209Y71906D01*
X107206Y71926D01*
X107208Y71945D01*
X107186Y72047D01*
X107170Y72149D01*
X107160Y72166D01*
X107156Y72186D01*
X107103Y72275D01*
X107054Y72366D01*
X107040Y72380D01*
X107030Y72397D01*
X106951Y72464D01*
X106876Y72536D01*
X106858Y72544D01*
X106843Y72557D01*
X106747Y72596D01*
X106653Y72639D01*
X106633Y72641D01*
X106615Y72649D01*
X106448Y72667D01*
X103508Y72667D01*
X100890Y75285D01*
X100832Y75327D01*
X100780Y75376D01*
X100733Y75398D01*
X100691Y75429D01*
X100622Y75450D01*
X100557Y75480D01*
X100505Y75486D01*
X100455Y75501D01*
X100384Y75499D01*
X100313Y75507D01*
X100262Y75496D01*
X100210Y75495D01*
X100142Y75470D01*
X100072Y75455D01*
X100027Y75428D01*
X99979Y75410D01*
X99923Y75365D01*
X99861Y75329D01*
X99827Y75289D01*
X99787Y75256D01*
X99748Y75196D01*
X99701Y75142D01*
X99682Y75093D01*
X99654Y75049D01*
X99636Y74980D01*
X99609Y74913D01*
X99601Y74842D01*
X99593Y74811D01*
X99595Y74788D01*
X99591Y74747D01*
X99591Y71017D01*
X94383Y65809D01*
X87017Y65809D01*
X81809Y71017D01*
X81809Y78383D01*
X82438Y79011D01*
X82449Y79027D01*
X82465Y79040D01*
X82521Y79127D01*
X82581Y79211D01*
X82587Y79230D01*
X82598Y79247D01*
X82623Y79347D01*
X82654Y79446D01*
X82653Y79466D01*
X82658Y79485D01*
X82650Y79588D01*
X82647Y79692D01*
X82640Y79711D01*
X82639Y79730D01*
X82598Y79825D01*
X82563Y79923D01*
X82550Y79938D01*
X82542Y79957D01*
X82438Y80088D01*
X51381Y111144D01*
X49967Y112558D01*
X49967Y120356D01*
X49956Y120427D01*
X49954Y120499D01*
X49936Y120547D01*
X49928Y120599D01*
X49894Y120662D01*
X49869Y120730D01*
X49837Y120770D01*
X49812Y120816D01*
X49760Y120866D01*
X49716Y120922D01*
X49672Y120950D01*
X49634Y120986D01*
X49569Y121016D01*
X49509Y121055D01*
X49458Y121067D01*
X49411Y121089D01*
X49340Y121097D01*
X49270Y121115D01*
X49218Y121111D01*
X49167Y121116D01*
X49096Y121101D01*
X49025Y121095D01*
X48977Y121075D01*
X48926Y121064D01*
X48865Y121027D01*
X48799Y120999D01*
X48743Y120954D01*
X48715Y120938D01*
X48700Y120920D01*
X48668Y120894D01*
X43583Y115809D01*
X36217Y115809D01*
X33126Y118900D01*
X33068Y118942D01*
X33016Y118992D01*
X32969Y119014D01*
X32927Y119044D01*
X32858Y119065D01*
X32793Y119095D01*
X32741Y119101D01*
X32691Y119116D01*
X32620Y119114D01*
X32549Y119122D01*
X32498Y119111D01*
X32446Y119110D01*
X32378Y119085D01*
X32308Y119070D01*
X32263Y119043D01*
X32215Y119025D01*
X32159Y118981D01*
X32097Y118944D01*
X32063Y118904D01*
X32023Y118872D01*
X31984Y118811D01*
X31937Y118757D01*
X31918Y118709D01*
X31890Y118665D01*
X31872Y118595D01*
X31845Y118529D01*
X31837Y118457D01*
X31829Y118426D01*
X31831Y118403D01*
X31827Y118362D01*
X31827Y111363D01*
X31841Y111273D01*
X31849Y111182D01*
X31861Y111153D01*
X31866Y111121D01*
X31909Y111040D01*
X31945Y110956D01*
X31971Y110924D01*
X31982Y110903D01*
X32005Y110881D01*
X32050Y110825D01*
X59912Y82962D01*
X59929Y82951D01*
X59941Y82935D01*
X60028Y82879D01*
X60112Y82819D01*
X60131Y82813D01*
X60148Y82802D01*
X60248Y82777D01*
X60347Y82746D01*
X60367Y82747D01*
X60386Y82742D01*
X60489Y82750D01*
X60593Y82753D01*
X60612Y82760D01*
X60632Y82761D01*
X60727Y82802D01*
X60824Y82837D01*
X60840Y82850D01*
X60858Y82858D01*
X60989Y82962D01*
X61617Y83591D01*
X68983Y83591D01*
X74191Y78383D01*
X74191Y71017D01*
X68983Y65809D01*
X61617Y65809D01*
X56409Y71017D01*
X56409Y78383D01*
X57038Y79011D01*
X57049Y79027D01*
X57065Y79040D01*
X57121Y79127D01*
X57181Y79211D01*
X57187Y79230D01*
X57198Y79247D01*
X57223Y79347D01*
X57254Y79446D01*
X57253Y79466D01*
X57258Y79485D01*
X57250Y79588D01*
X57247Y79692D01*
X57240Y79711D01*
X57239Y79730D01*
X57198Y79825D01*
X57163Y79923D01*
X57150Y79938D01*
X57142Y79957D01*
X57038Y80088D01*
X30332Y106793D01*
X30274Y106835D01*
X30222Y106884D01*
X30175Y106906D01*
X30133Y106937D01*
X30064Y106958D01*
X29999Y106988D01*
X29947Y106994D01*
X29897Y107009D01*
X29826Y107007D01*
X29755Y107015D01*
X29704Y107004D01*
X29652Y107003D01*
X29584Y106978D01*
X29514Y106963D01*
X29470Y106936D01*
X29421Y106918D01*
X29365Y106873D01*
X29303Y106837D01*
X29269Y106797D01*
X29229Y106764D01*
X29190Y106704D01*
X29143Y106650D01*
X29124Y106601D01*
X29096Y106557D01*
X29078Y106488D01*
X29051Y106421D01*
X29043Y106350D01*
X29035Y106319D01*
X29037Y106296D01*
X29033Y106255D01*
X29033Y88757D01*
X29047Y88667D01*
X29055Y88576D01*
X29067Y88547D01*
X29072Y88515D01*
X29115Y88434D01*
X29151Y88350D01*
X29177Y88318D01*
X29188Y88297D01*
X29211Y88275D01*
X29256Y88219D01*
X34512Y82962D01*
X34529Y82951D01*
X34541Y82935D01*
X34628Y82879D01*
X34712Y82819D01*
X34731Y82813D01*
X34748Y82802D01*
X34848Y82777D01*
X34947Y82746D01*
X34967Y82747D01*
X34986Y82742D01*
X35089Y82750D01*
X35193Y82753D01*
X35212Y82760D01*
X35232Y82761D01*
X35327Y82802D01*
X35424Y82837D01*
X35440Y82850D01*
X35458Y82858D01*
X35589Y82962D01*
X36217Y83591D01*
X43583Y83591D01*
X48791Y78383D01*
X48791Y71017D01*
X43583Y65809D01*
X36217Y65809D01*
X31009Y71017D01*
X31009Y78383D01*
X31638Y79011D01*
X31649Y79027D01*
X31665Y79040D01*
X31721Y79127D01*
X31781Y79211D01*
X31787Y79230D01*
X31798Y79247D01*
X31823Y79347D01*
X31854Y79446D01*
X31853Y79466D01*
X31858Y79485D01*
X31850Y79588D01*
X31847Y79692D01*
X31840Y79711D01*
X31839Y79730D01*
X31798Y79825D01*
X31763Y79923D01*
X31750Y79938D01*
X31742Y79957D01*
X31638Y80088D01*
X26381Y85344D01*
X24967Y86758D01*
X24967Y116805D01*
X24956Y116875D01*
X24954Y116947D01*
X24936Y116996D01*
X24928Y117047D01*
X24894Y117111D01*
X24869Y117178D01*
X24837Y117219D01*
X24812Y117265D01*
X24760Y117314D01*
X24716Y117370D01*
X24672Y117398D01*
X24634Y117434D01*
X24569Y117464D01*
X24509Y117503D01*
X24458Y117516D01*
X24411Y117538D01*
X24340Y117546D01*
X24270Y117563D01*
X24218Y117559D01*
X24167Y117565D01*
X24096Y117550D01*
X24025Y117544D01*
X23977Y117524D01*
X23926Y117513D01*
X23865Y117476D01*
X23799Y117448D01*
X23743Y117403D01*
X23715Y117387D01*
X23700Y117369D01*
X23668Y117343D01*
X16756Y110431D01*
X16703Y110357D01*
X16643Y110288D01*
X16631Y110257D01*
X16612Y110231D01*
X16585Y110144D01*
X16551Y110059D01*
X16547Y110018D01*
X16540Y109996D01*
X16541Y109964D01*
X16533Y109893D01*
X16533Y84352D01*
X16536Y84332D01*
X16534Y84313D01*
X16556Y84211D01*
X16572Y84109D01*
X16582Y84092D01*
X16586Y84072D01*
X16639Y83983D01*
X16688Y83892D01*
X16702Y83878D01*
X16712Y83861D01*
X16791Y83794D01*
X16866Y83722D01*
X16884Y83714D01*
X16899Y83701D01*
X16995Y83662D01*
X17089Y83619D01*
X17109Y83617D01*
X17127Y83609D01*
X17294Y83591D01*
X18183Y83591D01*
X23391Y78383D01*
X23391Y71017D01*
X18183Y65809D01*
X10817Y65809D01*
X5609Y71017D01*
X5609Y78383D01*
X10817Y83591D01*
X11706Y83591D01*
X11726Y83594D01*
X11745Y83592D01*
X11847Y83614D01*
X11949Y83630D01*
X11966Y83640D01*
X11986Y83644D01*
X12075Y83697D01*
X12166Y83746D01*
X12180Y83760D01*
X12197Y83770D01*
X12264Y83849D01*
X12336Y83924D01*
X12344Y83942D01*
X12357Y83957D01*
X12396Y84053D01*
X12439Y84147D01*
X12441Y84167D01*
X12449Y84185D01*
X12467Y84352D01*
X12467Y111892D01*
X15085Y114510D01*
X15127Y114568D01*
X15176Y114620D01*
X15198Y114667D01*
X15229Y114709D01*
X15250Y114778D01*
X15280Y114843D01*
X15286Y114895D01*
X15301Y114945D01*
X15299Y115016D01*
X15307Y115087D01*
X15296Y115138D01*
X15295Y115190D01*
X15270Y115258D01*
X15255Y115328D01*
X15228Y115373D01*
X15210Y115421D01*
X15165Y115477D01*
X15129Y115539D01*
X15089Y115573D01*
X15056Y115613D01*
X14996Y115652D01*
X14942Y115699D01*
X14893Y115718D01*
X14849Y115746D01*
X14780Y115764D01*
X14713Y115791D01*
X14642Y115799D01*
X14611Y115807D01*
X14588Y115805D01*
X14547Y115809D01*
X10817Y115809D01*
X5609Y121017D01*
X5609Y128383D01*
X10817Y133591D01*
X18183Y133591D01*
X20820Y130954D01*
X20878Y130912D01*
X20930Y130862D01*
X20977Y130840D01*
X21019Y130810D01*
X21088Y130789D01*
X21153Y130759D01*
X21205Y130753D01*
X21255Y130738D01*
X21326Y130740D01*
X21397Y130732D01*
X21448Y130743D01*
X21500Y130744D01*
X21568Y130769D01*
X21638Y130784D01*
X21683Y130811D01*
X21731Y130829D01*
X21787Y130873D01*
X21849Y130910D01*
X21883Y130950D01*
X21923Y130982D01*
X21962Y131043D01*
X22009Y131097D01*
X22028Y131145D01*
X22056Y131189D01*
X22074Y131259D01*
X22101Y131325D01*
X22109Y131397D01*
X22117Y131428D01*
X22115Y131451D01*
X22119Y131492D01*
X22119Y188994D01*
X29773Y196648D01*
X29815Y196706D01*
X29864Y196758D01*
X29886Y196805D01*
X29917Y196847D01*
X29938Y196916D01*
X29968Y196981D01*
X29974Y197033D01*
X29989Y197083D01*
X29987Y197154D01*
X29995Y197225D01*
X29984Y197276D01*
X29983Y197328D01*
X29958Y197396D01*
X29943Y197466D01*
X29916Y197511D01*
X29898Y197559D01*
X29853Y197615D01*
X29817Y197677D01*
X29777Y197711D01*
X29744Y197751D01*
X29684Y197790D01*
X29630Y197837D01*
X29581Y197856D01*
X29537Y197884D01*
X29468Y197902D01*
X29401Y197929D01*
X29330Y197937D01*
X29299Y197945D01*
X29276Y197943D01*
X29235Y197947D01*
X25407Y197947D01*
X22447Y200907D01*
X22447Y205093D01*
X25430Y208076D01*
X25483Y208150D01*
X25543Y208219D01*
X25555Y208250D01*
X25574Y208276D01*
X25601Y208363D01*
X25635Y208448D01*
X25639Y208488D01*
X25646Y208511D01*
X25645Y208543D01*
X25653Y208614D01*
X25653Y210250D01*
X58571Y243168D01*
X58613Y243226D01*
X58662Y243278D01*
X58684Y243325D01*
X58714Y243367D01*
X58735Y243436D01*
X58766Y243501D01*
X58771Y243553D01*
X58787Y243603D01*
X58785Y243674D01*
X58793Y243745D01*
X58782Y243796D01*
X58780Y243848D01*
X58756Y243916D01*
X58740Y243986D01*
X58714Y244031D01*
X58696Y244079D01*
X58651Y244135D01*
X58614Y244197D01*
X58575Y244231D01*
X58542Y244271D01*
X58482Y244310D01*
X58427Y244357D01*
X58379Y244376D01*
X58335Y244404D01*
X58266Y244422D01*
X58199Y244449D01*
X58128Y244457D01*
X58097Y244465D01*
X58073Y244463D01*
X58032Y244467D01*
X56928Y244467D01*
X56838Y244453D01*
X56747Y244445D01*
X56717Y244433D01*
X56685Y244428D01*
X56605Y244385D01*
X56521Y244349D01*
X56489Y244323D01*
X56468Y244312D01*
X56446Y244289D01*
X56390Y244244D01*
X53593Y241447D01*
X49407Y241447D01*
X46447Y244407D01*
X46447Y248593D01*
X49407Y251553D01*
X53593Y251553D01*
X56390Y248756D01*
X56464Y248703D01*
X56533Y248643D01*
X56564Y248631D01*
X56590Y248612D01*
X56677Y248585D01*
X56762Y248551D01*
X56802Y248547D01*
X56825Y248540D01*
X56857Y248541D01*
X56928Y248533D01*
X63620Y248533D01*
X63711Y248547D01*
X63801Y248555D01*
X63831Y248567D01*
X63863Y248572D01*
X63944Y248615D01*
X64028Y248651D01*
X64060Y248677D01*
X64081Y248688D01*
X64103Y248711D01*
X64159Y248756D01*
X64650Y249247D01*
X68728Y249247D01*
X68748Y249250D01*
X68767Y249248D01*
X68869Y249270D01*
X68971Y249286D01*
X68988Y249296D01*
X69008Y249300D01*
X69097Y249353D01*
X69188Y249402D01*
X69202Y249416D01*
X69219Y249426D01*
X69286Y249505D01*
X69358Y249580D01*
X69366Y249598D01*
X69379Y249613D01*
X69390Y249641D01*
X69600Y249851D01*
X69611Y249867D01*
X69627Y249879D01*
X69683Y249967D01*
X69743Y250050D01*
X69749Y250069D01*
X69760Y250086D01*
X69785Y250187D01*
X69816Y250286D01*
X69815Y250306D01*
X69820Y250325D01*
X69812Y250428D01*
X69809Y250531D01*
X69802Y250550D01*
X69801Y250570D01*
X69760Y250665D01*
X69725Y250762D01*
X69712Y250778D01*
X69704Y250796D01*
X69630Y250890D01*
X69624Y250899D01*
X69619Y250904D01*
X69600Y250927D01*
X69489Y251038D01*
X69489Y256090D01*
X70234Y256835D01*
X86286Y256835D01*
X86688Y256433D01*
X86704Y256421D01*
X86717Y256406D01*
X86803Y256350D01*
X86888Y256290D01*
X86907Y256284D01*
X86923Y256273D01*
X87024Y256248D01*
X87123Y256217D01*
X87143Y256218D01*
X87162Y256213D01*
X87265Y256221D01*
X87369Y256224D01*
X87387Y256230D01*
X87407Y256232D01*
X87502Y256273D01*
X87600Y256308D01*
X87615Y256321D01*
X87634Y256328D01*
X87765Y256433D01*
X87950Y256619D01*
X88004Y256693D01*
X88063Y256762D01*
X88075Y256793D01*
X88094Y256819D01*
X88121Y256906D01*
X88155Y256991D01*
X88159Y257032D01*
X88166Y257054D01*
X88165Y257086D01*
X88173Y257157D01*
X88173Y259184D01*
X88159Y259274D01*
X88151Y259365D01*
X88139Y259395D01*
X88134Y259427D01*
X88091Y259508D01*
X88055Y259592D01*
X88029Y259624D01*
X88018Y259644D01*
X87995Y259667D01*
X87950Y259723D01*
X65567Y282106D01*
X65567Y291910D01*
X65548Y292025D01*
X65531Y292141D01*
X65529Y292147D01*
X65528Y292153D01*
X65473Y292255D01*
X65420Y292360D01*
X65415Y292365D01*
X65412Y292370D01*
X65328Y292450D01*
X65244Y292533D01*
X65238Y292536D01*
X65234Y292540D01*
X65217Y292547D01*
X65097Y292613D01*
X62564Y293663D01*
X60063Y296164D01*
X58709Y299432D01*
X58709Y302968D01*
X60063Y306236D01*
X62564Y308737D01*
X65832Y310091D01*
X69368Y310091D01*
X72636Y308737D01*
X75137Y306236D01*
X76491Y302968D01*
X76491Y299432D01*
X75137Y296164D01*
X72636Y293663D01*
X70103Y292613D01*
X70003Y292552D01*
X69903Y292492D01*
X69899Y292487D01*
X69894Y292484D01*
X69819Y292394D01*
X69743Y292305D01*
X69741Y292299D01*
X69737Y292294D01*
X69695Y292186D01*
X69651Y292077D01*
X69650Y292069D01*
X69649Y292065D01*
X69648Y292046D01*
X69633Y291910D01*
X69633Y284105D01*
X69647Y284015D01*
X69655Y283924D01*
X69667Y283894D01*
X69672Y283862D01*
X69715Y283782D01*
X69751Y283698D01*
X69777Y283666D01*
X69788Y283645D01*
X69811Y283623D01*
X69856Y283567D01*
X89668Y263755D01*
X89726Y263713D01*
X89778Y263663D01*
X89825Y263641D01*
X89867Y263611D01*
X89936Y263590D01*
X90001Y263560D01*
X90053Y263554D01*
X90103Y263539D01*
X90174Y263541D01*
X90245Y263533D01*
X90296Y263544D01*
X90348Y263545D01*
X90416Y263570D01*
X90486Y263585D01*
X90531Y263612D01*
X90579Y263630D01*
X90635Y263674D01*
X90697Y263711D01*
X90731Y263751D01*
X90771Y263783D01*
X90810Y263844D01*
X90857Y263898D01*
X90876Y263946D01*
X90904Y263990D01*
X90922Y264060D01*
X90949Y264126D01*
X90957Y264198D01*
X90965Y264229D01*
X90963Y264252D01*
X90967Y264293D01*
X90967Y291910D01*
X90948Y292025D01*
X90931Y292141D01*
X90929Y292147D01*
X90928Y292153D01*
X90873Y292255D01*
X90820Y292360D01*
X90815Y292365D01*
X90812Y292370D01*
X90728Y292450D01*
X90644Y292533D01*
X90638Y292536D01*
X90634Y292540D01*
X90617Y292547D01*
X90497Y292613D01*
X87964Y293663D01*
X85463Y296164D01*
X84109Y299432D01*
X84109Y302968D01*
X85463Y306236D01*
X87964Y308737D01*
X91232Y310091D01*
X93047Y310091D01*
X93117Y310102D01*
X93189Y310104D01*
X93238Y310122D01*
X93289Y310130D01*
X93353Y310164D01*
X93420Y310189D01*
X93461Y310221D01*
X93507Y310246D01*
X93556Y310298D01*
X93612Y310342D01*
X93640Y310386D01*
X93676Y310424D01*
X93706Y310489D01*
X93745Y310549D01*
X93758Y310600D01*
X93780Y310647D01*
X93788Y310718D01*
X93805Y310788D01*
X93801Y310840D01*
X93807Y310891D01*
X93792Y310962D01*
X93786Y311033D01*
X93766Y311081D01*
X93755Y311132D01*
X93718Y311193D01*
X93690Y311259D01*
X93645Y311315D01*
X93629Y311343D01*
X93611Y311358D01*
X93585Y311390D01*
X92183Y312792D01*
X92109Y312845D01*
X92040Y312905D01*
X92009Y312917D01*
X91983Y312936D01*
X91896Y312963D01*
X91811Y312997D01*
X91770Y313001D01*
X91748Y313008D01*
X91716Y313007D01*
X91645Y313015D01*
X85860Y313015D01*
X84446Y314429D01*
X80429Y318446D01*
X79015Y319860D01*
X79015Y332395D01*
X79001Y332485D01*
X78993Y332576D01*
X78981Y332605D01*
X78976Y332637D01*
X78933Y332718D01*
X78897Y332802D01*
X78871Y332834D01*
X78860Y332855D01*
X78837Y332877D01*
X78792Y332933D01*
X45288Y366438D01*
X45271Y366449D01*
X45259Y366465D01*
X45172Y366521D01*
X45088Y366581D01*
X45069Y366587D01*
X45052Y366598D01*
X44952Y366623D01*
X44853Y366654D01*
X44833Y366653D01*
X44814Y366658D01*
X44711Y366650D01*
X44607Y366647D01*
X44588Y366640D01*
X44568Y366639D01*
X44473Y366598D01*
X44376Y366563D01*
X44360Y366550D01*
X44342Y366542D01*
X44211Y366438D01*
X43583Y365809D01*
X36217Y365809D01*
X31009Y371017D01*
X31009Y374747D01*
X30998Y374817D01*
X30996Y374889D01*
X30978Y374938D01*
X30970Y374989D01*
X30936Y375053D01*
X30911Y375120D01*
X30879Y375161D01*
X30854Y375207D01*
X30802Y375256D01*
X30758Y375312D01*
X30714Y375340D01*
X30676Y375376D01*
X30611Y375406D01*
X30551Y375445D01*
X30500Y375458D01*
X30453Y375480D01*
X30382Y375488D01*
X30312Y375505D01*
X30260Y375501D01*
X30209Y375507D01*
X30138Y375492D01*
X30067Y375486D01*
X30019Y375466D01*
X29968Y375455D01*
X29907Y375418D01*
X29841Y375390D01*
X29785Y375345D01*
X29757Y375329D01*
X29742Y375311D01*
X29710Y375285D01*
X27092Y372667D01*
X24152Y372667D01*
X24132Y372664D01*
X24113Y372666D01*
X24011Y372644D01*
X23909Y372628D01*
X23892Y372618D01*
X23872Y372614D01*
X23783Y372561D01*
X23692Y372512D01*
X23678Y372498D01*
X23661Y372488D01*
X23594Y372409D01*
X23522Y372334D01*
X23514Y372316D01*
X23501Y372301D01*
X23462Y372205D01*
X23419Y372111D01*
X23417Y372091D01*
X23409Y372073D01*
X23391Y371906D01*
X23391Y371017D01*
X18183Y365809D01*
X10817Y365809D01*
X5609Y371017D01*
X5609Y378383D01*
X10817Y383591D01*
X18183Y383591D01*
X23391Y378383D01*
X23391Y377494D01*
X23394Y377474D01*
X23392Y377455D01*
X23414Y377353D01*
X23430Y377251D01*
X23440Y377234D01*
X23444Y377214D01*
X23497Y377125D01*
X23546Y377034D01*
X23560Y377020D01*
X23570Y377003D01*
X23649Y376936D01*
X23724Y376864D01*
X23742Y376856D01*
X23757Y376843D01*
X23853Y376804D01*
X23947Y376761D01*
X23967Y376759D01*
X23985Y376751D01*
X24152Y376733D01*
X25093Y376733D01*
X25183Y376747D01*
X25274Y376755D01*
X25303Y376767D01*
X25335Y376772D01*
X25416Y376815D01*
X25500Y376851D01*
X25532Y376877D01*
X25553Y376888D01*
X25575Y376911D01*
X25631Y376956D01*
X35060Y386385D01*
X44740Y386385D01*
X46154Y384971D01*
X50171Y380954D01*
X51585Y379540D01*
X51585Y370755D01*
X51599Y370665D01*
X51607Y370574D01*
X51619Y370545D01*
X51624Y370513D01*
X51667Y370432D01*
X51703Y370348D01*
X51729Y370316D01*
X51740Y370295D01*
X51763Y370273D01*
X51808Y370217D01*
X85417Y336608D01*
X85491Y336555D01*
X85560Y336495D01*
X85591Y336483D01*
X85617Y336464D01*
X85704Y336437D01*
X85789Y336403D01*
X85830Y336399D01*
X85852Y336392D01*
X85884Y336393D01*
X85955Y336385D01*
X95540Y336385D01*
X96954Y334971D01*
X100971Y330954D01*
X102385Y329540D01*
X102385Y327955D01*
X102399Y327865D01*
X102407Y327774D01*
X102419Y327745D01*
X102424Y327713D01*
X102467Y327632D01*
X102503Y327548D01*
X102529Y327516D01*
X102540Y327495D01*
X102563Y327473D01*
X102608Y327417D01*
X105910Y324115D01*
X105968Y324073D01*
X106020Y324024D01*
X106067Y324002D01*
X106109Y323971D01*
X106178Y323950D01*
X106243Y323920D01*
X106295Y323914D01*
X106345Y323899D01*
X106416Y323901D01*
X106487Y323893D01*
X106538Y323904D01*
X106590Y323905D01*
X106658Y323930D01*
X106728Y323945D01*
X106773Y323972D01*
X106821Y323990D01*
X106877Y324035D01*
X106939Y324071D01*
X106973Y324111D01*
X107013Y324144D01*
X107052Y324204D01*
X107099Y324258D01*
X107118Y324307D01*
X107146Y324351D01*
X107164Y324420D01*
X107191Y324487D01*
X107199Y324558D01*
X107207Y324589D01*
X107205Y324612D01*
X107209Y324653D01*
X107209Y328383D01*
X112417Y333591D01*
X119783Y333591D01*
X124991Y328383D01*
X124991Y321017D01*
X119783Y315809D01*
X116053Y315809D01*
X115983Y315798D01*
X115911Y315796D01*
X115862Y315778D01*
X115811Y315770D01*
X115747Y315736D01*
X115680Y315711D01*
X115639Y315679D01*
X115593Y315654D01*
X115544Y315602D01*
X115488Y315558D01*
X115460Y315514D01*
X115424Y315476D01*
X115394Y315411D01*
X115355Y315351D01*
X115342Y315300D01*
X115320Y315253D01*
X115312Y315182D01*
X115295Y315112D01*
X115299Y315060D01*
X115293Y315009D01*
X115308Y314938D01*
X115314Y314867D01*
X115334Y314819D01*
X115345Y314768D01*
X115382Y314707D01*
X115410Y314641D01*
X115455Y314585D01*
X115471Y314557D01*
X115489Y314542D01*
X115515Y314510D01*
X116917Y313108D01*
X116991Y313055D01*
X117060Y312995D01*
X117091Y312983D01*
X117117Y312964D01*
X117204Y312937D01*
X117289Y312903D01*
X117330Y312899D01*
X117352Y312892D01*
X117384Y312893D01*
X117455Y312885D01*
X123240Y312885D01*
X124654Y311471D01*
X128671Y307454D01*
X130085Y306040D01*
X130085Y296507D01*
X130099Y296417D01*
X130107Y296326D01*
X130119Y296296D01*
X130124Y296264D01*
X130167Y296183D01*
X130203Y296099D01*
X130229Y296067D01*
X130240Y296047D01*
X130263Y296024D01*
X130308Y295968D01*
X160114Y266162D01*
X160188Y266109D01*
X160258Y266049D01*
X160288Y266037D01*
X160314Y266018D01*
X160401Y265991D01*
X160486Y265957D01*
X160527Y265953D01*
X160549Y265946D01*
X160581Y265947D01*
X160653Y265939D01*
X199356Y265939D01*
X206527Y258768D01*
X206527Y256762D01*
X206538Y256691D01*
X206540Y256620D01*
X206558Y256571D01*
X206566Y256519D01*
X206600Y256456D01*
X206625Y256389D01*
X206657Y256348D01*
X206682Y256302D01*
X206734Y256253D01*
X206778Y256197D01*
X206822Y256169D01*
X206860Y256133D01*
X206925Y256102D01*
X206985Y256064D01*
X207036Y256051D01*
X207083Y256029D01*
X207154Y256021D01*
X207224Y256004D01*
X207276Y256008D01*
X207327Y256002D01*
X207398Y256017D01*
X207469Y256023D01*
X207517Y256043D01*
X207568Y256054D01*
X207629Y256091D01*
X207695Y256119D01*
X207751Y256164D01*
X207779Y256180D01*
X207794Y256198D01*
X207826Y256224D01*
X208907Y257305D01*
X213093Y257305D01*
X216053Y254345D01*
X216053Y250389D01*
X216055Y250377D01*
X216054Y250368D01*
X216064Y250323D01*
X216067Y250299D01*
X216075Y250208D01*
X216087Y250179D01*
X216092Y250147D01*
X216135Y250066D01*
X216171Y249982D01*
X216197Y249950D01*
X216208Y249929D01*
X216231Y249907D01*
X216276Y249851D01*
X216657Y249470D01*
X216731Y249417D01*
X216800Y249357D01*
X216831Y249345D01*
X216857Y249326D01*
X216944Y249299D01*
X217029Y249265D01*
X217070Y249261D01*
X217092Y249254D01*
X217124Y249255D01*
X217195Y249247D01*
X218728Y249247D01*
X218748Y249250D01*
X218767Y249248D01*
X218869Y249270D01*
X218971Y249286D01*
X218988Y249296D01*
X219008Y249300D01*
X219097Y249353D01*
X219188Y249402D01*
X219202Y249416D01*
X219219Y249426D01*
X219286Y249505D01*
X219358Y249580D01*
X219366Y249598D01*
X219379Y249613D01*
X219390Y249641D01*
X219600Y249851D01*
X219611Y249867D01*
X219627Y249879D01*
X219683Y249967D01*
X219743Y250050D01*
X219749Y250069D01*
X219760Y250086D01*
X219785Y250187D01*
X219816Y250286D01*
X219815Y250306D01*
X219820Y250325D01*
X219812Y250428D01*
X219809Y250531D01*
X219802Y250550D01*
X219801Y250570D01*
X219760Y250665D01*
X219725Y250762D01*
X219712Y250778D01*
X219704Y250796D01*
X219630Y250890D01*
X219624Y250899D01*
X219619Y250904D01*
X219600Y250927D01*
X219489Y251038D01*
X219489Y253121D01*
X219475Y253211D01*
X219467Y253302D01*
X219455Y253331D01*
X219450Y253363D01*
X219407Y253444D01*
X219371Y253528D01*
X219345Y253560D01*
X219334Y253581D01*
X219311Y253603D01*
X219266Y253659D01*
X207317Y265608D01*
X207317Y267292D01*
X214458Y274433D01*
X227572Y274433D01*
X227662Y274447D01*
X227753Y274455D01*
X227783Y274467D01*
X227815Y274472D01*
X227895Y274515D01*
X227979Y274551D01*
X228011Y274577D01*
X228032Y274588D01*
X228054Y274611D01*
X228110Y274656D01*
X229707Y276253D01*
X232228Y276253D01*
X232299Y276264D01*
X232370Y276266D01*
X232419Y276284D01*
X232471Y276292D01*
X232534Y276326D01*
X232601Y276351D01*
X232642Y276383D01*
X232688Y276408D01*
X232737Y276460D01*
X232793Y276504D01*
X232822Y276548D01*
X232857Y276586D01*
X232888Y276651D01*
X232926Y276711D01*
X232939Y276762D01*
X232961Y276809D01*
X232969Y276880D01*
X232986Y276950D01*
X232982Y277002D01*
X232988Y277053D01*
X232973Y277124D01*
X232967Y277195D01*
X232947Y277243D01*
X232936Y277294D01*
X232899Y277355D01*
X232871Y277421D01*
X232826Y277477D01*
X232810Y277505D01*
X232792Y277520D01*
X232766Y277552D01*
X229408Y280910D01*
X229334Y280963D01*
X229265Y281023D01*
X229235Y281035D01*
X229208Y281054D01*
X229121Y281081D01*
X229037Y281115D01*
X228996Y281119D01*
X228973Y281126D01*
X228941Y281125D01*
X228870Y281133D01*
X194191Y281133D01*
X178252Y297071D01*
X178215Y297098D01*
X178184Y297132D01*
X178116Y297170D01*
X178053Y297215D01*
X178009Y297228D01*
X177969Y297251D01*
X177892Y297264D01*
X177818Y297287D01*
X177772Y297286D01*
X177727Y297294D01*
X177649Y297283D01*
X177572Y297281D01*
X177529Y297265D01*
X177483Y297259D01*
X177414Y297223D01*
X177341Y297197D01*
X177305Y297168D01*
X177264Y297147D01*
X177210Y297092D01*
X177149Y297043D01*
X177124Y297004D01*
X177092Y296971D01*
X177026Y296852D01*
X177016Y296836D01*
X177014Y296831D01*
X177011Y296824D01*
X176737Y296164D01*
X174236Y293663D01*
X170968Y292309D01*
X167432Y292309D01*
X164164Y293663D01*
X161663Y296164D01*
X160309Y299432D01*
X160309Y302968D01*
X161663Y306236D01*
X164164Y308737D01*
X167432Y310091D01*
X170968Y310091D01*
X174236Y308737D01*
X176522Y306452D01*
X176580Y306410D01*
X176632Y306360D01*
X176679Y306338D01*
X176721Y306308D01*
X176790Y306287D01*
X176855Y306257D01*
X176907Y306251D01*
X176957Y306236D01*
X177028Y306238D01*
X177099Y306230D01*
X177150Y306241D01*
X177202Y306242D01*
X177270Y306267D01*
X177340Y306282D01*
X177385Y306309D01*
X177433Y306327D01*
X177489Y306371D01*
X177551Y306408D01*
X177585Y306448D01*
X177625Y306480D01*
X177664Y306541D01*
X177711Y306595D01*
X177730Y306643D01*
X177758Y306687D01*
X177776Y306757D01*
X177803Y306823D01*
X177811Y306895D01*
X177819Y306926D01*
X177817Y306949D01*
X177821Y306990D01*
X177821Y352685D01*
X177807Y352775D01*
X177799Y352866D01*
X177787Y352896D01*
X177782Y352928D01*
X177739Y353009D01*
X177703Y353093D01*
X177677Y353125D01*
X177666Y353145D01*
X177643Y353168D01*
X177598Y353224D01*
X176412Y354410D01*
X176338Y354463D01*
X176268Y354523D01*
X176238Y354535D01*
X176212Y354554D01*
X176125Y354581D01*
X176040Y354615D01*
X175999Y354619D01*
X175977Y354626D01*
X175945Y354625D01*
X175873Y354633D01*
X94242Y354633D01*
X76431Y372444D01*
X76357Y372497D01*
X76288Y372557D01*
X76257Y372569D01*
X76231Y372588D01*
X76144Y372615D01*
X76059Y372649D01*
X76018Y372653D01*
X75996Y372660D01*
X75964Y372659D01*
X75893Y372667D01*
X74952Y372667D01*
X74932Y372664D01*
X74913Y372666D01*
X74811Y372644D01*
X74709Y372628D01*
X74692Y372618D01*
X74672Y372614D01*
X74583Y372561D01*
X74492Y372512D01*
X74478Y372498D01*
X74461Y372488D01*
X74394Y372409D01*
X74322Y372334D01*
X74314Y372316D01*
X74301Y372301D01*
X74262Y372205D01*
X74219Y372111D01*
X74217Y372091D01*
X74209Y372073D01*
X74191Y371906D01*
X74191Y371017D01*
X68983Y365809D01*
X61617Y365809D01*
X56409Y371017D01*
X56409Y378383D01*
X61617Y383591D01*
X68983Y383591D01*
X74191Y378383D01*
X74191Y377494D01*
X74194Y377474D01*
X74192Y377455D01*
X74214Y377353D01*
X74230Y377251D01*
X74240Y377234D01*
X74244Y377214D01*
X74297Y377125D01*
X74346Y377034D01*
X74360Y377020D01*
X74370Y377003D01*
X74449Y376936D01*
X74524Y376864D01*
X74542Y376856D01*
X74557Y376843D01*
X74653Y376804D01*
X74747Y376761D01*
X74767Y376759D01*
X74785Y376751D01*
X74952Y376733D01*
X77892Y376733D01*
X80510Y374115D01*
X80568Y374073D01*
X80620Y374024D01*
X80667Y374002D01*
X80709Y373971D01*
X80778Y373950D01*
X80843Y373920D01*
X80895Y373914D01*
X80945Y373899D01*
X81016Y373901D01*
X81087Y373893D01*
X81138Y373904D01*
X81190Y373905D01*
X81258Y373930D01*
X81328Y373945D01*
X81373Y373972D01*
X81421Y373990D01*
X81477Y374035D01*
X81539Y374071D01*
X81573Y374111D01*
X81613Y374144D01*
X81652Y374204D01*
X81699Y374258D01*
X81718Y374307D01*
X81746Y374351D01*
X81764Y374420D01*
X81791Y374487D01*
X81799Y374558D01*
X81807Y374589D01*
X81805Y374612D01*
X81809Y374653D01*
X81809Y378383D01*
X87017Y383591D01*
X94383Y383591D01*
X99591Y378383D01*
X99591Y377494D01*
X99594Y377474D01*
X99592Y377455D01*
X99614Y377353D01*
X99630Y377251D01*
X99640Y377234D01*
X99644Y377214D01*
X99697Y377125D01*
X99746Y377034D01*
X99760Y377020D01*
X99770Y377003D01*
X99849Y376936D01*
X99924Y376864D01*
X99942Y376856D01*
X99957Y376843D01*
X100053Y376804D01*
X100147Y376761D01*
X100167Y376759D01*
X100185Y376751D01*
X100352Y376733D01*
X103292Y376733D01*
X105910Y374115D01*
X105968Y374073D01*
X106020Y374024D01*
X106067Y374002D01*
X106109Y373971D01*
X106178Y373950D01*
X106243Y373920D01*
X106295Y373914D01*
X106345Y373899D01*
X106416Y373901D01*
X106487Y373893D01*
X106538Y373904D01*
X106590Y373905D01*
X106658Y373930D01*
X106728Y373945D01*
X106773Y373972D01*
X106821Y373990D01*
X106877Y374035D01*
X106939Y374071D01*
X106973Y374111D01*
X107013Y374144D01*
X107052Y374204D01*
X107099Y374258D01*
X107118Y374307D01*
X107146Y374351D01*
X107164Y374420D01*
X107191Y374487D01*
X107199Y374558D01*
X107207Y374589D01*
X107205Y374612D01*
X107209Y374653D01*
X107209Y378383D01*
X112417Y383591D01*
X119783Y383591D01*
X124991Y378383D01*
X124991Y377494D01*
X124994Y377474D01*
X124992Y377455D01*
X125014Y377353D01*
X125030Y377251D01*
X125040Y377234D01*
X125044Y377214D01*
X125097Y377125D01*
X125146Y377034D01*
X125160Y377020D01*
X125170Y377003D01*
X125249Y376936D01*
X125324Y376864D01*
X125342Y376856D01*
X125357Y376843D01*
X125453Y376804D01*
X125547Y376761D01*
X125567Y376759D01*
X125585Y376751D01*
X125752Y376733D01*
X128692Y376733D01*
X131310Y374115D01*
X131368Y374073D01*
X131420Y374024D01*
X131467Y374002D01*
X131509Y373971D01*
X131578Y373950D01*
X131643Y373920D01*
X131695Y373914D01*
X131745Y373899D01*
X131816Y373901D01*
X131887Y373893D01*
X131938Y373904D01*
X131990Y373905D01*
X132058Y373930D01*
X132128Y373945D01*
X132173Y373972D01*
X132221Y373990D01*
X132277Y374035D01*
X132339Y374071D01*
X132373Y374111D01*
X132413Y374144D01*
X132452Y374204D01*
X132499Y374258D01*
X132518Y374307D01*
X132546Y374351D01*
X132564Y374420D01*
X132591Y374487D01*
X132599Y374558D01*
X132607Y374589D01*
X132605Y374612D01*
X132609Y374653D01*
X132609Y378383D01*
X137817Y383591D01*
X145183Y383591D01*
X150391Y378383D01*
X150391Y377494D01*
X150394Y377474D01*
X150392Y377455D01*
X150414Y377353D01*
X150430Y377251D01*
X150440Y377234D01*
X150444Y377214D01*
X150497Y377125D01*
X150546Y377034D01*
X150560Y377020D01*
X150570Y377003D01*
X150649Y376936D01*
X150724Y376864D01*
X150742Y376856D01*
X150757Y376843D01*
X150853Y376804D01*
X150947Y376761D01*
X150967Y376759D01*
X150985Y376751D01*
X151152Y376733D01*
X154092Y376733D01*
X156710Y374115D01*
X156768Y374073D01*
X156820Y374024D01*
X156867Y374002D01*
X156909Y373971D01*
X156978Y373950D01*
X157043Y373920D01*
X157095Y373914D01*
X157145Y373899D01*
X157216Y373901D01*
X157287Y373893D01*
X157338Y373904D01*
X157390Y373905D01*
X157458Y373930D01*
X157528Y373945D01*
X157573Y373972D01*
X157621Y373990D01*
X157677Y374035D01*
X157739Y374071D01*
X157773Y374111D01*
X157813Y374144D01*
X157852Y374204D01*
X157899Y374258D01*
X157918Y374307D01*
X157946Y374351D01*
X157964Y374420D01*
X157991Y374487D01*
X157999Y374558D01*
X158007Y374589D01*
X158005Y374612D01*
X158009Y374653D01*
X158009Y378383D01*
X163217Y383591D01*
X170583Y383591D01*
X175791Y378383D01*
X175791Y377494D01*
X175794Y377474D01*
X175792Y377455D01*
X175814Y377353D01*
X175830Y377251D01*
X175840Y377234D01*
X175844Y377214D01*
X175897Y377125D01*
X175946Y377034D01*
X175960Y377020D01*
X175970Y377003D01*
X176049Y376936D01*
X176124Y376864D01*
X176142Y376856D01*
X176157Y376843D01*
X176253Y376804D01*
X176347Y376761D01*
X176367Y376759D01*
X176385Y376751D01*
X176552Y376733D01*
X179492Y376733D01*
X180906Y375319D01*
X182110Y374115D01*
X182168Y374073D01*
X182220Y374024D01*
X182267Y374002D01*
X182309Y373971D01*
X182378Y373950D01*
X182443Y373920D01*
X182495Y373914D01*
X182545Y373899D01*
X182616Y373901D01*
X182687Y373893D01*
X182738Y373904D01*
X182790Y373905D01*
X182858Y373930D01*
X182928Y373945D01*
X182972Y373972D01*
X183021Y373990D01*
X183077Y374035D01*
X183139Y374071D01*
X183173Y374111D01*
X183213Y374144D01*
X183252Y374204D01*
X183299Y374258D01*
X183318Y374307D01*
X183346Y374351D01*
X183364Y374420D01*
X183391Y374487D01*
X183399Y374558D01*
X183407Y374589D01*
X183405Y374612D01*
X183409Y374653D01*
X183409Y378383D01*
X188617Y383591D01*
X195983Y383591D01*
X201191Y378383D01*
X201191Y371017D01*
X200562Y370389D01*
X200551Y370373D01*
X200535Y370360D01*
X200479Y370273D01*
X200419Y370189D01*
X200413Y370170D01*
X200402Y370153D01*
X200377Y370053D01*
X200346Y369954D01*
X200347Y369934D01*
X200342Y369915D01*
X200350Y369812D01*
X200353Y369708D01*
X200360Y369689D01*
X200361Y369670D01*
X200402Y369575D01*
X200437Y369477D01*
X200450Y369462D01*
X200458Y369443D01*
X200562Y369312D01*
X234067Y335808D01*
X235481Y334394D01*
X235481Y331492D01*
X235492Y331421D01*
X235494Y331349D01*
X235512Y331301D01*
X235520Y331249D01*
X235554Y331186D01*
X235579Y331118D01*
X235611Y331078D01*
X235636Y331032D01*
X235688Y330982D01*
X235732Y330926D01*
X235776Y330898D01*
X235814Y330862D01*
X235879Y330832D01*
X235939Y330793D01*
X235990Y330781D01*
X236037Y330759D01*
X236108Y330751D01*
X236178Y330733D01*
X236230Y330737D01*
X236281Y330732D01*
X236352Y330747D01*
X236423Y330753D01*
X236471Y330773D01*
X236522Y330784D01*
X236583Y330821D01*
X236649Y330849D01*
X236705Y330894D01*
X236733Y330910D01*
X236748Y330928D01*
X236780Y330954D01*
X239417Y333591D01*
X246783Y333591D01*
X251991Y328383D01*
X251991Y321017D01*
X246783Y315809D01*
X239417Y315809D01*
X236780Y318446D01*
X236722Y318488D01*
X236670Y318538D01*
X236623Y318560D01*
X236581Y318590D01*
X236512Y318611D01*
X236447Y318641D01*
X236395Y318647D01*
X236345Y318662D01*
X236274Y318660D01*
X236203Y318668D01*
X236152Y318657D01*
X236100Y318656D01*
X236032Y318631D01*
X235962Y318616D01*
X235917Y318589D01*
X235869Y318571D01*
X235813Y318527D01*
X235751Y318490D01*
X235717Y318450D01*
X235677Y318418D01*
X235638Y318357D01*
X235591Y318303D01*
X235572Y318255D01*
X235544Y318211D01*
X235526Y318141D01*
X235499Y318075D01*
X235491Y318003D01*
X235483Y317972D01*
X235485Y317949D01*
X235481Y317908D01*
X235481Y304312D01*
X235496Y304216D01*
X235506Y304119D01*
X235516Y304095D01*
X235520Y304070D01*
X235566Y303984D01*
X235606Y303895D01*
X235623Y303875D01*
X235636Y303852D01*
X235706Y303785D01*
X235772Y303714D01*
X235795Y303701D01*
X235814Y303683D01*
X235902Y303642D01*
X235988Y303595D01*
X236013Y303590D01*
X236037Y303579D01*
X236134Y303569D01*
X236230Y303551D01*
X236256Y303555D01*
X236281Y303552D01*
X236377Y303573D01*
X236473Y303587D01*
X236496Y303599D01*
X236522Y303604D01*
X236605Y303654D01*
X236692Y303699D01*
X236711Y303717D01*
X236733Y303731D01*
X236796Y303805D01*
X236864Y303874D01*
X236880Y303903D01*
X236893Y303918D01*
X236905Y303948D01*
X236945Y304021D01*
X237863Y306236D01*
X240364Y308737D01*
X243632Y310091D01*
X247168Y310091D01*
X250436Y308737D01*
X252607Y306567D01*
X252665Y306525D01*
X252717Y306475D01*
X252764Y306453D01*
X252806Y306423D01*
X252875Y306402D01*
X252940Y306372D01*
X252992Y306366D01*
X253042Y306351D01*
X253113Y306353D01*
X253184Y306345D01*
X253235Y306356D01*
X253287Y306357D01*
X253355Y306382D01*
X253425Y306397D01*
X253470Y306424D01*
X253518Y306442D01*
X253574Y306486D01*
X253636Y306523D01*
X253670Y306563D01*
X253710Y306595D01*
X253749Y306656D01*
X253796Y306710D01*
X253815Y306758D01*
X253843Y306802D01*
X253861Y306872D01*
X253888Y306938D01*
X253896Y307010D01*
X253904Y307041D01*
X253902Y307064D01*
X253906Y307105D01*
X253906Y335304D01*
X253892Y335394D01*
X253884Y335485D01*
X253872Y335514D01*
X253867Y335546D01*
X253824Y335627D01*
X253788Y335711D01*
X253762Y335743D01*
X253751Y335764D01*
X253728Y335786D01*
X253683Y335842D01*
X223088Y366438D01*
X223071Y366449D01*
X223059Y366465D01*
X222972Y366521D01*
X222888Y366581D01*
X222869Y366587D01*
X222852Y366598D01*
X222752Y366623D01*
X222653Y366654D01*
X222633Y366653D01*
X222614Y366658D01*
X222511Y366650D01*
X222407Y366647D01*
X222388Y366640D01*
X222368Y366639D01*
X222273Y366598D01*
X222176Y366563D01*
X222160Y366550D01*
X222142Y366542D01*
X222011Y366438D01*
X221383Y365809D01*
X214017Y365809D01*
X208809Y371017D01*
X208809Y378383D01*
X214017Y383591D01*
X221383Y383591D01*
X226591Y378383D01*
X226591Y371017D01*
X225962Y370389D01*
X225951Y370373D01*
X225935Y370360D01*
X225879Y370273D01*
X225819Y370189D01*
X225813Y370170D01*
X225802Y370153D01*
X225777Y370053D01*
X225746Y369954D01*
X225747Y369934D01*
X225742Y369915D01*
X225750Y369812D01*
X225753Y369708D01*
X225760Y369689D01*
X225761Y369670D01*
X225802Y369575D01*
X225837Y369477D01*
X225850Y369462D01*
X225858Y369443D01*
X225962Y369312D01*
X255516Y339759D01*
X255574Y339717D01*
X255626Y339668D01*
X255673Y339646D01*
X255715Y339615D01*
X255784Y339594D01*
X255849Y339564D01*
X255901Y339558D01*
X255951Y339543D01*
X256022Y339545D01*
X256093Y339537D01*
X256144Y339548D01*
X256196Y339549D01*
X256264Y339574D01*
X256334Y339589D01*
X256378Y339616D01*
X256427Y339634D01*
X256483Y339679D01*
X256545Y339715D01*
X256579Y339755D01*
X256619Y339788D01*
X256658Y339848D01*
X256705Y339902D01*
X256724Y339951D01*
X256752Y339995D01*
X256770Y340064D01*
X256797Y340131D01*
X256805Y340202D01*
X256813Y340233D01*
X256811Y340256D01*
X256815Y340297D01*
X256815Y344145D01*
X256801Y344235D01*
X256793Y344326D01*
X256781Y344355D01*
X256776Y344387D01*
X256733Y344468D01*
X256697Y344552D01*
X256671Y344584D01*
X256660Y344605D01*
X256637Y344627D01*
X256592Y344683D01*
X231415Y369860D01*
X231415Y379540D01*
X232829Y380954D01*
X236846Y384971D01*
X238260Y386385D01*
X245793Y386385D01*
X245883Y386399D01*
X245974Y386407D01*
X246004Y386419D01*
X246036Y386424D01*
X246117Y386467D01*
X246201Y386503D01*
X246233Y386529D01*
X246253Y386540D01*
X246276Y386563D01*
X246332Y386608D01*
X304662Y444938D01*
X304703Y444996D01*
X304753Y445048D01*
X304775Y445095D01*
X304805Y445137D01*
X304826Y445206D01*
X304856Y445271D01*
X304862Y445323D01*
X304878Y445373D01*
X304876Y445444D01*
X304884Y445515D01*
X304873Y445566D01*
X304871Y445618D01*
X304847Y445686D01*
X304831Y445756D01*
X304805Y445801D01*
X304787Y445849D01*
X304742Y445905D01*
X304705Y445967D01*
X304666Y446001D01*
X304633Y446041D01*
X304573Y446080D01*
X304518Y446127D01*
X304470Y446146D01*
X304426Y446174D01*
X304357Y446192D01*
X304290Y446219D01*
X304219Y446227D01*
X304188Y446235D01*
X304164Y446233D01*
X304123Y446237D01*
X4524Y446237D01*
X4504Y446234D01*
X4485Y446236D01*
X4383Y446214D01*
X4281Y446198D01*
X4264Y446188D01*
X4244Y446184D01*
X4155Y446131D01*
X4064Y446082D01*
X4050Y446068D01*
X4033Y446058D01*
X3966Y445979D01*
X3894Y445904D01*
X3886Y445886D01*
X3873Y445871D01*
X3834Y445775D01*
X3791Y445681D01*
X3789Y445661D01*
X3781Y445643D01*
X3763Y445476D01*
X3763Y4524D01*
X3766Y4504D01*
X3764Y4485D01*
X3786Y4383D01*
X3802Y4281D01*
X3812Y4264D01*
X3816Y4244D01*
X3869Y4155D01*
X3918Y4064D01*
X3932Y4050D01*
X3942Y4033D01*
X4021Y3966D01*
X4096Y3894D01*
X4114Y3886D01*
X4129Y3873D01*
X4225Y3834D01*
X4319Y3791D01*
X4339Y3789D01*
X4357Y3781D01*
X4524Y3763D01*
X445476Y3763D01*
X445496Y3766D01*
G37*
G36*
X103744Y132549D02*
X103744Y132549D01*
X103796Y132551D01*
X103864Y132575D01*
X103934Y132591D01*
X103979Y132617D01*
X104027Y132635D01*
X104083Y132680D01*
X104145Y132717D01*
X104179Y132756D01*
X104219Y132789D01*
X104258Y132849D01*
X104305Y132904D01*
X104324Y132952D01*
X104352Y132996D01*
X104370Y133065D01*
X104397Y133132D01*
X104405Y133203D01*
X104413Y133234D01*
X104411Y133258D01*
X104415Y133299D01*
X104415Y165119D01*
X105829Y166533D01*
X124790Y185494D01*
X124832Y185552D01*
X124881Y185604D01*
X124903Y185651D01*
X124934Y185693D01*
X124955Y185762D01*
X124985Y185827D01*
X124991Y185879D01*
X125006Y185929D01*
X125004Y186000D01*
X125012Y186071D01*
X125001Y186122D01*
X125000Y186174D01*
X124975Y186242D01*
X124960Y186312D01*
X124933Y186357D01*
X124915Y186405D01*
X124870Y186461D01*
X124834Y186523D01*
X124794Y186557D01*
X124761Y186597D01*
X124701Y186636D01*
X124647Y186683D01*
X124598Y186702D01*
X124554Y186730D01*
X124485Y186748D01*
X124418Y186775D01*
X124347Y186783D01*
X124316Y186791D01*
X124293Y186789D01*
X124252Y186793D01*
X124209Y186793D01*
X123464Y187538D01*
X123464Y192590D01*
X123575Y192701D01*
X123586Y192717D01*
X123602Y192729D01*
X123658Y192817D01*
X123718Y192900D01*
X123724Y192919D01*
X123735Y192936D01*
X123760Y193037D01*
X123791Y193135D01*
X123790Y193155D01*
X123795Y193175D01*
X123787Y193278D01*
X123784Y193381D01*
X123777Y193400D01*
X123776Y193420D01*
X123735Y193515D01*
X123700Y193612D01*
X123687Y193628D01*
X123679Y193646D01*
X123575Y193777D01*
X123464Y193888D01*
X123464Y198940D01*
X123575Y199051D01*
X123586Y199067D01*
X123602Y199079D01*
X123658Y199167D01*
X123718Y199250D01*
X123724Y199269D01*
X123735Y199286D01*
X123760Y199387D01*
X123791Y199485D01*
X123790Y199505D01*
X123795Y199525D01*
X123787Y199628D01*
X123784Y199731D01*
X123777Y199750D01*
X123776Y199770D01*
X123735Y199865D01*
X123700Y199962D01*
X123687Y199978D01*
X123679Y199996D01*
X123575Y200127D01*
X123464Y200238D01*
X123464Y205290D01*
X123575Y205401D01*
X123586Y205417D01*
X123602Y205429D01*
X123658Y205517D01*
X123718Y205600D01*
X123724Y205619D01*
X123735Y205636D01*
X123760Y205737D01*
X123791Y205835D01*
X123790Y205855D01*
X123795Y205875D01*
X123787Y205978D01*
X123784Y206081D01*
X123777Y206100D01*
X123776Y206120D01*
X123735Y206215D01*
X123700Y206312D01*
X123687Y206328D01*
X123679Y206346D01*
X123575Y206477D01*
X123464Y206588D01*
X123464Y211640D01*
X123575Y211751D01*
X123586Y211767D01*
X123602Y211779D01*
X123658Y211867D01*
X123718Y211950D01*
X123724Y211969D01*
X123735Y211986D01*
X123760Y212087D01*
X123791Y212185D01*
X123790Y212205D01*
X123795Y212225D01*
X123787Y212328D01*
X123784Y212431D01*
X123777Y212450D01*
X123776Y212470D01*
X123735Y212565D01*
X123700Y212662D01*
X123687Y212678D01*
X123679Y212696D01*
X123575Y212827D01*
X123464Y212938D01*
X123464Y217990D01*
X123575Y218101D01*
X123586Y218117D01*
X123602Y218129D01*
X123658Y218217D01*
X123718Y218300D01*
X123724Y218319D01*
X123735Y218336D01*
X123760Y218437D01*
X123791Y218535D01*
X123790Y218555D01*
X123795Y218575D01*
X123787Y218678D01*
X123784Y218781D01*
X123777Y218800D01*
X123776Y218820D01*
X123735Y218915D01*
X123700Y219012D01*
X123687Y219028D01*
X123679Y219046D01*
X123575Y219177D01*
X123464Y219288D01*
X123464Y224340D01*
X123575Y224451D01*
X123586Y224467D01*
X123602Y224479D01*
X123658Y224567D01*
X123718Y224650D01*
X123724Y224669D01*
X123735Y224686D01*
X123760Y224787D01*
X123791Y224885D01*
X123790Y224905D01*
X123795Y224925D01*
X123787Y225028D01*
X123784Y225131D01*
X123777Y225150D01*
X123776Y225170D01*
X123735Y225265D01*
X123700Y225362D01*
X123687Y225378D01*
X123679Y225396D01*
X123575Y225527D01*
X123464Y225638D01*
X123464Y230690D01*
X123575Y230801D01*
X123586Y230817D01*
X123602Y230829D01*
X123658Y230917D01*
X123718Y231000D01*
X123724Y231019D01*
X123735Y231036D01*
X123760Y231137D01*
X123791Y231235D01*
X123790Y231255D01*
X123795Y231275D01*
X123787Y231378D01*
X123784Y231481D01*
X123777Y231500D01*
X123776Y231520D01*
X123735Y231615D01*
X123700Y231712D01*
X123687Y231728D01*
X123679Y231746D01*
X123575Y231877D01*
X123464Y231988D01*
X123464Y237040D01*
X124209Y237785D01*
X140261Y237785D01*
X141026Y237020D01*
X141028Y237003D01*
X141040Y236974D01*
X141045Y236942D01*
X141088Y236861D01*
X141124Y236777D01*
X141150Y236745D01*
X141161Y236724D01*
X141184Y236702D01*
X141229Y236646D01*
X142742Y235133D01*
X145619Y232256D01*
X147033Y230842D01*
X147033Y224133D01*
X147047Y224043D01*
X147055Y223952D01*
X147067Y223922D01*
X147072Y223890D01*
X147115Y223809D01*
X147151Y223725D01*
X147177Y223693D01*
X147188Y223673D01*
X147211Y223650D01*
X147256Y223594D01*
X152182Y218668D01*
X152182Y214187D01*
X152196Y214096D01*
X152204Y214006D01*
X152216Y213976D01*
X152221Y213944D01*
X152264Y213863D01*
X152300Y213779D01*
X152326Y213747D01*
X152337Y213726D01*
X152360Y213704D01*
X152405Y213648D01*
X155427Y210626D01*
X155427Y208543D01*
X155433Y208507D01*
X155432Y208500D01*
X155440Y208459D01*
X155441Y208453D01*
X155449Y208362D01*
X155461Y208332D01*
X155466Y208300D01*
X155481Y208273D01*
X155484Y208259D01*
X155513Y208211D01*
X155545Y208136D01*
X155571Y208103D01*
X155582Y208083D01*
X155600Y208066D01*
X155610Y208048D01*
X155625Y208035D01*
X155650Y208005D01*
X160721Y202934D01*
X160721Y197404D01*
X160732Y197333D01*
X160734Y197262D01*
X160752Y197213D01*
X160760Y197161D01*
X160794Y197098D01*
X160819Y197031D01*
X160851Y196990D01*
X160876Y196944D01*
X160928Y196895D01*
X160972Y196839D01*
X161016Y196811D01*
X161054Y196775D01*
X161119Y196744D01*
X161179Y196706D01*
X161230Y196693D01*
X161277Y196671D01*
X161348Y196663D01*
X161418Y196646D01*
X161470Y196650D01*
X161521Y196644D01*
X161592Y196659D01*
X161663Y196665D01*
X161711Y196685D01*
X161762Y196696D01*
X161823Y196733D01*
X161889Y196761D01*
X161945Y196806D01*
X161973Y196822D01*
X161988Y196840D01*
X162020Y196866D01*
X164207Y199053D01*
X168393Y199053D01*
X171353Y196093D01*
X171353Y192856D01*
X171367Y192766D01*
X171375Y192675D01*
X171387Y192645D01*
X171392Y192613D01*
X171435Y192532D01*
X171471Y192448D01*
X171497Y192416D01*
X171508Y192396D01*
X171531Y192373D01*
X171576Y192317D01*
X178529Y185364D01*
X178603Y185311D01*
X178673Y185251D01*
X178703Y185239D01*
X178729Y185220D01*
X178816Y185193D01*
X178901Y185159D01*
X178942Y185155D01*
X178964Y185148D01*
X178996Y185149D01*
X179068Y185141D01*
X204660Y185141D01*
X204731Y185152D01*
X204803Y185154D01*
X204852Y185172D01*
X204903Y185180D01*
X204966Y185214D01*
X205034Y185239D01*
X205074Y185271D01*
X205120Y185296D01*
X205170Y185348D01*
X205226Y185392D01*
X205254Y185436D01*
X205290Y185474D01*
X205320Y185539D01*
X205359Y185599D01*
X205371Y185650D01*
X205393Y185697D01*
X205401Y185768D01*
X205419Y185838D01*
X205415Y185890D01*
X205420Y185941D01*
X205405Y186012D01*
X205400Y186083D01*
X205379Y186131D01*
X205368Y186182D01*
X205331Y186243D01*
X205303Y186309D01*
X205258Y186365D01*
X205242Y186393D01*
X205224Y186408D01*
X205198Y186440D01*
X203781Y187857D01*
X203781Y190898D01*
X203770Y190969D01*
X203768Y191040D01*
X203750Y191089D01*
X203742Y191141D01*
X203708Y191204D01*
X203683Y191271D01*
X203651Y191312D01*
X203626Y191358D01*
X203575Y191407D01*
X203530Y191463D01*
X203486Y191491D01*
X203448Y191527D01*
X203383Y191558D01*
X203323Y191596D01*
X203272Y191609D01*
X203225Y191631D01*
X203154Y191639D01*
X203084Y191656D01*
X203032Y191652D01*
X202981Y191658D01*
X202910Y191643D01*
X202839Y191637D01*
X202791Y191617D01*
X202740Y191606D01*
X202679Y191569D01*
X202613Y191541D01*
X202557Y191496D01*
X202529Y191480D01*
X202514Y191462D01*
X202482Y191436D01*
X202093Y191047D01*
X197907Y191047D01*
X194947Y194007D01*
X194947Y197963D01*
X194933Y198053D01*
X194925Y198144D01*
X194913Y198173D01*
X194908Y198205D01*
X194865Y198286D01*
X194829Y198370D01*
X194803Y198402D01*
X194792Y198423D01*
X194769Y198445D01*
X194724Y198501D01*
X187581Y205644D01*
X187507Y205697D01*
X187438Y205757D01*
X187407Y205769D01*
X187381Y205788D01*
X187294Y205815D01*
X187209Y205849D01*
X187168Y205853D01*
X187146Y205860D01*
X187114Y205859D01*
X187043Y205867D01*
X171028Y205867D01*
X170938Y205853D01*
X170847Y205845D01*
X170817Y205833D01*
X170785Y205828D01*
X170705Y205785D01*
X170621Y205749D01*
X170589Y205723D01*
X170568Y205712D01*
X170546Y205689D01*
X170490Y205644D01*
X167693Y202847D01*
X163507Y202847D01*
X160547Y205807D01*
X160547Y209993D01*
X163507Y212953D01*
X167693Y212953D01*
X170490Y210156D01*
X170564Y210103D01*
X170633Y210043D01*
X170664Y210031D01*
X170690Y210012D01*
X170777Y209985D01*
X170862Y209951D01*
X170902Y209947D01*
X170925Y209940D01*
X170957Y209941D01*
X171028Y209933D01*
X183436Y209933D01*
X183507Y209944D01*
X183579Y209946D01*
X183628Y209964D01*
X183679Y209972D01*
X183742Y210006D01*
X183810Y210031D01*
X183850Y210063D01*
X183896Y210088D01*
X183946Y210140D01*
X184002Y210184D01*
X184030Y210228D01*
X184066Y210266D01*
X184096Y210331D01*
X184135Y210391D01*
X184148Y210442D01*
X184169Y210489D01*
X184177Y210560D01*
X184195Y210630D01*
X184191Y210682D01*
X184197Y210733D01*
X184181Y210804D01*
X184176Y210875D01*
X184155Y210923D01*
X184144Y210974D01*
X184107Y211035D01*
X184079Y211101D01*
X184035Y211157D01*
X184018Y211185D01*
X184000Y211200D01*
X183975Y211232D01*
X160483Y234724D01*
X160409Y234777D01*
X160339Y234837D01*
X160309Y234849D01*
X160283Y234868D01*
X160196Y234895D01*
X160111Y234929D01*
X160070Y234933D01*
X160048Y234940D01*
X160016Y234939D01*
X159944Y234947D01*
X156707Y234947D01*
X153747Y237907D01*
X153747Y242093D01*
X156707Y245053D01*
X160893Y245053D01*
X163853Y242093D01*
X163853Y238856D01*
X163867Y238766D01*
X163875Y238675D01*
X163887Y238645D01*
X163892Y238613D01*
X163935Y238532D01*
X163971Y238448D01*
X163997Y238416D01*
X164008Y238396D01*
X164031Y238373D01*
X164076Y238317D01*
X188427Y213966D01*
X188501Y213913D01*
X188571Y213853D01*
X188601Y213841D01*
X188627Y213822D01*
X188714Y213795D01*
X188799Y213761D01*
X188840Y213757D01*
X188862Y213750D01*
X188894Y213751D01*
X188966Y213743D01*
X194991Y213743D01*
X208863Y199871D01*
X208863Y190278D01*
X208877Y190188D01*
X208885Y190097D01*
X208897Y190067D01*
X208902Y190035D01*
X208923Y189996D01*
X208925Y189989D01*
X208942Y189960D01*
X208945Y189954D01*
X208981Y189870D01*
X209007Y189838D01*
X209018Y189817D01*
X209040Y189796D01*
X209051Y189778D01*
X209063Y189767D01*
X209086Y189739D01*
X220661Y178164D01*
X220735Y178111D01*
X220805Y178051D01*
X220835Y178039D01*
X220861Y178020D01*
X220948Y177993D01*
X221033Y177959D01*
X221074Y177955D01*
X221096Y177948D01*
X221128Y177949D01*
X221200Y177941D01*
X276380Y177941D01*
X276470Y177955D01*
X276561Y177963D01*
X276591Y177975D01*
X276623Y177980D01*
X276703Y178023D01*
X276787Y178059D01*
X276819Y178085D01*
X276840Y178096D01*
X276862Y178119D01*
X276918Y178164D01*
X279207Y180453D01*
X283393Y180453D01*
X286365Y177481D01*
X286367Y177466D01*
X286375Y177375D01*
X286387Y177345D01*
X286392Y177313D01*
X286435Y177232D01*
X286471Y177148D01*
X286497Y177116D01*
X286508Y177096D01*
X286531Y177073D01*
X286576Y177017D01*
X287364Y176229D01*
X311996Y151597D01*
X312033Y151570D01*
X312064Y151536D01*
X312133Y151499D01*
X312196Y151454D01*
X312240Y151440D01*
X312280Y151418D01*
X312357Y151404D01*
X312431Y151381D01*
X312477Y151382D01*
X312522Y151374D01*
X312599Y151386D01*
X312677Y151388D01*
X312720Y151403D01*
X312765Y151410D01*
X312835Y151445D01*
X312908Y151472D01*
X312944Y151501D01*
X312985Y151521D01*
X313039Y151577D01*
X313100Y151626D01*
X313125Y151664D01*
X313157Y151697D01*
X313223Y151817D01*
X313233Y151833D01*
X313234Y151837D01*
X313238Y151844D01*
X314063Y153836D01*
X316564Y156337D01*
X319832Y157691D01*
X323368Y157691D01*
X326636Y156337D01*
X327920Y155054D01*
X327978Y155012D01*
X328030Y154962D01*
X328077Y154940D01*
X328119Y154910D01*
X328188Y154889D01*
X328253Y154859D01*
X328305Y154853D01*
X328355Y154838D01*
X328426Y154840D01*
X328497Y154832D01*
X328548Y154843D01*
X328600Y154844D01*
X328668Y154869D01*
X328738Y154884D01*
X328783Y154911D01*
X328831Y154929D01*
X328887Y154973D01*
X328949Y155010D01*
X328983Y155050D01*
X329023Y155082D01*
X329062Y155143D01*
X329109Y155197D01*
X329128Y155245D01*
X329156Y155289D01*
X329174Y155359D01*
X329201Y155425D01*
X329209Y155497D01*
X329217Y155528D01*
X329215Y155551D01*
X329219Y155592D01*
X329219Y169652D01*
X333558Y173991D01*
X333611Y174065D01*
X333671Y174134D01*
X333683Y174164D01*
X333702Y174191D01*
X333729Y174277D01*
X333763Y174362D01*
X333767Y174403D01*
X333774Y174426D01*
X333773Y174458D01*
X333781Y174529D01*
X333781Y177031D01*
X333767Y177121D01*
X333759Y177212D01*
X333747Y177242D01*
X333742Y177274D01*
X333699Y177354D01*
X333663Y177438D01*
X333637Y177470D01*
X333626Y177491D01*
X333603Y177513D01*
X333558Y177569D01*
X330853Y180274D01*
X330853Y222032D01*
X330842Y222103D01*
X330840Y222174D01*
X330822Y222223D01*
X330814Y222275D01*
X330780Y222338D01*
X330755Y222405D01*
X330723Y222446D01*
X330698Y222492D01*
X330646Y222542D01*
X330602Y222598D01*
X330558Y222626D01*
X330520Y222662D01*
X330455Y222692D01*
X330395Y222731D01*
X330344Y222743D01*
X330297Y222765D01*
X330226Y222773D01*
X330156Y222791D01*
X330104Y222787D01*
X330053Y222792D01*
X329982Y222777D01*
X329911Y222771D01*
X329863Y222751D01*
X329812Y222740D01*
X329751Y222703D01*
X329685Y222675D01*
X329629Y222630D01*
X329601Y222614D01*
X329586Y222596D01*
X329554Y222570D01*
X317878Y210895D01*
X316465Y209481D01*
X301744Y209481D01*
X293267Y217958D01*
X293267Y228592D01*
X293253Y228682D01*
X293245Y228773D01*
X293233Y228803D01*
X293228Y228834D01*
X293185Y228915D01*
X293149Y228999D01*
X293123Y229031D01*
X293112Y229052D01*
X293089Y229074D01*
X293044Y229130D01*
X292305Y229869D01*
X292247Y229911D01*
X292195Y229960D01*
X292148Y229982D01*
X292106Y230013D01*
X292037Y230034D01*
X291972Y230064D01*
X291920Y230070D01*
X291870Y230085D01*
X291799Y230083D01*
X291728Y230091D01*
X291677Y230080D01*
X291625Y230079D01*
X291557Y230054D01*
X291487Y230039D01*
X291442Y230012D01*
X291394Y229994D01*
X291338Y229949D01*
X291276Y229913D01*
X291242Y229873D01*
X291202Y229840D01*
X291163Y229780D01*
X291116Y229726D01*
X291097Y229677D01*
X291069Y229633D01*
X291051Y229564D01*
X291024Y229497D01*
X291016Y229426D01*
X291008Y229395D01*
X291010Y229372D01*
X291006Y229331D01*
X291006Y225638D01*
X290895Y225527D01*
X290884Y225511D01*
X290868Y225499D01*
X290812Y225411D01*
X290752Y225328D01*
X290746Y225309D01*
X290735Y225292D01*
X290710Y225191D01*
X290679Y225092D01*
X290680Y225072D01*
X290675Y225053D01*
X290683Y224950D01*
X290686Y224847D01*
X290693Y224828D01*
X290694Y224808D01*
X290735Y224713D01*
X290770Y224616D01*
X290783Y224600D01*
X290791Y224582D01*
X290895Y224451D01*
X291006Y224340D01*
X291006Y219288D01*
X290895Y219177D01*
X290884Y219161D01*
X290868Y219149D01*
X290812Y219061D01*
X290752Y218978D01*
X290746Y218959D01*
X290735Y218942D01*
X290710Y218841D01*
X290679Y218742D01*
X290680Y218722D01*
X290675Y218703D01*
X290683Y218600D01*
X290686Y218497D01*
X290693Y218478D01*
X290694Y218458D01*
X290735Y218363D01*
X290770Y218266D01*
X290783Y218250D01*
X290791Y218232D01*
X290895Y218101D01*
X291006Y217990D01*
X291006Y212938D01*
X290895Y212827D01*
X290884Y212811D01*
X290868Y212799D01*
X290812Y212711D01*
X290752Y212628D01*
X290746Y212609D01*
X290735Y212592D01*
X290710Y212491D01*
X290679Y212392D01*
X290680Y212372D01*
X290675Y212353D01*
X290683Y212250D01*
X290686Y212147D01*
X290693Y212128D01*
X290694Y212108D01*
X290735Y212013D01*
X290770Y211916D01*
X290783Y211900D01*
X290791Y211882D01*
X290895Y211751D01*
X291006Y211640D01*
X291006Y206588D01*
X290895Y206477D01*
X290884Y206461D01*
X290868Y206449D01*
X290812Y206361D01*
X290752Y206278D01*
X290746Y206259D01*
X290735Y206242D01*
X290710Y206141D01*
X290679Y206042D01*
X290680Y206022D01*
X290675Y206003D01*
X290683Y205900D01*
X290686Y205797D01*
X290693Y205778D01*
X290694Y205758D01*
X290735Y205663D01*
X290770Y205566D01*
X290783Y205550D01*
X290791Y205532D01*
X290895Y205401D01*
X291006Y205290D01*
X291006Y200238D01*
X290895Y200127D01*
X290884Y200111D01*
X290868Y200099D01*
X290812Y200011D01*
X290752Y199928D01*
X290746Y199909D01*
X290735Y199892D01*
X290710Y199791D01*
X290679Y199692D01*
X290680Y199672D01*
X290675Y199653D01*
X290683Y199550D01*
X290686Y199447D01*
X290693Y199428D01*
X290694Y199408D01*
X290735Y199313D01*
X290770Y199216D01*
X290783Y199200D01*
X290791Y199182D01*
X290895Y199051D01*
X291006Y198940D01*
X291006Y193888D01*
X290895Y193777D01*
X290884Y193761D01*
X290868Y193749D01*
X290812Y193661D01*
X290752Y193578D01*
X290746Y193559D01*
X290735Y193542D01*
X290710Y193441D01*
X290679Y193342D01*
X290680Y193322D01*
X290675Y193303D01*
X290683Y193200D01*
X290686Y193097D01*
X290693Y193078D01*
X290694Y193058D01*
X290735Y192963D01*
X290770Y192866D01*
X290783Y192850D01*
X290791Y192832D01*
X290895Y192701D01*
X291006Y192590D01*
X291006Y187538D01*
X290261Y186793D01*
X274209Y186793D01*
X273464Y187538D01*
X273464Y189621D01*
X273450Y189711D01*
X273442Y189802D01*
X273430Y189832D01*
X273425Y189864D01*
X273382Y189944D01*
X273346Y190028D01*
X273320Y190060D01*
X273309Y190081D01*
X273286Y190103D01*
X273241Y190159D01*
X255786Y207615D01*
X255770Y207626D01*
X255757Y207642D01*
X255670Y207698D01*
X255586Y207758D01*
X255567Y207764D01*
X255550Y207775D01*
X255450Y207800D01*
X255351Y207831D01*
X255331Y207830D01*
X255312Y207835D01*
X255209Y207827D01*
X255105Y207824D01*
X255086Y207817D01*
X255067Y207816D01*
X254972Y207776D01*
X254874Y207740D01*
X254858Y207727D01*
X254840Y207720D01*
X254709Y207615D01*
X253764Y206670D01*
X237254Y190159D01*
X237201Y190085D01*
X237141Y190016D01*
X237129Y189986D01*
X237110Y189960D01*
X237083Y189873D01*
X237049Y189788D01*
X237045Y189747D01*
X237038Y189724D01*
X237039Y189692D01*
X237031Y189621D01*
X237031Y187538D01*
X236286Y186793D01*
X220234Y186793D01*
X219489Y187538D01*
X219489Y192590D01*
X219600Y192701D01*
X219611Y192717D01*
X219627Y192729D01*
X219683Y192817D01*
X219743Y192900D01*
X219749Y192919D01*
X219760Y192936D01*
X219785Y193037D01*
X219816Y193136D01*
X219815Y193156D01*
X219820Y193175D01*
X219812Y193278D01*
X219809Y193381D01*
X219802Y193400D01*
X219801Y193420D01*
X219760Y193515D01*
X219725Y193612D01*
X219712Y193628D01*
X219704Y193646D01*
X219600Y193777D01*
X219489Y193888D01*
X219489Y198940D01*
X219600Y199051D01*
X219611Y199067D01*
X219627Y199079D01*
X219683Y199167D01*
X219743Y199250D01*
X219749Y199269D01*
X219760Y199286D01*
X219785Y199387D01*
X219816Y199486D01*
X219815Y199506D01*
X219820Y199525D01*
X219812Y199628D01*
X219809Y199731D01*
X219802Y199750D01*
X219801Y199770D01*
X219760Y199865D01*
X219725Y199962D01*
X219712Y199978D01*
X219704Y199996D01*
X219600Y200127D01*
X219489Y200238D01*
X219489Y204318D01*
X219478Y204388D01*
X219476Y204460D01*
X219458Y204509D01*
X219450Y204561D01*
X219416Y204624D01*
X219391Y204691D01*
X219359Y204732D01*
X219334Y204778D01*
X219282Y204827D01*
X219238Y204883D01*
X219194Y204911D01*
X219156Y204947D01*
X219091Y204977D01*
X219031Y205016D01*
X218980Y205029D01*
X218933Y205051D01*
X218862Y205059D01*
X218792Y205076D01*
X218740Y205072D01*
X218689Y205078D01*
X218618Y205063D01*
X218547Y205057D01*
X218499Y205037D01*
X218448Y205026D01*
X218387Y204989D01*
X218321Y204961D01*
X218265Y204916D01*
X218237Y204900D01*
X218222Y204882D01*
X218190Y204856D01*
X217267Y203933D01*
X213081Y203933D01*
X210121Y206893D01*
X210121Y211079D01*
X212226Y213183D01*
X212237Y213199D01*
X212253Y213212D01*
X212309Y213299D01*
X212369Y213383D01*
X212375Y213402D01*
X212386Y213419D01*
X212411Y213519D01*
X212442Y213618D01*
X212441Y213638D01*
X212446Y213657D01*
X212438Y213760D01*
X212435Y213864D01*
X212428Y213883D01*
X212427Y213902D01*
X212386Y213997D01*
X212351Y214095D01*
X212338Y214111D01*
X212330Y214129D01*
X212226Y214260D01*
X193827Y232658D01*
X193827Y248332D01*
X193813Y248422D01*
X193805Y248513D01*
X193793Y248543D01*
X193788Y248575D01*
X193745Y248655D01*
X193709Y248739D01*
X193683Y248771D01*
X193672Y248792D01*
X193649Y248814D01*
X193604Y248870D01*
X191585Y250889D01*
X191527Y250931D01*
X191475Y250980D01*
X191428Y251002D01*
X191386Y251033D01*
X191317Y251054D01*
X191252Y251084D01*
X191200Y251090D01*
X191150Y251105D01*
X191079Y251103D01*
X191008Y251111D01*
X190957Y251100D01*
X190905Y251099D01*
X190837Y251074D01*
X190767Y251059D01*
X190722Y251032D01*
X190674Y251014D01*
X190618Y250969D01*
X190556Y250933D01*
X190522Y250893D01*
X190482Y250860D01*
X190443Y250800D01*
X190396Y250746D01*
X190377Y250697D01*
X190349Y250654D01*
X190331Y250584D01*
X190304Y250518D01*
X190296Y250446D01*
X190288Y250415D01*
X190290Y250392D01*
X190286Y250351D01*
X190286Y237254D01*
X189541Y236509D01*
X170459Y236509D01*
X169714Y237254D01*
X169714Y250770D01*
X169711Y250790D01*
X169713Y250809D01*
X169691Y250911D01*
X169675Y251013D01*
X169665Y251030D01*
X169661Y251050D01*
X169608Y251139D01*
X169559Y251230D01*
X169545Y251244D01*
X169535Y251261D01*
X169456Y251328D01*
X169381Y251400D01*
X169363Y251408D01*
X169348Y251421D01*
X169252Y251460D01*
X169158Y251503D01*
X169138Y251505D01*
X169120Y251513D01*
X168953Y251531D01*
X141767Y251531D01*
X141747Y251528D01*
X141728Y251530D01*
X141626Y251508D01*
X141524Y251492D01*
X141507Y251482D01*
X141487Y251478D01*
X141398Y251425D01*
X141307Y251376D01*
X141293Y251362D01*
X141276Y251352D01*
X141209Y251273D01*
X141137Y251198D01*
X141129Y251180D01*
X141116Y251165D01*
X141105Y251137D01*
X140895Y250927D01*
X140884Y250911D01*
X140868Y250899D01*
X140838Y250852D01*
X140823Y250836D01*
X140811Y250809D01*
X140752Y250728D01*
X140746Y250709D01*
X140735Y250692D01*
X140710Y250591D01*
X140679Y250492D01*
X140680Y250472D01*
X140675Y250453D01*
X140683Y250350D01*
X140686Y250247D01*
X140693Y250228D01*
X140694Y250208D01*
X140735Y250113D01*
X140770Y250016D01*
X140783Y250000D01*
X140791Y249982D01*
X140895Y249851D01*
X141006Y249740D01*
X141006Y244688D01*
X140261Y243943D01*
X126131Y243943D01*
X126041Y243929D01*
X125950Y243921D01*
X125920Y243909D01*
X125888Y243904D01*
X125807Y243861D01*
X125723Y243825D01*
X125691Y243799D01*
X125671Y243788D01*
X125648Y243765D01*
X125592Y243720D01*
X90048Y208176D01*
X89995Y208102D01*
X89935Y208032D01*
X89923Y208002D01*
X89904Y207976D01*
X89877Y207889D01*
X89843Y207804D01*
X89839Y207763D01*
X89832Y207741D01*
X89833Y207709D01*
X89825Y207637D01*
X89825Y186380D01*
X84398Y180953D01*
X74942Y180953D01*
X74852Y180939D01*
X74761Y180932D01*
X74731Y180919D01*
X74699Y180914D01*
X74619Y180871D01*
X74535Y180835D01*
X74503Y180810D01*
X74482Y180799D01*
X74460Y180775D01*
X74404Y180730D01*
X71607Y177933D01*
X67421Y177933D01*
X66992Y178362D01*
X66934Y178404D01*
X66882Y178453D01*
X66835Y178475D01*
X66793Y178506D01*
X66724Y178527D01*
X66659Y178557D01*
X66607Y178563D01*
X66557Y178578D01*
X66486Y178576D01*
X66415Y178584D01*
X66364Y178573D01*
X66312Y178572D01*
X66244Y178547D01*
X66174Y178532D01*
X66129Y178505D01*
X66081Y178487D01*
X66025Y178442D01*
X65963Y178406D01*
X65929Y178366D01*
X65889Y178333D01*
X65850Y178273D01*
X65803Y178219D01*
X65784Y178170D01*
X65756Y178127D01*
X65738Y178057D01*
X65711Y177991D01*
X65703Y177919D01*
X65695Y177888D01*
X65697Y177865D01*
X65693Y177824D01*
X65693Y171499D01*
X65707Y171409D01*
X65715Y171318D01*
X65727Y171288D01*
X65732Y171256D01*
X65775Y171175D01*
X65811Y171091D01*
X65837Y171059D01*
X65848Y171039D01*
X65871Y171016D01*
X65916Y170960D01*
X82079Y154797D01*
X82079Y147157D01*
X82093Y147067D01*
X82101Y146976D01*
X82113Y146946D01*
X82118Y146915D01*
X82161Y146834D01*
X82197Y146750D01*
X82223Y146718D01*
X82234Y146697D01*
X82257Y146675D01*
X82302Y146619D01*
X82973Y145948D01*
X83052Y145891D01*
X83127Y145829D01*
X83151Y145819D01*
X83173Y145804D01*
X83266Y145776D01*
X83357Y145741D01*
X83383Y145740D01*
X83408Y145732D01*
X83505Y145734D01*
X83602Y145730D01*
X83628Y145738D01*
X83654Y145738D01*
X83745Y145772D01*
X83839Y145799D01*
X83860Y145814D01*
X83885Y145823D01*
X83961Y145884D01*
X84041Y145939D01*
X84056Y145960D01*
X84077Y145976D01*
X84129Y146059D01*
X84187Y146136D01*
X84196Y146161D01*
X84210Y146183D01*
X84234Y146278D01*
X84264Y146370D01*
X84263Y146396D01*
X84270Y146422D01*
X84262Y146519D01*
X84261Y146616D01*
X84252Y146648D01*
X84251Y146667D01*
X84238Y146697D01*
X84215Y146777D01*
X84109Y147032D01*
X84109Y150568D01*
X85463Y153836D01*
X87964Y156337D01*
X91232Y157691D01*
X94768Y157691D01*
X98036Y156337D01*
X100537Y153836D01*
X101891Y150568D01*
X101891Y147032D01*
X100537Y143764D01*
X98036Y141263D01*
X96541Y140643D01*
X96457Y140592D01*
X96372Y140546D01*
X96354Y140528D01*
X96331Y140514D01*
X96269Y140438D01*
X96202Y140368D01*
X96191Y140344D01*
X96175Y140324D01*
X96140Y140233D01*
X96099Y140145D01*
X96096Y140119D01*
X96086Y140095D01*
X96082Y139997D01*
X96072Y139901D01*
X96077Y139875D01*
X96076Y139849D01*
X96103Y139755D01*
X96124Y139660D01*
X96137Y139638D01*
X96145Y139613D01*
X96200Y139533D01*
X96250Y139449D01*
X96270Y139432D01*
X96285Y139411D01*
X96363Y139352D01*
X96437Y139289D01*
X96461Y139279D01*
X96482Y139264D01*
X96575Y139234D01*
X96665Y139197D01*
X96681Y139195D01*
X98111Y137765D01*
X103116Y132760D01*
X103174Y132719D01*
X103226Y132669D01*
X103273Y132647D01*
X103315Y132617D01*
X103384Y132596D01*
X103449Y132566D01*
X103501Y132560D01*
X103551Y132544D01*
X103622Y132546D01*
X103693Y132538D01*
X103744Y132549D01*
G37*
G36*
X314555Y213561D02*
X314555Y213561D01*
X314646Y213569D01*
X314676Y213581D01*
X314708Y213586D01*
X314789Y213629D01*
X314873Y213665D01*
X314905Y213691D01*
X314925Y213702D01*
X314948Y213725D01*
X315004Y213770D01*
X336444Y235210D01*
X336486Y235268D01*
X336535Y235320D01*
X336557Y235367D01*
X336587Y235409D01*
X336608Y235478D01*
X336639Y235543D01*
X336644Y235595D01*
X336660Y235645D01*
X336658Y235716D01*
X336666Y235787D01*
X336655Y235838D01*
X336653Y235890D01*
X336629Y235958D01*
X336613Y236028D01*
X336587Y236073D01*
X336569Y236121D01*
X336524Y236177D01*
X336487Y236239D01*
X336448Y236273D01*
X336415Y236313D01*
X336355Y236352D01*
X336300Y236399D01*
X336252Y236418D01*
X336208Y236446D01*
X336139Y236464D01*
X336072Y236491D01*
X336001Y236499D01*
X335970Y236507D01*
X335946Y236505D01*
X335905Y236509D01*
X320459Y236509D01*
X319714Y237254D01*
X319714Y249670D01*
X319713Y249680D01*
X319713Y249686D01*
X319712Y249694D01*
X319713Y249709D01*
X319691Y249811D01*
X319675Y249913D01*
X319665Y249930D01*
X319661Y249950D01*
X319608Y250039D01*
X319559Y250130D01*
X319545Y250144D01*
X319535Y250161D01*
X319456Y250228D01*
X319381Y250300D01*
X319363Y250308D01*
X319348Y250321D01*
X319252Y250360D01*
X319158Y250403D01*
X319138Y250405D01*
X319120Y250413D01*
X318953Y250431D01*
X291767Y250431D01*
X291747Y250428D01*
X291728Y250430D01*
X291626Y250408D01*
X291524Y250392D01*
X291507Y250382D01*
X291487Y250378D01*
X291398Y250325D01*
X291307Y250276D01*
X291293Y250262D01*
X291276Y250252D01*
X291209Y250173D01*
X291137Y250098D01*
X291129Y250080D01*
X291116Y250065D01*
X291077Y249969D01*
X291034Y249875D01*
X291032Y249855D01*
X291024Y249837D01*
X291006Y249670D01*
X291006Y244688D01*
X290261Y243943D01*
X275497Y243943D01*
X275477Y243940D01*
X275458Y243942D01*
X275356Y243920D01*
X275254Y243904D01*
X275237Y243894D01*
X275217Y243890D01*
X275128Y243837D01*
X275037Y243788D01*
X275023Y243774D01*
X275006Y243764D01*
X274939Y243685D01*
X274867Y243610D01*
X274859Y243592D01*
X274846Y243577D01*
X274807Y243481D01*
X274764Y243387D01*
X274762Y243367D01*
X274754Y243349D01*
X274736Y243182D01*
X274736Y238546D01*
X274739Y238526D01*
X274737Y238507D01*
X274759Y238405D01*
X274775Y238303D01*
X274785Y238286D01*
X274789Y238266D01*
X274842Y238177D01*
X274891Y238086D01*
X274905Y238072D01*
X274915Y238055D01*
X274994Y237988D01*
X275069Y237916D01*
X275087Y237908D01*
X275102Y237895D01*
X275198Y237856D01*
X275292Y237813D01*
X275312Y237811D01*
X275330Y237803D01*
X275497Y237785D01*
X290261Y237785D01*
X291044Y237003D01*
X291045Y236991D01*
X291088Y236910D01*
X291124Y236826D01*
X291150Y236794D01*
X291161Y236773D01*
X291184Y236751D01*
X291229Y236695D01*
X297333Y230591D01*
X297333Y219957D01*
X297336Y219938D01*
X297334Y219918D01*
X297349Y219848D01*
X297355Y219776D01*
X297367Y219747D01*
X297372Y219715D01*
X297382Y219697D01*
X297386Y219678D01*
X297422Y219617D01*
X297451Y219550D01*
X297477Y219518D01*
X297488Y219497D01*
X297503Y219483D01*
X297512Y219467D01*
X297529Y219452D01*
X297556Y219419D01*
X303205Y213770D01*
X303279Y213717D01*
X303348Y213657D01*
X303379Y213645D01*
X303405Y213626D01*
X303492Y213599D01*
X303577Y213565D01*
X303618Y213561D01*
X303640Y213554D01*
X303672Y213555D01*
X303743Y213547D01*
X314465Y213547D01*
X314555Y213561D01*
G37*
%LPC*%
G36*
X137817Y315809D02*
X137817Y315809D01*
X132609Y321017D01*
X132609Y328383D01*
X137817Y333591D01*
X145183Y333591D01*
X150391Y328383D01*
X150391Y321017D01*
X145183Y315809D01*
X137817Y315809D01*
G37*
%LPD*%
%LPC*%
G36*
X61617Y315809D02*
X61617Y315809D01*
X56409Y321017D01*
X56409Y328383D01*
X61617Y333591D01*
X68983Y333591D01*
X74191Y328383D01*
X74191Y321017D01*
X68983Y315809D01*
X61617Y315809D01*
G37*
%LPD*%
%LPC*%
G36*
X36217Y315809D02*
X36217Y315809D01*
X31009Y321017D01*
X31009Y328383D01*
X36217Y333591D01*
X43583Y333591D01*
X48791Y328383D01*
X48791Y321017D01*
X43583Y315809D01*
X36217Y315809D01*
G37*
%LPD*%
%LPC*%
G36*
X10817Y315809D02*
X10817Y315809D01*
X5609Y321017D01*
X5609Y328383D01*
X10817Y333591D01*
X18183Y333591D01*
X23391Y328383D01*
X23391Y321017D01*
X18183Y315809D01*
X10817Y315809D01*
G37*
%LPD*%
%LPC*%
G36*
X315617Y315809D02*
X315617Y315809D01*
X310409Y321017D01*
X310409Y328383D01*
X315617Y333591D01*
X322983Y333591D01*
X328191Y328383D01*
X328191Y321017D01*
X322983Y315809D01*
X315617Y315809D01*
G37*
%LPD*%
%LPC*%
G36*
X163217Y315809D02*
X163217Y315809D01*
X158009Y321017D01*
X158009Y328383D01*
X163217Y333591D01*
X170583Y333591D01*
X175791Y328383D01*
X175791Y321017D01*
X170583Y315809D01*
X163217Y315809D01*
G37*
%LPD*%
%LPC*%
G36*
X341017Y115809D02*
X341017Y115809D01*
X335809Y121017D01*
X335809Y128383D01*
X341017Y133591D01*
X348383Y133591D01*
X353591Y128383D01*
X353591Y121017D01*
X348383Y115809D01*
X341017Y115809D01*
G37*
%LPD*%
%LPC*%
G36*
X188617Y115809D02*
X188617Y115809D01*
X183409Y121017D01*
X183409Y128383D01*
X188617Y133591D01*
X195983Y133591D01*
X201191Y128383D01*
X201191Y121017D01*
X195983Y115809D01*
X188617Y115809D01*
G37*
%LPD*%
%LPC*%
G36*
X366417Y115809D02*
X366417Y115809D01*
X361209Y121017D01*
X361209Y128383D01*
X366417Y133591D01*
X373783Y133591D01*
X378991Y128383D01*
X378991Y121017D01*
X373783Y115809D01*
X366417Y115809D01*
G37*
%LPD*%
%LPC*%
G36*
X391817Y115809D02*
X391817Y115809D01*
X386609Y121017D01*
X386609Y128383D01*
X391817Y133591D01*
X399183Y133591D01*
X404391Y128383D01*
X404391Y121017D01*
X399183Y115809D01*
X391817Y115809D01*
G37*
%LPD*%
%LPC*%
G36*
X214017Y115809D02*
X214017Y115809D01*
X208809Y121017D01*
X208809Y128383D01*
X214017Y133591D01*
X221383Y133591D01*
X226591Y128383D01*
X226591Y121017D01*
X221383Y115809D01*
X214017Y115809D01*
G37*
%LPD*%
%LPC*%
G36*
X239417Y115809D02*
X239417Y115809D01*
X234209Y121017D01*
X234209Y128383D01*
X239417Y133591D01*
X246783Y133591D01*
X251991Y128383D01*
X251991Y121017D01*
X246783Y115809D01*
X239417Y115809D01*
G37*
%LPD*%
%LPC*%
G36*
X264817Y115809D02*
X264817Y115809D01*
X259609Y121017D01*
X259609Y128383D01*
X264817Y133591D01*
X272183Y133591D01*
X277391Y128383D01*
X277391Y121017D01*
X272183Y115809D01*
X264817Y115809D01*
G37*
%LPD*%
%LPC*%
G36*
X290217Y115809D02*
X290217Y115809D01*
X285009Y121017D01*
X285009Y128383D01*
X290217Y133591D01*
X297583Y133591D01*
X302791Y128383D01*
X302791Y121017D01*
X297583Y115809D01*
X290217Y115809D01*
G37*
%LPD*%
%LPC*%
G36*
X315617Y115809D02*
X315617Y115809D01*
X310409Y121017D01*
X310409Y128383D01*
X315617Y133591D01*
X322983Y133591D01*
X328191Y128383D01*
X328191Y121017D01*
X322983Y115809D01*
X315617Y115809D01*
G37*
%LPD*%
%LPC*%
G36*
X142032Y292309D02*
X142032Y292309D01*
X138764Y293663D01*
X136263Y296164D01*
X134909Y299432D01*
X134909Y302968D01*
X136263Y306236D01*
X138764Y308737D01*
X142032Y310091D01*
X145568Y310091D01*
X148836Y308737D01*
X151337Y306236D01*
X152691Y302968D01*
X152691Y299432D01*
X151337Y296164D01*
X148836Y293663D01*
X145568Y292309D01*
X142032Y292309D01*
G37*
%LPD*%
%LPC*%
G36*
X40432Y292309D02*
X40432Y292309D01*
X37164Y293663D01*
X34663Y296164D01*
X33309Y299432D01*
X33309Y302968D01*
X34663Y306236D01*
X37164Y308737D01*
X40432Y310091D01*
X43968Y310091D01*
X47236Y308737D01*
X49737Y306236D01*
X51091Y302968D01*
X51091Y299432D01*
X49737Y296164D01*
X47236Y293663D01*
X43968Y292309D01*
X40432Y292309D01*
G37*
%LPD*%
%LPC*%
G36*
X218232Y139909D02*
X218232Y139909D01*
X214964Y141263D01*
X212463Y143764D01*
X211109Y147032D01*
X211109Y150568D01*
X212463Y153836D01*
X214964Y156337D01*
X218232Y157691D01*
X221768Y157691D01*
X225036Y156337D01*
X227537Y153836D01*
X228891Y150568D01*
X228891Y147032D01*
X227537Y143764D01*
X225036Y141263D01*
X221768Y139909D01*
X218232Y139909D01*
G37*
%LPD*%
%LPC*%
G36*
X243632Y139909D02*
X243632Y139909D01*
X240364Y141263D01*
X237863Y143764D01*
X236509Y147032D01*
X236509Y150568D01*
X237863Y153836D01*
X240364Y156337D01*
X243632Y157691D01*
X247168Y157691D01*
X250436Y156337D01*
X252937Y153836D01*
X254291Y150568D01*
X254291Y147032D01*
X252937Y143764D01*
X250436Y141263D01*
X247168Y139909D01*
X243632Y139909D01*
G37*
%LPD*%
%LPC*%
G36*
X192832Y139909D02*
X192832Y139909D01*
X189564Y141263D01*
X187063Y143764D01*
X185709Y147032D01*
X185709Y150568D01*
X187063Y153836D01*
X189564Y156337D01*
X192832Y157691D01*
X196368Y157691D01*
X199636Y156337D01*
X202137Y153836D01*
X203491Y150568D01*
X203491Y147032D01*
X202137Y143764D01*
X199636Y141263D01*
X196368Y139909D01*
X192832Y139909D01*
G37*
%LPD*%
%LPC*%
G36*
X345232Y139909D02*
X345232Y139909D01*
X341964Y141263D01*
X339463Y143764D01*
X338109Y147032D01*
X338109Y150568D01*
X339463Y153836D01*
X341964Y156337D01*
X345232Y157691D01*
X348768Y157691D01*
X352036Y156337D01*
X354537Y153836D01*
X355891Y150568D01*
X355891Y147032D01*
X354537Y143764D01*
X352036Y141263D01*
X348768Y139909D01*
X345232Y139909D01*
G37*
%LPD*%
%LPC*%
G36*
X269032Y139909D02*
X269032Y139909D01*
X265764Y141263D01*
X263263Y143764D01*
X261909Y147032D01*
X261909Y150568D01*
X263263Y153836D01*
X265764Y156337D01*
X269032Y157691D01*
X272568Y157691D01*
X275836Y156337D01*
X278337Y153836D01*
X279691Y150568D01*
X279691Y147032D01*
X278337Y143764D01*
X275836Y141263D01*
X272568Y139909D01*
X269032Y139909D01*
G37*
%LPD*%
G36*
X236401Y256838D02*
X236401Y256838D01*
X236420Y256836D01*
X236522Y256858D01*
X236624Y256874D01*
X236641Y256884D01*
X236661Y256888D01*
X236750Y256941D01*
X236841Y256990D01*
X236855Y257004D01*
X236872Y257014D01*
X236939Y257093D01*
X237011Y257168D01*
X237019Y257186D01*
X237032Y257201D01*
X237071Y257297D01*
X237114Y257391D01*
X237116Y257411D01*
X237124Y257429D01*
X237142Y257596D01*
X237142Y267559D01*
X237131Y267630D01*
X237129Y267701D01*
X237111Y267750D01*
X237103Y267802D01*
X237069Y267865D01*
X237044Y267932D01*
X237012Y267973D01*
X236987Y268019D01*
X236935Y268068D01*
X236891Y268124D01*
X236847Y268152D01*
X236809Y268188D01*
X236744Y268219D01*
X236684Y268257D01*
X236633Y268270D01*
X236586Y268292D01*
X236515Y268300D01*
X236445Y268317D01*
X236393Y268313D01*
X236342Y268319D01*
X236271Y268304D01*
X236200Y268298D01*
X236152Y268278D01*
X236101Y268267D01*
X236040Y268230D01*
X235974Y268202D01*
X235918Y268157D01*
X235890Y268141D01*
X235875Y268123D01*
X235843Y268097D01*
X233893Y266147D01*
X229707Y266147D01*
X226747Y269107D01*
X226747Y269606D01*
X226744Y269626D01*
X226746Y269645D01*
X226724Y269747D01*
X226708Y269849D01*
X226698Y269866D01*
X226694Y269886D01*
X226641Y269975D01*
X226592Y270066D01*
X226578Y270080D01*
X226568Y270097D01*
X226489Y270164D01*
X226414Y270236D01*
X226396Y270244D01*
X226381Y270257D01*
X226285Y270296D01*
X226191Y270339D01*
X226171Y270341D01*
X226153Y270349D01*
X225986Y270367D01*
X216457Y270367D01*
X216367Y270353D01*
X216276Y270345D01*
X216247Y270333D01*
X216215Y270328D01*
X216134Y270285D01*
X216050Y270249D01*
X216018Y270223D01*
X215997Y270212D01*
X215975Y270189D01*
X215919Y270144D01*
X212763Y266988D01*
X212751Y266972D01*
X212736Y266960D01*
X212680Y266872D01*
X212619Y266789D01*
X212614Y266770D01*
X212603Y266753D01*
X212578Y266652D01*
X212547Y266553D01*
X212548Y266534D01*
X212543Y266514D01*
X212551Y266411D01*
X212553Y266308D01*
X212560Y266289D01*
X212562Y266269D01*
X212602Y266174D01*
X212638Y266077D01*
X212650Y266061D01*
X212658Y266043D01*
X212763Y265912D01*
X221617Y257058D01*
X221691Y257005D01*
X221760Y256945D01*
X221791Y256933D01*
X221817Y256914D01*
X221904Y256887D01*
X221989Y256853D01*
X222030Y256849D01*
X222052Y256842D01*
X222084Y256843D01*
X222155Y256835D01*
X236381Y256835D01*
X236401Y256838D01*
G37*
D10*
X14500Y74700D03*
X39900Y74700D03*
X65300Y74700D03*
X90700Y74700D03*
X116100Y74700D03*
X141500Y74700D03*
X166900Y74700D03*
X192300Y74700D03*
X217700Y74700D03*
X243100Y74700D03*
X268500Y74700D03*
X293900Y74700D03*
X319300Y74700D03*
X344700Y74700D03*
X370100Y74700D03*
X395500Y74700D03*
X14500Y124700D03*
X39900Y124700D03*
X65300Y124700D03*
X90700Y124700D03*
X116100Y124700D03*
X141500Y124700D03*
X166900Y124700D03*
X192300Y124700D03*
X217700Y124700D03*
X243100Y124700D03*
X268500Y124700D03*
X293900Y124700D03*
X319300Y124700D03*
X344700Y124700D03*
X370100Y124700D03*
X395500Y124700D03*
X14500Y324700D03*
X39900Y324700D03*
X65300Y324700D03*
X90700Y324700D03*
X116100Y324700D03*
X141500Y324700D03*
X166900Y324700D03*
X192300Y324700D03*
X217700Y324700D03*
X243100Y324700D03*
X268500Y324700D03*
X293900Y324700D03*
X319300Y324700D03*
X344700Y324700D03*
X370100Y324700D03*
X395500Y324700D03*
X14500Y374700D03*
X39900Y374700D03*
X65300Y374700D03*
X90700Y374700D03*
X116100Y374700D03*
X141500Y374700D03*
X166900Y374700D03*
X192300Y374700D03*
X217700Y374700D03*
X243100Y374700D03*
X268500Y374700D03*
X293900Y374700D03*
X319300Y374700D03*
X344700Y374700D03*
X370100Y374700D03*
X395500Y374700D03*
X311900Y18700D03*
X337300Y18700D03*
X362700Y18700D03*
X388100Y18700D03*
X311900Y431700D03*
X337300Y431700D03*
X362700Y431700D03*
X388100Y431700D03*
D11*
X220000Y301200D03*
X245400Y301200D03*
X270800Y301200D03*
X296200Y301200D03*
X321600Y301200D03*
X347000Y301200D03*
X194600Y301200D03*
X169200Y301200D03*
X143800Y301200D03*
X118400Y301200D03*
X93000Y301200D03*
X67600Y301200D03*
X42200Y301200D03*
X372400Y301200D03*
X397800Y301200D03*
X220000Y148800D03*
X194600Y148800D03*
X169200Y148800D03*
X143800Y148800D03*
X118400Y148800D03*
X93000Y148800D03*
X245400Y148800D03*
X270800Y148800D03*
X296200Y148800D03*
X321600Y148800D03*
X347000Y148800D03*
X372400Y148800D03*
X397800Y148800D03*
X67600Y148800D03*
X42200Y148800D03*
D12*
X78260Y259914D03*
X78260Y253564D03*
X78260Y247214D03*
X78260Y240864D03*
X78260Y234514D03*
X78260Y228164D03*
X78260Y221814D03*
X78260Y215464D03*
X78260Y209114D03*
X78260Y202764D03*
X78260Y196414D03*
X78260Y190064D03*
X132235Y190064D03*
X132235Y196414D03*
X132235Y202764D03*
X132235Y209114D03*
X132235Y215464D03*
X132235Y221814D03*
X132235Y228164D03*
X132235Y234514D03*
X132235Y240864D03*
X132235Y247214D03*
X132235Y253564D03*
X132235Y259914D03*
X228260Y259914D03*
X228260Y253564D03*
X228260Y247214D03*
X228260Y240864D03*
X228260Y234514D03*
X228260Y228164D03*
X228260Y221814D03*
X228260Y215464D03*
X228260Y209114D03*
X228260Y202764D03*
X228260Y196414D03*
X228260Y190064D03*
X282235Y190064D03*
X282235Y196414D03*
X282235Y202764D03*
X282235Y209114D03*
X282235Y215464D03*
X282235Y221814D03*
X282235Y228164D03*
X282235Y234514D03*
X282235Y240864D03*
X282235Y247214D03*
X282235Y253564D03*
X282235Y259914D03*
D13*
X370000Y269450D03*
X370000Y256750D03*
X370000Y244050D03*
X370000Y231350D03*
X370000Y218650D03*
X370000Y205950D03*
X370000Y193250D03*
X370000Y180550D03*
X430000Y180550D03*
X430000Y193250D03*
X430000Y205950D03*
X430000Y218650D03*
X430000Y231350D03*
X430000Y244050D03*
X430000Y256750D03*
X430000Y269450D03*
D14*
X180000Y274220D03*
X180000Y245780D03*
X330000Y274220D03*
X330000Y245780D03*
D15*
X14500Y111050D02*
X14500Y74700D01*
X14500Y111050D02*
X24152Y120702D01*
X24152Y188152D01*
X70514Y234514D02*
X78260Y234514D01*
X70514Y234514D02*
X24152Y188152D01*
X70164Y228164D02*
X78260Y228164D01*
X27000Y87600D02*
X39900Y74700D01*
X27000Y185000D02*
X70164Y228164D01*
X27000Y185000D02*
X27000Y87600D01*
X70186Y221814D02*
X78260Y221814D01*
X70186Y221814D02*
X70000Y222000D01*
X29794Y181794D01*
X29794Y110206D02*
X65300Y74700D01*
X29794Y110206D02*
X29794Y181794D01*
X77796Y215000D02*
X78260Y215464D01*
X77796Y215000D02*
X70000Y215000D01*
X52000Y197000D01*
X52000Y113400D02*
X90700Y74700D01*
X52000Y113400D02*
X52000Y197000D01*
X106448Y164277D02*
X132235Y190064D01*
X106448Y164277D02*
X106448Y118455D01*
X205950Y74700D02*
X217700Y74700D01*
X190710Y89940D02*
X134963Y89940D01*
X190710Y89940D02*
X205950Y74700D01*
X134963Y89940D02*
X106448Y118455D01*
X159495Y263906D02*
X198514Y263906D01*
X128052Y305198D02*
X122398Y310852D01*
X100352Y328698D02*
X94698Y334352D01*
X49552Y378698D02*
X43898Y384352D01*
X35902Y384352D01*
X26250Y374700D02*
X14500Y374700D01*
X128052Y305198D02*
X128052Y295349D01*
X35902Y384352D02*
X26250Y374700D01*
X116298Y310852D02*
X122398Y310852D01*
X116298Y310852D02*
X100352Y326798D01*
X100352Y328698D01*
X94698Y334352D02*
X84798Y334352D01*
X49552Y369598D01*
X49552Y378698D01*
X128052Y295349D02*
X159495Y263906D01*
X204494Y257926D02*
X204494Y234514D01*
X204494Y257926D02*
X198514Y263906D01*
X204494Y234514D02*
X228260Y234514D01*
X141767Y192906D02*
X138577Y196096D01*
X132553Y196096D02*
X132235Y196414D01*
X132553Y196096D02*
X138577Y196096D01*
X141767Y192906D02*
X141767Y166767D01*
X128052Y153052D01*
X128052Y132052D02*
X125752Y129752D01*
X231350Y74700D02*
X243100Y74700D01*
X213316Y92734D02*
X136120Y92734D01*
X213316Y92734D02*
X231350Y74700D01*
X128052Y132052D02*
X128052Y153052D01*
X125752Y129752D02*
X125752Y103102D01*
X136120Y92734D01*
X228078Y227982D02*
X228260Y228164D01*
X86702Y315048D02*
X81048Y320702D01*
X81048Y333552D02*
X39900Y374700D01*
X81048Y333552D02*
X81048Y320702D01*
X86702Y315048D02*
X92802Y315048D01*
X158438Y260912D02*
X197157Y260912D01*
X158438Y260912D02*
X144500Y274850D01*
X144500Y274950D01*
X114402Y291548D02*
X108748Y297202D01*
X114402Y291548D02*
X127902Y291548D01*
X108748Y297202D02*
X108748Y299102D01*
X92802Y315048D01*
X127902Y291548D02*
X144500Y274950D01*
X197157Y260912D02*
X201700Y256369D01*
X206118Y227982D02*
X228078Y227982D01*
X201700Y232400D02*
X201700Y256369D01*
X201700Y232400D02*
X206118Y227982D01*
X282053Y196232D02*
X282235Y196414D01*
X282053Y196232D02*
X276393Y196232D01*
X258733Y213892D01*
X258733Y268543D02*
X268106Y277916D01*
X258733Y268543D02*
X258733Y213892D01*
X268106Y277916D02*
X274843Y277916D01*
X277563Y280637D01*
X278152Y339648D02*
X243100Y374700D01*
X278152Y307498D02*
X280452Y305198D01*
X280452Y283525D02*
X277563Y280637D01*
X278152Y307498D02*
X278152Y339648D01*
X280452Y305198D02*
X280452Y283525D01*
X138077Y202946D02*
X132417Y202946D01*
X132235Y202764D01*
X144561Y165610D02*
X138000Y159049D01*
X144561Y196462D02*
X138077Y202946D01*
X144561Y196462D02*
X144561Y165610D01*
X138000Y159049D02*
X138000Y156650D01*
X131848Y150498D02*
X131848Y128698D01*
X128546Y125396D01*
X131848Y150498D02*
X138000Y156650D01*
X128546Y125396D02*
X128546Y111000D01*
X144018Y95528D01*
X214473Y95528D01*
X256750Y74700D02*
X268500Y74700D01*
X256750Y74700D02*
X247098Y84352D01*
X225649Y84352D01*
X214473Y95528D01*
X228260Y221814D02*
X237989Y221814D01*
X239175Y223000D01*
X239175Y274018D01*
X230027Y283166D01*
X195033Y283166D01*
X189599Y288599D01*
X189099Y289099D01*
X179854Y298345D01*
X77050Y374700D02*
X65300Y374700D01*
X95084Y356666D02*
X177031Y356666D01*
X95084Y356666D02*
X77050Y374700D01*
X179854Y353843D02*
X179854Y298345D01*
X179854Y353843D02*
X177031Y356666D01*
X282235Y202764D02*
X282053Y202582D01*
X276393Y202582D01*
X261527Y217448D01*
X261527Y267385D02*
X269264Y275122D01*
X276000Y275122D01*
X261527Y267385D02*
X261527Y217448D01*
X276000Y275122D02*
X283246Y282368D01*
X283246Y306355D01*
X280946Y308655D01*
X280946Y362254D02*
X268500Y374700D01*
X280946Y362254D02*
X280946Y308655D01*
X132553Y208796D02*
X132235Y209114D01*
X132553Y208796D02*
X138577Y208796D01*
X153452Y144802D02*
X151152Y142502D01*
X151152Y109170D02*
X162000Y98322D01*
X215631Y98322D01*
X226807Y87146D01*
X281454Y87146D02*
X293900Y74700D01*
X151152Y109170D02*
X151152Y142502D01*
X226807Y87146D02*
X281454Y87146D01*
X141767Y205606D02*
X138577Y208796D01*
X141767Y205606D02*
X141767Y203207D01*
X153452Y152798D02*
X153452Y144802D01*
X153452Y152798D02*
X147355Y158895D01*
X147355Y197619D02*
X141767Y203207D01*
X147355Y197619D02*
X147355Y158895D01*
X228260Y215464D02*
X239433Y215464D01*
X241969Y218000D01*
X241969Y275176D01*
X231185Y285960D02*
X196190Y285960D01*
X182648Y299502D01*
X182648Y355000D01*
X178188Y359460D01*
X102450Y374700D02*
X90700Y374700D01*
X117690Y359460D02*
X178188Y359460D01*
X117690Y359460D02*
X102450Y374700D01*
X231185Y285960D02*
X241969Y275176D01*
X281917Y209432D02*
X282235Y209114D01*
X281917Y209432D02*
X275893Y209432D01*
X264321Y221004D01*
X264321Y266228D02*
X270421Y272328D01*
X288843Y272328D01*
X264321Y266228D02*
X264321Y221004D01*
X288843Y272328D02*
X305852Y289337D01*
X303552Y365048D02*
X293900Y374700D01*
X303552Y307498D02*
X305852Y305198D01*
X305852Y289337D01*
X303552Y307498D02*
X303552Y365048D01*
X78260Y209114D02*
X78146Y209000D01*
X70000Y209000D01*
X54794Y193794D01*
X104350Y74700D02*
X116100Y74700D01*
X104350Y74700D02*
X94698Y84352D01*
X91998Y84352D02*
X54794Y121556D01*
X91998Y84352D02*
X94698Y84352D01*
X54794Y121556D02*
X54794Y193794D01*
X132235Y215464D02*
X132417Y215646D01*
X156246Y143246D02*
X153946Y140946D01*
X163157Y101116D02*
X216788Y101116D01*
X227964Y89940D01*
X304060Y89940D02*
X319300Y74700D01*
X153946Y110327D02*
X153946Y140946D01*
X153946Y110327D02*
X163157Y101116D01*
X227964Y89940D02*
X304060Y89940D01*
X138077Y215646D02*
X132417Y215646D01*
X138077Y215646D02*
X141767Y211956D01*
X141767Y209557D01*
X144561Y206763D01*
X144561Y204364D01*
X150149Y160052D02*
X156246Y153955D01*
X156246Y143246D01*
X150149Y198776D02*
X144561Y204364D01*
X150149Y198776D02*
X150149Y160052D01*
X228260Y209114D02*
X240877Y209114D01*
X244763Y213000D01*
X244763Y276333D01*
X214845Y288754D02*
X205254Y298345D01*
X127850Y374700D02*
X116100Y374700D01*
X140296Y362254D02*
X180843Y362254D01*
X140296Y362254D02*
X127850Y374700D01*
X232342Y288754D02*
X244763Y276333D01*
X232342Y288754D02*
X214845Y288754D01*
X205254Y298345D02*
X205254Y337843D01*
X180843Y362254D01*
X282235Y215464D02*
X282053Y215282D01*
X276393Y215282D01*
X267115Y224560D01*
X267115Y265070D02*
X271579Y269534D01*
X290000Y269534D01*
X309648Y289182D01*
X267115Y265070D02*
X267115Y224560D01*
X309648Y289182D02*
X309648Y305353D01*
X306346Y308655D01*
X306346Y361746D01*
X319300Y374700D01*
X67715Y202764D02*
X57588Y192637D01*
X57588Y145162D01*
X68398Y134352D01*
X69298Y134352D01*
X81048Y122602D02*
X81048Y120702D01*
X129750Y74700D02*
X141500Y74700D01*
X129750Y74700D02*
X120098Y84352D01*
X117398Y84352D02*
X81048Y120702D01*
X117398Y84352D02*
X120098Y84352D01*
X78260Y202764D02*
X67715Y202764D01*
X69298Y134352D02*
X81048Y122602D01*
X132553Y221496D02*
X132235Y221814D01*
X132553Y221496D02*
X138577Y221496D01*
X159150Y142150D02*
X156740Y139740D01*
X229122Y92734D02*
X305217Y92734D01*
X313599Y84352D01*
X335048Y84352D02*
X344700Y74700D01*
X156740Y111485D02*
X156740Y139740D01*
X156740Y111485D02*
X164315Y103910D01*
X217946Y103910D01*
X229122Y92734D01*
X313599Y84352D02*
X335048Y84352D01*
X144561Y215512D02*
X138577Y221496D01*
X144561Y215512D02*
X144561Y210714D01*
X147355Y207920D01*
X147355Y205522D01*
X153100Y199777D01*
X153100Y161053D01*
X159150Y155003D02*
X159150Y142150D01*
X159150Y155003D02*
X153100Y161053D01*
X228260Y202764D02*
X239081Y202764D01*
X216002Y291548D02*
X208048Y299502D01*
X216002Y291548D02*
X233499Y291548D01*
X208048Y339000D02*
X182000Y365048D01*
X162902Y365048D01*
X153250Y374700D02*
X141500Y374700D01*
X153250Y374700D02*
X162902Y365048D01*
X247557Y211240D02*
X239081Y202764D01*
X247557Y211240D02*
X247557Y277490D01*
X233499Y291548D01*
X208048Y299502D02*
X208048Y339000D01*
X282235Y221814D02*
X282053Y221632D01*
X276393Y221632D01*
X269909Y228116D01*
X269909Y263913D02*
X272736Y266740D01*
X269909Y263913D02*
X269909Y228116D01*
X272736Y266740D02*
X291157Y266740D01*
X315965Y291548D02*
X325598Y291548D01*
X315965Y291548D02*
X291157Y266740D01*
X334554Y317245D02*
X332254Y319545D01*
X332254Y362254D02*
X344700Y374700D01*
X334554Y300504D02*
X325598Y291548D01*
X334554Y300504D02*
X334554Y317245D01*
X332254Y319545D02*
X332254Y362254D01*
X78260Y196414D02*
X65317Y196414D01*
X60651Y191749D01*
X60651Y169399D01*
X77252Y152798D01*
X77252Y139748D01*
X127000Y90000D02*
X127000Y89000D01*
X100352Y128698D02*
X94698Y134352D01*
X100352Y116648D02*
X127000Y90000D01*
X94698Y134352D02*
X82648Y134352D01*
X100352Y128698D02*
X100352Y116648D01*
X127000Y89000D02*
X131648Y84352D01*
X155150Y74700D02*
X166900Y74700D01*
X145498Y84352D02*
X131648Y84352D01*
X145498Y84352D02*
X155150Y74700D01*
X82648Y134352D02*
X77252Y139748D01*
X176552Y142502D02*
X178852Y144802D01*
X178852Y152798D01*
X176552Y115152D02*
X185000Y106704D01*
X219103Y106704D01*
X358350Y74700D02*
X370100Y74700D01*
X337522Y95528D02*
X230279Y95528D01*
X337522Y95528D02*
X358350Y74700D01*
X176552Y115152D02*
X176552Y142502D01*
X219103Y106704D02*
X230279Y95528D01*
X132553Y227846D02*
X132235Y228164D01*
X132553Y227846D02*
X138577Y227846D01*
X141767Y224656D01*
X141767Y222257D01*
X147355Y216669D02*
X147355Y212300D01*
X147355Y216669D02*
X141767Y222257D01*
X147355Y212300D02*
X147355Y211872D01*
X150600Y208627D02*
X150600Y206228D01*
X150600Y208627D02*
X147355Y211872D01*
X173198Y158452D02*
X178852Y152798D01*
X173198Y158452D02*
X159652Y158452D01*
X155894Y200934D02*
X150600Y206228D01*
X155894Y200934D02*
X155894Y162210D01*
X159652Y158452D01*
X228260Y196414D02*
X236682Y196414D01*
X250351Y278648D02*
X230654Y298345D01*
X230654Y332395D01*
X178650Y374700D02*
X166900Y374700D01*
X188302Y365048D02*
X198001Y365048D01*
X188302Y365048D02*
X178650Y374700D01*
X250351Y210083D02*
X236682Y196414D01*
X250351Y210083D02*
X250351Y278648D01*
X230654Y332395D02*
X198001Y365048D01*
X272703Y231672D02*
X275893Y228482D01*
X272703Y262756D02*
X273893Y263946D01*
X281917Y228482D02*
X282235Y228164D01*
X281917Y228482D02*
X275893Y228482D01*
X272703Y231672D02*
X272703Y262756D01*
X357750Y362350D02*
X370100Y374700D01*
X357750Y362350D02*
X357148Y361748D01*
X326755Y288754D02*
X317123Y288754D01*
X292315Y263946D02*
X273893Y263946D01*
X292315Y263946D02*
X317123Y288754D01*
X337348Y318402D02*
X335048Y320702D01*
X335048Y339648D02*
X357148Y361748D01*
X337348Y299347D02*
X326755Y288754D01*
X337348Y299347D02*
X337348Y318402D01*
X335048Y320702D02*
X335048Y339648D01*
X78260Y190064D02*
X67060Y190064D01*
X63660Y186664D01*
X63660Y170341D01*
X80046Y153955D01*
X80046Y146000D01*
X95855Y137146D02*
X103146Y129855D01*
X103146Y117805D01*
X88900Y137146D02*
X80046Y146000D01*
X88900Y137146D02*
X95855Y137146D01*
X180550Y74700D02*
X192300Y74700D01*
X168104Y87146D02*
X133805Y87146D01*
X168104Y87146D02*
X180550Y74700D01*
X133805Y87146D02*
X103146Y117805D01*
X132235Y234514D02*
X140486Y234514D01*
X181646Y142646D02*
X179346Y140346D01*
X186157Y109498D02*
X220260Y109498D01*
X383750Y74700D02*
X395500Y74700D01*
X360128Y98322D02*
X231436Y98322D01*
X360128Y98322D02*
X383750Y74700D01*
X181646Y142646D02*
X181646Y153955D01*
X179346Y140346D02*
X179346Y116309D01*
X186157Y109498D01*
X220260Y109498D02*
X231436Y98322D01*
X145000Y230000D02*
X140486Y234514D01*
X145000Y230000D02*
X145000Y222975D01*
X150149Y217826D02*
X150149Y213029D01*
X150149Y217826D02*
X145000Y222975D01*
X150149Y213029D02*
X153394Y209784D01*
X153394Y207386D01*
X160810Y161246D02*
X174355Y161246D01*
X181646Y153955D01*
X158688Y202092D02*
X153394Y207386D01*
X158688Y202092D02*
X158688Y163368D01*
X160810Y161246D01*
X228260Y190064D02*
X234284Y190064D01*
X253145Y208925D01*
X253145Y279805D02*
X233448Y299502D01*
X233448Y333552D02*
X192300Y374700D01*
X253145Y279805D02*
X253145Y208925D01*
X233448Y299502D02*
X233448Y333552D01*
X395500Y338350D02*
X395500Y374700D01*
X395500Y338350D02*
X385848Y328698D01*
X385848Y300398D01*
X341647Y256197D01*
X341647Y237538D01*
X315623Y211514D01*
X302586Y211514D01*
X290535Y234514D02*
X282235Y234514D01*
X290535Y234514D02*
X295300Y229749D01*
X295300Y218800D01*
X302586Y211514D01*
X282235Y190064D02*
X282053Y189882D01*
X276393Y189882D01*
X255939Y210336D01*
X255939Y336461D02*
X217700Y374700D01*
X255939Y336461D02*
X255939Y210336D01*
D16*
X369108Y244050D02*
X370000Y244050D01*
X369108Y244050D02*
X346200Y221142D01*
X341940Y38640D02*
X389208Y38640D01*
X341940Y38640D02*
X322000Y18700D01*
X311900Y18700D01*
X346200Y171968D02*
X346200Y221142D01*
X346200Y171968D02*
X358528Y159640D01*
X413552Y159640D01*
X424380Y148812D01*
X424380Y73812D01*
X389208Y38640D01*
X370000Y231350D02*
X366608Y231350D01*
X350510Y215252D01*
X428490Y72134D02*
X390657Y34300D01*
X352900Y34300D01*
X337300Y18700D01*
X350510Y173547D02*
X350510Y215252D01*
X350510Y173547D02*
X359907Y164150D01*
X415930Y164150D02*
X428490Y151590D01*
X428490Y72134D01*
X415930Y164150D02*
X359907Y164150D01*
X363896Y218650D02*
X370000Y218650D01*
X416708Y168760D02*
X433880Y151588D01*
X416708Y168760D02*
X360985Y168760D01*
X380820Y29620D02*
X392865Y29620D01*
X380820Y29620D02*
X369900Y18700D01*
X362700Y18700D01*
X392865Y29620D02*
X433880Y70635D01*
X354620Y209374D02*
X363896Y218650D01*
X354620Y209374D02*
X354620Y175125D01*
X360985Y168760D01*
X433880Y151588D02*
X433880Y70635D01*
X370000Y205950D02*
X362680Y205950D01*
X359330Y202600D01*
X359330Y177203D01*
X363563Y172970D02*
X417898Y172970D01*
X438490Y152378D01*
X388100Y18767D02*
X388100Y18700D01*
X388100Y18767D02*
X438490Y69157D01*
X438490Y152378D01*
X363563Y172970D02*
X359330Y177203D01*
X423840Y212110D02*
X430000Y205950D01*
X423840Y212110D02*
X422948Y212110D01*
X407280Y227778D01*
X322932Y431700D02*
X311900Y431700D01*
X340712Y413920D02*
X403304Y413920D01*
X340712Y413920D02*
X322932Y431700D01*
X407280Y277056D02*
X407280Y227778D01*
X407280Y277056D02*
X425758Y295534D01*
X425758Y391466D01*
X403304Y413920D01*
X422948Y224810D02*
X423840Y224810D01*
X430000Y218650D01*
X422948Y224810D02*
X411190Y236568D01*
X411190Y275578D01*
X348332Y431700D02*
X337300Y431700D01*
X362302Y417730D02*
X404882Y417730D01*
X362302Y417730D02*
X348332Y431700D01*
X429568Y293956D02*
X411190Y275578D01*
X429568Y293956D02*
X429568Y393044D01*
X404882Y417730D01*
X423840Y237510D02*
X430000Y231350D01*
X423840Y237510D02*
X422948Y237510D01*
X415600Y244858D01*
X373732Y431700D02*
X362700Y431700D01*
X373732Y431700D02*
X383892Y421540D01*
X406460Y421540D01*
X415600Y274600D02*
X415600Y244858D01*
X415600Y274600D02*
X433678Y292678D01*
X433678Y394322D01*
X406460Y421540D01*
X437688Y291100D02*
X419900Y273312D01*
X424800Y244050D02*
X430000Y244050D01*
X424800Y244050D02*
X419900Y248950D01*
X419900Y273312D01*
X437688Y291100D02*
X437688Y395812D01*
X401800Y431700D02*
X388100Y431700D01*
X401800Y431700D02*
X437688Y395812D01*
D17*
X27500Y203000D03*
D15*
X27686Y203186D01*
X27686Y209408D01*
X65492Y247214D01*
X78260Y247214D01*
D17*
X51500Y246500D03*
D15*
X77546Y246500D01*
X78260Y247214D01*
X216038Y247214D02*
X228260Y247214D01*
X216038Y247214D02*
X211000Y252252D01*
D17*
X211000Y252252D03*
X195860Y253760D03*
D15*
X195860Y233500D01*
X215174Y214186D02*
X215174Y208986D01*
X215174Y214186D02*
X195860Y233500D01*
D17*
X215174Y208986D03*
D15*
X67600Y282948D02*
X67600Y301200D01*
X67600Y282948D02*
X90206Y260342D01*
X90206Y256000D01*
X87770Y253564D01*
X78260Y253564D01*
X80578Y243182D02*
X86602Y243182D01*
X80578Y243182D02*
X78260Y240864D01*
X93000Y249580D02*
X93000Y301200D01*
X93000Y249580D02*
X86602Y243182D01*
D17*
X35500Y209000D03*
D15*
X67364Y240864D01*
X78260Y240864D01*
X212910Y240864D02*
X228260Y240864D01*
X212910Y240864D02*
X210356Y243418D01*
D17*
X210356Y243418D03*
X370000Y193250D03*
X281300Y175400D03*
X133720Y183012D03*
D15*
X132235Y271135D02*
X132400Y271300D01*
D17*
X132400Y271300D03*
D16*
X370000Y269450D02*
X373050Y269450D01*
X386500Y256000D01*
X386500Y192400D01*
X385700Y191600D01*
X406600Y191600D01*
X385700Y191600D02*
X372850Y191600D01*
X371200Y193250D01*
X417650Y180550D02*
X430000Y180550D01*
X417650Y180550D02*
X406600Y191600D01*
X321600Y148800D02*
X311200Y148800D01*
X284600Y175400D01*
X281300Y175400D01*
X132235Y259914D02*
X132235Y271135D01*
D17*
X166300Y194000D03*
D16*
X177700Y182600D01*
X212632Y182600D01*
X219832Y175400D02*
X281300Y175400D01*
D17*
X158800Y240000D03*
D16*
X187598Y211202D01*
X206322Y198819D02*
X206322Y188910D01*
X212632Y182600D01*
X219832Y175400D01*
X193939Y211202D02*
X187598Y211202D01*
X193939Y211202D02*
X206322Y198819D01*
X362240Y305408D02*
X368192Y311360D01*
X390992Y384860D02*
X399708Y384860D01*
X407960Y296992D02*
X402008Y291040D01*
X336301Y259914D02*
X282235Y259914D01*
X336301Y259914D02*
X362240Y285853D01*
X362240Y305408D01*
X391590Y291040D02*
X402008Y291040D01*
X391590Y291040D02*
X370000Y269450D01*
X407960Y376608D02*
X399708Y384860D01*
X407960Y376608D02*
X407960Y296992D01*
X371200Y193250D02*
X370000Y193250D01*
X379606Y311360D02*
X382546Y314300D01*
X382546Y330066D01*
X392198Y339718D01*
X392198Y363634D01*
X385340Y370492D01*
X385340Y379208D01*
X379606Y311360D02*
X368192Y311360D01*
X385340Y379208D02*
X390992Y384860D01*
D17*
X180000Y175780D03*
X330000Y175780D03*
X330000Y274220D03*
X180000Y274220D03*
X158404Y213098D03*
X370000Y180550D03*
X430000Y193250D03*
D15*
X228260Y259914D02*
X224384Y259914D01*
X217910Y266388D01*
D17*
X217910Y266388D03*
X210500Y277252D03*
X71080Y174152D03*
D15*
X282235Y240864D02*
X300186Y240864D01*
X300700Y240350D01*
D17*
X300700Y240350D03*
D15*
X308100Y232950D01*
X308100Y218600D01*
D17*
X308100Y218600D03*
X308800Y204300D03*
X338700Y219700D03*
X246300Y192100D03*
X246600Y183400D03*
X236800Y182800D03*
X228100Y182600D03*
X307200Y246400D03*
X314100Y240800D03*
X400300Y248600D03*
X400500Y238500D03*
X400700Y228300D03*
X401100Y217100D03*
X401400Y206700D03*
X300000Y400000D03*
X320000Y400000D03*
X340000Y400000D03*
X360000Y400000D03*
X380000Y400000D03*
X69514Y182986D03*
D15*
X131417Y246396D02*
X132235Y247214D01*
X131417Y246396D02*
X125393Y246396D01*
X87792Y187222D02*
X83556Y182986D01*
X69514Y182986D01*
X87792Y208795D02*
X125393Y246396D01*
X87792Y208795D02*
X87792Y187222D01*
X323316Y252464D02*
X330000Y245780D01*
X323316Y252464D02*
X283335Y252464D01*
X282235Y253564D01*
D17*
X165600Y207900D03*
D15*
X188200Y207900D01*
X200000Y196100D01*
D17*
X200000Y196100D03*
X231800Y271200D03*
D15*
X230600Y272400D01*
X215300Y272400D01*
X209350Y266450D01*
X222236Y253564D01*
X228260Y253564D01*
X397975Y444146D02*
X443784Y398337D01*
X397975Y444146D02*
X306745Y444146D01*
X436668Y263418D02*
X430000Y256750D01*
X436668Y263418D02*
X436842Y263418D01*
X443784Y270360D01*
X443784Y398337D01*
X239102Y384352D02*
X233448Y378698D01*
X233448Y370702D01*
X270800Y308750D02*
X270800Y301200D01*
X270800Y308750D02*
X258848Y320702D01*
X258848Y345302D02*
X233448Y370702D01*
X258848Y345302D02*
X258848Y320702D01*
X246951Y384352D02*
X239102Y384352D01*
X246951Y384352D02*
X306745Y444146D01*
X440990Y397180D02*
X440990Y289732D01*
X430000Y278742D02*
X430000Y269450D01*
X430000Y278742D02*
X440990Y289732D01*
X440990Y397180D02*
X396818Y441352D01*
X307902Y441352D01*
X284248Y353008D02*
X283740Y352500D01*
X284248Y417698D02*
X307902Y441352D01*
X284248Y417698D02*
X284248Y353008D01*
X283740Y352500D02*
X283740Y313660D01*
X296200Y301200D01*
X331252Y144802D02*
X325598Y139148D01*
X305852Y139148D02*
X296200Y148800D01*
X305852Y139148D02*
X325598Y139148D01*
X363332Y250082D02*
X370000Y256750D01*
X363332Y250082D02*
X358142Y250082D01*
X335814Y178188D02*
X335814Y173372D01*
X331252Y168810D01*
X332886Y181116D02*
X332886Y224826D01*
X332886Y181116D02*
X335814Y178188D01*
X332886Y224826D02*
X358142Y250082D01*
X331252Y168810D02*
X331252Y144802D01*
X180000Y245780D02*
X172216Y253564D01*
X132235Y253564D01*
M02*
