G04 EAGLE Gerber RS-274X export*
G75*
%MOMM*%
%FSLAX34Y34*%
%LPD*%
%INSilkscreen Top*%
%IPPOS*%
%AMOC8*
5,1,8,0,0,1.08239X$1,22.5*%
G01*
%ADD10C,0.152400*%
%ADD11C,0.127000*%
%ADD12C,0.254000*%
%ADD13C,0.508000*%
%ADD14C,0.101600*%


D10*
X1800Y81050D02*
X8150Y87400D01*
X20850Y87400D01*
X27200Y81050D01*
X33550Y87400D01*
X46250Y87400D01*
X52600Y81050D01*
X58950Y87400D01*
X71650Y87400D01*
X78000Y81050D01*
X84350Y87400D01*
X97050Y87400D01*
X103400Y81050D01*
X109750Y87400D01*
X122450Y87400D01*
X128800Y81050D01*
X135150Y87400D01*
X147850Y87400D01*
X154200Y81050D01*
X160550Y87400D01*
X173250Y87400D01*
X179600Y81050D01*
X185950Y87400D01*
X198650Y87400D01*
X205000Y81050D01*
X211350Y87400D01*
X224050Y87400D01*
X230400Y81050D01*
X236750Y87400D01*
X249450Y87400D01*
X255800Y81050D01*
X262150Y87400D01*
X274850Y87400D01*
X281200Y81050D01*
X287550Y87400D01*
X300250Y87400D01*
X306600Y81050D01*
X312950Y87400D01*
X325650Y87400D01*
X332000Y81050D01*
X338350Y87400D01*
X351050Y87400D01*
X357400Y81050D01*
X363750Y87400D01*
X376450Y87400D01*
X382800Y81050D01*
X389150Y87400D01*
X401850Y87400D01*
X408200Y81050D01*
D11*
X1800Y81050D02*
X1800Y68350D01*
X8150Y62000D01*
X20850Y62000D01*
X27200Y68350D01*
X33550Y62000D01*
X46250Y62000D01*
X52600Y68350D01*
X58950Y62000D01*
X71650Y62000D01*
X78000Y68350D01*
X84350Y62000D01*
X97050Y62000D01*
X103400Y68350D01*
X109750Y62000D01*
X122450Y62000D01*
X128800Y68350D01*
X135150Y62000D01*
X147850Y62000D01*
X154200Y68350D01*
X160550Y62000D01*
X173250Y62000D01*
X179600Y68350D01*
X185950Y62000D01*
X198650Y62000D01*
X205000Y68350D01*
X211350Y62000D01*
X224050Y62000D01*
X230400Y68350D01*
X236750Y62000D01*
X249450Y62000D01*
X255800Y68350D01*
X262150Y62000D01*
X274850Y62000D01*
X281200Y68350D01*
X287550Y62000D01*
X300250Y62000D01*
X306600Y68350D01*
X312950Y62000D01*
X325650Y62000D01*
X332000Y68350D01*
X338350Y62000D01*
X351050Y62000D01*
X357400Y68350D01*
X363750Y62000D01*
X376450Y62000D01*
X382800Y68350D01*
X389150Y62000D01*
X401850Y62000D01*
X408200Y68350D01*
X408200Y81050D01*
X6245Y55815D02*
X6245Y46925D01*
X6243Y46825D01*
X6237Y46726D01*
X6227Y46626D01*
X6214Y46528D01*
X6196Y46429D01*
X6175Y46332D01*
X6150Y46236D01*
X6121Y46140D01*
X6088Y46046D01*
X6052Y45953D01*
X6012Y45862D01*
X5968Y45772D01*
X5921Y45684D01*
X5871Y45598D01*
X5817Y45514D01*
X5760Y45432D01*
X5700Y45353D01*
X5636Y45275D01*
X5570Y45201D01*
X5501Y45129D01*
X5429Y45060D01*
X5355Y44994D01*
X5277Y44930D01*
X5198Y44870D01*
X5116Y44813D01*
X5032Y44759D01*
X4946Y44709D01*
X4858Y44662D01*
X4768Y44618D01*
X4677Y44578D01*
X4584Y44542D01*
X4490Y44509D01*
X4394Y44480D01*
X4298Y44455D01*
X4201Y44434D01*
X4102Y44416D01*
X4004Y44403D01*
X3904Y44393D01*
X3805Y44387D01*
X3705Y44385D01*
X2435Y44385D01*
X12225Y44385D02*
X12225Y55815D01*
X15400Y55815D01*
X15511Y55813D01*
X15621Y55807D01*
X15732Y55798D01*
X15842Y55784D01*
X15951Y55767D01*
X16060Y55746D01*
X16168Y55721D01*
X16275Y55692D01*
X16381Y55660D01*
X16486Y55624D01*
X16589Y55584D01*
X16691Y55541D01*
X16792Y55494D01*
X16891Y55443D01*
X16988Y55390D01*
X17082Y55333D01*
X17175Y55272D01*
X17266Y55209D01*
X17355Y55142D01*
X17441Y55072D01*
X17524Y54999D01*
X17606Y54924D01*
X17684Y54846D01*
X17759Y54764D01*
X17832Y54681D01*
X17902Y54595D01*
X17969Y54506D01*
X18032Y54415D01*
X18093Y54322D01*
X18150Y54227D01*
X18203Y54131D01*
X18254Y54032D01*
X18301Y53931D01*
X18344Y53829D01*
X18384Y53726D01*
X18420Y53621D01*
X18452Y53515D01*
X18481Y53408D01*
X18506Y53300D01*
X18527Y53191D01*
X18544Y53082D01*
X18558Y52972D01*
X18567Y52861D01*
X18573Y52751D01*
X18575Y52640D01*
X18573Y52529D01*
X18567Y52419D01*
X18558Y52308D01*
X18544Y52198D01*
X18527Y52089D01*
X18506Y51980D01*
X18481Y51872D01*
X18452Y51765D01*
X18420Y51659D01*
X18384Y51554D01*
X18344Y51451D01*
X18301Y51349D01*
X18254Y51248D01*
X18203Y51149D01*
X18150Y51052D01*
X18093Y50958D01*
X18032Y50865D01*
X17969Y50774D01*
X17902Y50685D01*
X17832Y50599D01*
X17759Y50516D01*
X17684Y50434D01*
X17606Y50356D01*
X17524Y50281D01*
X17441Y50208D01*
X17355Y50138D01*
X17266Y50071D01*
X17175Y50008D01*
X17082Y49947D01*
X16987Y49890D01*
X16891Y49837D01*
X16792Y49786D01*
X16691Y49739D01*
X16589Y49696D01*
X16486Y49656D01*
X16381Y49620D01*
X16275Y49588D01*
X16168Y49559D01*
X16060Y49534D01*
X15951Y49513D01*
X15842Y49496D01*
X15732Y49482D01*
X15621Y49473D01*
X15511Y49467D01*
X15400Y49465D01*
X12225Y49465D01*
X23084Y54545D02*
X23084Y55815D01*
X29434Y55815D01*
X26259Y44385D01*
X34514Y44385D02*
X37689Y44385D01*
X37800Y44387D01*
X37910Y44393D01*
X38021Y44402D01*
X38131Y44416D01*
X38240Y44433D01*
X38349Y44454D01*
X38457Y44479D01*
X38564Y44508D01*
X38670Y44540D01*
X38775Y44576D01*
X38878Y44616D01*
X38980Y44659D01*
X39081Y44706D01*
X39180Y44757D01*
X39276Y44810D01*
X39371Y44867D01*
X39464Y44928D01*
X39555Y44991D01*
X39644Y45058D01*
X39730Y45128D01*
X39813Y45201D01*
X39895Y45276D01*
X39973Y45354D01*
X40048Y45436D01*
X40121Y45519D01*
X40191Y45605D01*
X40258Y45694D01*
X40321Y45785D01*
X40382Y45878D01*
X40439Y45972D01*
X40492Y46069D01*
X40543Y46168D01*
X40590Y46269D01*
X40633Y46371D01*
X40673Y46474D01*
X40709Y46579D01*
X40741Y46685D01*
X40770Y46792D01*
X40795Y46900D01*
X40816Y47009D01*
X40833Y47118D01*
X40847Y47228D01*
X40856Y47339D01*
X40862Y47449D01*
X40864Y47560D01*
X40862Y47671D01*
X40856Y47781D01*
X40847Y47892D01*
X40833Y48002D01*
X40816Y48111D01*
X40795Y48220D01*
X40770Y48328D01*
X40741Y48435D01*
X40709Y48541D01*
X40673Y48646D01*
X40633Y48749D01*
X40590Y48851D01*
X40543Y48952D01*
X40492Y49051D01*
X40439Y49147D01*
X40382Y49242D01*
X40321Y49335D01*
X40258Y49426D01*
X40191Y49515D01*
X40121Y49601D01*
X40048Y49684D01*
X39973Y49766D01*
X39895Y49844D01*
X39813Y49919D01*
X39730Y49992D01*
X39644Y50062D01*
X39555Y50129D01*
X39464Y50192D01*
X39371Y50253D01*
X39277Y50310D01*
X39180Y50363D01*
X39081Y50414D01*
X38980Y50461D01*
X38878Y50504D01*
X38775Y50544D01*
X38670Y50580D01*
X38564Y50612D01*
X38457Y50641D01*
X38349Y50666D01*
X38240Y50687D01*
X38131Y50704D01*
X38021Y50718D01*
X37910Y50727D01*
X37800Y50733D01*
X37689Y50735D01*
X38324Y55815D02*
X34514Y55815D01*
X38324Y55815D02*
X38424Y55813D01*
X38523Y55807D01*
X38623Y55797D01*
X38721Y55784D01*
X38820Y55766D01*
X38917Y55745D01*
X39013Y55720D01*
X39109Y55691D01*
X39203Y55658D01*
X39296Y55622D01*
X39387Y55582D01*
X39477Y55538D01*
X39565Y55491D01*
X39651Y55441D01*
X39735Y55387D01*
X39817Y55330D01*
X39896Y55270D01*
X39974Y55206D01*
X40048Y55140D01*
X40120Y55071D01*
X40189Y54999D01*
X40255Y54925D01*
X40319Y54847D01*
X40379Y54768D01*
X40436Y54686D01*
X40490Y54602D01*
X40540Y54516D01*
X40587Y54428D01*
X40631Y54338D01*
X40671Y54247D01*
X40707Y54154D01*
X40740Y54060D01*
X40769Y53964D01*
X40794Y53868D01*
X40815Y53771D01*
X40833Y53672D01*
X40846Y53574D01*
X40856Y53474D01*
X40862Y53375D01*
X40864Y53275D01*
X40862Y53175D01*
X40856Y53076D01*
X40846Y52976D01*
X40833Y52878D01*
X40815Y52779D01*
X40794Y52682D01*
X40769Y52586D01*
X40740Y52490D01*
X40707Y52396D01*
X40671Y52303D01*
X40631Y52212D01*
X40587Y52122D01*
X40540Y52034D01*
X40490Y51948D01*
X40436Y51864D01*
X40379Y51782D01*
X40319Y51703D01*
X40255Y51625D01*
X40189Y51551D01*
X40120Y51479D01*
X40048Y51410D01*
X39974Y51344D01*
X39896Y51280D01*
X39817Y51220D01*
X39735Y51163D01*
X39651Y51109D01*
X39565Y51059D01*
X39477Y51012D01*
X39387Y50968D01*
X39296Y50928D01*
X39203Y50892D01*
X39109Y50859D01*
X39013Y50830D01*
X38917Y50805D01*
X38820Y50784D01*
X38721Y50766D01*
X38623Y50753D01*
X38523Y50743D01*
X38424Y50737D01*
X38324Y50735D01*
X35784Y50735D01*
D10*
X1800Y131050D02*
X8150Y137400D01*
X20850Y137400D01*
X27200Y131050D01*
X33550Y137400D01*
X46250Y137400D01*
X52600Y131050D01*
X58950Y137400D01*
X71650Y137400D01*
X78000Y131050D01*
X84350Y137400D01*
X97050Y137400D01*
X103400Y131050D01*
X109750Y137400D01*
X122450Y137400D01*
X128800Y131050D01*
X135150Y137400D01*
X147850Y137400D01*
X154200Y131050D01*
X160550Y137400D01*
X173250Y137400D01*
X179600Y131050D01*
X185950Y137400D01*
X198650Y137400D01*
X205000Y131050D01*
X211350Y137400D01*
X224050Y137400D01*
X230400Y131050D01*
X236750Y137400D01*
X249450Y137400D01*
X255800Y131050D01*
X262150Y137400D01*
X274850Y137400D01*
X281200Y131050D01*
X287550Y137400D01*
X300250Y137400D01*
X306600Y131050D01*
X312950Y137400D01*
X325650Y137400D01*
X332000Y131050D01*
X338350Y137400D01*
X351050Y137400D01*
X357400Y131050D01*
X363750Y137400D01*
X376450Y137400D01*
X382800Y131050D01*
X389150Y137400D01*
X401850Y137400D01*
X408200Y131050D01*
D11*
X1800Y131050D02*
X1800Y118350D01*
X8150Y112000D01*
X20850Y112000D01*
X27200Y118350D01*
X33550Y112000D01*
X46250Y112000D01*
X52600Y118350D01*
X58950Y112000D01*
X71650Y112000D01*
X78000Y118350D01*
X84350Y112000D01*
X97050Y112000D01*
X103400Y118350D01*
X109750Y112000D01*
X122450Y112000D01*
X128800Y118350D01*
X135150Y112000D01*
X147850Y112000D01*
X154200Y118350D01*
X160550Y112000D01*
X173250Y112000D01*
X179600Y118350D01*
X185950Y112000D01*
X198650Y112000D01*
X205000Y118350D01*
X211350Y112000D01*
X224050Y112000D01*
X230400Y118350D01*
X236750Y112000D01*
X249450Y112000D01*
X255800Y118350D01*
X262150Y112000D01*
X274850Y112000D01*
X281200Y118350D01*
X287550Y112000D01*
X300250Y112000D01*
X306600Y118350D01*
X312950Y112000D01*
X325650Y112000D01*
X332000Y118350D01*
X338350Y112000D01*
X351050Y112000D01*
X357400Y118350D01*
X363750Y112000D01*
X376450Y112000D01*
X382800Y118350D01*
X389150Y112000D01*
X401850Y112000D01*
X408200Y118350D01*
X408200Y131050D01*
X6245Y105815D02*
X6245Y96925D01*
X6243Y96825D01*
X6237Y96726D01*
X6227Y96626D01*
X6214Y96528D01*
X6196Y96429D01*
X6175Y96332D01*
X6150Y96236D01*
X6121Y96140D01*
X6088Y96046D01*
X6052Y95953D01*
X6012Y95862D01*
X5968Y95772D01*
X5921Y95684D01*
X5871Y95598D01*
X5817Y95514D01*
X5760Y95432D01*
X5700Y95353D01*
X5636Y95275D01*
X5570Y95201D01*
X5501Y95129D01*
X5429Y95060D01*
X5355Y94994D01*
X5277Y94930D01*
X5198Y94870D01*
X5116Y94813D01*
X5032Y94759D01*
X4946Y94709D01*
X4858Y94662D01*
X4768Y94618D01*
X4677Y94578D01*
X4584Y94542D01*
X4490Y94509D01*
X4394Y94480D01*
X4298Y94455D01*
X4201Y94434D01*
X4102Y94416D01*
X4004Y94403D01*
X3904Y94393D01*
X3805Y94387D01*
X3705Y94385D01*
X2435Y94385D01*
X12225Y94385D02*
X12225Y105815D01*
X15400Y105815D01*
X15511Y105813D01*
X15621Y105807D01*
X15732Y105798D01*
X15842Y105784D01*
X15951Y105767D01*
X16060Y105746D01*
X16168Y105721D01*
X16275Y105692D01*
X16381Y105660D01*
X16486Y105624D01*
X16589Y105584D01*
X16691Y105541D01*
X16792Y105494D01*
X16891Y105443D01*
X16988Y105390D01*
X17082Y105333D01*
X17175Y105272D01*
X17266Y105209D01*
X17355Y105142D01*
X17441Y105072D01*
X17524Y104999D01*
X17606Y104924D01*
X17684Y104846D01*
X17759Y104764D01*
X17832Y104681D01*
X17902Y104595D01*
X17969Y104506D01*
X18032Y104415D01*
X18093Y104322D01*
X18150Y104227D01*
X18203Y104131D01*
X18254Y104032D01*
X18301Y103931D01*
X18344Y103829D01*
X18384Y103726D01*
X18420Y103621D01*
X18452Y103515D01*
X18481Y103408D01*
X18506Y103300D01*
X18527Y103191D01*
X18544Y103082D01*
X18558Y102972D01*
X18567Y102861D01*
X18573Y102751D01*
X18575Y102640D01*
X18573Y102529D01*
X18567Y102419D01*
X18558Y102308D01*
X18544Y102198D01*
X18527Y102089D01*
X18506Y101980D01*
X18481Y101872D01*
X18452Y101765D01*
X18420Y101659D01*
X18384Y101554D01*
X18344Y101451D01*
X18301Y101349D01*
X18254Y101248D01*
X18203Y101149D01*
X18150Y101052D01*
X18093Y100958D01*
X18032Y100865D01*
X17969Y100774D01*
X17902Y100685D01*
X17832Y100599D01*
X17759Y100516D01*
X17684Y100434D01*
X17606Y100356D01*
X17524Y100281D01*
X17441Y100208D01*
X17355Y100138D01*
X17266Y100071D01*
X17175Y100008D01*
X17082Y99947D01*
X16987Y99890D01*
X16891Y99837D01*
X16792Y99786D01*
X16691Y99739D01*
X16589Y99696D01*
X16486Y99656D01*
X16381Y99620D01*
X16275Y99588D01*
X16168Y99559D01*
X16060Y99534D01*
X15951Y99513D01*
X15842Y99496D01*
X15732Y99482D01*
X15621Y99473D01*
X15511Y99467D01*
X15400Y99465D01*
X12225Y99465D01*
X23084Y104545D02*
X23084Y105815D01*
X29434Y105815D01*
X26259Y94385D01*
X34514Y96925D02*
X37054Y105815D01*
X34514Y96925D02*
X40864Y96925D01*
X38959Y99465D02*
X38959Y94385D01*
D10*
X1800Y331050D02*
X8150Y337400D01*
X20850Y337400D01*
X27200Y331050D01*
X33550Y337400D01*
X46250Y337400D01*
X52600Y331050D01*
X58950Y337400D01*
X71650Y337400D01*
X78000Y331050D01*
X84350Y337400D01*
X97050Y337400D01*
X103400Y331050D01*
X109750Y337400D01*
X122450Y337400D01*
X128800Y331050D01*
X135150Y337400D01*
X147850Y337400D01*
X154200Y331050D01*
X160550Y337400D01*
X173250Y337400D01*
X179600Y331050D01*
X185950Y337400D01*
X198650Y337400D01*
X205000Y331050D01*
X211350Y337400D01*
X224050Y337400D01*
X230400Y331050D01*
X236750Y337400D01*
X249450Y337400D01*
X255800Y331050D01*
X262150Y337400D01*
X274850Y337400D01*
X281200Y331050D01*
X287550Y337400D01*
X300250Y337400D01*
X306600Y331050D01*
X312950Y337400D01*
X325650Y337400D01*
X332000Y331050D01*
X338350Y337400D01*
X351050Y337400D01*
X357400Y331050D01*
X363750Y337400D01*
X376450Y337400D01*
X382800Y331050D01*
X389150Y337400D01*
X401850Y337400D01*
X408200Y331050D01*
D11*
X1800Y331050D02*
X1800Y318350D01*
X8150Y312000D01*
X20850Y312000D01*
X27200Y318350D01*
X33550Y312000D01*
X46250Y312000D01*
X52600Y318350D01*
X58950Y312000D01*
X71650Y312000D01*
X78000Y318350D01*
X84350Y312000D01*
X97050Y312000D01*
X103400Y318350D01*
X109750Y312000D01*
X122450Y312000D01*
X128800Y318350D01*
X135150Y312000D01*
X147850Y312000D01*
X154200Y318350D01*
X160550Y312000D01*
X173250Y312000D01*
X179600Y318350D01*
X185950Y312000D01*
X198650Y312000D01*
X205000Y318350D01*
X211350Y312000D01*
X224050Y312000D01*
X230400Y318350D01*
X236750Y312000D01*
X249450Y312000D01*
X255800Y318350D01*
X262150Y312000D01*
X274850Y312000D01*
X281200Y318350D01*
X287550Y312000D01*
X300250Y312000D01*
X306600Y318350D01*
X312950Y312000D01*
X325650Y312000D01*
X332000Y318350D01*
X338350Y312000D01*
X351050Y312000D01*
X357400Y318350D01*
X363750Y312000D01*
X376450Y312000D01*
X382800Y318350D01*
X389150Y312000D01*
X401850Y312000D01*
X408200Y318350D01*
X408200Y331050D01*
X6245Y346925D02*
X6245Y355815D01*
X6245Y346925D02*
X6243Y346825D01*
X6237Y346726D01*
X6227Y346626D01*
X6214Y346528D01*
X6196Y346429D01*
X6175Y346332D01*
X6150Y346236D01*
X6121Y346140D01*
X6088Y346046D01*
X6052Y345953D01*
X6012Y345862D01*
X5968Y345772D01*
X5921Y345684D01*
X5871Y345598D01*
X5817Y345514D01*
X5760Y345432D01*
X5700Y345353D01*
X5636Y345275D01*
X5570Y345201D01*
X5501Y345129D01*
X5429Y345060D01*
X5355Y344994D01*
X5277Y344930D01*
X5198Y344870D01*
X5116Y344813D01*
X5032Y344759D01*
X4946Y344709D01*
X4858Y344662D01*
X4768Y344618D01*
X4677Y344578D01*
X4584Y344542D01*
X4490Y344509D01*
X4394Y344480D01*
X4298Y344455D01*
X4201Y344434D01*
X4102Y344416D01*
X4004Y344403D01*
X3904Y344393D01*
X3805Y344387D01*
X3705Y344385D01*
X2435Y344385D01*
X12225Y344385D02*
X12225Y355815D01*
X15400Y355815D01*
X15511Y355813D01*
X15621Y355807D01*
X15732Y355798D01*
X15842Y355784D01*
X15951Y355767D01*
X16060Y355746D01*
X16168Y355721D01*
X16275Y355692D01*
X16381Y355660D01*
X16486Y355624D01*
X16589Y355584D01*
X16691Y355541D01*
X16792Y355494D01*
X16891Y355443D01*
X16988Y355390D01*
X17082Y355333D01*
X17175Y355272D01*
X17266Y355209D01*
X17355Y355142D01*
X17441Y355072D01*
X17524Y354999D01*
X17606Y354924D01*
X17684Y354846D01*
X17759Y354764D01*
X17832Y354681D01*
X17902Y354595D01*
X17969Y354506D01*
X18032Y354415D01*
X18093Y354322D01*
X18150Y354227D01*
X18203Y354131D01*
X18254Y354032D01*
X18301Y353931D01*
X18344Y353829D01*
X18384Y353726D01*
X18420Y353621D01*
X18452Y353515D01*
X18481Y353408D01*
X18506Y353300D01*
X18527Y353191D01*
X18544Y353082D01*
X18558Y352972D01*
X18567Y352861D01*
X18573Y352751D01*
X18575Y352640D01*
X18573Y352529D01*
X18567Y352419D01*
X18558Y352308D01*
X18544Y352198D01*
X18527Y352089D01*
X18506Y351980D01*
X18481Y351872D01*
X18452Y351765D01*
X18420Y351659D01*
X18384Y351554D01*
X18344Y351451D01*
X18301Y351349D01*
X18254Y351248D01*
X18203Y351149D01*
X18150Y351052D01*
X18093Y350958D01*
X18032Y350865D01*
X17969Y350774D01*
X17902Y350685D01*
X17832Y350599D01*
X17759Y350516D01*
X17684Y350434D01*
X17606Y350356D01*
X17524Y350281D01*
X17441Y350208D01*
X17355Y350138D01*
X17266Y350071D01*
X17175Y350008D01*
X17082Y349947D01*
X16987Y349890D01*
X16891Y349837D01*
X16792Y349786D01*
X16691Y349739D01*
X16589Y349696D01*
X16486Y349656D01*
X16381Y349620D01*
X16275Y349588D01*
X16168Y349559D01*
X16060Y349534D01*
X15951Y349513D01*
X15842Y349496D01*
X15732Y349482D01*
X15621Y349473D01*
X15511Y349467D01*
X15400Y349465D01*
X12225Y349465D01*
X23084Y354545D02*
X23084Y355815D01*
X29434Y355815D01*
X26259Y344385D01*
X34514Y344385D02*
X38324Y344385D01*
X38424Y344387D01*
X38523Y344393D01*
X38623Y344403D01*
X38721Y344416D01*
X38820Y344434D01*
X38917Y344455D01*
X39013Y344480D01*
X39109Y344509D01*
X39203Y344542D01*
X39296Y344578D01*
X39387Y344618D01*
X39477Y344662D01*
X39565Y344709D01*
X39651Y344759D01*
X39735Y344813D01*
X39817Y344870D01*
X39896Y344930D01*
X39974Y344994D01*
X40048Y345060D01*
X40120Y345129D01*
X40189Y345201D01*
X40255Y345275D01*
X40319Y345353D01*
X40379Y345432D01*
X40436Y345514D01*
X40490Y345598D01*
X40540Y345684D01*
X40587Y345772D01*
X40631Y345862D01*
X40671Y345953D01*
X40707Y346046D01*
X40740Y346140D01*
X40769Y346236D01*
X40794Y346332D01*
X40815Y346429D01*
X40833Y346528D01*
X40846Y346626D01*
X40856Y346726D01*
X40862Y346825D01*
X40864Y346925D01*
X40864Y348195D01*
X40862Y348295D01*
X40856Y348394D01*
X40846Y348494D01*
X40833Y348592D01*
X40815Y348691D01*
X40794Y348788D01*
X40769Y348884D01*
X40740Y348980D01*
X40707Y349074D01*
X40671Y349167D01*
X40631Y349258D01*
X40587Y349348D01*
X40540Y349436D01*
X40490Y349522D01*
X40436Y349606D01*
X40379Y349688D01*
X40319Y349767D01*
X40255Y349845D01*
X40189Y349919D01*
X40120Y349991D01*
X40048Y350060D01*
X39974Y350126D01*
X39896Y350190D01*
X39817Y350250D01*
X39735Y350307D01*
X39651Y350361D01*
X39565Y350411D01*
X39477Y350458D01*
X39387Y350502D01*
X39296Y350542D01*
X39203Y350578D01*
X39109Y350611D01*
X39013Y350640D01*
X38917Y350665D01*
X38820Y350686D01*
X38721Y350704D01*
X38623Y350717D01*
X38523Y350727D01*
X38424Y350733D01*
X38324Y350735D01*
X34514Y350735D01*
X34514Y355815D01*
X40864Y355815D01*
D10*
X8150Y387400D02*
X1800Y381050D01*
X8150Y387400D02*
X20850Y387400D01*
X27200Y381050D01*
X33550Y387400D01*
X46250Y387400D01*
X52600Y381050D01*
X58950Y387400D01*
X71650Y387400D01*
X78000Y381050D01*
X84350Y387400D01*
X97050Y387400D01*
X103400Y381050D01*
X109750Y387400D01*
X122450Y387400D01*
X128800Y381050D01*
X135150Y387400D01*
X147850Y387400D01*
X154200Y381050D01*
X160550Y387400D01*
X173250Y387400D01*
X179600Y381050D01*
X185950Y387400D01*
X198650Y387400D01*
X205000Y381050D01*
X211350Y387400D01*
X224050Y387400D01*
X230400Y381050D01*
X236750Y387400D01*
X249450Y387400D01*
X255800Y381050D01*
X262150Y387400D01*
X274850Y387400D01*
X281200Y381050D01*
X287550Y387400D01*
X300250Y387400D01*
X306600Y381050D01*
X312950Y387400D01*
X325650Y387400D01*
X332000Y381050D01*
X338350Y387400D01*
X351050Y387400D01*
X357400Y381050D01*
X363750Y387400D01*
X376450Y387400D01*
X382800Y381050D01*
X389150Y387400D01*
X401850Y387400D01*
X408200Y381050D01*
D11*
X1800Y381050D02*
X1800Y368350D01*
X8150Y362000D01*
X20850Y362000D01*
X27200Y368350D01*
X33550Y362000D01*
X46250Y362000D01*
X52600Y368350D01*
X58950Y362000D01*
X71650Y362000D01*
X78000Y368350D01*
X84350Y362000D01*
X97050Y362000D01*
X103400Y368350D01*
X109750Y362000D01*
X122450Y362000D01*
X128800Y368350D01*
X135150Y362000D01*
X147850Y362000D01*
X154200Y368350D01*
X160550Y362000D01*
X173250Y362000D01*
X179600Y368350D01*
X185950Y362000D01*
X198650Y362000D01*
X205000Y368350D01*
X211350Y362000D01*
X224050Y362000D01*
X230400Y368350D01*
X236750Y362000D01*
X249450Y362000D01*
X255800Y368350D01*
X262150Y362000D01*
X274850Y362000D01*
X281200Y368350D01*
X287550Y362000D01*
X300250Y362000D01*
X306600Y368350D01*
X312950Y362000D01*
X325650Y362000D01*
X332000Y368350D01*
X338350Y362000D01*
X351050Y362000D01*
X357400Y368350D01*
X363750Y362000D01*
X376450Y362000D01*
X382800Y368350D01*
X389150Y362000D01*
X401850Y362000D01*
X408200Y368350D01*
X408200Y381050D01*
X6245Y396925D02*
X6245Y405815D01*
X6245Y396925D02*
X6243Y396825D01*
X6237Y396726D01*
X6227Y396626D01*
X6214Y396528D01*
X6196Y396429D01*
X6175Y396332D01*
X6150Y396236D01*
X6121Y396140D01*
X6088Y396046D01*
X6052Y395953D01*
X6012Y395862D01*
X5968Y395772D01*
X5921Y395684D01*
X5871Y395598D01*
X5817Y395514D01*
X5760Y395432D01*
X5700Y395353D01*
X5636Y395275D01*
X5570Y395201D01*
X5501Y395129D01*
X5429Y395060D01*
X5355Y394994D01*
X5277Y394930D01*
X5198Y394870D01*
X5116Y394813D01*
X5032Y394759D01*
X4946Y394709D01*
X4858Y394662D01*
X4768Y394618D01*
X4677Y394578D01*
X4584Y394542D01*
X4490Y394509D01*
X4394Y394480D01*
X4298Y394455D01*
X4201Y394434D01*
X4102Y394416D01*
X4004Y394403D01*
X3904Y394393D01*
X3805Y394387D01*
X3705Y394385D01*
X2435Y394385D01*
X12225Y394385D02*
X12225Y405815D01*
X15400Y405815D01*
X15511Y405813D01*
X15621Y405807D01*
X15732Y405798D01*
X15842Y405784D01*
X15951Y405767D01*
X16060Y405746D01*
X16168Y405721D01*
X16275Y405692D01*
X16381Y405660D01*
X16486Y405624D01*
X16589Y405584D01*
X16691Y405541D01*
X16792Y405494D01*
X16891Y405443D01*
X16988Y405390D01*
X17082Y405333D01*
X17175Y405272D01*
X17266Y405209D01*
X17355Y405142D01*
X17441Y405072D01*
X17524Y404999D01*
X17606Y404924D01*
X17684Y404846D01*
X17759Y404764D01*
X17832Y404681D01*
X17902Y404595D01*
X17969Y404506D01*
X18032Y404415D01*
X18093Y404322D01*
X18150Y404227D01*
X18203Y404131D01*
X18254Y404032D01*
X18301Y403931D01*
X18344Y403829D01*
X18384Y403726D01*
X18420Y403621D01*
X18452Y403515D01*
X18481Y403408D01*
X18506Y403300D01*
X18527Y403191D01*
X18544Y403082D01*
X18558Y402972D01*
X18567Y402861D01*
X18573Y402751D01*
X18575Y402640D01*
X18573Y402529D01*
X18567Y402419D01*
X18558Y402308D01*
X18544Y402198D01*
X18527Y402089D01*
X18506Y401980D01*
X18481Y401872D01*
X18452Y401765D01*
X18420Y401659D01*
X18384Y401554D01*
X18344Y401451D01*
X18301Y401349D01*
X18254Y401248D01*
X18203Y401149D01*
X18150Y401052D01*
X18093Y400958D01*
X18032Y400865D01*
X17969Y400774D01*
X17902Y400685D01*
X17832Y400599D01*
X17759Y400516D01*
X17684Y400434D01*
X17606Y400356D01*
X17524Y400281D01*
X17441Y400208D01*
X17355Y400138D01*
X17266Y400071D01*
X17175Y400008D01*
X17082Y399947D01*
X16987Y399890D01*
X16891Y399837D01*
X16792Y399786D01*
X16691Y399739D01*
X16589Y399696D01*
X16486Y399656D01*
X16381Y399620D01*
X16275Y399588D01*
X16168Y399559D01*
X16060Y399534D01*
X15951Y399513D01*
X15842Y399496D01*
X15732Y399482D01*
X15621Y399473D01*
X15511Y399467D01*
X15400Y399465D01*
X12225Y399465D01*
X23084Y404545D02*
X23084Y405815D01*
X29434Y405815D01*
X26259Y394385D01*
X34514Y400735D02*
X38324Y400735D01*
X38424Y400733D01*
X38523Y400727D01*
X38623Y400717D01*
X38721Y400704D01*
X38820Y400686D01*
X38917Y400665D01*
X39013Y400640D01*
X39109Y400611D01*
X39203Y400578D01*
X39296Y400542D01*
X39387Y400502D01*
X39477Y400458D01*
X39565Y400411D01*
X39651Y400361D01*
X39735Y400307D01*
X39817Y400250D01*
X39896Y400190D01*
X39974Y400126D01*
X40048Y400060D01*
X40120Y399991D01*
X40189Y399919D01*
X40255Y399845D01*
X40319Y399767D01*
X40379Y399688D01*
X40436Y399606D01*
X40490Y399522D01*
X40540Y399436D01*
X40587Y399348D01*
X40631Y399258D01*
X40671Y399167D01*
X40707Y399074D01*
X40740Y398980D01*
X40769Y398884D01*
X40794Y398788D01*
X40815Y398691D01*
X40833Y398592D01*
X40846Y398494D01*
X40856Y398394D01*
X40862Y398295D01*
X40864Y398195D01*
X40864Y397560D01*
X40862Y397449D01*
X40856Y397339D01*
X40847Y397228D01*
X40833Y397118D01*
X40816Y397009D01*
X40795Y396900D01*
X40770Y396792D01*
X40741Y396685D01*
X40709Y396579D01*
X40673Y396474D01*
X40633Y396371D01*
X40590Y396269D01*
X40543Y396168D01*
X40492Y396069D01*
X40439Y395972D01*
X40382Y395878D01*
X40321Y395785D01*
X40258Y395694D01*
X40191Y395605D01*
X40121Y395519D01*
X40048Y395436D01*
X39973Y395354D01*
X39895Y395276D01*
X39813Y395201D01*
X39730Y395128D01*
X39644Y395058D01*
X39555Y394991D01*
X39464Y394928D01*
X39371Y394867D01*
X39276Y394810D01*
X39180Y394757D01*
X39081Y394706D01*
X38980Y394659D01*
X38878Y394616D01*
X38775Y394576D01*
X38670Y394540D01*
X38564Y394508D01*
X38457Y394479D01*
X38349Y394454D01*
X38240Y394433D01*
X38131Y394416D01*
X38021Y394402D01*
X37910Y394393D01*
X37800Y394387D01*
X37689Y394385D01*
X37578Y394387D01*
X37468Y394393D01*
X37357Y394402D01*
X37247Y394416D01*
X37138Y394433D01*
X37029Y394454D01*
X36921Y394479D01*
X36814Y394508D01*
X36708Y394540D01*
X36603Y394576D01*
X36500Y394616D01*
X36398Y394659D01*
X36297Y394706D01*
X36198Y394757D01*
X36102Y394810D01*
X36007Y394867D01*
X35914Y394928D01*
X35823Y394991D01*
X35734Y395058D01*
X35648Y395128D01*
X35565Y395201D01*
X35483Y395276D01*
X35405Y395354D01*
X35330Y395436D01*
X35257Y395519D01*
X35187Y395605D01*
X35120Y395694D01*
X35057Y395785D01*
X34996Y395878D01*
X34939Y395973D01*
X34886Y396069D01*
X34835Y396168D01*
X34788Y396269D01*
X34745Y396371D01*
X34705Y396474D01*
X34669Y396579D01*
X34637Y396685D01*
X34608Y396792D01*
X34583Y396900D01*
X34562Y397009D01*
X34545Y397118D01*
X34531Y397228D01*
X34522Y397339D01*
X34516Y397449D01*
X34514Y397560D01*
X34514Y400735D01*
X34516Y400875D01*
X34522Y401015D01*
X34531Y401155D01*
X34545Y401294D01*
X34562Y401433D01*
X34583Y401571D01*
X34608Y401709D01*
X34637Y401846D01*
X34669Y401982D01*
X34706Y402117D01*
X34746Y402251D01*
X34789Y402384D01*
X34837Y402516D01*
X34887Y402647D01*
X34942Y402776D01*
X35000Y402903D01*
X35061Y403029D01*
X35126Y403153D01*
X35195Y403275D01*
X35266Y403395D01*
X35341Y403513D01*
X35419Y403630D01*
X35501Y403744D01*
X35585Y403855D01*
X35673Y403964D01*
X35763Y404071D01*
X35857Y404176D01*
X35953Y404277D01*
X36052Y404376D01*
X36153Y404472D01*
X36258Y404566D01*
X36365Y404656D01*
X36474Y404744D01*
X36585Y404828D01*
X36699Y404910D01*
X36816Y404988D01*
X36934Y405063D01*
X37054Y405134D01*
X37176Y405203D01*
X37300Y405268D01*
X37426Y405329D01*
X37553Y405387D01*
X37682Y405442D01*
X37813Y405492D01*
X37945Y405540D01*
X38078Y405583D01*
X38212Y405623D01*
X38347Y405660D01*
X38483Y405692D01*
X38620Y405721D01*
X38758Y405746D01*
X38896Y405767D01*
X39035Y405784D01*
X39174Y405798D01*
X39314Y405807D01*
X39454Y405813D01*
X39594Y405815D01*
D10*
X305550Y31400D02*
X299200Y25050D01*
X305550Y31400D02*
X318250Y31400D01*
X324600Y25050D01*
X330950Y31400D01*
X343650Y31400D01*
X350000Y25050D01*
X356350Y31400D01*
X369050Y31400D01*
X375400Y25050D01*
X381750Y31400D01*
X394450Y31400D01*
X400800Y25050D01*
D11*
X299200Y25050D02*
X299200Y12350D01*
X305550Y6000D01*
X318250Y6000D01*
X324600Y12350D01*
X330950Y6000D01*
X343650Y6000D01*
X350000Y12350D01*
X356350Y6000D01*
X369050Y6000D01*
X375400Y12350D01*
X381750Y6000D01*
X394450Y6000D01*
X400800Y12350D01*
X400800Y25050D01*
X259645Y14815D02*
X259645Y5925D01*
X259643Y5825D01*
X259637Y5726D01*
X259627Y5626D01*
X259614Y5528D01*
X259596Y5429D01*
X259575Y5332D01*
X259550Y5236D01*
X259521Y5140D01*
X259488Y5046D01*
X259452Y4953D01*
X259412Y4862D01*
X259368Y4772D01*
X259321Y4684D01*
X259271Y4598D01*
X259217Y4514D01*
X259160Y4432D01*
X259100Y4353D01*
X259036Y4275D01*
X258970Y4201D01*
X258901Y4129D01*
X258829Y4060D01*
X258755Y3994D01*
X258677Y3930D01*
X258598Y3870D01*
X258516Y3813D01*
X258432Y3759D01*
X258346Y3709D01*
X258258Y3662D01*
X258168Y3618D01*
X258077Y3578D01*
X257984Y3542D01*
X257890Y3509D01*
X257794Y3480D01*
X257698Y3455D01*
X257601Y3434D01*
X257502Y3416D01*
X257404Y3403D01*
X257304Y3393D01*
X257205Y3387D01*
X257105Y3385D01*
X255835Y3385D01*
X265625Y3385D02*
X265625Y14815D01*
X268800Y14815D01*
X268911Y14813D01*
X269021Y14807D01*
X269132Y14798D01*
X269242Y14784D01*
X269351Y14767D01*
X269460Y14746D01*
X269568Y14721D01*
X269675Y14692D01*
X269781Y14660D01*
X269886Y14624D01*
X269989Y14584D01*
X270091Y14541D01*
X270192Y14494D01*
X270291Y14443D01*
X270388Y14390D01*
X270482Y14333D01*
X270575Y14272D01*
X270666Y14209D01*
X270755Y14142D01*
X270841Y14072D01*
X270924Y13999D01*
X271006Y13924D01*
X271084Y13846D01*
X271159Y13764D01*
X271232Y13681D01*
X271302Y13595D01*
X271369Y13506D01*
X271432Y13415D01*
X271493Y13322D01*
X271550Y13227D01*
X271603Y13131D01*
X271654Y13032D01*
X271701Y12931D01*
X271744Y12829D01*
X271784Y12726D01*
X271820Y12621D01*
X271852Y12515D01*
X271881Y12408D01*
X271906Y12300D01*
X271927Y12191D01*
X271944Y12082D01*
X271958Y11972D01*
X271967Y11861D01*
X271973Y11751D01*
X271975Y11640D01*
X271973Y11529D01*
X271967Y11419D01*
X271958Y11308D01*
X271944Y11198D01*
X271927Y11089D01*
X271906Y10980D01*
X271881Y10872D01*
X271852Y10765D01*
X271820Y10659D01*
X271784Y10554D01*
X271744Y10451D01*
X271701Y10349D01*
X271654Y10248D01*
X271603Y10149D01*
X271550Y10052D01*
X271493Y9958D01*
X271432Y9865D01*
X271369Y9774D01*
X271302Y9685D01*
X271232Y9599D01*
X271159Y9516D01*
X271084Y9434D01*
X271006Y9356D01*
X270924Y9281D01*
X270841Y9208D01*
X270755Y9138D01*
X270666Y9071D01*
X270575Y9008D01*
X270482Y8947D01*
X270388Y8890D01*
X270291Y8837D01*
X270192Y8786D01*
X270091Y8739D01*
X269989Y8696D01*
X269886Y8656D01*
X269781Y8620D01*
X269675Y8588D01*
X269568Y8559D01*
X269460Y8534D01*
X269351Y8513D01*
X269242Y8496D01*
X269132Y8482D01*
X269021Y8473D01*
X268911Y8467D01*
X268800Y8465D01*
X265625Y8465D01*
X276484Y13545D02*
X276484Y14815D01*
X282834Y14815D01*
X279659Y3385D01*
X287914Y13545D02*
X287914Y14815D01*
X294264Y14815D01*
X291089Y3385D01*
D10*
X299200Y438050D02*
X305550Y444400D01*
X318250Y444400D01*
X324600Y438050D01*
X330950Y444400D01*
X343650Y444400D01*
X350000Y438050D01*
X356350Y444400D01*
X369050Y444400D01*
X375400Y438050D01*
X381750Y444400D01*
X394450Y444400D01*
X400800Y438050D01*
D11*
X299200Y438050D02*
X299200Y425350D01*
X305550Y419000D01*
X318250Y419000D01*
X324600Y425350D01*
X330950Y419000D01*
X343650Y419000D01*
X350000Y425350D01*
X356350Y419000D01*
X369050Y419000D01*
X375400Y425350D01*
X381750Y419000D01*
X394450Y419000D01*
X400800Y425350D01*
X400800Y438050D01*
X261645Y438925D02*
X261645Y447815D01*
X261645Y438925D02*
X261643Y438825D01*
X261637Y438726D01*
X261627Y438626D01*
X261614Y438528D01*
X261596Y438429D01*
X261575Y438332D01*
X261550Y438236D01*
X261521Y438140D01*
X261488Y438046D01*
X261452Y437953D01*
X261412Y437862D01*
X261368Y437772D01*
X261321Y437684D01*
X261271Y437598D01*
X261217Y437514D01*
X261160Y437432D01*
X261100Y437353D01*
X261036Y437275D01*
X260970Y437201D01*
X260901Y437129D01*
X260829Y437060D01*
X260755Y436994D01*
X260677Y436930D01*
X260598Y436870D01*
X260516Y436813D01*
X260432Y436759D01*
X260346Y436709D01*
X260258Y436662D01*
X260168Y436618D01*
X260077Y436578D01*
X259984Y436542D01*
X259890Y436509D01*
X259794Y436480D01*
X259698Y436455D01*
X259601Y436434D01*
X259502Y436416D01*
X259404Y436403D01*
X259304Y436393D01*
X259205Y436387D01*
X259105Y436385D01*
X257835Y436385D01*
X267625Y436385D02*
X267625Y447815D01*
X270800Y447815D01*
X270911Y447813D01*
X271021Y447807D01*
X271132Y447798D01*
X271242Y447784D01*
X271351Y447767D01*
X271460Y447746D01*
X271568Y447721D01*
X271675Y447692D01*
X271781Y447660D01*
X271886Y447624D01*
X271989Y447584D01*
X272091Y447541D01*
X272192Y447494D01*
X272291Y447443D01*
X272388Y447390D01*
X272482Y447333D01*
X272575Y447272D01*
X272666Y447209D01*
X272755Y447142D01*
X272841Y447072D01*
X272924Y446999D01*
X273006Y446924D01*
X273084Y446846D01*
X273159Y446764D01*
X273232Y446681D01*
X273302Y446595D01*
X273369Y446506D01*
X273432Y446415D01*
X273493Y446322D01*
X273550Y446227D01*
X273603Y446131D01*
X273654Y446032D01*
X273701Y445931D01*
X273744Y445829D01*
X273784Y445726D01*
X273820Y445621D01*
X273852Y445515D01*
X273881Y445408D01*
X273906Y445300D01*
X273927Y445191D01*
X273944Y445082D01*
X273958Y444972D01*
X273967Y444861D01*
X273973Y444751D01*
X273975Y444640D01*
X273973Y444529D01*
X273967Y444419D01*
X273958Y444308D01*
X273944Y444198D01*
X273927Y444089D01*
X273906Y443980D01*
X273881Y443872D01*
X273852Y443765D01*
X273820Y443659D01*
X273784Y443554D01*
X273744Y443451D01*
X273701Y443349D01*
X273654Y443248D01*
X273603Y443149D01*
X273550Y443052D01*
X273493Y442958D01*
X273432Y442865D01*
X273369Y442774D01*
X273302Y442685D01*
X273232Y442599D01*
X273159Y442516D01*
X273084Y442434D01*
X273006Y442356D01*
X272924Y442281D01*
X272841Y442208D01*
X272755Y442138D01*
X272666Y442071D01*
X272575Y442008D01*
X272482Y441947D01*
X272388Y441890D01*
X272291Y441837D01*
X272192Y441786D01*
X272091Y441739D01*
X271989Y441696D01*
X271886Y441656D01*
X271781Y441620D01*
X271675Y441588D01*
X271568Y441559D01*
X271460Y441534D01*
X271351Y441513D01*
X271242Y441496D01*
X271132Y441482D01*
X271021Y441473D01*
X270911Y441467D01*
X270800Y441465D01*
X267625Y441465D01*
X278484Y446545D02*
X278484Y447815D01*
X284834Y447815D01*
X281659Y436385D01*
X289914Y439560D02*
X289916Y439671D01*
X289922Y439781D01*
X289931Y439892D01*
X289945Y440002D01*
X289962Y440111D01*
X289983Y440220D01*
X290008Y440328D01*
X290037Y440435D01*
X290069Y440541D01*
X290105Y440646D01*
X290145Y440749D01*
X290188Y440851D01*
X290235Y440952D01*
X290286Y441051D01*
X290339Y441148D01*
X290396Y441242D01*
X290457Y441335D01*
X290520Y441426D01*
X290587Y441515D01*
X290657Y441601D01*
X290730Y441684D01*
X290805Y441766D01*
X290883Y441844D01*
X290965Y441919D01*
X291048Y441992D01*
X291134Y442062D01*
X291223Y442129D01*
X291314Y442192D01*
X291407Y442253D01*
X291502Y442310D01*
X291598Y442363D01*
X291697Y442414D01*
X291798Y442461D01*
X291900Y442504D01*
X292003Y442544D01*
X292108Y442580D01*
X292214Y442612D01*
X292321Y442641D01*
X292429Y442666D01*
X292538Y442687D01*
X292647Y442704D01*
X292757Y442718D01*
X292868Y442727D01*
X292978Y442733D01*
X293089Y442735D01*
X293200Y442733D01*
X293310Y442727D01*
X293421Y442718D01*
X293531Y442704D01*
X293640Y442687D01*
X293749Y442666D01*
X293857Y442641D01*
X293964Y442612D01*
X294070Y442580D01*
X294175Y442544D01*
X294278Y442504D01*
X294380Y442461D01*
X294481Y442414D01*
X294580Y442363D01*
X294677Y442310D01*
X294771Y442253D01*
X294864Y442192D01*
X294955Y442129D01*
X295044Y442062D01*
X295130Y441992D01*
X295213Y441919D01*
X295295Y441844D01*
X295373Y441766D01*
X295448Y441684D01*
X295521Y441601D01*
X295591Y441515D01*
X295658Y441426D01*
X295721Y441335D01*
X295782Y441242D01*
X295839Y441148D01*
X295892Y441051D01*
X295943Y440952D01*
X295990Y440851D01*
X296033Y440749D01*
X296073Y440646D01*
X296109Y440541D01*
X296141Y440435D01*
X296170Y440328D01*
X296195Y440220D01*
X296216Y440111D01*
X296233Y440002D01*
X296247Y439892D01*
X296256Y439781D01*
X296262Y439671D01*
X296264Y439560D01*
X296262Y439449D01*
X296256Y439339D01*
X296247Y439228D01*
X296233Y439118D01*
X296216Y439009D01*
X296195Y438900D01*
X296170Y438792D01*
X296141Y438685D01*
X296109Y438579D01*
X296073Y438474D01*
X296033Y438371D01*
X295990Y438269D01*
X295943Y438168D01*
X295892Y438069D01*
X295839Y437972D01*
X295782Y437878D01*
X295721Y437785D01*
X295658Y437694D01*
X295591Y437605D01*
X295521Y437519D01*
X295448Y437436D01*
X295373Y437354D01*
X295295Y437276D01*
X295213Y437201D01*
X295130Y437128D01*
X295044Y437058D01*
X294955Y436991D01*
X294864Y436928D01*
X294771Y436867D01*
X294676Y436810D01*
X294580Y436757D01*
X294481Y436706D01*
X294380Y436659D01*
X294278Y436616D01*
X294175Y436576D01*
X294070Y436540D01*
X293964Y436508D01*
X293857Y436479D01*
X293749Y436454D01*
X293640Y436433D01*
X293531Y436416D01*
X293421Y436402D01*
X293310Y436393D01*
X293200Y436387D01*
X293089Y436385D01*
X292978Y436387D01*
X292868Y436393D01*
X292757Y436402D01*
X292647Y436416D01*
X292538Y436433D01*
X292429Y436454D01*
X292321Y436479D01*
X292214Y436508D01*
X292108Y436540D01*
X292003Y436576D01*
X291900Y436616D01*
X291798Y436659D01*
X291697Y436706D01*
X291598Y436757D01*
X291502Y436810D01*
X291407Y436867D01*
X291314Y436928D01*
X291223Y436991D01*
X291134Y437058D01*
X291048Y437128D01*
X290965Y437201D01*
X290883Y437276D01*
X290805Y437354D01*
X290730Y437436D01*
X290657Y437519D01*
X290587Y437605D01*
X290520Y437694D01*
X290457Y437785D01*
X290396Y437878D01*
X290339Y437973D01*
X290286Y438069D01*
X290235Y438168D01*
X290188Y438269D01*
X290145Y438371D01*
X290105Y438474D01*
X290069Y438579D01*
X290037Y438685D01*
X290008Y438792D01*
X289983Y438900D01*
X289962Y439009D01*
X289945Y439118D01*
X289931Y439228D01*
X289922Y439339D01*
X289916Y439449D01*
X289914Y439560D01*
X290549Y445275D02*
X290551Y445375D01*
X290557Y445474D01*
X290567Y445574D01*
X290580Y445672D01*
X290598Y445771D01*
X290619Y445868D01*
X290644Y445964D01*
X290673Y446060D01*
X290706Y446154D01*
X290742Y446247D01*
X290782Y446338D01*
X290826Y446428D01*
X290873Y446516D01*
X290923Y446602D01*
X290977Y446686D01*
X291034Y446768D01*
X291094Y446847D01*
X291158Y446925D01*
X291224Y446999D01*
X291293Y447071D01*
X291365Y447140D01*
X291439Y447206D01*
X291517Y447270D01*
X291596Y447330D01*
X291678Y447387D01*
X291762Y447441D01*
X291848Y447491D01*
X291936Y447538D01*
X292026Y447582D01*
X292117Y447622D01*
X292210Y447658D01*
X292304Y447691D01*
X292400Y447720D01*
X292496Y447745D01*
X292593Y447766D01*
X292692Y447784D01*
X292790Y447797D01*
X292890Y447807D01*
X292989Y447813D01*
X293089Y447815D01*
X293189Y447813D01*
X293288Y447807D01*
X293388Y447797D01*
X293486Y447784D01*
X293585Y447766D01*
X293682Y447745D01*
X293778Y447720D01*
X293874Y447691D01*
X293968Y447658D01*
X294061Y447622D01*
X294152Y447582D01*
X294242Y447538D01*
X294330Y447491D01*
X294416Y447441D01*
X294500Y447387D01*
X294582Y447330D01*
X294661Y447270D01*
X294739Y447206D01*
X294813Y447140D01*
X294885Y447071D01*
X294954Y446999D01*
X295020Y446925D01*
X295084Y446847D01*
X295144Y446768D01*
X295201Y446686D01*
X295255Y446602D01*
X295305Y446516D01*
X295352Y446428D01*
X295396Y446338D01*
X295436Y446247D01*
X295472Y446154D01*
X295505Y446060D01*
X295534Y445964D01*
X295559Y445868D01*
X295580Y445771D01*
X295598Y445672D01*
X295611Y445574D01*
X295621Y445474D01*
X295627Y445375D01*
X295629Y445275D01*
X295627Y445175D01*
X295621Y445076D01*
X295611Y444976D01*
X295598Y444878D01*
X295580Y444779D01*
X295559Y444682D01*
X295534Y444586D01*
X295505Y444490D01*
X295472Y444396D01*
X295436Y444303D01*
X295396Y444212D01*
X295352Y444122D01*
X295305Y444034D01*
X295255Y443948D01*
X295201Y443864D01*
X295144Y443782D01*
X295084Y443703D01*
X295020Y443625D01*
X294954Y443551D01*
X294885Y443479D01*
X294813Y443410D01*
X294739Y443344D01*
X294661Y443280D01*
X294582Y443220D01*
X294500Y443163D01*
X294416Y443109D01*
X294330Y443059D01*
X294242Y443012D01*
X294152Y442968D01*
X294061Y442928D01*
X293968Y442892D01*
X293874Y442859D01*
X293778Y442830D01*
X293682Y442805D01*
X293585Y442784D01*
X293486Y442766D01*
X293388Y442753D01*
X293288Y442743D01*
X293189Y442737D01*
X293089Y442735D01*
X292989Y442737D01*
X292890Y442743D01*
X292790Y442753D01*
X292692Y442766D01*
X292593Y442784D01*
X292496Y442805D01*
X292400Y442830D01*
X292304Y442859D01*
X292210Y442892D01*
X292117Y442928D01*
X292026Y442968D01*
X291936Y443012D01*
X291848Y443059D01*
X291762Y443109D01*
X291678Y443163D01*
X291596Y443220D01*
X291517Y443280D01*
X291439Y443344D01*
X291365Y443410D01*
X291293Y443479D01*
X291224Y443551D01*
X291158Y443625D01*
X291094Y443703D01*
X291034Y443782D01*
X290977Y443864D01*
X290923Y443948D01*
X290873Y444034D01*
X290826Y444122D01*
X290782Y444212D01*
X290742Y444303D01*
X290706Y444396D01*
X290673Y444490D01*
X290644Y444586D01*
X290619Y444682D01*
X290598Y444779D01*
X290580Y444878D01*
X290567Y444976D01*
X290557Y445076D01*
X290551Y445175D01*
X290549Y445275D01*
X125000Y270000D02*
X85000Y270000D01*
X85000Y180000D01*
X125000Y180000D01*
X125000Y270000D01*
X90000Y260000D02*
X90002Y260141D01*
X90008Y260282D01*
X90018Y260422D01*
X90032Y260562D01*
X90050Y260702D01*
X90071Y260841D01*
X90097Y260980D01*
X90126Y261118D01*
X90160Y261254D01*
X90197Y261390D01*
X90238Y261525D01*
X90283Y261659D01*
X90332Y261791D01*
X90384Y261922D01*
X90440Y262051D01*
X90500Y262178D01*
X90563Y262304D01*
X90629Y262428D01*
X90700Y262551D01*
X90773Y262671D01*
X90850Y262789D01*
X90930Y262905D01*
X91014Y263018D01*
X91100Y263129D01*
X91190Y263238D01*
X91283Y263344D01*
X91378Y263447D01*
X91477Y263548D01*
X91578Y263646D01*
X91682Y263741D01*
X91789Y263833D01*
X91898Y263922D01*
X92010Y264007D01*
X92124Y264090D01*
X92240Y264170D01*
X92359Y264246D01*
X92480Y264318D01*
X92602Y264388D01*
X92727Y264453D01*
X92853Y264516D01*
X92981Y264574D01*
X93111Y264629D01*
X93242Y264681D01*
X93375Y264728D01*
X93509Y264772D01*
X93644Y264813D01*
X93780Y264849D01*
X93917Y264881D01*
X94055Y264910D01*
X94193Y264935D01*
X94333Y264955D01*
X94473Y264972D01*
X94613Y264985D01*
X94754Y264994D01*
X94894Y264999D01*
X95035Y265000D01*
X95176Y264997D01*
X95317Y264990D01*
X95457Y264979D01*
X95597Y264964D01*
X95737Y264945D01*
X95876Y264923D01*
X96014Y264896D01*
X96152Y264866D01*
X96288Y264831D01*
X96424Y264793D01*
X96558Y264751D01*
X96692Y264705D01*
X96824Y264656D01*
X96954Y264602D01*
X97083Y264545D01*
X97210Y264485D01*
X97336Y264421D01*
X97459Y264353D01*
X97581Y264282D01*
X97701Y264208D01*
X97818Y264130D01*
X97933Y264049D01*
X98046Y263965D01*
X98157Y263878D01*
X98265Y263787D01*
X98370Y263694D01*
X98473Y263597D01*
X98573Y263498D01*
X98670Y263396D01*
X98764Y263291D01*
X98855Y263184D01*
X98943Y263074D01*
X99028Y262962D01*
X99110Y262847D01*
X99189Y262730D01*
X99264Y262611D01*
X99336Y262490D01*
X99404Y262367D01*
X99469Y262242D01*
X99531Y262115D01*
X99588Y261986D01*
X99643Y261856D01*
X99693Y261725D01*
X99740Y261592D01*
X99783Y261458D01*
X99822Y261322D01*
X99857Y261186D01*
X99889Y261049D01*
X99916Y260911D01*
X99940Y260772D01*
X99960Y260632D01*
X99976Y260492D01*
X99988Y260352D01*
X99996Y260211D01*
X100000Y260070D01*
X100000Y259930D01*
X99996Y259789D01*
X99988Y259648D01*
X99976Y259508D01*
X99960Y259368D01*
X99940Y259228D01*
X99916Y259089D01*
X99889Y258951D01*
X99857Y258814D01*
X99822Y258678D01*
X99783Y258542D01*
X99740Y258408D01*
X99693Y258275D01*
X99643Y258144D01*
X99588Y258014D01*
X99531Y257885D01*
X99469Y257758D01*
X99404Y257633D01*
X99336Y257510D01*
X99264Y257389D01*
X99189Y257270D01*
X99110Y257153D01*
X99028Y257038D01*
X98943Y256926D01*
X98855Y256816D01*
X98764Y256709D01*
X98670Y256604D01*
X98573Y256502D01*
X98473Y256403D01*
X98370Y256306D01*
X98265Y256213D01*
X98157Y256122D01*
X98046Y256035D01*
X97933Y255951D01*
X97818Y255870D01*
X97701Y255792D01*
X97581Y255718D01*
X97459Y255647D01*
X97336Y255579D01*
X97210Y255515D01*
X97083Y255455D01*
X96954Y255398D01*
X96824Y255344D01*
X96692Y255295D01*
X96558Y255249D01*
X96424Y255207D01*
X96288Y255169D01*
X96152Y255134D01*
X96014Y255104D01*
X95876Y255077D01*
X95737Y255055D01*
X95597Y255036D01*
X95457Y255021D01*
X95317Y255010D01*
X95176Y255003D01*
X95035Y255000D01*
X94894Y255001D01*
X94754Y255006D01*
X94613Y255015D01*
X94473Y255028D01*
X94333Y255045D01*
X94193Y255065D01*
X94055Y255090D01*
X93917Y255119D01*
X93780Y255151D01*
X93644Y255187D01*
X93509Y255228D01*
X93375Y255272D01*
X93242Y255319D01*
X93111Y255371D01*
X92981Y255426D01*
X92853Y255484D01*
X92727Y255547D01*
X92602Y255612D01*
X92480Y255682D01*
X92359Y255754D01*
X92240Y255830D01*
X92124Y255910D01*
X92010Y255993D01*
X91898Y256078D01*
X91789Y256167D01*
X91682Y256259D01*
X91578Y256354D01*
X91477Y256452D01*
X91378Y256553D01*
X91283Y256656D01*
X91190Y256762D01*
X91100Y256871D01*
X91014Y256982D01*
X90930Y257095D01*
X90850Y257211D01*
X90773Y257329D01*
X90700Y257449D01*
X90629Y257572D01*
X90563Y257696D01*
X90500Y257822D01*
X90440Y257949D01*
X90384Y258078D01*
X90332Y258209D01*
X90283Y258341D01*
X90238Y258475D01*
X90197Y258610D01*
X90160Y258746D01*
X90126Y258882D01*
X90097Y259020D01*
X90071Y259159D01*
X90050Y259298D01*
X90032Y259438D01*
X90018Y259578D01*
X90008Y259718D01*
X90002Y259859D01*
X90000Y260000D01*
X235000Y270000D02*
X275000Y270000D01*
X235000Y270000D02*
X235000Y180000D01*
X275000Y180000D01*
X275000Y270000D01*
X240000Y260000D02*
X240002Y260141D01*
X240008Y260282D01*
X240018Y260422D01*
X240032Y260562D01*
X240050Y260702D01*
X240071Y260841D01*
X240097Y260980D01*
X240126Y261118D01*
X240160Y261254D01*
X240197Y261390D01*
X240238Y261525D01*
X240283Y261659D01*
X240332Y261791D01*
X240384Y261922D01*
X240440Y262051D01*
X240500Y262178D01*
X240563Y262304D01*
X240629Y262428D01*
X240700Y262551D01*
X240773Y262671D01*
X240850Y262789D01*
X240930Y262905D01*
X241014Y263018D01*
X241100Y263129D01*
X241190Y263238D01*
X241283Y263344D01*
X241378Y263447D01*
X241477Y263548D01*
X241578Y263646D01*
X241682Y263741D01*
X241789Y263833D01*
X241898Y263922D01*
X242010Y264007D01*
X242124Y264090D01*
X242240Y264170D01*
X242359Y264246D01*
X242480Y264318D01*
X242602Y264388D01*
X242727Y264453D01*
X242853Y264516D01*
X242981Y264574D01*
X243111Y264629D01*
X243242Y264681D01*
X243375Y264728D01*
X243509Y264772D01*
X243644Y264813D01*
X243780Y264849D01*
X243917Y264881D01*
X244055Y264910D01*
X244193Y264935D01*
X244333Y264955D01*
X244473Y264972D01*
X244613Y264985D01*
X244754Y264994D01*
X244894Y264999D01*
X245035Y265000D01*
X245176Y264997D01*
X245317Y264990D01*
X245457Y264979D01*
X245597Y264964D01*
X245737Y264945D01*
X245876Y264923D01*
X246014Y264896D01*
X246152Y264866D01*
X246288Y264831D01*
X246424Y264793D01*
X246558Y264751D01*
X246692Y264705D01*
X246824Y264656D01*
X246954Y264602D01*
X247083Y264545D01*
X247210Y264485D01*
X247336Y264421D01*
X247459Y264353D01*
X247581Y264282D01*
X247701Y264208D01*
X247818Y264130D01*
X247933Y264049D01*
X248046Y263965D01*
X248157Y263878D01*
X248265Y263787D01*
X248370Y263694D01*
X248473Y263597D01*
X248573Y263498D01*
X248670Y263396D01*
X248764Y263291D01*
X248855Y263184D01*
X248943Y263074D01*
X249028Y262962D01*
X249110Y262847D01*
X249189Y262730D01*
X249264Y262611D01*
X249336Y262490D01*
X249404Y262367D01*
X249469Y262242D01*
X249531Y262115D01*
X249588Y261986D01*
X249643Y261856D01*
X249693Y261725D01*
X249740Y261592D01*
X249783Y261458D01*
X249822Y261322D01*
X249857Y261186D01*
X249889Y261049D01*
X249916Y260911D01*
X249940Y260772D01*
X249960Y260632D01*
X249976Y260492D01*
X249988Y260352D01*
X249996Y260211D01*
X250000Y260070D01*
X250000Y259930D01*
X249996Y259789D01*
X249988Y259648D01*
X249976Y259508D01*
X249960Y259368D01*
X249940Y259228D01*
X249916Y259089D01*
X249889Y258951D01*
X249857Y258814D01*
X249822Y258678D01*
X249783Y258542D01*
X249740Y258408D01*
X249693Y258275D01*
X249643Y258144D01*
X249588Y258014D01*
X249531Y257885D01*
X249469Y257758D01*
X249404Y257633D01*
X249336Y257510D01*
X249264Y257389D01*
X249189Y257270D01*
X249110Y257153D01*
X249028Y257038D01*
X248943Y256926D01*
X248855Y256816D01*
X248764Y256709D01*
X248670Y256604D01*
X248573Y256502D01*
X248473Y256403D01*
X248370Y256306D01*
X248265Y256213D01*
X248157Y256122D01*
X248046Y256035D01*
X247933Y255951D01*
X247818Y255870D01*
X247701Y255792D01*
X247581Y255718D01*
X247459Y255647D01*
X247336Y255579D01*
X247210Y255515D01*
X247083Y255455D01*
X246954Y255398D01*
X246824Y255344D01*
X246692Y255295D01*
X246558Y255249D01*
X246424Y255207D01*
X246288Y255169D01*
X246152Y255134D01*
X246014Y255104D01*
X245876Y255077D01*
X245737Y255055D01*
X245597Y255036D01*
X245457Y255021D01*
X245317Y255010D01*
X245176Y255003D01*
X245035Y255000D01*
X244894Y255001D01*
X244754Y255006D01*
X244613Y255015D01*
X244473Y255028D01*
X244333Y255045D01*
X244193Y255065D01*
X244055Y255090D01*
X243917Y255119D01*
X243780Y255151D01*
X243644Y255187D01*
X243509Y255228D01*
X243375Y255272D01*
X243242Y255319D01*
X243111Y255371D01*
X242981Y255426D01*
X242853Y255484D01*
X242727Y255547D01*
X242602Y255612D01*
X242480Y255682D01*
X242359Y255754D01*
X242240Y255830D01*
X242124Y255910D01*
X242010Y255993D01*
X241898Y256078D01*
X241789Y256167D01*
X241682Y256259D01*
X241578Y256354D01*
X241477Y256452D01*
X241378Y256553D01*
X241283Y256656D01*
X241190Y256762D01*
X241100Y256871D01*
X241014Y256982D01*
X240930Y257095D01*
X240850Y257211D01*
X240773Y257329D01*
X240700Y257449D01*
X240629Y257572D01*
X240563Y257696D01*
X240500Y257822D01*
X240440Y257949D01*
X240384Y258078D01*
X240332Y258209D01*
X240283Y258341D01*
X240238Y258475D01*
X240197Y258610D01*
X240160Y258746D01*
X240126Y258882D01*
X240097Y259020D01*
X240071Y259159D01*
X240050Y259298D01*
X240032Y259438D01*
X240018Y259578D01*
X240008Y259718D01*
X240002Y259859D01*
X240000Y260000D01*
D12*
X420750Y276750D02*
X420750Y173250D01*
X379250Y173250D01*
X379250Y276750D01*
X420750Y276750D01*
D13*
X384760Y269450D03*
D14*
X375108Y285904D02*
X375108Y294342D01*
X375108Y285904D02*
X375110Y285791D01*
X375116Y285678D01*
X375126Y285565D01*
X375140Y285452D01*
X375157Y285340D01*
X375179Y285229D01*
X375204Y285119D01*
X375234Y285009D01*
X375267Y284901D01*
X375304Y284794D01*
X375344Y284688D01*
X375389Y284584D01*
X375437Y284481D01*
X375488Y284380D01*
X375543Y284281D01*
X375601Y284184D01*
X375663Y284089D01*
X375728Y283996D01*
X375796Y283906D01*
X375867Y283818D01*
X375942Y283732D01*
X376019Y283649D01*
X376099Y283569D01*
X376182Y283492D01*
X376268Y283417D01*
X376356Y283346D01*
X376446Y283278D01*
X376539Y283213D01*
X376634Y283151D01*
X376731Y283093D01*
X376830Y283038D01*
X376931Y282987D01*
X377034Y282939D01*
X377138Y282894D01*
X377244Y282854D01*
X377351Y282817D01*
X377459Y282784D01*
X377569Y282754D01*
X377679Y282729D01*
X377790Y282707D01*
X377902Y282690D01*
X378015Y282676D01*
X378128Y282666D01*
X378241Y282660D01*
X378354Y282658D01*
X378467Y282660D01*
X378580Y282666D01*
X378693Y282676D01*
X378806Y282690D01*
X378918Y282707D01*
X379029Y282729D01*
X379139Y282754D01*
X379249Y282784D01*
X379357Y282817D01*
X379464Y282854D01*
X379570Y282894D01*
X379674Y282939D01*
X379777Y282987D01*
X379878Y283038D01*
X379977Y283093D01*
X380074Y283151D01*
X380169Y283213D01*
X380262Y283278D01*
X380352Y283346D01*
X380440Y283417D01*
X380526Y283492D01*
X380609Y283569D01*
X380689Y283649D01*
X380766Y283732D01*
X380841Y283818D01*
X380912Y283906D01*
X380980Y283996D01*
X381045Y284089D01*
X381107Y284184D01*
X381165Y284281D01*
X381220Y284380D01*
X381271Y284481D01*
X381319Y284584D01*
X381364Y284688D01*
X381404Y284794D01*
X381441Y284901D01*
X381474Y285009D01*
X381504Y285119D01*
X381529Y285229D01*
X381551Y285340D01*
X381568Y285452D01*
X381582Y285565D01*
X381592Y285678D01*
X381598Y285791D01*
X381600Y285904D01*
X381599Y285904D02*
X381599Y294342D01*
X386919Y282658D02*
X390814Y282658D01*
X390913Y282660D01*
X391013Y282666D01*
X391112Y282675D01*
X391210Y282688D01*
X391308Y282705D01*
X391406Y282726D01*
X391502Y282751D01*
X391597Y282779D01*
X391691Y282811D01*
X391784Y282846D01*
X391876Y282885D01*
X391966Y282928D01*
X392054Y282973D01*
X392141Y283023D01*
X392225Y283075D01*
X392308Y283131D01*
X392388Y283189D01*
X392466Y283251D01*
X392541Y283316D01*
X392614Y283384D01*
X392684Y283454D01*
X392752Y283527D01*
X392817Y283602D01*
X392879Y283680D01*
X392937Y283760D01*
X392993Y283843D01*
X393045Y283927D01*
X393095Y284014D01*
X393140Y284102D01*
X393183Y284192D01*
X393222Y284284D01*
X393257Y284377D01*
X393289Y284471D01*
X393317Y284566D01*
X393342Y284662D01*
X393363Y284760D01*
X393380Y284858D01*
X393393Y284956D01*
X393402Y285055D01*
X393408Y285155D01*
X393410Y285254D01*
X393410Y286553D01*
X393408Y286652D01*
X393402Y286752D01*
X393393Y286851D01*
X393380Y286949D01*
X393363Y287047D01*
X393342Y287145D01*
X393317Y287241D01*
X393289Y287336D01*
X393257Y287430D01*
X393222Y287523D01*
X393183Y287615D01*
X393140Y287705D01*
X393095Y287793D01*
X393045Y287880D01*
X392993Y287964D01*
X392937Y288047D01*
X392879Y288127D01*
X392817Y288205D01*
X392752Y288280D01*
X392684Y288353D01*
X392614Y288423D01*
X392541Y288491D01*
X392466Y288556D01*
X392388Y288618D01*
X392308Y288676D01*
X392225Y288732D01*
X392141Y288784D01*
X392054Y288834D01*
X391966Y288879D01*
X391876Y288922D01*
X391784Y288961D01*
X391691Y288996D01*
X391597Y289028D01*
X391502Y289056D01*
X391406Y289081D01*
X391308Y289102D01*
X391210Y289119D01*
X391112Y289132D01*
X391013Y289141D01*
X390913Y289147D01*
X390814Y289149D01*
X386919Y289149D01*
X386919Y294342D01*
X393410Y294342D01*
X167892Y271345D02*
X156208Y271345D01*
X156208Y274590D01*
X156210Y274703D01*
X156216Y274816D01*
X156226Y274929D01*
X156240Y275042D01*
X156257Y275154D01*
X156279Y275265D01*
X156304Y275375D01*
X156334Y275485D01*
X156367Y275593D01*
X156404Y275700D01*
X156444Y275806D01*
X156489Y275910D01*
X156537Y276013D01*
X156588Y276114D01*
X156643Y276213D01*
X156701Y276310D01*
X156763Y276405D01*
X156828Y276498D01*
X156896Y276588D01*
X156967Y276676D01*
X157042Y276762D01*
X157119Y276845D01*
X157199Y276925D01*
X157282Y277002D01*
X157368Y277077D01*
X157456Y277148D01*
X157546Y277216D01*
X157639Y277281D01*
X157734Y277343D01*
X157831Y277401D01*
X157930Y277456D01*
X158031Y277507D01*
X158134Y277555D01*
X158238Y277600D01*
X158344Y277640D01*
X158451Y277677D01*
X158559Y277710D01*
X158669Y277740D01*
X158779Y277765D01*
X158890Y277787D01*
X159002Y277804D01*
X159115Y277818D01*
X159228Y277828D01*
X159341Y277834D01*
X159454Y277836D01*
X159567Y277834D01*
X159680Y277828D01*
X159793Y277818D01*
X159906Y277804D01*
X160018Y277787D01*
X160129Y277765D01*
X160239Y277740D01*
X160349Y277710D01*
X160457Y277677D01*
X160564Y277640D01*
X160670Y277600D01*
X160774Y277555D01*
X160877Y277507D01*
X160978Y277456D01*
X161077Y277401D01*
X161174Y277343D01*
X161269Y277281D01*
X161362Y277216D01*
X161452Y277148D01*
X161540Y277077D01*
X161626Y277002D01*
X161709Y276925D01*
X161789Y276845D01*
X161866Y276762D01*
X161941Y276676D01*
X162012Y276588D01*
X162080Y276498D01*
X162145Y276405D01*
X162207Y276310D01*
X162265Y276213D01*
X162320Y276114D01*
X162371Y276013D01*
X162419Y275910D01*
X162464Y275806D01*
X162504Y275700D01*
X162541Y275593D01*
X162574Y275485D01*
X162604Y275375D01*
X162629Y275265D01*
X162651Y275154D01*
X162668Y275042D01*
X162682Y274929D01*
X162692Y274816D01*
X162698Y274703D01*
X162700Y274590D01*
X162699Y274590D02*
X162699Y271345D01*
X162699Y275239D02*
X167892Y277836D01*
X158804Y282701D02*
X156208Y285946D01*
X167892Y285946D01*
X167892Y282701D02*
X167892Y289192D01*
X306208Y271345D02*
X317892Y271345D01*
X306208Y271345D02*
X306208Y274590D01*
X306210Y274703D01*
X306216Y274816D01*
X306226Y274929D01*
X306240Y275042D01*
X306257Y275154D01*
X306279Y275265D01*
X306304Y275375D01*
X306334Y275485D01*
X306367Y275593D01*
X306404Y275700D01*
X306444Y275806D01*
X306489Y275910D01*
X306537Y276013D01*
X306588Y276114D01*
X306643Y276213D01*
X306701Y276310D01*
X306763Y276405D01*
X306828Y276498D01*
X306896Y276588D01*
X306967Y276676D01*
X307042Y276762D01*
X307119Y276845D01*
X307199Y276925D01*
X307282Y277002D01*
X307368Y277077D01*
X307456Y277148D01*
X307546Y277216D01*
X307639Y277281D01*
X307734Y277343D01*
X307831Y277401D01*
X307930Y277456D01*
X308031Y277507D01*
X308134Y277555D01*
X308238Y277600D01*
X308344Y277640D01*
X308451Y277677D01*
X308559Y277710D01*
X308669Y277740D01*
X308779Y277765D01*
X308890Y277787D01*
X309002Y277804D01*
X309115Y277818D01*
X309228Y277828D01*
X309341Y277834D01*
X309454Y277836D01*
X309567Y277834D01*
X309680Y277828D01*
X309793Y277818D01*
X309906Y277804D01*
X310018Y277787D01*
X310129Y277765D01*
X310239Y277740D01*
X310349Y277710D01*
X310457Y277677D01*
X310564Y277640D01*
X310670Y277600D01*
X310774Y277555D01*
X310877Y277507D01*
X310978Y277456D01*
X311077Y277401D01*
X311174Y277343D01*
X311269Y277281D01*
X311362Y277216D01*
X311452Y277148D01*
X311540Y277077D01*
X311626Y277002D01*
X311709Y276925D01*
X311789Y276845D01*
X311866Y276762D01*
X311941Y276676D01*
X312012Y276588D01*
X312080Y276498D01*
X312145Y276405D01*
X312207Y276310D01*
X312265Y276213D01*
X312320Y276114D01*
X312371Y276013D01*
X312419Y275910D01*
X312464Y275806D01*
X312504Y275700D01*
X312541Y275593D01*
X312574Y275485D01*
X312604Y275375D01*
X312629Y275265D01*
X312651Y275154D01*
X312668Y275042D01*
X312682Y274929D01*
X312692Y274816D01*
X312698Y274703D01*
X312700Y274590D01*
X312699Y274590D02*
X312699Y271345D01*
X312699Y275239D02*
X317892Y277836D01*
X315296Y282701D02*
X306208Y285297D01*
X315296Y282701D02*
X315296Y289192D01*
X312699Y287245D02*
X317892Y287245D01*
M02*
