G04 EAGLE Gerber RS-274X export*
G75*
%MOMM*%
%FSLAX34Y34*%
%LPD*%
%INSilkscreen Bottom*%
%IPPOS*%
%AMOC8*
5,1,8,0,0,1.08239X$1,22.5*%
G01*
%ADD10C,0.127000*%
%ADD11C,0.101600*%


D10*
X125000Y180000D02*
X85000Y180000D01*
X85000Y270000D01*
X125000Y270000D01*
X125000Y180000D01*
X90000Y190000D02*
X90002Y190141D01*
X90008Y190282D01*
X90018Y190422D01*
X90032Y190562D01*
X90050Y190702D01*
X90071Y190841D01*
X90097Y190980D01*
X90126Y191118D01*
X90160Y191254D01*
X90197Y191390D01*
X90238Y191525D01*
X90283Y191659D01*
X90332Y191791D01*
X90384Y191922D01*
X90440Y192051D01*
X90500Y192178D01*
X90563Y192304D01*
X90629Y192428D01*
X90700Y192551D01*
X90773Y192671D01*
X90850Y192789D01*
X90930Y192905D01*
X91014Y193018D01*
X91100Y193129D01*
X91190Y193238D01*
X91283Y193344D01*
X91378Y193447D01*
X91477Y193548D01*
X91578Y193646D01*
X91682Y193741D01*
X91789Y193833D01*
X91898Y193922D01*
X92010Y194007D01*
X92124Y194090D01*
X92240Y194170D01*
X92359Y194246D01*
X92480Y194318D01*
X92602Y194388D01*
X92727Y194453D01*
X92853Y194516D01*
X92981Y194574D01*
X93111Y194629D01*
X93242Y194681D01*
X93375Y194728D01*
X93509Y194772D01*
X93644Y194813D01*
X93780Y194849D01*
X93917Y194881D01*
X94055Y194910D01*
X94193Y194935D01*
X94333Y194955D01*
X94473Y194972D01*
X94613Y194985D01*
X94754Y194994D01*
X94894Y194999D01*
X95035Y195000D01*
X95176Y194997D01*
X95317Y194990D01*
X95457Y194979D01*
X95597Y194964D01*
X95737Y194945D01*
X95876Y194923D01*
X96014Y194896D01*
X96152Y194866D01*
X96288Y194831D01*
X96424Y194793D01*
X96558Y194751D01*
X96692Y194705D01*
X96824Y194656D01*
X96954Y194602D01*
X97083Y194545D01*
X97210Y194485D01*
X97336Y194421D01*
X97459Y194353D01*
X97581Y194282D01*
X97701Y194208D01*
X97818Y194130D01*
X97933Y194049D01*
X98046Y193965D01*
X98157Y193878D01*
X98265Y193787D01*
X98370Y193694D01*
X98473Y193597D01*
X98573Y193498D01*
X98670Y193396D01*
X98764Y193291D01*
X98855Y193184D01*
X98943Y193074D01*
X99028Y192962D01*
X99110Y192847D01*
X99189Y192730D01*
X99264Y192611D01*
X99336Y192490D01*
X99404Y192367D01*
X99469Y192242D01*
X99531Y192115D01*
X99588Y191986D01*
X99643Y191856D01*
X99693Y191725D01*
X99740Y191592D01*
X99783Y191458D01*
X99822Y191322D01*
X99857Y191186D01*
X99889Y191049D01*
X99916Y190911D01*
X99940Y190772D01*
X99960Y190632D01*
X99976Y190492D01*
X99988Y190352D01*
X99996Y190211D01*
X100000Y190070D01*
X100000Y189930D01*
X99996Y189789D01*
X99988Y189648D01*
X99976Y189508D01*
X99960Y189368D01*
X99940Y189228D01*
X99916Y189089D01*
X99889Y188951D01*
X99857Y188814D01*
X99822Y188678D01*
X99783Y188542D01*
X99740Y188408D01*
X99693Y188275D01*
X99643Y188144D01*
X99588Y188014D01*
X99531Y187885D01*
X99469Y187758D01*
X99404Y187633D01*
X99336Y187510D01*
X99264Y187389D01*
X99189Y187270D01*
X99110Y187153D01*
X99028Y187038D01*
X98943Y186926D01*
X98855Y186816D01*
X98764Y186709D01*
X98670Y186604D01*
X98573Y186502D01*
X98473Y186403D01*
X98370Y186306D01*
X98265Y186213D01*
X98157Y186122D01*
X98046Y186035D01*
X97933Y185951D01*
X97818Y185870D01*
X97701Y185792D01*
X97581Y185718D01*
X97459Y185647D01*
X97336Y185579D01*
X97210Y185515D01*
X97083Y185455D01*
X96954Y185398D01*
X96824Y185344D01*
X96692Y185295D01*
X96558Y185249D01*
X96424Y185207D01*
X96288Y185169D01*
X96152Y185134D01*
X96014Y185104D01*
X95876Y185077D01*
X95737Y185055D01*
X95597Y185036D01*
X95457Y185021D01*
X95317Y185010D01*
X95176Y185003D01*
X95035Y185000D01*
X94894Y185001D01*
X94754Y185006D01*
X94613Y185015D01*
X94473Y185028D01*
X94333Y185045D01*
X94193Y185065D01*
X94055Y185090D01*
X93917Y185119D01*
X93780Y185151D01*
X93644Y185187D01*
X93509Y185228D01*
X93375Y185272D01*
X93242Y185319D01*
X93111Y185371D01*
X92981Y185426D01*
X92853Y185484D01*
X92727Y185547D01*
X92602Y185612D01*
X92480Y185682D01*
X92359Y185754D01*
X92240Y185830D01*
X92124Y185910D01*
X92010Y185993D01*
X91898Y186078D01*
X91789Y186167D01*
X91682Y186259D01*
X91578Y186354D01*
X91477Y186452D01*
X91378Y186553D01*
X91283Y186656D01*
X91190Y186762D01*
X91100Y186871D01*
X91014Y186982D01*
X90930Y187095D01*
X90850Y187211D01*
X90773Y187329D01*
X90700Y187449D01*
X90629Y187572D01*
X90563Y187696D01*
X90500Y187822D01*
X90440Y187949D01*
X90384Y188078D01*
X90332Y188209D01*
X90283Y188341D01*
X90238Y188475D01*
X90197Y188610D01*
X90160Y188746D01*
X90126Y188882D01*
X90097Y189020D01*
X90071Y189159D01*
X90050Y189298D01*
X90032Y189438D01*
X90018Y189578D01*
X90008Y189718D01*
X90002Y189859D01*
X90000Y190000D01*
X235000Y180000D02*
X275000Y180000D01*
X235000Y180000D02*
X235000Y270000D01*
X275000Y270000D01*
X275000Y180000D01*
X240000Y190000D02*
X240002Y190141D01*
X240008Y190282D01*
X240018Y190422D01*
X240032Y190562D01*
X240050Y190702D01*
X240071Y190841D01*
X240097Y190980D01*
X240126Y191118D01*
X240160Y191254D01*
X240197Y191390D01*
X240238Y191525D01*
X240283Y191659D01*
X240332Y191791D01*
X240384Y191922D01*
X240440Y192051D01*
X240500Y192178D01*
X240563Y192304D01*
X240629Y192428D01*
X240700Y192551D01*
X240773Y192671D01*
X240850Y192789D01*
X240930Y192905D01*
X241014Y193018D01*
X241100Y193129D01*
X241190Y193238D01*
X241283Y193344D01*
X241378Y193447D01*
X241477Y193548D01*
X241578Y193646D01*
X241682Y193741D01*
X241789Y193833D01*
X241898Y193922D01*
X242010Y194007D01*
X242124Y194090D01*
X242240Y194170D01*
X242359Y194246D01*
X242480Y194318D01*
X242602Y194388D01*
X242727Y194453D01*
X242853Y194516D01*
X242981Y194574D01*
X243111Y194629D01*
X243242Y194681D01*
X243375Y194728D01*
X243509Y194772D01*
X243644Y194813D01*
X243780Y194849D01*
X243917Y194881D01*
X244055Y194910D01*
X244193Y194935D01*
X244333Y194955D01*
X244473Y194972D01*
X244613Y194985D01*
X244754Y194994D01*
X244894Y194999D01*
X245035Y195000D01*
X245176Y194997D01*
X245317Y194990D01*
X245457Y194979D01*
X245597Y194964D01*
X245737Y194945D01*
X245876Y194923D01*
X246014Y194896D01*
X246152Y194866D01*
X246288Y194831D01*
X246424Y194793D01*
X246558Y194751D01*
X246692Y194705D01*
X246824Y194656D01*
X246954Y194602D01*
X247083Y194545D01*
X247210Y194485D01*
X247336Y194421D01*
X247459Y194353D01*
X247581Y194282D01*
X247701Y194208D01*
X247818Y194130D01*
X247933Y194049D01*
X248046Y193965D01*
X248157Y193878D01*
X248265Y193787D01*
X248370Y193694D01*
X248473Y193597D01*
X248573Y193498D01*
X248670Y193396D01*
X248764Y193291D01*
X248855Y193184D01*
X248943Y193074D01*
X249028Y192962D01*
X249110Y192847D01*
X249189Y192730D01*
X249264Y192611D01*
X249336Y192490D01*
X249404Y192367D01*
X249469Y192242D01*
X249531Y192115D01*
X249588Y191986D01*
X249643Y191856D01*
X249693Y191725D01*
X249740Y191592D01*
X249783Y191458D01*
X249822Y191322D01*
X249857Y191186D01*
X249889Y191049D01*
X249916Y190911D01*
X249940Y190772D01*
X249960Y190632D01*
X249976Y190492D01*
X249988Y190352D01*
X249996Y190211D01*
X250000Y190070D01*
X250000Y189930D01*
X249996Y189789D01*
X249988Y189648D01*
X249976Y189508D01*
X249960Y189368D01*
X249940Y189228D01*
X249916Y189089D01*
X249889Y188951D01*
X249857Y188814D01*
X249822Y188678D01*
X249783Y188542D01*
X249740Y188408D01*
X249693Y188275D01*
X249643Y188144D01*
X249588Y188014D01*
X249531Y187885D01*
X249469Y187758D01*
X249404Y187633D01*
X249336Y187510D01*
X249264Y187389D01*
X249189Y187270D01*
X249110Y187153D01*
X249028Y187038D01*
X248943Y186926D01*
X248855Y186816D01*
X248764Y186709D01*
X248670Y186604D01*
X248573Y186502D01*
X248473Y186403D01*
X248370Y186306D01*
X248265Y186213D01*
X248157Y186122D01*
X248046Y186035D01*
X247933Y185951D01*
X247818Y185870D01*
X247701Y185792D01*
X247581Y185718D01*
X247459Y185647D01*
X247336Y185579D01*
X247210Y185515D01*
X247083Y185455D01*
X246954Y185398D01*
X246824Y185344D01*
X246692Y185295D01*
X246558Y185249D01*
X246424Y185207D01*
X246288Y185169D01*
X246152Y185134D01*
X246014Y185104D01*
X245876Y185077D01*
X245737Y185055D01*
X245597Y185036D01*
X245457Y185021D01*
X245317Y185010D01*
X245176Y185003D01*
X245035Y185000D01*
X244894Y185001D01*
X244754Y185006D01*
X244613Y185015D01*
X244473Y185028D01*
X244333Y185045D01*
X244193Y185065D01*
X244055Y185090D01*
X243917Y185119D01*
X243780Y185151D01*
X243644Y185187D01*
X243509Y185228D01*
X243375Y185272D01*
X243242Y185319D01*
X243111Y185371D01*
X242981Y185426D01*
X242853Y185484D01*
X242727Y185547D01*
X242602Y185612D01*
X242480Y185682D01*
X242359Y185754D01*
X242240Y185830D01*
X242124Y185910D01*
X242010Y185993D01*
X241898Y186078D01*
X241789Y186167D01*
X241682Y186259D01*
X241578Y186354D01*
X241477Y186452D01*
X241378Y186553D01*
X241283Y186656D01*
X241190Y186762D01*
X241100Y186871D01*
X241014Y186982D01*
X240930Y187095D01*
X240850Y187211D01*
X240773Y187329D01*
X240700Y187449D01*
X240629Y187572D01*
X240563Y187696D01*
X240500Y187822D01*
X240440Y187949D01*
X240384Y188078D01*
X240332Y188209D01*
X240283Y188341D01*
X240238Y188475D01*
X240197Y188610D01*
X240160Y188746D01*
X240126Y188882D01*
X240097Y189020D01*
X240071Y189159D01*
X240050Y189298D01*
X240032Y189438D01*
X240018Y189578D01*
X240008Y189718D01*
X240002Y189859D01*
X240000Y190000D01*
D11*
X167792Y202345D02*
X156108Y202345D01*
X167792Y202345D02*
X167792Y205590D01*
X167790Y205703D01*
X167784Y205816D01*
X167774Y205929D01*
X167760Y206042D01*
X167743Y206154D01*
X167721Y206265D01*
X167696Y206375D01*
X167666Y206485D01*
X167633Y206593D01*
X167596Y206700D01*
X167556Y206806D01*
X167511Y206910D01*
X167463Y207013D01*
X167412Y207114D01*
X167357Y207213D01*
X167299Y207310D01*
X167237Y207405D01*
X167172Y207498D01*
X167104Y207588D01*
X167033Y207676D01*
X166958Y207762D01*
X166881Y207845D01*
X166801Y207925D01*
X166718Y208002D01*
X166632Y208077D01*
X166544Y208148D01*
X166454Y208216D01*
X166361Y208281D01*
X166266Y208343D01*
X166169Y208401D01*
X166070Y208456D01*
X165969Y208507D01*
X165866Y208555D01*
X165762Y208600D01*
X165656Y208640D01*
X165549Y208677D01*
X165441Y208710D01*
X165331Y208740D01*
X165221Y208765D01*
X165110Y208787D01*
X164998Y208804D01*
X164885Y208818D01*
X164772Y208828D01*
X164659Y208834D01*
X164546Y208836D01*
X164433Y208834D01*
X164320Y208828D01*
X164207Y208818D01*
X164094Y208804D01*
X163982Y208787D01*
X163871Y208765D01*
X163761Y208740D01*
X163651Y208710D01*
X163543Y208677D01*
X163436Y208640D01*
X163330Y208600D01*
X163226Y208555D01*
X163123Y208507D01*
X163022Y208456D01*
X162923Y208401D01*
X162826Y208343D01*
X162731Y208281D01*
X162638Y208216D01*
X162548Y208148D01*
X162460Y208077D01*
X162374Y208002D01*
X162291Y207925D01*
X162211Y207845D01*
X162134Y207762D01*
X162059Y207676D01*
X161988Y207588D01*
X161920Y207498D01*
X161855Y207405D01*
X161793Y207310D01*
X161735Y207213D01*
X161680Y207114D01*
X161629Y207013D01*
X161581Y206910D01*
X161536Y206806D01*
X161496Y206700D01*
X161459Y206593D01*
X161426Y206485D01*
X161396Y206375D01*
X161371Y206265D01*
X161349Y206154D01*
X161332Y206042D01*
X161318Y205929D01*
X161308Y205816D01*
X161302Y205703D01*
X161300Y205590D01*
X161301Y205590D02*
X161301Y202345D01*
X161301Y206239D02*
X156108Y208836D01*
X164871Y220192D02*
X164978Y220190D01*
X165084Y220184D01*
X165190Y220174D01*
X165296Y220161D01*
X165402Y220143D01*
X165506Y220122D01*
X165610Y220097D01*
X165713Y220068D01*
X165814Y220036D01*
X165914Y219999D01*
X166013Y219959D01*
X166111Y219916D01*
X166207Y219869D01*
X166301Y219818D01*
X166393Y219764D01*
X166483Y219707D01*
X166571Y219647D01*
X166656Y219583D01*
X166739Y219516D01*
X166820Y219446D01*
X166898Y219374D01*
X166974Y219298D01*
X167046Y219220D01*
X167116Y219139D01*
X167183Y219056D01*
X167247Y218971D01*
X167307Y218883D01*
X167364Y218793D01*
X167418Y218701D01*
X167469Y218607D01*
X167516Y218511D01*
X167559Y218413D01*
X167599Y218314D01*
X167636Y218214D01*
X167668Y218113D01*
X167697Y218010D01*
X167722Y217906D01*
X167743Y217802D01*
X167761Y217696D01*
X167774Y217590D01*
X167784Y217484D01*
X167790Y217378D01*
X167792Y217271D01*
X167790Y217150D01*
X167784Y217029D01*
X167774Y216909D01*
X167761Y216788D01*
X167743Y216669D01*
X167722Y216549D01*
X167697Y216431D01*
X167668Y216314D01*
X167635Y216197D01*
X167599Y216082D01*
X167558Y215968D01*
X167515Y215855D01*
X167467Y215743D01*
X167416Y215634D01*
X167361Y215526D01*
X167303Y215419D01*
X167242Y215315D01*
X167177Y215213D01*
X167109Y215113D01*
X167038Y215015D01*
X166964Y214919D01*
X166887Y214826D01*
X166806Y214736D01*
X166723Y214648D01*
X166637Y214563D01*
X166548Y214480D01*
X166457Y214401D01*
X166363Y214324D01*
X166267Y214251D01*
X166169Y214181D01*
X166068Y214114D01*
X165965Y214050D01*
X165860Y213990D01*
X165753Y213933D01*
X165645Y213879D01*
X165535Y213829D01*
X165423Y213783D01*
X165310Y213740D01*
X165195Y213701D01*
X162599Y219219D02*
X162676Y219298D01*
X162757Y219374D01*
X162840Y219447D01*
X162925Y219517D01*
X163013Y219584D01*
X163103Y219648D01*
X163195Y219708D01*
X163290Y219765D01*
X163386Y219819D01*
X163484Y219870D01*
X163584Y219917D01*
X163686Y219961D01*
X163789Y220001D01*
X163893Y220037D01*
X163999Y220069D01*
X164105Y220098D01*
X164213Y220123D01*
X164321Y220145D01*
X164431Y220162D01*
X164540Y220176D01*
X164650Y220185D01*
X164761Y220191D01*
X164871Y220193D01*
X162599Y219218D02*
X156108Y213701D01*
X156108Y220192D01*
X342208Y159808D02*
X353892Y159808D01*
X353892Y163054D01*
X353890Y163167D01*
X353884Y163280D01*
X353874Y163393D01*
X353860Y163506D01*
X353843Y163618D01*
X353821Y163729D01*
X353796Y163839D01*
X353766Y163949D01*
X353733Y164057D01*
X353696Y164164D01*
X353656Y164270D01*
X353611Y164374D01*
X353563Y164477D01*
X353512Y164578D01*
X353457Y164677D01*
X353399Y164774D01*
X353337Y164869D01*
X353272Y164962D01*
X353204Y165052D01*
X353133Y165140D01*
X353058Y165226D01*
X352981Y165309D01*
X352901Y165389D01*
X352818Y165466D01*
X352732Y165541D01*
X352644Y165612D01*
X352554Y165680D01*
X352461Y165745D01*
X352366Y165807D01*
X352269Y165865D01*
X352170Y165920D01*
X352069Y165971D01*
X351966Y166019D01*
X351862Y166064D01*
X351756Y166104D01*
X351649Y166141D01*
X351541Y166174D01*
X351431Y166204D01*
X351321Y166229D01*
X351210Y166251D01*
X351098Y166268D01*
X350985Y166282D01*
X350872Y166292D01*
X350759Y166298D01*
X350646Y166300D01*
X350533Y166298D01*
X350420Y166292D01*
X350307Y166282D01*
X350194Y166268D01*
X350082Y166251D01*
X349971Y166229D01*
X349861Y166204D01*
X349751Y166174D01*
X349643Y166141D01*
X349536Y166104D01*
X349430Y166064D01*
X349326Y166019D01*
X349223Y165971D01*
X349122Y165920D01*
X349023Y165865D01*
X348926Y165807D01*
X348831Y165745D01*
X348738Y165680D01*
X348648Y165612D01*
X348560Y165541D01*
X348474Y165466D01*
X348391Y165389D01*
X348311Y165309D01*
X348234Y165226D01*
X348159Y165140D01*
X348088Y165052D01*
X348020Y164962D01*
X347955Y164869D01*
X347893Y164774D01*
X347835Y164677D01*
X347780Y164578D01*
X347729Y164477D01*
X347681Y164374D01*
X347636Y164270D01*
X347596Y164164D01*
X347559Y164057D01*
X347526Y163949D01*
X347496Y163839D01*
X347471Y163729D01*
X347449Y163618D01*
X347432Y163506D01*
X347418Y163393D01*
X347408Y163280D01*
X347402Y163167D01*
X347400Y163054D01*
X347401Y163054D02*
X347401Y159808D01*
X347401Y163703D02*
X342208Y166299D01*
X342208Y171164D02*
X342208Y174410D01*
X342210Y174523D01*
X342216Y174636D01*
X342226Y174749D01*
X342240Y174862D01*
X342257Y174974D01*
X342279Y175085D01*
X342304Y175195D01*
X342334Y175305D01*
X342367Y175413D01*
X342404Y175520D01*
X342444Y175626D01*
X342489Y175730D01*
X342537Y175833D01*
X342588Y175934D01*
X342643Y176033D01*
X342701Y176130D01*
X342763Y176225D01*
X342828Y176318D01*
X342896Y176408D01*
X342967Y176496D01*
X343042Y176582D01*
X343119Y176665D01*
X343199Y176745D01*
X343282Y176822D01*
X343368Y176897D01*
X343456Y176968D01*
X343546Y177036D01*
X343639Y177101D01*
X343734Y177163D01*
X343831Y177221D01*
X343930Y177276D01*
X344031Y177327D01*
X344134Y177375D01*
X344238Y177420D01*
X344344Y177460D01*
X344451Y177497D01*
X344559Y177530D01*
X344669Y177560D01*
X344779Y177585D01*
X344890Y177607D01*
X345002Y177624D01*
X345115Y177638D01*
X345228Y177648D01*
X345341Y177654D01*
X345454Y177656D01*
X345567Y177654D01*
X345680Y177648D01*
X345793Y177638D01*
X345906Y177624D01*
X346018Y177607D01*
X346129Y177585D01*
X346239Y177560D01*
X346349Y177530D01*
X346457Y177497D01*
X346564Y177460D01*
X346670Y177420D01*
X346774Y177375D01*
X346877Y177327D01*
X346978Y177276D01*
X347077Y177221D01*
X347174Y177163D01*
X347269Y177101D01*
X347362Y177036D01*
X347452Y176968D01*
X347540Y176897D01*
X347626Y176822D01*
X347709Y176745D01*
X347789Y176665D01*
X347866Y176582D01*
X347941Y176496D01*
X348012Y176408D01*
X348080Y176318D01*
X348145Y176225D01*
X348207Y176130D01*
X348265Y176033D01*
X348320Y175934D01*
X348371Y175833D01*
X348419Y175730D01*
X348464Y175626D01*
X348504Y175520D01*
X348541Y175413D01*
X348574Y175305D01*
X348604Y175195D01*
X348629Y175085D01*
X348651Y174974D01*
X348668Y174862D01*
X348682Y174749D01*
X348692Y174636D01*
X348698Y174523D01*
X348700Y174410D01*
X353892Y175059D02*
X353892Y171164D01*
X353892Y175059D02*
X353890Y175160D01*
X353884Y175260D01*
X353874Y175360D01*
X353861Y175460D01*
X353843Y175559D01*
X353822Y175658D01*
X353797Y175755D01*
X353768Y175852D01*
X353735Y175947D01*
X353699Y176041D01*
X353659Y176133D01*
X353616Y176224D01*
X353569Y176313D01*
X353519Y176400D01*
X353465Y176486D01*
X353408Y176569D01*
X353348Y176649D01*
X353285Y176728D01*
X353218Y176804D01*
X353149Y176877D01*
X353077Y176947D01*
X353003Y177015D01*
X352926Y177080D01*
X352846Y177141D01*
X352764Y177200D01*
X352680Y177255D01*
X352594Y177307D01*
X352506Y177356D01*
X352416Y177401D01*
X352324Y177443D01*
X352231Y177481D01*
X352136Y177515D01*
X352041Y177546D01*
X351944Y177573D01*
X351846Y177596D01*
X351747Y177616D01*
X351647Y177631D01*
X351547Y177643D01*
X351447Y177651D01*
X351346Y177655D01*
X351246Y177655D01*
X351145Y177651D01*
X351045Y177643D01*
X350945Y177631D01*
X350845Y177616D01*
X350746Y177596D01*
X350648Y177573D01*
X350551Y177546D01*
X350456Y177515D01*
X350361Y177481D01*
X350268Y177443D01*
X350176Y177401D01*
X350086Y177356D01*
X349998Y177307D01*
X349912Y177255D01*
X349828Y177200D01*
X349746Y177141D01*
X349666Y177080D01*
X349589Y177015D01*
X349515Y176947D01*
X349443Y176877D01*
X349374Y176804D01*
X349307Y176728D01*
X349244Y176649D01*
X349184Y176569D01*
X349127Y176486D01*
X349073Y176400D01*
X349023Y176313D01*
X348976Y176224D01*
X348933Y176133D01*
X348893Y176041D01*
X348857Y175947D01*
X348824Y175852D01*
X348795Y175755D01*
X348770Y175658D01*
X348749Y175559D01*
X348731Y175460D01*
X348718Y175360D01*
X348708Y175260D01*
X348702Y175160D01*
X348700Y175059D01*
X348699Y175059D02*
X348699Y172463D01*
M02*
