G04 EAGLE Gerber RS-274X export*
G75*
%MOMM*%
%FSLAX34Y34*%
%LPD*%
%INSoldermask Bottom*%
%IPPOS*%
%AMOC8*
5,1,8,0,0,1.08239X$1,22.5*%
G01*
%ADD10P,1.869504X8X22.500000*%
%ADD11C,1.727200*%
%ADD12R,1.703200X0.603200*%
%ADD13R,2.006200X1.803200*%
%ADD14C,0.959600*%


D10*
X14500Y74700D03*
X39900Y74700D03*
X65300Y74700D03*
X90700Y74700D03*
X116100Y74700D03*
X141500Y74700D03*
X166900Y74700D03*
X192300Y74700D03*
X217700Y74700D03*
X243100Y74700D03*
X268500Y74700D03*
X293900Y74700D03*
X319300Y74700D03*
X344700Y74700D03*
X370100Y74700D03*
X395500Y74700D03*
X14500Y124700D03*
X39900Y124700D03*
X65300Y124700D03*
X90700Y124700D03*
X116100Y124700D03*
X141500Y124700D03*
X166900Y124700D03*
X192300Y124700D03*
X217700Y124700D03*
X243100Y124700D03*
X268500Y124700D03*
X293900Y124700D03*
X319300Y124700D03*
X344700Y124700D03*
X370100Y124700D03*
X395500Y124700D03*
X14500Y324700D03*
X39900Y324700D03*
X65300Y324700D03*
X90700Y324700D03*
X116100Y324700D03*
X141500Y324700D03*
X166900Y324700D03*
X192300Y324700D03*
X217700Y324700D03*
X243100Y324700D03*
X268500Y324700D03*
X293900Y324700D03*
X319300Y324700D03*
X344700Y324700D03*
X370100Y324700D03*
X395500Y324700D03*
X14500Y374700D03*
X39900Y374700D03*
X65300Y374700D03*
X90700Y374700D03*
X116100Y374700D03*
X141500Y374700D03*
X166900Y374700D03*
X192300Y374700D03*
X217700Y374700D03*
X243100Y374700D03*
X268500Y374700D03*
X293900Y374700D03*
X319300Y374700D03*
X344700Y374700D03*
X370100Y374700D03*
X395500Y374700D03*
X311900Y18700D03*
X337300Y18700D03*
X362700Y18700D03*
X388100Y18700D03*
X311900Y431700D03*
X337300Y431700D03*
X362700Y431700D03*
X388100Y431700D03*
D11*
X220000Y301200D03*
X245400Y301200D03*
X270800Y301200D03*
X296200Y301200D03*
X321600Y301200D03*
X347000Y301200D03*
X194600Y301200D03*
X169200Y301200D03*
X143800Y301200D03*
X118400Y301200D03*
X93000Y301200D03*
X67600Y301200D03*
X42200Y301200D03*
X372400Y301200D03*
X397800Y301200D03*
X220000Y148800D03*
X194600Y148800D03*
X169200Y148800D03*
X143800Y148800D03*
X118400Y148800D03*
X93000Y148800D03*
X245400Y148800D03*
X270800Y148800D03*
X296200Y148800D03*
X321600Y148800D03*
X347000Y148800D03*
X372400Y148800D03*
X397800Y148800D03*
X67600Y148800D03*
X42200Y148800D03*
D12*
X78260Y190086D03*
X78260Y196436D03*
X78260Y202786D03*
X78260Y209136D03*
X78260Y215486D03*
X78260Y221836D03*
X78260Y228186D03*
X78260Y234536D03*
X78260Y240886D03*
X78260Y247236D03*
X78260Y253586D03*
X78260Y259936D03*
X132235Y259936D03*
X132235Y253586D03*
X132235Y247236D03*
X132235Y240886D03*
X132235Y234536D03*
X132235Y228186D03*
X132235Y221836D03*
X132235Y215486D03*
X132235Y209136D03*
X132235Y202786D03*
X132235Y196436D03*
X132235Y190086D03*
X228260Y190086D03*
X228260Y196436D03*
X228260Y202786D03*
X228260Y209136D03*
X228260Y215486D03*
X228260Y221836D03*
X228260Y228186D03*
X228260Y234536D03*
X228260Y240886D03*
X228260Y247236D03*
X228260Y253586D03*
X228260Y259936D03*
X282235Y259936D03*
X282235Y253586D03*
X282235Y247236D03*
X282235Y240886D03*
X282235Y234536D03*
X282235Y228186D03*
X282235Y221836D03*
X282235Y215486D03*
X282235Y209136D03*
X282235Y202786D03*
X282235Y196436D03*
X282235Y190086D03*
D13*
X180000Y175780D03*
X180000Y204220D03*
X330000Y175780D03*
X330000Y204220D03*
D14*
X27500Y203000D03*
X51500Y246500D03*
X211000Y252252D03*
X195860Y253760D03*
X215174Y208986D03*
X35500Y209000D03*
X210356Y243418D03*
X370000Y193250D03*
X281300Y175400D03*
X133720Y183012D03*
X132400Y271300D03*
X166300Y194000D03*
X158800Y240000D03*
X180000Y175780D03*
X330000Y175780D03*
X330000Y274220D03*
X180000Y274220D03*
X158404Y213098D03*
X370000Y180550D03*
X430000Y193250D03*
X217910Y266388D03*
X210500Y277252D03*
X71080Y174152D03*
X300700Y240350D03*
X308100Y218600D03*
X308800Y204300D03*
X338700Y219700D03*
X246300Y192100D03*
X246600Y183400D03*
X236800Y182800D03*
X228100Y182600D03*
X307200Y246400D03*
X314100Y240800D03*
X400300Y248600D03*
X400500Y238500D03*
X400700Y228300D03*
X401100Y217100D03*
X401400Y206700D03*
X300000Y400000D03*
X320000Y400000D03*
X340000Y400000D03*
X360000Y400000D03*
X380000Y400000D03*
X69514Y182986D03*
X165600Y207900D03*
X200000Y196100D03*
X231800Y271200D03*
M02*
