G04 EAGLE Gerber RS-274X export*
G75*
%MOMM*%
%FSLAX34Y34*%
%LPD*%
%INSolderpaste Top*%
%IPPOS*%
%AMOC8*
5,1,8,0,0,1.08239X$1,22.5*%
G01*
%ADD10R,1.500000X0.400000*%
%ADD11R,1.200000X0.800000*%
%ADD12R,1.803000X1.600000*%


D10*
X78260Y259914D03*
X78260Y253564D03*
X78260Y247214D03*
X78260Y240864D03*
X78260Y234514D03*
X78260Y228164D03*
X78260Y221814D03*
X78260Y215464D03*
X78260Y209114D03*
X78260Y202764D03*
X78260Y196414D03*
X78260Y190064D03*
X132235Y190064D03*
X132235Y196414D03*
X132235Y202764D03*
X132235Y209114D03*
X132235Y215464D03*
X132235Y221814D03*
X132235Y228164D03*
X132235Y234514D03*
X132235Y240864D03*
X132235Y247214D03*
X132235Y253564D03*
X132235Y259914D03*
X228260Y259914D03*
X228260Y253564D03*
X228260Y247214D03*
X228260Y240864D03*
X228260Y234514D03*
X228260Y228164D03*
X228260Y221814D03*
X228260Y215464D03*
X228260Y209114D03*
X228260Y202764D03*
X228260Y196414D03*
X228260Y190064D03*
X282235Y190064D03*
X282235Y196414D03*
X282235Y202764D03*
X282235Y209114D03*
X282235Y215464D03*
X282235Y221814D03*
X282235Y228164D03*
X282235Y234514D03*
X282235Y240864D03*
X282235Y247214D03*
X282235Y253564D03*
X282235Y259914D03*
D11*
X370000Y269450D03*
X370000Y256750D03*
X370000Y244050D03*
X370000Y231350D03*
X370000Y218650D03*
X370000Y205950D03*
X370000Y193250D03*
X370000Y180550D03*
X430000Y180550D03*
X430000Y193250D03*
X430000Y205950D03*
X430000Y218650D03*
X430000Y231350D03*
X430000Y244050D03*
X430000Y256750D03*
X430000Y269450D03*
D12*
X180000Y274220D03*
X180000Y245780D03*
X330000Y274220D03*
X330000Y245780D03*
M02*
