G04 EAGLE Gerber RS-274X export*
G75*
%MOMM*%
%FSLAX34Y34*%
%LPD*%
%INSolderpaste Bottom*%
%IPPOS*%
%AMOC8*
5,1,8,0,0,1.08239X$1,22.5*%
G01*
%ADD10R,1.500000X0.400000*%
%ADD11R,1.803000X1.600000*%


D10*
X78260Y190086D03*
X78260Y196436D03*
X78260Y202786D03*
X78260Y209136D03*
X78260Y215486D03*
X78260Y221836D03*
X78260Y228186D03*
X78260Y234536D03*
X78260Y240886D03*
X78260Y247236D03*
X78260Y253586D03*
X78260Y259936D03*
X132235Y259936D03*
X132235Y253586D03*
X132235Y247236D03*
X132235Y240886D03*
X132235Y234536D03*
X132235Y228186D03*
X132235Y221836D03*
X132235Y215486D03*
X132235Y209136D03*
X132235Y202786D03*
X132235Y196436D03*
X132235Y190086D03*
X228260Y190086D03*
X228260Y196436D03*
X228260Y202786D03*
X228260Y209136D03*
X228260Y215486D03*
X228260Y221836D03*
X228260Y228186D03*
X228260Y234536D03*
X228260Y240886D03*
X228260Y247236D03*
X228260Y253586D03*
X228260Y259936D03*
X282235Y259936D03*
X282235Y253586D03*
X282235Y247236D03*
X282235Y240886D03*
X282235Y234536D03*
X282235Y228186D03*
X282235Y221836D03*
X282235Y215486D03*
X282235Y209136D03*
X282235Y202786D03*
X282235Y196436D03*
X282235Y190086D03*
D11*
X180000Y175780D03*
X180000Y204220D03*
X330000Y175780D03*
X330000Y204220D03*
M02*
