M48
;GenerationSoftware,Autodesk,EAGLE,9.6.2*%
;CreationDate,2023-06-02T13:31:15Z*%
FMAT,2
ICI,OFF
METRIC,TZ,000.000
T2C0.350
T1C1.016
%
G90
M71
T1
X19230Y37470
X21770Y37470
X24310Y37470
X26850Y37470
X29390Y37470
X31930Y37470
X34470Y37470
X37010Y37470
X39550Y37470
X31190Y1870
X33730Y1870
X36270Y1870
X38810Y1870
X31190Y43170
X33730Y43170
X36270Y43170
X38810Y43170
X22000Y30120
X29390Y12470
X24540Y30120
X27080Y30120
X29620Y30120
X32160Y30120
X34700Y30120
X19460Y30120
X16920Y30120
X14380Y30120
X11840Y30120
X9300Y30120
X4220Y30120
X37240Y30120
X39780Y30120
X22000Y14880
X19460Y14880
X16920Y14880
X14380Y14880
X11840Y14880
X9300Y14880
X24540Y14880
X27080Y14880
X29620Y14880
X32160Y14880
X34700Y14880
X37240Y14880
X39780Y14880
X6760Y14880
X4220Y14880
X1450Y7470
X3990Y7470
X6530Y7470
X9070Y7470
X11610Y7470
X14150Y7470
X16690Y7470
X19230Y7470
X21770Y7470
X24310Y7470
X26850Y7470
X29390Y7470
X31930Y7470
X34470Y7470
X37010Y7470
X39550Y7470
X1450Y12470
X3990Y12470
X6530Y12470
X9070Y12470
X11610Y12470
X14150Y12470
X16690Y12470
X19230Y12470
X21770Y12470
X24310Y12470
X26850Y12470
X6760Y30120
X31930Y12470
X34470Y12470
X37010Y12470
X39550Y12470
X1450Y32470
X3990Y32470
X6530Y32470
X9070Y32470
X11610Y32470
X14150Y32470
X16690Y32470
X19230Y32470
X21770Y32470
X24310Y32470
X26850Y32470
X29390Y32470
X31930Y32470
X34470Y32470
X37010Y32470
X39550Y32470
X1450Y37470
X3990Y37470
X6530Y37470
X9070Y37470
X11610Y37470
X14150Y37470
X16690Y37470
T2
X2750Y20300
X5150Y24650
X21100Y25225
X19586Y25376
X21517Y20899
X3550Y20900
X21036Y24342
X37000Y19325
X28130Y17540
X13372Y18301
X13240Y27130
X16630Y19400
X15880Y24000
X18000Y17578
X33000Y17578
X33000Y27422
X18000Y27422
X15840Y21310
X43000Y19325
X21791Y26639
X21050Y27725
X7108Y17415
X30070Y24035
X30810Y21860
X30880Y20430
X33870Y21970
X24630Y19210
X24660Y18340
X23680Y18280
X22810Y18260
X30720Y24640
X31410Y24080
X40030Y24860
X40050Y23850
X40070Y22830
X40110Y21710
X40140Y20670
X30000Y40000
X32000Y40000
X34000Y40000
X36000Y40000
X38000Y40000
X6951Y18299
X16560Y20790
X20000Y19610
X23180Y27120
X37000Y18055
M30